<svg width="70" height="70" viewBox="0 0 70 70" fill="none" xmlns="http://www.w3.org/2000/svg">
<g clip-path="url(#clip0_1216_196)">
<path d="M35.0001 9.80656C34.4168 9.80656 33.9438 9.33365 33.9438 8.75027V4.37514C33.9438 3.79162 34.4168 3.31885 35.0001 3.31885C35.5835 3.31885 36.0564 3.79176 36.0564 4.37514V8.75014C36.0566 9.33365 35.5835 9.80656 35.0001 9.80656Z" fill="#E9F1FF"/>
<path d="M35.0001 66.6814C34.4168 66.6814 33.9438 66.2085 33.9438 65.6251V61.2501C33.9438 60.6666 34.4168 60.1938 35.0001 60.1938C35.5835 60.1938 36.0564 60.6668 36.0564 61.2501V65.6251C36.0566 66.2085 35.5835 66.6814 35.0001 66.6814Z" fill="#E9F1FF"/>
<path d="M16.4385 17.4948C16.1682 17.4948 15.8977 17.3916 15.6916 17.1854L12.598 14.0919C12.1854 13.6793 12.1854 13.0104 12.598 12.5978C13.0105 12.1855 13.6795 12.1855 14.092 12.5978L17.1855 15.6914C17.5981 16.104 17.5981 16.7728 17.1855 17.1854C16.9792 17.3916 16.7088 17.4948 16.4385 17.4948Z" fill="#E9F1FF"/>
<path d="M56.6553 57.7118C56.385 57.7118 56.1145 57.6085 55.9084 57.4024L52.8148 54.3087C52.4022 53.8961 52.4022 53.2272 52.8148 52.8146C53.2273 52.4023 53.8963 52.4023 54.3088 52.8146L57.4023 55.9083C57.8149 56.3209 57.8149 56.9897 57.4023 57.4024C57.196 57.6085 56.9256 57.7118 56.6553 57.7118Z" fill="#E9F1FF"/>
<path d="M8.75014 36.0564H4.37514C3.79176 36.0564 3.31885 35.5835 3.31885 35.0001C3.31885 34.4168 3.79176 33.9438 4.37514 33.9438H8.75014C9.33352 33.9438 9.80643 34.4168 9.80643 35.0001C9.80643 35.5835 9.33352 36.0564 8.75014 36.0564Z" fill="#E9F1FF"/>
<path d="M65.6251 36.0564H61.2501C60.6668 36.0564 60.1938 35.5835 60.1938 35.0001C60.1938 34.4168 60.6668 33.9438 61.2501 33.9438H65.6251C66.2085 33.9438 66.6814 34.4168 66.6814 35.0001C66.6814 35.5835 66.2085 36.0564 65.6251 36.0564Z" fill="#E9F1FF"/>
<path d="M13.3449 57.7118C13.0746 57.7118 12.8042 57.6085 12.598 57.4024C12.1854 56.9897 12.1854 56.3209 12.598 55.9083L15.6916 52.8146C16.1041 52.4023 16.773 52.4023 17.1855 52.8146C17.5981 53.2272 17.5981 53.8961 17.1855 54.3087L14.092 57.4024C13.8857 57.6085 13.6154 57.7118 13.3449 57.7118Z" fill="#E9F1FF"/>
<path d="M53.5617 17.4948C53.2914 17.4948 53.021 17.3916 52.8148 17.1854C52.4022 16.7728 52.4022 16.104 52.8148 15.6914L55.9084 12.5978C56.321 12.1855 56.9898 12.1855 57.4023 12.5978C57.8149 13.0104 57.8149 13.6793 57.4023 14.0919L54.3088 17.1854C54.1025 17.3916 53.832 17.4948 53.5617 17.4948Z" fill="#E9F1FF"/>
<path d="M67.8125 37.1875C69.0206 37.1875 70 36.2081 70 35C70 33.7919 69.0206 32.8125 67.8125 32.8125C66.6044 32.8125 65.625 33.7919 65.625 35C65.625 36.2081 66.6044 37.1875 67.8125 37.1875Z" fill="#49D690"/>
<path d="M58.2021 60.3896C59.4103 60.3896 60.3896 59.4103 60.3896 58.2021C60.3896 56.994 59.4103 56.0146 58.2021 56.0146C56.994 56.0146 56.0146 56.994 56.0146 58.2021C56.0146 59.4103 56.994 60.3896 58.2021 60.3896Z" fill="#FED44C"/>
<path d="M35 70C36.2081 70 37.1875 69.0206 37.1875 67.8125C37.1875 66.6044 36.2081 65.625 35 65.625C33.7919 65.625 32.8125 66.6044 32.8125 67.8125C32.8125 69.0206 33.7919 70 35 70Z" fill="#FD4754"/>
<path d="M35 4.375C36.2081 4.375 37.1875 3.39562 37.1875 2.1875C37.1875 0.979377 36.2081 0 35 0C33.7919 0 32.8125 0.979377 32.8125 2.1875C32.8125 3.39562 33.7919 4.375 35 4.375Z" fill="#FD4754"/>
<path d="M11.7979 13.9854C13.006 13.9854 13.9854 13.006 13.9854 11.7979C13.9854 10.5897 13.006 9.61035 11.7979 9.61035C10.5897 9.61035 9.61035 10.5897 9.61035 11.7979C9.61035 13.006 10.5897 13.9854 11.7979 13.9854Z" fill="#FED44C"/>
<path d="M2.1875 37.1875C3.39562 37.1875 4.375 36.2081 4.375 35C4.375 33.7919 3.39562 32.8125 2.1875 32.8125C0.979377 32.8125 0 33.7919 0 35C0 36.2081 0.979377 37.1875 2.1875 37.1875Z" fill="#49D690"/>
<path d="M11.7979 60.3896C13.006 60.3896 13.9854 59.4103 13.9854 58.2021C13.9854 56.994 13.006 56.0146 11.7979 56.0146C10.5897 56.0146 9.61035 56.994 9.61035 58.2021C9.61035 59.4103 10.5897 60.3896 11.7979 60.3896Z" fill="#3D5B54"/>
<path d="M58.2021 13.9854C59.4103 13.9854 60.3896 13.006 60.3896 11.7979C60.3896 10.5897 59.4103 9.61035 58.2021 9.61035C56.994 9.61035 56.0146 10.5897 56.0146 11.7979C56.0146 13.006 56.994 13.9854 58.2021 13.9854Z" fill="#3D5B54"/>
<path d="M59.8417 38.5239V31.4761L53.9033 29.9436C53.3958 27.8981 52.5893 25.9711 51.5297 24.2129L54.645 18.9304L51.0699 15.3552L48.412 15.5142L46.2849 16.7686C45.9822 16.9471 45.6073 16.9512 45.3015 16.778C44.7327 16.4559 44.1473 16.1599 43.547 15.8912C42.4318 15.3923 39.8563 14.9882 38.6481 14.6884L37.1156 10.1585L34.2988 8.75H32.2401C31.7904 8.75 31.3977 9.0542 31.2854 9.48951L30.088 14.1292C30.0003 14.4687 29.7392 14.7372 29.4012 14.8307C27.7415 15.2902 26.1643 15.9478 24.6974 16.7787C24.3921 16.9516 24.0175 16.9468 23.7152 16.7686L19.5881 14.3347C19.2008 14.1062 18.708 14.1688 18.3902 14.4867L14.4867 18.3902C14.1688 18.708 14.1062 19.2009 14.3347 19.5881L16.7686 23.7152C16.9468 24.0175 16.9516 24.392 16.7787 24.6974C15.948 26.1641 15.2902 27.7413 14.8307 29.4011C14.7372 29.7391 14.4687 30.0002 14.1292 30.0878L9.48951 31.2852C9.0542 31.3976 8.75 31.7903 8.75 32.2399V37.7602C8.75 38.2099 9.0542 38.6025 9.48951 38.7149L14.1292 39.9123C14.4687 39.9999 14.7372 40.2611 14.8307 40.599C15.2902 42.2588 15.948 43.836 16.7787 45.3027C16.9516 45.608 16.9468 45.9826 16.7686 46.2849L14.3347 50.412C14.1062 50.7994 14.1688 51.2921 14.4867 51.61L18.3902 55.5134C18.708 55.8313 19.2009 55.8939 19.5881 55.6655L23.7152 53.2316C24.0175 53.0533 24.392 53.0485 24.6974 53.2215C26.1641 54.0523 27.7413 54.7099 29.4012 55.1694C29.7392 55.2629 30.0003 55.5315 30.088 55.8709L31.2854 60.5106C31.3977 60.9459 31.7904 61.2501 32.2401 61.2501H34.2988L37.1157 59.8417L38.6482 55.3118C39.8564 55.0119 42.4319 54.6078 43.5471 54.1089C44.1474 53.8404 44.7329 53.5443 45.3016 53.2221C45.6075 53.0489 45.9823 53.053 46.285 53.2316L48.4122 54.4861L51.0702 54.6451L54.6453 51.0701L51.53 45.7875C52.5896 44.0293 53.3959 42.1023 53.9036 40.0567L59.8417 38.5239Z" fill="#99E6FC"/>
<path d="M42.6109 16.4434L43.547 15.8914C42.5992 15.4673 41.614 15.1118 40.5979 14.8306C40.2603 14.7372 39.9997 14.4684 39.9122 14.1293L38.715 9.48979C38.6027 9.0542 38.2101 8.75 37.7604 8.75H34.2988L35.5271 13.5096C35.7109 14.2215 36.2523 14.7841 36.9547 15.0008C38.2056 15.3865 39.4065 15.8858 40.5452 16.4875C41.1959 16.8313 41.977 16.8172 42.6109 16.4434Z" fill="#62DBFB"/>
<path d="M40.5451 53.5126C39.4065 54.1143 38.2056 54.6136 36.9546 54.9993C36.2521 55.2159 35.7107 55.7786 35.527 56.4905L34.2988 61.2501H37.7604C38.2101 61.2501 38.6027 60.9459 38.7151 60.5106L39.9124 55.871C39.9999 55.5318 40.2604 55.2632 40.598 55.1698C41.6141 54.8886 42.5993 54.533 43.5472 54.109L42.6109 53.5569C41.977 53.1829 41.1959 53.1688 40.5451 53.5126Z" fill="#62DBFB"/>
<path d="M61.2503 37.76V32.2397C61.2503 31.7901 60.9461 31.3974 60.5108 31.285L55.8711 30.0876C55.5316 30 55.2631 29.7389 55.1696 29.4009C54.7101 27.7411 54.0523 26.1639 53.2216 24.6972C53.0487 24.3919 53.0534 24.0173 53.2317 23.715L55.6656 19.5879C55.894 19.2006 55.8314 18.7078 55.5136 18.39L51.6101 14.4865C51.2922 14.1686 50.7994 14.106 50.4122 14.3345L48.4121 15.514L50.6708 17.7728C51.3521 18.4541 51.4862 19.51 50.9968 20.3399L49.3314 23.1638C48.9576 23.7977 48.9435 24.5788 49.2874 25.2296C49.8891 26.3682 50.3884 27.5691 50.7741 28.82C50.9906 29.5224 51.5534 30.064 52.2653 30.2476L55.44 31.0669C56.373 31.3077 57.0247 32.1491 57.0247 33.1127V36.8872C57.0247 37.8507 56.3728 38.6922 55.44 38.9329L52.2653 39.7523C51.5534 39.936 50.9908 40.4774 50.7741 41.1799C50.3884 42.4307 49.8891 43.6317 49.2874 44.7703C48.9435 45.4209 48.9575 46.2021 49.3314 46.8361L50.9968 49.66C51.4862 50.4899 51.3521 51.5458 50.6708 52.227L48.4121 54.4859L50.4122 55.6654C50.7995 55.8938 51.2922 55.8312 51.6101 55.5133L55.5136 51.6099C55.8314 51.292 55.894 50.7992 55.6656 50.412L53.2317 46.2848C53.0534 45.9825 53.0487 45.6081 53.2216 45.3026C54.0523 43.8359 54.7101 42.2587 55.1696 40.599C55.2631 40.261 55.5316 39.9999 55.8711 39.9122L60.5108 38.7149C60.9461 38.6022 61.2503 38.2095 61.2503 37.76Z" fill="#62DBFB"/>
<path d="M35.0002 50.1376C34.2837 50.1376 33.5783 50.3701 32.8875 50.2751C25.3812 49.2422 19.5811 42.7858 19.5811 35.0002C19.5811 27.2146 25.3812 20.7582 32.8875 19.7253C33.5783 19.6303 34.2841 19.8391 35.0002 19.8629C41.2679 20.0704 49.0109 26.498 49.0109 35.0001C49.0109 43.5022 41.8791 49.9298 35.0002 50.1376Z" fill="#FED44C"/>
<path d="M34.9999 19.5811C34.2834 19.5811 33.578 19.6303 32.8872 19.7253C40.3935 20.7583 46.1936 27.2146 46.1936 35.0002C46.1936 42.7858 40.3935 49.2421 32.8872 50.2751C33.578 50.3701 34.2834 50.4193 34.9999 50.4193C43.5021 50.4193 50.4191 43.5023 50.4191 35.0002C50.4191 26.4981 43.5022 19.5811 34.9999 19.5811Z" fill="#F2B84C"/>
<path d="M29.7323 30.3746C29.7286 30.365 29.7249 30.3554 29.721 30.346C29.5267 29.8734 29.0713 29.5684 28.5605 29.5684H28.5593C28.0481 29.5689 27.5928 29.8747 27.3992 30.3479C27.3959 30.3559 27.3928 30.3639 27.3898 30.372L24.1042 38.9988C23.8965 39.5439 24.1701 40.1542 24.7153 40.3619C24.839 40.4091 24.9662 40.4313 25.0911 40.4313C25.5167 40.4313 25.918 40.1723 26.0785 39.7506L26.6377 38.2824H30.4584L31.0115 39.7476C31.2175 40.2933 31.8267 40.5689 32.3728 40.3629C32.9185 40.157 33.1942 39.5475 32.9881 39.0015L29.7323 30.3746ZM27.4424 36.1697L28.5569 33.2435L29.6612 36.1697H27.4424Z" fill="#3D5B54"/>
<path d="M44.9088 29.5684C44.3254 29.5684 43.8525 30.0413 43.8525 30.6246V39.3748C43.8525 39.9583 44.3254 40.4311 44.9088 40.4311C45.4922 40.4311 45.9651 39.9582 45.9651 39.3748V30.6248C45.9653 30.0413 45.4922 29.5684 44.9088 29.5684Z" fill="#3D5B54"/>
<path d="M38.305 29.5684H35.8686C35.8597 29.5684 35.8509 29.5685 35.8421 29.5688C35.2965 29.5822 34.8536 30.0091 34.8149 30.5482C34.8147 30.5507 34.8146 30.5531 34.8145 30.5556C34.8141 30.5616 34.8137 30.5675 34.8134 30.5735C34.8131 30.5779 34.813 30.5823 34.8128 30.5866C34.8127 30.5909 34.8126 30.5953 34.8124 30.5995C34.8123 30.605 34.8123 30.6104 34.8121 30.616C34.8121 30.6189 34.812 30.6219 34.812 30.6248V39.3748C34.812 39.9583 35.2849 40.4311 35.8683 40.4311C36.4517 40.4311 36.9246 39.9582 36.9246 39.3748V36.6247C37.4246 36.6221 37.9844 36.6196 38.3046 36.6196C40.2753 36.6196 41.8786 35.0382 41.8786 33.0941C41.8786 31.1499 40.2757 29.5684 38.305 29.5684ZM38.305 34.5069C37.9872 34.5069 37.434 34.5092 36.9361 34.5118C36.9335 33.9972 36.931 33.4205 36.931 33.0941C36.931 32.8175 36.9295 32.2196 36.928 31.6811H38.305C39.0972 31.6811 39.7663 32.328 39.7663 33.0941C39.7663 33.86 39.0972 34.5069 38.305 34.5069Z" fill="#3D5B54"/>
</g>
<defs>
<clipPath id="clip0_1216_196">
<rect width="70" height="70" fill="white"/>
</clipPath>
</defs>
</svg>
