<svg width="81" height="80" viewBox="0 0 81 80" fill="none" xmlns="http://www.w3.org/2000/svg">
<path fill-rule="evenodd" clip-rule="evenodd" d="M78 59.5921V17.4741H22.1284L3 35.929V78.0469H58.8716L78 59.5921Z" fill="#424852"/>
<path fill-rule="evenodd" clip-rule="evenodd" d="M3 35.9287H58.8716V78.0467H3V35.9287Z" fill="#7F8690"/>
<path fill-rule="evenodd" clip-rule="evenodd" d="M22.1284 17.4741H78L58.8716 35.929H3L22.1284 17.4741Z" fill="#636C77"/>
<path fill-rule="evenodd" clip-rule="evenodd" d="M24.4249 23.9432L19.8721 28.3355C19.638 28.5613 19.5683 28.8887 19.6901 29.1902C19.8118 29.4918 20.0893 29.679 20.4144 29.679H56.0326C56.2427 29.679 56.4236 29.606 56.5749 29.4599L61.1277 25.0676C61.3616 24.8418 61.4315 24.5144 61.3096 24.2129C61.1879 23.9113 60.9104 23.7241 60.5852 23.7241H24.9672C24.7569 23.7241 24.5761 23.7971 24.4249 23.9432Z" fill="#424852"/>
<path fill-rule="evenodd" clip-rule="evenodd" d="M39.154 78.0467V34.3662H41.3415V78.0467H39.154ZM20.5303 78.0467V34.3662H22.7178V78.0467H20.5303Z" fill="#636C77"/>
<path fill-rule="evenodd" clip-rule="evenodd" d="M26.2369 61.6616H35.7377C36.0277 61.6616 36.3059 61.7768 36.5111 61.982C36.7162 62.1871 36.8314 62.4653 36.8314 62.7554V69.7444C36.8314 70.0345 36.7162 70.3127 36.5111 70.5178C36.3059 70.7229 36.0277 70.8382 35.7377 70.8382H26.2369C25.9468 70.8382 25.6686 70.7229 25.4635 70.5178C25.2584 70.3127 25.1431 70.0345 25.1431 69.7444V62.7554C25.1431 62.4653 25.2584 62.1871 25.4635 61.982C25.6686 61.7768 25.9468 61.6616 26.2369 61.6616ZM7.51001 53.5161C7.21993 53.5161 6.94173 53.4009 6.73661 53.1958C6.53149 52.9907 6.41626 52.7125 6.41626 52.4224C6.41626 52.1323 6.53149 51.8541 6.73661 51.649C6.94173 51.4439 7.21993 51.3286 7.51001 51.3286H17.0108C17.3009 51.3286 17.5791 51.4439 17.7842 51.649C17.9893 51.8541 18.1045 52.1323 18.1045 52.4224C18.1045 52.7125 17.9893 52.9907 17.7842 53.1958C17.5791 53.4009 17.3009 53.5161 17.0108 53.5161H7.51001ZM7.51001 49.4207C7.21993 49.4207 6.94173 49.3054 6.73661 49.1003C6.53149 48.8952 6.41626 48.617 6.41626 48.3269C6.41626 48.0368 6.53149 47.7586 6.73661 47.5535C6.94173 47.3484 7.21993 47.2332 7.51001 47.2332H17.0108C17.3009 47.2332 17.5791 47.3484 17.7842 47.5535C17.9893 47.7586 18.1045 48.0368 18.1045 48.3269C18.1045 48.617 17.9893 48.8952 17.7842 49.1003C17.5791 49.3054 17.3009 49.4207 17.0108 49.4207H7.51001ZM7.51001 45.3252C7.21993 45.3252 6.94173 45.21 6.73661 45.0048C6.53149 44.7997 6.41626 44.5215 6.41626 44.2314C6.41626 43.9414 6.53149 43.6632 6.73661 43.458C6.94173 43.2529 7.21993 43.1377 7.51001 43.1377H17.0108C17.3009 43.1377 17.5791 43.2529 17.7842 43.458C17.9893 43.6632 18.1045 43.9414 18.1045 44.2314C18.1045 44.5215 17.9893 44.7997 17.7842 45.0048C17.5791 45.21 17.3009 45.3252 17.0108 45.3252H7.51001ZM7.61298 61.6616H17.1138C17.4038 61.6616 17.682 61.7768 17.8872 61.982C18.0923 62.1871 18.2075 62.4653 18.2075 62.7554V69.7444C18.2075 70.0345 18.0923 70.3127 17.8872 70.5178C17.682 70.7229 17.4038 70.8382 17.1138 70.8382H7.61298C7.3229 70.8382 7.0447 70.7229 6.83958 70.5178C6.63446 70.3127 6.51923 70.0345 6.51923 69.7444V62.7554C6.51923 62.4653 6.63446 62.1871 6.83958 61.982C7.0447 61.7768 7.3229 61.6616 7.61298 61.6616ZM16.02 63.8491H8.70673V68.6507H16.02V63.8491ZM44.7578 53.5161C44.4677 53.5161 44.1895 53.4009 43.9844 53.1958C43.7793 52.9907 43.6641 52.7125 43.6641 52.4224C43.6641 52.1323 43.7793 51.8541 43.9844 51.649C44.1895 51.4439 44.4677 51.3286 44.7578 51.3286H54.2586C54.5487 51.3286 54.8269 51.4439 55.032 51.649C55.2371 51.8541 55.3523 52.1323 55.3523 52.4224C55.3523 52.7125 55.2371 52.9907 55.032 53.1958C54.8269 53.4009 54.5487 53.5161 54.2586 53.5161H44.7578ZM44.7578 49.4207C44.4677 49.4207 44.1895 49.3054 43.9844 49.1003C43.7793 48.8952 43.6641 48.617 43.6641 48.3269C43.6641 48.0368 43.7793 47.7586 43.9844 47.5535C44.1895 47.3484 44.4677 47.2332 44.7578 47.2332H54.2586C54.5487 47.2332 54.8269 47.3484 55.032 47.5535C55.2371 47.7586 55.3523 48.0368 55.3523 48.3269C55.3523 48.617 55.2371 48.8952 55.032 49.1003C54.8269 49.3054 54.5487 49.4207 54.2586 49.4207H44.7578ZM44.7578 45.3252C44.4677 45.3252 44.1895 45.21 43.9844 45.0048C43.7793 44.7997 43.6641 44.5215 43.6641 44.2314C43.6641 43.9414 43.7793 43.6632 43.9844 43.458C44.1895 43.2529 44.4677 43.1377 44.7578 43.1377H54.2586C54.5487 43.1377 54.8269 43.2529 55.032 43.458C55.2371 43.6632 55.3523 43.9414 55.3523 44.2314C55.3523 44.5215 55.2371 44.7997 55.032 45.0048C54.8269 45.21 54.5487 45.3252 54.2586 45.3252H44.7578ZM44.8608 61.6616H54.3616C54.6516 61.6616 54.9299 61.7768 55.135 61.982C55.3401 62.1871 55.4553 62.4653 55.4553 62.7554V69.7444C55.4553 70.0345 55.3401 70.3127 55.135 70.5178C54.9299 70.7229 54.6516 70.8382 54.3616 70.8382H44.8608C44.5707 70.8382 44.2925 70.7229 44.0874 70.5178C43.8823 70.3127 43.767 70.0345 43.767 69.7444V62.7554C43.767 62.4653 43.8823 62.1871 44.0874 61.982C44.2925 61.7768 44.5707 61.6616 44.8608 61.6616ZM53.2678 63.8491H45.9545V68.6507H53.2678V63.8491ZM26.1339 53.5161C25.8438 53.5161 25.5656 53.4009 25.3605 53.1958C25.1554 52.9907 25.0402 52.7125 25.0402 52.4224C25.0402 52.1323 25.1554 51.8541 25.3605 51.649C25.5656 51.4439 25.8438 51.3286 26.1339 51.3286H35.6347C35.9248 51.3286 36.203 51.4439 36.4081 51.649C36.6132 51.8541 36.7284 52.1323 36.7284 52.4224C36.7284 52.7125 36.6132 52.9907 36.4081 53.1958C36.203 53.4009 35.9248 53.5161 35.6347 53.5161H26.1339ZM26.1339 49.4207C25.8438 49.4207 25.5656 49.3054 25.3605 49.1003C25.1554 48.8952 25.0402 48.617 25.0402 48.3269C25.0402 48.0368 25.1554 47.7586 25.3605 47.5535C25.5656 47.3484 25.8438 47.2332 26.1339 47.2332H35.6347C35.9248 47.2332 36.203 47.3484 36.4081 47.5535C36.6132 47.7586 36.7284 48.0368 36.7284 48.3269C36.7284 48.617 36.6132 48.8952 36.4081 49.1003C36.203 49.3054 35.9248 49.4207 35.6347 49.4207H26.1339ZM26.1339 45.3252C25.8438 45.3252 25.5656 45.21 25.3605 45.0048C25.1554 44.7997 25.0402 44.5215 25.0402 44.2314C25.0402 43.9414 25.1554 43.6632 25.3605 43.458C25.5656 43.2529 25.8438 43.1377 26.1339 43.1377H35.6347C35.9248 43.1377 36.203 43.2529 36.4081 43.458C36.6132 43.6632 36.7284 43.9414 36.7284 44.2314C36.7284 44.5215 36.6132 44.7997 36.4081 45.0048C36.203 45.21 35.9248 45.3252 35.6347 45.3252H26.1339ZM34.6439 63.8491H27.3306V68.6507H34.6439V63.8491Z" fill="#424852"/>
<path d="M68.4359 57.217C71.4971 57.217 73.9787 52.9832 73.9787 47.7606C73.9787 42.538 71.4971 38.3042 68.4359 38.3042C65.3747 38.3042 62.8931 42.538 62.8931 47.7606C62.8931 52.9832 65.3747 57.217 68.4359 57.217Z" fill="#38A8D2"/>
<path fill-rule="evenodd" clip-rule="evenodd" d="M69.2471 53.6671C69.1674 53.9415 68.983 54.1736 68.7338 54.3134C68.4845 54.4531 68.1903 54.4894 67.9146 54.4143C67.6389 54.3392 67.4037 54.1588 67.2597 53.9119C67.1158 53.6651 67.0746 53.3716 67.145 53.0946L68.3042 48.8543H67.1389C66.9621 48.8543 66.7879 48.8115 66.6313 48.7295C66.4746 48.6474 66.3402 48.5287 66.2395 48.3833C66.1389 48.238 66.0749 48.0704 66.0532 47.8949C66.0315 47.7195 66.0526 47.5414 66.1148 47.3759L67.6243 41.8538C67.7041 41.5794 67.8885 41.3473 68.1377 41.2076C68.387 41.0678 68.6811 41.0316 68.9569 41.1066C69.2326 41.1817 69.4678 41.3621 69.6117 41.609C69.7557 41.8558 69.7969 42.1494 69.7265 42.4263L68.5673 46.6666H69.7328V46.6709C69.9003 46.6709 70.0655 46.7095 70.2156 46.7838C70.3657 46.858 70.4967 46.9659 70.5984 47.0989C70.7001 47.232 70.7697 47.3868 70.8019 47.5511C70.834 47.7155 70.8279 47.885 70.7839 48.0466L69.2471 53.6671Z" fill="#FDCD56"/>
<path fill-rule="evenodd" clip-rule="evenodd" d="M27.9179 21.2041C29.8058 21.2041 31.3503 22.7486 31.3503 24.6366V29.6791H24.4854V24.6366C24.4854 22.7486 26.03 21.2041 27.9179 21.2041ZM52.038 21.2041C53.926 21.2041 55.4705 22.7486 55.4705 24.6366V29.6791H48.6055V24.6366C48.6055 22.7486 50.15 21.2041 52.038 21.2041Z" fill="#7F8690"/>
<path fill-rule="evenodd" clip-rule="evenodd" d="M53.1836 23.7241C53.1836 24.0141 53.0684 24.2923 52.8632 24.4975C52.6581 24.7026 52.3799 24.8178 52.0898 24.8178C51.7998 24.8178 51.5216 24.7026 51.3164 24.4975C51.1113 24.2923 50.9961 24.0141 50.9961 23.7241V3.04688C50.9961 2.75679 51.1113 2.47859 51.3164 2.27348C51.5216 2.06836 51.7998 1.95313 52.0898 1.95312H78C78.2901 1.95312 78.5683 2.06836 78.7734 2.27348C78.9785 2.47859 79.0938 2.75679 79.0938 3.04688C79.0938 3.33696 78.9785 3.61516 78.7734 3.82027C78.5683 4.02539 78.2901 4.14062 78 4.14062H53.1836V23.7241Z" fill="#424852"/>
<path fill-rule="evenodd" clip-rule="evenodd" d="M28.9797 23.7241C28.9797 24.0141 28.8645 24.2923 28.6593 24.4975C28.4542 24.7026 28.176 24.8178 27.8859 24.8178C27.5959 24.8178 27.3177 24.7026 27.1125 24.4975C26.9074 24.2923 26.7922 24.0141 26.7922 23.7241V4.14062H3C2.70992 4.14062 2.43172 4.02539 2.2266 3.82027C2.02148 3.61516 1.90625 3.33696 1.90625 3.04688C1.90625 2.75679 2.02148 2.47859 2.2266 2.27348C2.43172 2.06836 2.70992 1.95313 3 1.95312H27.8861C28.1762 1.95312 28.4544 2.06836 28.6595 2.27348C28.8646 2.47859 28.9798 2.75679 28.9798 3.04688L28.9797 23.7241Z" fill="#F76C82"/>
</svg>
