<svg width="60" height="60" viewBox="0 0 60 60" fill="none" xmlns="http://www.w3.org/2000/svg">
<path d="M40.6874 57.5905H19.6416C22.4559 55.6896 24.1717 53.7023 24.6407 51.641C24.8505 50.8139 24.8382 49.9622 24.616 49.0981H35.7005C35.4783 49.9622 35.466 50.8139 35.6759 51.641C36.1449 53.7023 37.873 55.6896 40.6874 57.5905Z" fill="#DEDDFF"/>
<path d="M35.6759 51.641H31.5015C29.0669 51.641 26.7417 52.6938 25.1931 54.5724C24.3457 55.6004 23.1837 56.607 21.7277 57.5905H19.6416C22.4559 55.6896 24.1717 53.7023 24.6407 51.641C24.8505 50.8139 24.8382 49.9622 24.616 49.0981H35.7005C35.4783 49.9622 35.466 50.8139 35.6759 51.641Z" fill="#C6C6F7"/>
<path d="M52.2188 50.2565L7.78111 50.3983C4.75818 50.3983 2.30762 47.9477 2.30762 44.9248V15.4207C2.30762 12.3978 4.75818 9.94721 7.78111 9.94721L52.2188 9.80542C55.2417 9.80542 57.6922 12.256 57.6922 15.2789V44.783C57.6922 47.8059 55.2417 50.2565 52.2188 50.2565Z" fill="#5B5E8B"/>
<path d="M11.3903 50.396H7.77879C4.75572 50.396 2.30957 47.9498 2.30957 44.9268V15.4229C2.30957 12.3998 4.75572 9.94214 7.77879 9.94214H11.3903C8.36726 9.94214 5.90956 12.3998 5.90956 15.4229V44.9268C5.90956 47.9498 8.36726 50.396 11.3903 50.396Z" fill="#312E4B"/>
<path d="M7.24512 40.7262V17.1501C7.24512 15.899 8.25939 14.8847 9.51055 14.8847L50.4889 14.7429C51.7403 14.7429 52.7549 15.7574 52.7549 17.0089V40.5844C52.7549 41.8359 51.7403 42.8504 50.4889 42.8504L9.51112 42.9922C8.25964 42.9922 7.24512 41.9777 7.24512 40.7262Z" fill="#65B9FF"/>
<path d="M12.7519 42.9883H9.50961C8.26344 42.9883 7.24805 41.9729 7.24805 40.7267V17.1537C7.24805 15.8959 8.26344 14.8806 9.50961 14.8806H12.7519C11.5057 14.8806 10.4904 15.8959 10.4904 17.1537V40.7267C10.4904 41.9729 11.5057 42.9883 12.7519 42.9883Z" fill="#3E7FFF"/>
<path d="M30.1638 48.6139C31.1649 48.6139 31.9765 47.8023 31.9765 46.8012C31.9765 45.8001 31.1649 44.9885 30.1638 44.9885C29.1626 44.9885 28.3511 45.8001 28.3511 46.8012C28.3511 47.8023 29.1626 48.6139 30.1638 48.6139Z" fill="#312E4B"/>
<path d="M46.94 42.9922H13.0601V4.71528C13.0601 3.44179 14.0924 2.40942 15.3659 2.40942H44.6342C45.9077 2.40942 46.94 3.44179 46.94 4.71528V42.9922Z" fill="#DEDDFF"/>
<path d="M15.3721 12.1933V6.40902C15.3721 5.47376 16.1303 4.71558 17.0655 4.71558L42.9402 4.71509C43.8755 4.71509 44.6337 5.47327 44.6337 6.40853V12.1928C44.6337 13.128 43.8755 13.8862 42.9402 13.8862L17.0655 13.8867C16.1303 13.8867 15.3721 13.1285 15.3721 12.1933Z" fill="#E83D62"/>
<path d="M18.91 13.8896H17.0638C16.1292 13.8896 15.3677 13.1281 15.3677 12.1935V6.41267C15.3677 5.47806 16.1292 4.71655 17.0638 4.71655H18.91C17.9638 4.71655 17.2138 5.47806 17.2138 6.41267V12.1935C17.2138 13.1281 17.9638 13.8896 18.91 13.8896Z" fill="#CE2955"/>
<path d="M22.7452 9.10191C22.8757 9.00423 22.9908 8.88669 23.0881 8.74969C23.2599 8.51016 23.3475 8.20861 23.3475 7.85356C23.3475 7.34571 23.1643 6.93473 22.8036 6.63277C22.4509 6.33771 21.954 6.18774 21.3258 6.18774H19.3706C19.2223 6.18774 19.0893 6.24408 18.9856 6.35108C18.885 6.45606 18.8315 6.589 18.8315 6.73491V11.7636C18.8315 11.9107 18.8859 12.0428 18.988 12.1458C19.0901 12.2479 19.2231 12.3026 19.3706 12.3026H21.3753C22.147 12.3026 22.7265 12.1445 23.097 11.8329C23.478 11.5143 23.6709 11.0705 23.6709 10.5128C23.6709 10.118 23.5485 9.78485 23.3078 9.52221C23.1505 9.35076 22.9624 9.20972 22.7452 9.10191ZM22.6098 10.4795C22.6098 10.73 22.5223 10.9165 22.3415 11.0502C22.1478 11.1937 21.7976 11.2662 21.3007 11.2662H19.9178V9.70135H21.3096C22.6098 9.70135 22.6098 10.287 22.6098 10.4795ZM19.9178 8.68971V7.22412H21.2683C21.5998 7.22412 21.8616 7.2914 22.0448 7.42434C22.2126 7.54674 22.2945 7.70603 22.2945 7.91152C22.2945 8.16038 22.2167 8.34641 22.0562 8.47976C21.8908 8.61716 21.5698 8.68971 21.1272 8.68971H19.9178Z" fill="#DEDDFF"/>
<path d="M28.2014 11.2164H25.6585V6.69358C25.6585 6.54361 25.6042 6.41351 25.498 6.30691C25.2848 6.09575 24.9354 6.09453 24.7263 6.30975C24.6241 6.41635 24.5723 6.54564 24.5723 6.69358V11.6144C24.5723 11.8033 24.6404 11.9666 24.7741 12.1008C24.9079 12.2345 25.0716 12.3026 25.2605 12.3026H28.2014C28.3505 12.3026 28.4802 12.2503 28.5856 12.1482C28.6918 12.0457 28.7486 11.9127 28.7486 11.7636C28.7486 11.6156 28.6926 11.4819 28.5881 11.3769C28.4811 11.2707 28.3514 11.2164 28.2014 11.2164Z" fill="#DEDDFF"/>
<path d="M33.6755 6.50907C33.2183 6.24116 32.6776 6.10498 32.0704 6.10498C31.4633 6.10498 30.9226 6.24076 30.463 6.50867C30.0009 6.77779 29.6402 7.15392 29.3889 7.6265C29.1409 8.09423 29.0087 8.63775 28.9966 9.24855C29.0087 9.85286 29.1409 10.396 29.3889 10.8637C29.6402 11.3371 30.0017 11.7132 30.463 11.9815C30.9226 12.2494 31.4633 12.3852 32.0704 12.3852C32.6776 12.3852 33.2183 12.249 33.6755 11.9811C34.1335 11.7124 34.4942 11.3355 34.7479 10.86C35 10.3891 35.1329 9.84678 35.1443 9.24206C35.1329 8.64423 35 8.10153 34.7479 7.63015C34.495 7.15554 34.1343 6.7782 33.6755 6.50907ZM34.0581 9.2453C34.0581 9.64858 33.9778 10.0138 33.8197 10.3303C33.6625 10.6436 33.4323 10.8941 33.1356 11.0749C32.8381 11.2568 32.4798 11.3488 32.0704 11.3488C31.6562 11.3488 31.2971 11.2568 31.002 11.0753C30.707 10.8941 30.4784 10.6436 30.3219 10.3307C30.1631 10.0126 30.0828 9.64737 30.0828 9.2453C30.0828 8.84283 30.1631 8.47765 30.3219 8.15948C30.4784 7.84659 30.707 7.59611 31.0029 7.41493C31.2971 7.23336 31.6562 7.14135 32.0704 7.14135C32.4798 7.14135 32.8381 7.23336 33.1356 7.41534C33.4323 7.59611 33.6625 7.84659 33.8197 8.15948C33.9778 8.47643 34.0581 8.84202 34.0581 9.2453Z" fill="#DEDDFF"/>
<path d="M41.01 8.96199C40.9005 8.85297 40.7668 8.79744 40.6112 8.79744H38.9794C38.8416 8.79744 38.7176 8.84891 38.6227 8.94497C38.5254 9.04184 38.4736 9.16586 38.4736 9.30326C38.4736 9.44066 38.5254 9.56428 38.6211 9.65993C38.7176 9.75721 38.8416 9.80909 38.9794 9.80909H40.1799V11.0416C39.7835 11.2402 39.3523 11.3407 38.8967 11.3407C38.4646 11.3407 38.0869 11.2495 37.774 11.0688C37.4643 10.8896 37.2236 10.6416 37.059 10.3315C36.8937 10.017 36.8094 9.65426 36.8094 9.25341C36.8094 8.81568 36.8985 8.43469 37.0744 8.12098C37.2503 7.80727 37.487 7.57503 37.7975 7.4121C38.1088 7.24876 38.4646 7.16608 38.8554 7.16608C39.1415 7.16608 39.409 7.20255 39.653 7.27551C39.8978 7.34806 40.1467 7.45952 40.4044 7.61232C40.6176 7.71932 40.8762 7.67636 41.0254 7.52031C41.1178 7.42304 41.1672 7.30064 41.1672 7.16567C41.1672 7.07002 41.1421 6.98004 41.0943 6.89898C41.0456 6.8167 40.9832 6.7559 40.9232 6.72672C40.6144 6.53299 40.2893 6.37937 39.9546 6.27035C39.6165 6.16091 39.2193 6.10498 38.7727 6.10498C38.2093 6.10498 37.6897 6.23792 37.2285 6.49934C36.7648 6.76158 36.3943 7.13689 36.1252 7.61475C35.8585 8.09139 35.7231 8.64261 35.7231 9.25341C35.7231 9.85286 35.8528 10.3964 36.1082 10.869C36.3643 11.3444 36.7307 11.7201 37.1993 11.9864C37.6638 12.2511 38.2012 12.3852 38.797 12.3852C39.4658 12.3852 40.1296 12.2231 40.766 11.9053C40.8876 11.8478 40.9873 11.759 41.0627 11.6411C41.1372 11.5227 41.1753 11.3886 41.1753 11.2418V9.36122C41.1753 9.20599 41.1202 9.07183 41.01 8.96199Z" fill="#DEDDFF"/>
<path d="M27.9284 18.366V26.2007C27.9284 26.2468 27.9284 26.2815 27.9168 26.3276C27.8591 27.0776 27.2245 27.6661 26.463 27.6661H16.8399C16.0322 27.6661 15.3745 27.0084 15.3745 26.2007V18.366C15.3745 17.5469 16.0322 16.8892 16.8399 16.8892H26.463C27.2707 16.8892 27.9284 17.5469 27.9284 18.366Z" fill="#46CC6B"/>
<path d="M44.6362 17.4371C44.6362 17.7371 44.394 17.9794 44.094 17.9794H31.4593C31.1593 17.9794 30.917 17.7371 30.917 17.4371C30.917 17.1371 31.1593 16.8948 31.4593 16.8948H44.094C44.394 16.8948 44.6362 17.1371 44.6362 17.4371Z" fill="#C6C6F7"/>
<path d="M44.6362 20.6654C44.6362 20.9654 44.394 21.2077 44.094 21.2077H31.4593C31.1593 21.2077 30.917 20.9654 30.917 20.6654C30.917 20.3654 31.1593 20.123 31.4593 20.123H44.094C44.394 20.123 44.6362 20.3654 44.6362 20.6654Z" fill="#C6C6F7"/>
<path d="M44.6362 23.8934C44.6362 24.1934 44.394 24.4357 44.094 24.4357H31.4593C31.1593 24.4357 30.917 24.1934 30.917 23.8934C30.917 23.5934 31.1593 23.3511 31.4593 23.3511H44.094C44.394 23.3511 44.6362 23.5934 44.6362 23.8934Z" fill="#C6C6F7"/>
<path d="M44.6362 27.1217C44.6362 27.4217 44.394 27.664 44.094 27.664H31.4593C31.1593 27.664 30.917 27.4217 30.917 27.1217C30.917 26.8217 31.1593 26.5793 31.4593 26.5793H44.094C44.394 26.5793 44.6362 26.8217 44.6362 27.1217Z" fill="#C6C6F7"/>
<path d="M33.5494 40.6411H43.1697C43.9796 40.6411 44.6361 39.9846 44.6361 39.1747V31.3382C44.6361 30.5283 43.9796 29.8718 43.1697 29.8718H33.5494C32.7395 29.8718 32.083 30.5283 32.083 31.3382V39.1747C32.083 39.9846 32.7395 40.6411 33.5494 40.6411Z" fill="#FCB73E"/>
<path d="M15.3726 30.4142C15.3726 30.7142 15.6148 30.9564 15.9148 30.9564H28.5495C28.8495 30.9564 29.0918 30.7142 29.0918 30.4142C29.0918 30.1142 28.8495 29.8718 28.5495 29.8718H15.9148C15.6148 29.8718 15.3726 30.1142 15.3726 30.4142Z" fill="#C6C6F7"/>
<path d="M15.3726 33.6424C15.3726 33.9425 15.6148 34.1847 15.9148 34.1847H28.5495C28.8495 34.1847 29.0918 33.9425 29.0918 33.6424C29.0918 33.3424 28.8495 33.1001 28.5495 33.1001H15.9148C15.6148 33.1001 15.3726 33.3424 15.3726 33.6424Z" fill="#C6C6F7"/>
<path d="M15.3726 36.8705C15.3726 37.1705 15.6148 37.4127 15.9148 37.4127H28.5495C28.8495 37.4127 29.0918 37.1705 29.0918 36.8705C29.0918 36.5705 28.8495 36.3281 28.5495 36.3281H15.9148C15.6148 36.3281 15.3726 36.5705 15.3726 36.8705Z" fill="#C6C6F7"/>
<path d="M15.3726 40.0987C15.3726 40.3988 15.6148 40.641 15.9148 40.641H28.5495C28.8495 40.641 29.0918 40.3988 29.0918 40.0987C29.0918 39.7987 28.8495 39.5564 28.5495 39.5564H15.9148C15.6148 39.5564 15.3726 39.7987 15.3726 40.0987Z" fill="#C6C6F7"/>
<path d="M27.9168 26.3275C27.8591 27.0775 27.2245 27.666 26.463 27.666H16.8399C16.0322 27.666 15.3745 27.0083 15.3745 26.2006V25.8775L18.7091 21.0314C18.9399 20.7083 19.4245 20.7083 19.6553 21.0314L22.1015 24.5967C22.3207 24.9199 22.7937 24.9199 23.0361 24.6083L24.386 22.7622C24.6168 22.4506 25.0783 22.4506 25.3091 22.7622L27.9168 26.3275Z" fill="#179C5F"/>
<path d="M22.5277 21.8918C23.1363 21.8918 23.6296 21.3985 23.6296 20.7899C23.6296 20.1813 23.1363 19.688 22.5277 19.688C21.9191 19.688 21.4258 20.1813 21.4258 20.7899C21.4258 21.3985 21.9191 21.8918 22.5277 21.8918Z" fill="#179C5F"/>
<path d="M44.6307 39.3028C44.573 40.0529 43.9384 40.6414 43.1768 40.6414H33.5538C32.7461 40.6414 32.0884 39.9836 32.0884 39.1759V38.8528L35.423 34.0067C35.6538 33.6836 36.1384 33.6836 36.3692 34.0067L38.8153 37.5721C39.0346 37.8952 39.5076 37.8952 39.7499 37.5836L41.0999 35.7375C41.3307 35.4259 41.7922 35.4259 42.023 35.7375L44.6307 39.3028Z" fill="#E87F21"/>
<path d="M39.2411 34.8669C39.8497 34.8669 40.343 34.3736 40.343 33.765C40.343 33.1564 39.8497 32.6631 39.2411 32.6631C38.6325 32.6631 38.1392 33.1564 38.1392 33.765C38.1392 34.3736 38.6325 34.8669 39.2411 34.8669Z" fill="#E87F21"/>
</svg>
