<svg width="50" height="50" viewBox="0 0 50 50" fill="none" xmlns="http://www.w3.org/2000/svg">
<path d="M43.8882 23.9639V38.7336C43.5019 38.8098 43.1375 38.9458 42.8002 39.1307C41.5055 39.8107 40.6242 41.1707 40.6242 42.732V45.724C40.6242 46.0232 40.869 46.268 41.1682 46.268H27.5681C27.8673 46.268 28.1121 46.0232 28.1121 45.724V23.4199H43.3442C43.6434 23.4199 43.8882 23.6647 43.8882 23.9639Z" fill="url(#paint0_linear_718_443)"/>
<path d="M21.0237 37.8192V46.1533C21.0237 46.1914 21.0183 46.2295 21.0129 46.2676H16.144V38.1891L20.3329 37.2643C20.4362 37.2371 20.545 37.2371 20.6538 37.2752C20.8823 37.3514 21.0346 37.5744 21.0237 37.8192Z" fill="url(#paint1_linear_718_443)"/>
<path d="M16.1439 38.1895V46.2679H11.7702C11.7647 46.2298 11.7593 46.1917 11.7593 46.1536V39.593C11.7593 39.3373 11.9388 39.1143 12.189 39.0599L16.1439 38.1895Z" fill="url(#paint2_linear_718_443)"/>
<path d="M28.1118 8.68853V45.7242C28.1118 46.0234 27.867 46.2682 27.5678 46.2682H21.0125C21.018 46.2301 21.0234 46.1921 21.0234 46.154V37.8199C21.0343 37.5751 20.882 37.352 20.6535 37.2759C20.5447 37.2378 20.4359 37.2378 20.3325 37.265L12.1888 39.0602C11.9386 39.1146 11.7591 39.3376 11.7591 39.5933V46.154C11.7591 46.1921 11.7645 46.2301 11.7699 46.2682H9.61569C9.91489 46.2682 10.1597 46.0234 10.1597 45.7242V42.7322C10.1597 40.5725 8.47873 38.7991 6.35168 38.6685C6.2592 38.6576 6.17216 38.6522 6.07968 38.6522C5.80223 38.6522 5.52479 38.6794 5.26367 38.7338V13.9871C5.26367 13.7369 5.43775 13.5193 5.67711 13.4594L27.4209 8.16629C27.4753 8.14997 27.5243 8.14453 27.5732 8.14453C27.6113 8.14453 27.6439 8.14997 27.682 8.16085C27.731 8.16629 27.7799 8.18805 27.8235 8.20981L27.8289 8.21525C27.8561 8.22613 27.8833 8.24245 27.9051 8.26421C28.0356 8.36757 28.1118 8.52533 28.1118 8.68853Z" fill="url(#paint3_linear_718_443)"/>
<g opacity="0.1">
<path d="M27.9052 8.26421C27.8834 8.24245 27.8562 8.22613 27.829 8.21525L27.8236 8.20981C27.7801 8.18805 27.7311 8.16629 27.6822 8.16085C27.6441 8.14997 27.6114 8.14453 27.5734 8.14453C27.5244 8.14453 27.4754 8.14997 27.421 8.16629L27.0239 8.26312V38.625C27.0239 42.155 24.41 45.0964 21.0236 45.6296V46.154C21.0236 46.1921 21.0181 46.2301 21.0127 46.2682H27.5679C27.8671 46.2682 28.1119 46.0234 28.1119 45.7242V8.68853C28.1119 8.52533 28.0358 8.36757 27.9052 8.26421Z" fill="#231F20"/>
</g>
<path d="M8.52808 16.429V21.6966L11.7921 20.9845V15.7109L8.52808 16.429Z" fill="white"/>
<path d="M15.0562 15.056V20.3235L18.3202 19.6115V14.3379L15.0562 15.056Z" fill="white"/>
<path d="M21.584 13.5628V18.8304L24.848 18.1183V12.8447L21.584 13.5628Z" fill="white"/>
<path d="M8.52808 24.0452V29.3128L11.7921 28.6007V23.3271L8.52808 24.0452Z" fill="white"/>
<path d="M15.0562 22.6722V27.9398L18.3202 27.2277V21.9541L15.0562 22.6722Z" fill="white"/>
<path d="M21.5842 21.179V26.4466L24.8482 25.7345V20.4609L21.5842 21.179Z" fill="white"/>
<path d="M8.52808 31.6614V36.929L11.7921 36.2169V30.9434L8.52808 31.6614Z" fill="white"/>
<path d="M15.0559 30.2884V35.556L18.3199 34.8439V29.5703L15.0559 30.2884Z" fill="white"/>
<path d="M21.5842 28.7952V34.0628L24.8482 33.3507V28.0771L21.5842 28.7952Z" fill="white"/>
<path d="M38.6006 14.2261V23.4197H28.1122V8.68813C28.1122 8.52493 28.0361 8.36716 27.9055 8.2638C27.8837 8.24204 27.8565 8.22572 27.8293 8.21484L38.3123 13.7474C38.4918 13.8398 38.6006 14.0248 38.6006 14.2261Z" fill="url(#paint4_linear_718_443)"/>
<path d="M5.21268 10.5084C5.20996 9.82241 5.39111 9.24359 5.75668 8.77248C6.12225 8.30138 6.63252 7.9864 7.2875 7.82755C7.9588 7.66489 8.47724 7.72691 8.84172 8.01414C9.2062 8.30138 9.39007 8.78336 9.39279 9.4601C9.39497 9.95134 9.31717 10.3729 9.15941 10.726C9.0022 11.0791 8.77372 11.3788 8.47452 11.6263C8.17531 11.8738 7.80158 12.0517 7.35387 12.1605C6.89908 12.271 6.52209 12.2867 6.22343 12.2079C5.92478 12.129 5.68215 11.9489 5.49556 11.6671C5.30896 11.3859 5.21431 10.9991 5.21268 10.5084ZM6.45953 10.2114C6.46116 10.6357 6.53787 10.9218 6.69019 11.0709C6.84251 11.22 7.04869 11.2624 7.30926 11.1993C7.57691 11.1345 7.78418 10.9931 7.92997 10.776C8.07576 10.559 8.14811 10.2152 8.14648 9.74516C8.14485 9.34967 8.06706 9.0793 7.91311 8.93405C7.75915 8.7888 7.5508 8.748 7.28859 8.81165C7.03726 8.87258 6.83598 9.01402 6.6842 9.23652C6.53243 9.45847 6.4579 9.78378 6.45953 10.2114Z" fill="#8C9EFF"/>
<path d="M10.0623 7.22598L13.1446 6.47852L13.1484 7.38156L11.3184 7.82547L11.3211 8.55933L12.8845 8.18016L12.8878 9.0288L11.3243 9.40797L11.3309 11.1248L10.0786 11.4284L10.0623 7.22598Z" fill="#8C9EFF"/>
<path d="M13.821 6.31387L16.9034 5.56641L16.9072 6.46945L15.0771 6.91336L15.0799 7.64722L16.6433 7.26805L16.6466 8.11669L15.0831 8.49586L15.0897 10.2127L13.8374 10.5163L13.821 6.31387Z" fill="#8C9EFF"/>
<path d="M17.6248 5.39188L18.8743 5.08887L18.8906 9.29074L17.6411 9.59375L17.6248 5.39188Z" fill="#8C9EFF"/>
<path d="M22.4641 6.703L23.5581 6.78188C23.4857 7.11862 23.3715 7.41347 23.2143 7.66589C23.0571 7.9183 22.8623 8.1272 22.6284 8.29258C22.3945 8.45796 22.0975 8.58471 21.7362 8.67229C21.2978 8.77837 20.9393 8.79904 20.6607 8.73376C20.3822 8.66903 20.1412 8.49332 19.9383 8.20771C19.7354 7.92266 19.6326 7.51901 19.6304 6.99785C19.6277 6.30262 19.8029 5.72543 20.1565 5.26575C20.5101 4.80661 21.0116 4.49816 21.6612 4.3404C22.1693 4.21691 22.5691 4.22725 22.8612 4.37086C23.1528 4.51448 23.3704 4.79083 23.5135 5.19992L22.4135 5.72217C22.3744 5.60357 22.3335 5.5198 22.2911 5.47084C22.2209 5.38815 22.1355 5.33266 22.0343 5.30383C21.9332 5.275 21.8206 5.27554 21.6954 5.30546C21.4131 5.374 21.1966 5.54482 21.0475 5.81791C20.9344 6.02137 20.8789 6.31078 20.88 6.68668C20.8816 7.15235 20.9507 7.45536 21.0872 7.59517C21.2238 7.73443 21.4147 7.77469 21.6606 7.71539C21.8989 7.65773 22.079 7.54403 22.2008 7.37485C22.3227 7.20621 22.4103 6.98208 22.4641 6.703Z" fill="#8C9EFF"/>
<path d="M24.1501 3.81002L27.4914 3L27.4947 3.89706L25.403 4.40407L25.4057 5.07211L27.3462 4.60154L27.3494 5.45835L25.409 5.92891L25.4122 6.75742L27.5643 6.23573L27.5681 7.18719L24.1665 8.01189L24.1501 3.81002Z" fill="#8C9EFF"/>
<path d="M33.0078 39.1963H37.9038V46.2683H33.0078V39.1963Z" fill="url(#paint5_linear_718_443)"/>
<path d="M41.1683 26.1396H29.7442C29.445 26.1396 29.2002 26.3844 29.2002 26.6837V28.8597C29.2002 29.1589 29.445 29.4037 29.7442 29.4037H41.1683C41.4675 29.4037 41.7123 29.1589 41.7123 28.8597V26.6837C41.7123 26.3844 41.4675 26.1396 41.1683 26.1396ZM40.6242 28.3157H30.2882V27.2277H40.6242V28.3157Z" fill="#E0F7FA"/>
<path d="M38.9922 31.0361H29.7442C29.445 31.0361 29.2002 31.2809 29.2002 31.5801V33.7561C29.2002 34.0553 29.445 34.3001 29.7442 34.3001H38.9922C39.2914 34.3001 39.5362 34.0553 39.5362 33.7561V31.5801C39.5362 31.2809 39.2914 31.0361 38.9922 31.0361ZM38.4482 33.2121H30.2882V32.1241H38.4482V33.2121Z" fill="#E0F7FA"/>
<path d="M48.7843 43.5479V45.7239C48.7843 46.0231 48.5395 46.2679 48.2403 46.2679H41.1683C40.8691 46.2679 40.6243 46.0231 40.6243 45.7239V43.5479C40.6243 43.8471 40.8691 44.0919 41.1683 44.0919H48.2403C48.5395 44.0919 48.7843 43.8471 48.7843 43.5479Z" fill="#FF9100"/>
<path d="M9.61603 44.0919H2.544C2.2448 44.0919 2 43.8471 2 43.5479V45.7239C2 46.0231 2.2448 46.2679 2.544 46.2679H9.61603C9.91524 46.2679 10.16 46.0231 10.16 45.7239V43.5479C10.16 43.8471 9.91524 44.0919 9.61603 44.0919Z" fill="#FF9100"/>
<path d="M6.35202 38.6677C6.25954 38.6568 6.1725 38.6514 6.08002 38.6514C5.80258 38.6514 5.52514 38.6786 5.26401 38.733C3.40353 39.1138 2 40.7567 2 42.7314V43.5474C2 43.8466 2.2448 44.0914 2.544 44.0914H9.61603C9.91524 44.0914 10.16 43.8466 10.16 43.5474V42.7314C10.16 40.5717 8.47907 38.7982 6.35202 38.6677Z" fill="url(#paint6_linear_718_443)"/>
<path d="M48.7841 42.7314V43.5474C48.7841 43.8466 48.5393 44.0914 48.2401 44.0914H41.168C40.8688 44.0914 40.624 43.8466 40.624 43.5474V42.7314C40.624 41.1701 41.5053 39.8101 42.8 39.1301C43.1373 38.9451 43.5018 38.8091 43.888 38.733C44.1492 38.6786 44.4266 38.6514 44.704 38.6514C46.9562 38.6514 48.7841 40.4792 48.7841 42.7314Z" fill="url(#paint7_linear_718_443)"/>
<path opacity="0.1" d="M38.3124 13.7478L36.9181 13.0117C36.4486 17.5264 32.7102 21.0597 28.1123 21.2272V23.4201H38.6007V14.2265C38.6007 14.0252 38.4919 13.8402 38.3124 13.7478Z" fill="#231F20"/>
<defs>
<linearGradient id="paint0_linear_718_443" x1="27.5681" y1="34.844" x2="43.8882" y2="34.844" gradientUnits="userSpaceOnUse">
<stop stop-color="#26A69A"/>
<stop offset="1" stop-color="#006064"/>
</linearGradient>
<linearGradient id="paint1_linear_718_443" x1="16.144" y1="41.7562" x2="21.0243" y2="41.7562" gradientUnits="userSpaceOnUse">
<stop stop-color="#56C0EE"/>
<stop offset="1" stop-color="#B3E5FC"/>
</linearGradient>
<linearGradient id="paint2_linear_718_443" x1="11.7593" y1="42.2287" x2="16.1439" y2="42.2287" gradientUnits="userSpaceOnUse">
<stop stop-color="#56C0EE"/>
<stop offset="1" stop-color="#B3E5FC"/>
</linearGradient>
<linearGradient id="paint3_linear_718_443" x1="5.26367" y1="27.2064" x2="28.1118" y2="27.2064" gradientUnits="userSpaceOnUse">
<stop stop-color="#BBDEFB"/>
<stop offset="0.9665" stop-color="#44A9DF"/>
</linearGradient>
<linearGradient id="paint4_linear_718_443" x1="27.8293" y1="15.8173" x2="38.6006" y2="15.8173" gradientUnits="userSpaceOnUse">
<stop stop-color="#4DD0E1"/>
<stop offset="0.1669" stop-color="#51D1E2"/>
<stop offset="0.3319" stop-color="#5DD4E4"/>
<stop offset="0.4963" stop-color="#71D9E7"/>
<stop offset="0.6604" stop-color="#8DE1EC"/>
<stop offset="0.8242" stop-color="#B0EAF2"/>
<stop offset="0.9859" stop-color="#DCF6F9"/>
<stop offset="1" stop-color="#E0F7FA"/>
</linearGradient>
<linearGradient id="paint5_linear_718_443" x1="33.0078" y1="42.7323" x2="37.9038" y2="42.7323" gradientUnits="userSpaceOnUse">
<stop stop-color="#FFC400"/>
<stop offset="1" stop-color="#FFE57F"/>
</linearGradient>
<linearGradient id="paint6_linear_718_443" x1="2" y1="41.3714" x2="10.16" y2="41.3714" gradientUnits="userSpaceOnUse">
<stop stop-color="#AEEA00"/>
<stop offset="1" stop-color="#00C853"/>
</linearGradient>
<linearGradient id="paint7_linear_718_443" x1="40.624" y1="41.3714" x2="48.7841" y2="41.3714" gradientUnits="userSpaceOnUse">
<stop stop-color="#AEEA00"/>
<stop offset="1" stop-color="#00C853"/>
</linearGradient>
</defs>
</svg>
