<svg width="70" height="70" viewBox="0 0 70 70" fill="none" xmlns="http://www.w3.org/2000/svg">
<path fill-rule="evenodd" clip-rule="evenodd" d="M53.375 46.3613C60.2109 46.3613 65.7617 40.8242 65.7617 33.9746C65.7617 28.5195 62.2207 23.8711 57.3125 22.2305C57.4356 21.5195 57.5039 20.7949 57.5039 20.043C57.5039 13.207 51.9668 7.65625 45.1172 7.65625C39.6621 7.65625 35.041 11.1836 33.3867 16.0645C31.9512 15.3398 30.3379 14.9297 28.6152 14.9297C24.0898 14.9297 20.2344 17.7734 18.7168 21.7656C18.0332 21.6426 17.3223 21.5879 16.6113 21.5879C9.77539 21.5879 4.22461 27.1387 4.22461 33.9746C4.22461 40.8105 9.77539 46.3613 16.6113 46.3613H53.375Z" fill="#A6A6CF"/>
<path fill-rule="evenodd" clip-rule="evenodd" d="M63.4375 26.7559C61.9336 24.6641 59.8008 23.0781 57.3125 22.2441C57.4355 21.5332 57.5039 20.8086 57.5039 20.0566C57.5039 13.2207 51.9668 7.66992 45.1172 7.66992C39.6621 7.66992 35.041 11.1973 33.3867 16.0781C31.9512 15.3535 30.3379 14.9434 28.6152 14.9434C24.0898 14.9434 20.2344 17.7871 18.7168 21.7793C18.0332 21.6563 17.3223 21.6016 16.6113 21.6016C12.4688 21.6016 8.80469 23.6387 6.5625 26.7559C8.80469 29.873 12.4824 31.9102 16.6113 31.9102H53.375C57.5176 31.9102 61.1953 29.873 63.4375 26.7559Z" fill="#CCCCFF"/>
<path fill-rule="evenodd" clip-rule="evenodd" d="M46.9902 12.5508C50.0391 12.5508 52.5137 15.0254 52.5137 18.0742C52.5137 21.123 50.0391 23.584 46.9902 23.584C43.9414 23.584 41.4668 21.1094 41.4668 18.0742C41.4668 15.0117 43.9414 12.5508 46.9902 12.5508Z" fill="white"/>
<path fill-rule="evenodd" clip-rule="evenodd" d="M18.3477 40.1133C18.3477 41.7129 22.2988 43.0117 27.166 43.0117C32.0332 43.0117 35.9707 41.7129 35.9707 40.1133V26.4004H18.3477V40.1133Z" fill="#CF5353"/>
<path fill-rule="evenodd" clip-rule="evenodd" d="M27.166 23.502C22.2988 23.502 18.3477 24.8008 18.3477 26.4004C18.3477 28 22.2988 29.2852 27.166 29.2852C32.0332 29.2852 35.9707 27.9863 35.9707 26.4004C35.9707 24.8008 32.0332 23.502 27.166 23.502Z" fill="#FF6A6A"/>
<path fill-rule="evenodd" clip-rule="evenodd" d="M23.8848 25.3066C22.9414 25.3066 22.1758 25.6348 22.1758 26.0449C22.1758 26.4551 22.9414 26.7832 23.8848 26.7832C24.8281 26.7832 25.5938 26.4551 25.5938 26.0449C25.5938 25.6348 24.8281 25.3066 23.8848 25.3066Z" fill="white"/>
<path fill-rule="evenodd" clip-rule="evenodd" d="M27.166 33.7695C23.2695 33.7695 19.9062 33.0176 18.3477 31.9375V36.9961C19.9062 38.0762 23.2695 38.8281 27.166 38.8281C31.0625 38.8281 34.4258 38.0762 35.9707 36.9961V31.9375C34.4258 33.0176 31.0625 33.7695 27.166 33.7695Z" fill="#FF6A6A"/>
<path fill-rule="evenodd" clip-rule="evenodd" d="M34.3574 31.0078C33.127 31.0078 32.6895 30.6113 32.6895 28.8203C32.6895 30.4746 32.4707 31.0078 31.0215 31.0078C32.4707 31.0078 32.6895 31.582 32.6895 32.8398C32.6895 31.7187 32.9219 31.0078 34.3574 31.0078Z" fill="white"/>
<path fill-rule="evenodd" clip-rule="evenodd" d="M9.63867 50.1074C10.6504 50.1074 11.4707 50.9277 11.4707 51.9395C11.4707 52.9512 10.6504 53.7715 9.63867 53.7715C8.62695 53.7715 7.80664 52.9512 7.80664 51.9395C7.80664 50.9277 8.62695 50.1074 9.63867 50.1074Z" fill="#EEB9A2"/>
<path fill-rule="evenodd" clip-rule="evenodd" d="M18.1836 9.74805C19.168 9.74805 19.9609 10.541 19.9609 11.5254C19.9609 12.5098 19.168 13.3164 18.1836 13.3164C17.1992 13.3164 16.3926 12.5234 16.3926 11.5254C16.4062 10.541 17.1992 9.74805 18.1836 9.74805Z" fill="#EEB9A2"/>
<path fill-rule="evenodd" clip-rule="evenodd" d="M58.3789 50.3535C59.3633 50.3535 60.1699 51.1465 60.1699 52.1309C60.1699 53.1152 59.377 53.9082 58.3789 53.9082C57.3945 53.9082 56.6016 53.1152 56.6016 52.1309C56.6016 51.1465 57.3945 50.3535 58.3789 50.3535Z" fill="#EEB9A2"/>
<path fill-rule="evenodd" clip-rule="evenodd" d="M33.1133 51.666C33.1133 53.498 37.6113 54.9746 43.1758 54.9746C48.7266 54.9746 53.2383 53.498 53.2383 51.666V35.998H33.1133V51.666Z" fill="#E18A7A"/>
<path fill-rule="evenodd" clip-rule="evenodd" d="M43.1621 32.6895C37.6113 32.6895 33.0996 34.166 33.0996 35.998C33.0996 37.8301 37.5977 39.3066 43.1621 39.3066C48.7129 39.3066 53.2246 37.8301 53.2246 35.998C53.2246 34.1797 48.7266 32.6895 43.1621 32.6895Z" fill="#EEB9A2"/>
<path fill-rule="evenodd" clip-rule="evenodd" d="M39.416 34.7539C38.3359 34.7539 37.4609 35.123 37.4609 35.5879C37.4609 36.0527 38.3359 36.4219 39.416 36.4219C40.4961 36.4219 41.3711 36.0527 41.3711 35.5879C41.3711 35.123 40.4961 34.7539 39.416 34.7539Z" fill="white"/>
<path fill-rule="evenodd" clip-rule="evenodd" d="M43.1621 44.4336C38.7188 44.4336 34.877 43.5723 33.0996 42.3418V48.1113C34.877 49.3555 38.7051 50.2031 43.1621 50.2031C47.6055 50.2031 51.4473 49.3418 53.2246 48.1113V42.3418C51.4473 43.5723 47.6191 44.4336 43.1621 44.4336Z" fill="#EEB9A2"/>
<path fill-rule="evenodd" clip-rule="evenodd" d="M51.3789 41.2754C49.9707 41.2754 49.4785 40.8242 49.4785 38.7734C49.4785 40.6738 49.2188 41.2754 47.5781 41.2754C49.2188 41.2754 49.4785 41.9316 49.4785 43.3672C49.4785 42.082 49.7383 41.2754 51.3789 41.2754Z" fill="white"/>
<path fill-rule="evenodd" clip-rule="evenodd" d="M34.7539 62.3301C35.7656 62.3301 36.5859 61.5098 36.5859 60.498C36.5859 59.4863 35.7656 58.6523 34.7539 58.6523C33.7285 58.6523 32.9082 59.4727 32.9082 60.498C32.9082 61.5234 33.7285 62.3301 34.7539 62.3301Z" fill="#EEB9A2"/>
<path fill-rule="evenodd" clip-rule="evenodd" d="M29.5586 59.3223C30.0371 59.3223 30.4473 58.9258 30.4473 58.4336C30.4473 57.9414 30.0508 57.5449 29.5586 57.5449C29.0664 57.5449 28.6699 57.9414 28.6699 58.4336C28.6836 58.9258 29.0664 59.3223 29.5586 59.3223Z" fill="#EEB9A2"/>
<path fill-rule="evenodd" clip-rule="evenodd" d="M24.7598 11.334C25.252 11.334 25.6484 10.9375 25.6484 10.4453C25.6484 9.95312 25.252 9.55664 24.7598 9.55664C24.2676 9.55664 23.8711 9.95312 23.8711 10.4453C23.8711 10.9375 24.2676 11.334 24.7598 11.334Z" fill="#EEB9A2"/>
<path fill-rule="evenodd" clip-rule="evenodd" d="M53.7852 25.3613C57.3945 25.3613 60.3203 28.2871 60.3203 31.8965C60.3203 35.5059 57.3945 38.4316 53.7852 38.4316C50.1758 38.4316 47.25 35.5059 47.25 31.8965C47.25 28.2734 50.1758 25.3613 53.7852 25.3613Z" fill="#7FA389"/>
<path fill-rule="evenodd" clip-rule="evenodd" d="M53.7852 25.3613C57.3945 25.3613 60.3203 28.2871 60.3203 31.8965C60.3203 32.3066 60.2793 32.7031 60.2109 33.0859C59.0215 34.6719 57.1211 35.7109 54.9883 35.7109C51.3789 35.7109 48.4531 32.7852 48.4531 29.1758C48.4531 28.7793 48.4941 28.3828 48.5625 28C49.7383 26.3867 51.6523 25.3613 53.7852 25.3613Z" fill="#C3D3A2"/>
<path d="M50.7227 31.5547C50.4492 31.0898 51.1602 30.6797 51.4336 31.1445L52.6504 33.25L56.998 29.5039C57.4082 29.1484 57.9414 29.7773 57.5312 30.1191L52.8008 34.1934C52.6094 34.3574 52.3086 34.3164 52.1855 34.084L50.7227 31.5547ZM53.7852 24.9512C57.6133 24.9512 60.7305 28.0547 60.7305 31.8965C60.7305 35.793 57.5312 38.9238 53.6484 38.8418V45.9648C60.1426 45.8281 65.3652 40.5098 65.3652 33.9883C65.3652 28.8066 62.043 24.2539 57.2031 22.627C57.0117 22.5586 56.9023 22.3672 56.9297 22.1758C58.2422 14.8477 52.623 8.09375 45.1445 8.09375C39.9766 8.09375 35.4238 11.416 33.7969 16.2285C33.7148 16.4609 33.4414 16.584 33.2227 16.4609C27.8496 13.7539 21.2734 16.2832 19.127 21.9434C19.0586 22.1348 18.8672 22.2305 18.6758 22.2031C11.3477 20.9316 4.64844 26.5371 4.64844 33.9746C4.64844 40.5918 10.0078 45.9512 16.625 45.9512H32.7031V42.793C29.1211 43.709 24.0488 43.6133 20.8086 42.5469C19.0312 41.959 17.9512 41.1113 17.9512 40.1133V26.4004C17.9648 25.3887 19.0449 24.541 20.8086 23.9668C24.3359 22.8047 29.9961 22.8047 33.5234 23.9668C35.3008 24.5547 36.3809 25.4023 36.3809 26.4004V33.1406C39.375 32.2793 43.4355 32.0879 46.8672 32.5254C46.5117 28.4375 49.7109 24.9512 53.7852 24.9512ZM52.8145 38.7598C52.2949 38.6914 51.8027 38.5547 51.3242 38.377C50.3809 38.7734 49.1777 39.1152 47.7969 39.3477C44.0371 39.9766 39.2109 39.8125 35.916 38.7324C34.8906 38.3906 34.0703 37.9805 33.5098 37.502V42.1094C37.5156 44.6387 48.8086 44.6387 52.8145 42.1094V38.7598ZM50.3125 37.8984C48.6445 36.9277 47.4277 35.2871 47.0039 33.3594C43.5176 32.8809 39.1426 33.0859 36.1895 34.0566C28.5879 36.5586 38.7871 40.0312 47.6738 38.541C48.6582 38.377 49.5469 38.1582 50.3125 37.8984ZM58.1191 27.5625C55.7266 25.1699 51.8574 25.1699 49.4648 27.5625C47.0723 29.9551 47.0723 33.8242 49.4648 36.2168C51.8574 38.6094 55.7266 38.6094 58.1191 36.2168C60.498 33.8242 60.498 29.9551 58.1191 27.5625ZM24.7598 10.9238C25.375 10.9238 25.3887 9.98047 24.7598 9.98047C24.1309 9.98047 24.1445 10.9238 24.7598 10.9238ZM25.6758 11.3613C24.8555 12.1816 23.4609 11.5801 23.4609 10.4453C23.4609 9.31055 24.8555 8.70898 25.6758 9.5293C26.1816 10.0352 26.1816 10.8281 25.6758 11.3613ZM29.5586 58.9121C30.1738 58.9121 30.1875 57.9688 29.5586 57.9688C28.9297 57.9551 28.9434 58.9121 29.5586 58.9121ZM30.4746 59.3496C29.6543 60.1699 28.2598 59.5684 28.2598 58.4336C28.2598 57.2988 29.6406 56.6973 30.4746 57.5176C30.9805 58.0234 30.9805 58.8164 30.4746 59.3496ZM34.7539 61.9199C36.0254 61.9199 36.6543 60.375 35.7656 59.4863C34.877 58.584 33.332 59.2266 33.332 60.498C33.3184 61.2773 33.9609 61.9199 34.7539 61.9199ZM36.3398 62.084C34.9316 63.4922 32.498 62.4941 32.498 60.498C32.498 58.502 34.918 57.4902 36.3398 58.8984C37.2285 59.7734 37.2285 61.1953 36.3398 62.084ZM35.2051 51.9258C34.7266 51.6934 35.0684 50.9551 35.5605 51.1875C36.6406 51.6934 39.1152 52.1035 40.5508 52.1309C41.084 52.1445 41.0703 52.9648 40.5371 52.9512C38.9648 52.9102 36.3945 52.4863 35.2051 51.9258ZM35.2051 46.6895C34.7266 46.457 35.0684 45.7188 35.5605 45.9512C36.6406 46.457 39.1152 46.8672 40.5508 46.8945C41.084 46.9082 41.0703 47.7148 40.5371 47.7148C38.9648 47.6875 36.3945 47.2637 35.2051 46.6895ZM35.2051 41.166C34.7266 40.9336 35.0684 40.1953 35.5605 40.4277C36.6406 40.9473 39.1152 41.3438 40.5508 41.3711C41.084 41.3848 41.0703 42.2051 40.5371 42.1914C38.9648 42.1504 36.3945 41.7266 35.2051 41.166ZM43.1621 44.8438C40.0176 44.8438 35.998 44.3789 33.5098 43.0664V47.8926C37.5156 50.4219 48.8086 50.4219 52.8145 47.8926V43.0664C50.3398 44.3789 46.3066 44.8438 43.1621 44.8438ZM53.6348 46.7715V51.6797C53.6348 52.7871 52.4043 53.7441 50.4082 54.4004C46.4023 55.7266 39.9355 55.7266 35.9297 54.4004C33.9336 53.7441 32.7031 52.7871 32.7031 51.6797V46.7852H16.625C9.55664 46.7852 3.82812 41.0566 3.82812 33.9883C3.82812 26.1816 10.7598 20.207 18.4707 21.3281C20.8496 15.5859 27.5215 12.9609 33.1543 15.5176C35.0273 10.582 39.7578 7.25977 45.1172 7.25977C52.9512 7.25977 58.9395 14.2324 57.7637 21.9707C62.7676 23.7891 66.1719 28.5742 66.1719 33.9746C66.1719 40.9473 60.5938 46.6348 53.6348 46.7715ZM52.8145 48.8223C48.3438 51.1875 37.9941 51.1875 33.5098 48.8223V51.666C33.5098 52.377 34.5352 53.0742 36.1758 53.6211C40.0176 54.8789 46.3066 54.8789 50.1484 53.6211C51.7891 53.0742 52.8145 52.3906 52.8145 51.666V48.8223ZM32.6895 35.9844C32.7031 34.9453 33.7832 34.043 35.5605 33.4004V32.6621C31.5957 34.6992 22.709 34.6992 18.7578 32.6621V36.7773C20.7402 38.0078 24.5 38.418 27.166 38.418C29.0254 38.418 30.9668 38.2402 32.7031 37.8437V35.9844H32.6895ZM32.6895 41.9453V38.6777C29.3535 39.416 25.1016 39.4023 21.8613 38.7324C20.6172 38.4727 19.5508 38.1172 18.7578 37.707V40.1133C18.7578 40.7148 19.6328 41.3027 21.0547 41.7676C24.1855 42.8066 29.2578 42.8887 32.6895 41.9453ZM58.3789 49.9434C60.334 49.9434 61.3184 52.3086 59.9375 53.6895C58.5566 55.0703 56.1914 54.0859 56.1914 52.1445C56.1914 50.9141 57.1758 49.9434 58.3789 49.9434ZM59.3496 51.1602C58.4883 50.2988 56.998 50.9141 56.998 52.1309C56.998 53.3477 58.4746 53.9629 59.3496 53.1016C59.8965 52.5684 59.8965 51.6934 59.3496 51.1602ZM18.1836 9.33789C20.125 9.33789 21.1094 11.7031 19.7285 13.084C18.3477 14.4648 15.9824 13.4805 15.9824 11.5254C15.9961 10.3223 16.9668 9.33789 18.1836 9.33789ZM19.1543 10.5547C18.293 9.69336 16.8164 10.3086 16.8164 11.5254C16.8164 12.7422 18.3066 13.3574 19.1543 12.4961C19.6875 11.9629 19.6875 11.0879 19.1543 10.5547ZM9.63867 49.6973C11.6348 49.6973 12.6328 52.1172 11.2246 53.5254C9.81641 54.9336 7.39648 53.9219 7.39648 51.9395C7.39648 50.709 8.39453 49.6973 9.63867 49.6973ZM10.6504 50.9414C9.76172 50.0527 8.23047 50.6816 8.23047 51.9395C8.23047 53.1973 9.76172 53.8398 10.6504 52.9375C11.1973 52.3906 11.1973 51.4883 10.6504 50.9414ZM20.1797 40.3867C19.7012 40.1543 20.043 39.416 20.5352 39.6484C21.4648 40.0996 23.625 40.4414 24.8828 40.4688C25.416 40.4824 25.4023 41.2891 24.8691 41.2891C23.4746 41.2617 21.2188 40.8926 20.1797 40.3867ZM20.1797 35.8066C19.7012 35.5742 20.043 34.8359 20.5352 35.0684C21.4648 35.5195 23.625 35.8613 24.8828 35.8887C25.416 35.9023 25.4023 36.709 24.8691 36.709C23.4746 36.6816 21.2188 36.2988 20.1797 35.8066ZM20.1797 30.9668C19.7012 30.7344 20.043 29.9961 20.5352 30.2285C21.4648 30.6797 23.625 31.0215 24.8828 31.0488C25.416 31.0625 25.4023 31.8691 24.8691 31.8691C23.4746 31.8281 21.2188 31.459 20.1797 30.9668ZM18.7578 31.7188C22.2578 33.9062 32.0605 33.9062 35.5605 31.7188V27.8086C32.416 30.3242 21.9023 30.3242 18.7578 27.8086V31.7188ZM27.166 23.9121C24.7734 23.9121 22.6133 24.2266 21.0547 24.7461C17.9922 25.7441 17.9922 27.0566 21.0547 28.0547C24.418 29.1621 29.9004 29.1621 33.2637 28.0547C36.3262 27.0566 36.3262 25.7441 33.2637 24.7461C31.7051 24.2266 29.5586 23.9121 27.166 23.9121Z" fill="#010101"/>
</svg>
