<svg width="70" height="70" viewBox="0 0 70 70" fill="none" xmlns="http://www.w3.org/2000/svg">
<rect width="70" height="70" rx="35" fill="#33C481" fill-opacity="0.2"/>
<path d="M31.875 42.8125C31.875 41.0891 33.2766 39.6875 35 39.6875V38.125H41.25V39.6875C42.1875 39.6875 43.0203 40.1109 43.5938 40.7672C44.1672 40.1109 45 39.6875 45.9375 39.6875V38.125H49.0625V27.1875H17.8125V53.75H31.875V42.8125Z" fill="#F0F0F0"/>
<path d="M31.875 42.8125C31.875 41.0891 33.2766 39.6875 35 39.6875V38.125H41.25V39.6875C42.1875 39.6875 43.0203 40.1109 43.5938 40.7672C44.1672 40.1109 45 39.6875 45.9375 39.6875V38.125V33.4375H20.9375V53.75H31.875V42.8125Z" fill="#64C8F0"/>
<path d="M27.2023 24.0625H16.25V27.1875H33.4375C30.8898 27.1875 28.6297 25.9555 27.2023 24.0625Z" fill="#64C8F0"/>
<path d="M16.25 24.0625H19.375V27.1875H16.25V24.0625Z" fill="#46AAD2"/>
<path d="M39.6727 24.0625C38.2453 25.9555 35.9852 27.1875 33.4375 27.1875H50.625V24.0625H39.6727Z" fill="#64C8F0"/>
<path d="M30.3125 30.3125H36.5625V31.875H30.3125V30.3125Z" fill="#505050"/>
<path d="M20.9375 33.4375H22.5V53.75H20.9375V33.4375Z" fill="#46AAD2"/>
<path d="M20.9375 36.5625H45.9375V38.125H20.9375V36.5625Z" fill="#288CB4"/>
<path d="M20.9375 33.4375H45.9375V35H20.9375V33.4375Z" fill="#288CB4"/>
<path d="M17.8125 27.1875H20.9375V53.75H17.8125V27.1875Z" fill="#D2D2D2"/>
<path d="M33.4375 25.625C29.9859 25.625 27.1875 22.8266 27.1875 19.375C27.1875 15.9234 29.9859 13.125 33.4375 13.125C36.8891 13.125 39.6875 15.9234 39.6875 19.375C39.6875 22.8266 36.8891 25.625 33.4375 25.625Z" fill="#FAB400"/>
<path d="M28.75 19.375C28.75 16.1883 31.1367 13.5641 34.2188 13.1789C33.9625 13.1469 33.7023 13.125 33.4375 13.125C29.9859 13.125 27.1875 15.9234 27.1875 19.375C27.1875 22.8266 29.9859 25.625 33.4375 25.625C33.7023 25.625 33.9625 25.6031 34.2188 25.5711C31.1367 25.1859 28.75 22.5617 28.75 19.375Z" fill="#DC9600"/>
<path d="M33.4375 14.6875L31.0938 20.1562H33.4375V24.0625L35.7812 18.5938H33.4375V14.6875Z" fill="#F0F0F0"/>
<path d="M45.9375 56.875H52.1875C53.0508 56.875 53.75 56.1758 53.75 55.3125V42.8125C53.75 41.9492 53.0508 41.25 52.1875 41.25H45.9375C45.0742 41.25 44.375 41.9492 44.375 42.8125V55.3125C44.375 56.1758 45.0742 56.875 45.9375 56.875Z" fill="#F0F0F0"/>
<path d="M45.9375 55.3125V42.8125C45.9375 41.9492 46.6367 41.25 47.5 41.25H45.9375C45.0742 41.25 44.375 41.9492 44.375 42.8125V55.3125C44.375 56.1758 45.0742 56.875 45.9375 56.875H47.5C46.6367 56.875 45.9375 56.1758 45.9375 55.3125Z" fill="#D2D2D2"/>
<path d="M45.9375 42.8125H52.1875V45.9375H45.9375V42.8125Z" fill="#3CC8B4"/>
<path d="M45.9375 47.5H52.1875V50.625H45.9375V47.5Z" fill="#3CC8B4"/>
<path d="M45.9375 52.1875H52.1875V55.3125H45.9375V52.1875Z" fill="#3CC8B4"/>
<path d="M45.9375 42.8125H47.5V45.9375H45.9375V42.8125Z" fill="#1EAA96"/>
<path d="M45.9375 47.5H47.5V50.625H45.9375V47.5Z" fill="#1EAA96"/>
<path d="M45.9375 52.1875H47.5V55.3125H45.9375V52.1875Z" fill="#1EAA96"/>
<path d="M47.5 39.6875H50.625V41.25H47.5V39.6875Z" fill="#505050"/>
<path d="M35 56.875H41.25C42.1133 56.875 42.8125 56.1758 42.8125 55.3125V42.8125C42.8125 41.9492 42.1133 41.25 41.25 41.25H35C34.1367 41.25 33.4375 41.9492 33.4375 42.8125V55.3125C33.4375 56.1758 34.1367 56.875 35 56.875Z" fill="#F0F0F0"/>
<path d="M35 55.3125V42.8125C35 41.9492 35.6992 41.25 36.5625 41.25H35C34.1367 41.25 33.4375 41.9492 33.4375 42.8125V55.3125C33.4375 56.1758 34.1367 56.875 35 56.875H36.5625C35.6992 56.875 35 56.1758 35 55.3125Z" fill="#D2D2D2"/>
<path d="M35 42.8125H41.25V45.9375H35V42.8125Z" fill="#3CC8B4"/>
<path d="M35 47.5H41.25V50.625H35V47.5Z" fill="#3CC8B4"/>
<path d="M35 52.1875H41.25V55.3125H35V52.1875Z" fill="#3CC8B4"/>
<path d="M35 42.8125H36.5625V45.9375H35V42.8125Z" fill="#1EAA96"/>
<path d="M35 47.5H36.5625V50.625H35V47.5Z" fill="#1EAA96"/>
<path d="M35 52.1875H36.5625V55.3125H35V52.1875Z" fill="#1EAA96"/>
<path d="M35 39.6875H20.9375V41.25H32.3094C32.8516 40.3203 33.8484 39.6875 35 39.6875Z" fill="#288CB4"/>
<path d="M45.9375 39.6875H41.25C42.1875 39.6875 43.0203 40.1109 43.5938 40.7672C44.1672 40.1109 45 39.6875 45.9375 39.6875Z" fill="#288CB4"/>
<path d="M20.9375 42.8125H31.875V44.375H20.9375V42.8125Z" fill="#288CB4"/>
<path d="M20.9375 45.9375H31.875V47.5H20.9375V45.9375Z" fill="#288CB4"/>
<path d="M20.9375 49.0625H31.875V50.625H20.9375V49.0625Z" fill="#288CB4"/>
<path d="M20.9375 52.1875H31.875V53.75H20.9375V52.1875Z" fill="#288CB4"/>
<path d="M36.5625 39.6875H39.6875V41.25H36.5625V39.6875Z" fill="#505050"/>
</svg>
