<svg width="70" height="70" viewBox="0 0 70 70" fill="none" xmlns="http://www.w3.org/2000/svg">
<g clip-path="url(#clip0_641_770)">
<path d="M69.9997 32.5058V37.4945C69.9997 38.8932 68.9729 40.0791 67.5899 40.2818L63.4941 40.879C62.9279 40.9621 62.4716 41.3805 62.3307 41.9353C61.6547 44.5974 60.5997 47.11 59.225 49.4114C58.9307 49.9044 58.9575 50.524 59.2997 50.9832L61.7785 54.31C62.6151 55.4311 62.5011 56.9958 61.5123 57.9846L57.9842 61.5127C56.9954 62.5015 55.4307 62.6155 54.3096 61.7789L50.9828 59.3001C50.5237 58.9579 49.904 58.9311 49.411 59.2254C49.1645 59.3719 48.9166 59.5156 48.6645 59.6536C33.1532 55.8306 25.2715 42.6804 25.2715 28.2677C25.2715 18.5452 31.1939 6.38897 38.732 0.287354C39.5447 0.684521 40.1432 1.46341 40.2813 2.40991L40.8786 6.50573C40.9617 7.07188 41.38 7.52825 41.9349 7.66907C44.5968 8.34515 47.1096 9.40007 49.411 10.7748C49.904 11.0691 50.5236 11.0423 50.9828 10.7001L54.3096 8.22128C55.4307 7.3847 56.9956 7.49872 57.9842 8.48747L61.5123 12.0156C62.5011 13.0044 62.6151 14.5691 61.7785 15.6902L59.2997 19.017C58.9575 19.4761 58.9307 20.0958 59.225 20.5889C60.5997 22.8902 61.6547 25.403 62.3307 28.0649C62.4716 28.6199 62.9279 29.0381 63.4941 29.1212L67.5899 29.7184C68.9729 29.9213 69.9997 31.1072 69.9997 32.5058Z" fill="#FD7A6E"/>
<path d="M48.6648 59.6535C46.5704 60.8211 44.3126 61.7267 41.9352 62.331C41.3803 62.4719 40.962 62.9282 40.8789 63.4944L40.2817 67.5902C40.0788 68.9732 38.8929 70 37.4943 70H32.5056C31.1069 70 29.921 68.9732 29.7183 67.5902L29.1211 63.4944C29.038 62.9282 28.6197 62.4719 28.0648 62.331C25.4029 61.655 22.8901 60.6 20.5887 59.2253C20.0957 58.931 19.4761 58.9578 19.0169 59.3L15.6901 61.7788C14.569 62.6154 13.0041 62.5014 12.0155 61.5126L8.48736 57.9845C7.49861 56.9957 7.38459 55.431 8.22117 54.3099L10.7 50.9831C11.0422 50.524 11.069 49.9043 10.7747 49.4112C9.39996 47.1099 8.34504 44.5971 7.66896 41.9352C7.52814 41.3803 7.07178 40.9619 6.50562 40.8789L2.4098 40.2817C1.02676 40.0788 0 38.8929 0 37.4943V32.5056C0 31.1069 1.02676 29.921 2.4098 29.7183L6.50562 29.1211C7.07178 29.038 7.52814 28.6197 7.66896 28.0648C8.34504 25.4029 9.39996 22.8901 10.7747 20.5887C11.069 20.0957 11.0422 19.4761 10.7 19.0169L8.22117 15.6901C7.38459 14.569 7.49861 13.0041 8.48736 12.0155L12.0155 8.48736C13.0043 7.49861 14.569 7.38459 15.6901 8.22117L19.0169 10.7C19.476 11.0422 20.0957 11.069 20.5887 10.7747C22.8901 9.39996 25.4029 8.34504 28.0648 7.6691C28.6197 7.52828 29.038 7.07191 29.1211 6.50576L29.7183 2.40994C29.9212 1.02676 31.1071 0 32.5057 0H37.4944C37.9367 0 38.3578 0.102812 38.7324 0.287383C32.8915 7.15641 29.3662 16.0564 29.3662 25.7789C29.3662 40.1915 37.1098 52.7944 48.6648 59.6535Z" fill="#FB695B"/>
<path d="M34.9998 15.6846C33.4646 15.6846 31.9717 15.8634 30.5406 16.2015C27.6879 19.8714 26.3174 23.8932 26.3174 27.196C26.3174 37.9834 30.6619 48.1368 40.7322 53.4494C48.6012 51.0086 54.3153 43.672 54.3153 35.0002C54.3153 24.3324 45.6675 15.6846 34.9998 15.6846Z" fill="#7FB0E4"/>
<path d="M29.3663 25.7788C29.3663 22.4761 29.7733 19.2676 30.541 16.2014C22.0226 18.2141 15.6846 25.8676 15.6846 35C15.6846 45.6676 24.3324 54.3155 35.0001 54.3155C36.9959 54.3155 38.9212 54.0126 40.7324 53.4492C33.7042 46.3394 29.3663 36.5662 29.3663 25.7788Z" fill="#68A2DF"/>
<path d="M45.1634 31.4029L35 41.5663C34.4676 42.0987 33.8295 42.4592 33.1535 42.6465C31.4178 41.0596 30.3805 39.0987 30.8112 36.3818L31.5154 37.086C31.7901 37.3607 32.2366 37.3607 32.5112 37.086L41.6787 27.9184C42.1604 27.4367 42.79 27.1958 43.4209 27.1958C44.0519 27.1958 44.6815 27.4367 45.1631 27.917C46.1253 28.8804 46.1254 30.441 45.1634 31.4029Z" fill="#F8EA69"/>
<path d="M33.1533 42.6466C31.7321 43.0452 30.1421 42.6847 29.0237 41.5664L24.8364 37.379C24.3548 36.8987 24.1152 36.2678 24.1152 35.6368C24.1152 35.0059 24.3546 34.3749 24.8364 33.8931C25.7984 32.9311 27.3604 32.9311 28.3223 33.8931L30.811 36.3818C31.4153 38.5522 32.2027 40.6452 33.1533 42.6466Z" fill="#F6CA56"/>
<path d="M58.1942 30.1731C57.7385 29.8092 57.0736 29.8833 56.7095 30.3392L55.2058 32.2219C53.8451 22.2981 45.3024 14.6279 34.9997 14.6279C29.5516 14.6279 24.4304 16.7472 20.5793 20.5953C20.1665 21.0076 20.1662 21.6765 20.5787 22.0892C20.9909 22.5021 21.6598 22.5022 22.0726 22.0899C25.5249 18.6405 30.1158 16.7406 34.9998 16.7406C44.2137 16.7406 51.8575 23.5833 53.1042 32.4479L51.2621 30.7706C50.8308 30.3781 50.1626 30.409 49.7698 30.8406C49.377 31.2719 49.4085 31.9399 49.8398 32.3327L53.6275 35.7812C53.8227 35.9589 54.0766 36.0564 54.3385 36.0564C54.3663 36.0564 54.3942 36.0553 54.4221 36.0531C54.7132 36.03 54.9817 35.8876 55.1639 35.6594L58.3603 31.6578C58.7243 31.2019 58.65 30.5373 58.1942 30.1731Z" fill="#FFF8E6"/>
<path d="M49.4208 47.9111C49.0084 47.4982 48.3396 47.498 47.9269 47.9104C44.4746 51.3598 39.8837 53.2596 34.9997 53.2596C25.7858 53.2596 18.142 46.417 16.8953 37.5524L18.7374 39.2297C19.1688 39.6222 19.8368 39.5913 20.2297 39.1597C20.6225 38.7284 20.591 38.0603 20.1597 37.6676L16.372 34.2191C16.1562 34.0225 15.8689 33.9241 15.5774 33.9472C15.2864 33.9703 15.0178 34.1127 14.8356 34.3409L11.6392 38.3425C11.2752 38.7984 11.3494 39.4629 11.8054 39.8272C12 39.9826 12.2327 40.0581 12.4639 40.0581C12.7741 40.0581 13.0814 39.9222 13.29 39.6611L14.7938 37.7784C16.1544 47.7022 24.6973 55.3724 34.9998 55.3724C40.4479 55.3724 45.5691 53.2531 49.4202 49.405C49.833 48.9925 49.8333 48.3237 49.4208 47.9111Z" fill="#FFF8E6"/>
</g>
<defs>
<clipPath id="clip0_641_770">
<rect width="70" height="70" fill="white"/>
</clipPath>
</defs>
</svg>
