<svg width="70" height="70" viewBox="0 0 70 70" fill="none" xmlns="http://www.w3.org/2000/svg">
<path d="M50.6897 67.5863H19.3103C17.9767 67.5863 16.8965 66.5061 16.8965 65.1726C16.8965 63.839 17.9767 62.7588 19.3103 62.7588H50.6895C52.0231 62.7588 53.1033 63.839 53.1033 65.1726C53.1034 66.5061 52.0232 67.5863 50.6897 67.5863Z" fill="#E7ECED"/>
<path d="M41.0341 51.8965H28.9651C28.9651 57.2334 27.0606 62.7585 21.7236 62.7585H48.2754C42.9386 62.7585 41.0341 57.2334 41.0341 51.8965Z" fill="#AFB6BB"/>
<path d="M60.3448 2.41382H9.65522H3.62195C1.62203 2.41382 0 4.03585 0 6.03577V43.4483H9.65522H27.7587H42.2414H60.3449H70V6.03577C70 4.03599 68.378 2.41382 66.378 2.41382H60.3448Z" fill="#AFB6BB"/>
<path d="M66.378 53.1035H3.62195C1.62203 53.1035 0 51.4813 0 49.4815V43.4482H70V49.4815C70 51.4813 68.378 53.1035 66.378 53.1035Z" fill="#E7ECED"/>
<path d="M38.6203 49.4828H31.3788C30.7126 49.4828 30.1719 48.942 30.1719 48.2758C30.1719 47.6096 30.7126 47.0688 31.3788 47.0688H38.6203C39.2865 47.0688 39.8272 47.6096 39.8272 48.2758C39.8271 48.942 39.2865 49.4828 38.6203 49.4828Z" fill="#AFB6BB"/>
<path d="M65.1719 7.24146H4.82715V43.4484H65.1719V7.24146Z" fill="#EBBA16"/>
<path d="M19.3105 34.9999C24.6429 34.9999 28.9657 30.6771 28.9657 25.3447C28.9657 20.0122 24.6429 15.6895 19.3105 15.6895C13.9781 15.6895 9.65527 20.0122 9.65527 25.3447C9.65527 30.6771 13.9781 34.9999 19.3105 34.9999Z" fill="#BE7C6D"/>
<path d="M19.3099 31.3793C15.9824 31.3793 13.2754 28.6723 13.2754 25.3448C13.2754 22.0173 15.9824 19.3103 19.3099 19.3103C19.9761 19.3103 20.5168 19.851 20.5168 20.5173C20.5168 21.1835 19.9761 21.7242 19.3099 21.7242C17.3137 21.7242 15.6892 23.3487 15.6892 25.3449C15.6892 27.3412 17.3137 28.9657 19.3099 28.9657C21.3061 28.9657 22.9306 27.3412 22.9306 25.3449C22.9306 24.6787 23.4713 24.138 24.1376 24.138C24.8038 24.138 25.3445 24.6787 25.3445 25.3449C25.3444 28.6723 22.6373 31.3793 19.3099 31.3793Z" fill="#6B4842"/>
<path d="M50.6894 34.9999C56.0218 34.9999 60.3446 30.6771 60.3446 25.3447C60.3446 20.0122 56.0218 15.6895 50.6894 15.6895C45.357 15.6895 41.0342 20.0122 41.0342 25.3447C41.0342 30.6771 45.357 34.9999 50.6894 34.9999Z" fill="#E7ECED"/>
<path d="M38.621 16.8966H30.1728C29.5065 16.8966 28.9658 16.3558 28.9658 15.6896C28.9658 15.0234 29.5065 14.4827 30.1728 14.4827H38.621C39.2873 14.4827 39.828 15.0234 39.828 15.6896C39.828 16.3558 39.2873 16.8966 38.621 16.8966Z" fill="#366DB6"/>
<path d="M38.6209 16.8966C38.3119 16.8966 38.0029 16.7783 37.7677 16.543L34.1469 12.9223C33.675 12.4504 33.675 11.6876 34.1469 11.2158C34.6177 10.7438 35.3827 10.7438 35.8535 11.2158L39.4742 14.8365C39.9461 15.3085 39.9461 16.0712 39.4742 16.543C39.2389 16.7783 38.9299 16.8966 38.6209 16.8966Z" fill="#366DB6"/>
<path d="M35.0002 20.5172C34.6912 20.5172 34.3822 20.3989 34.1469 20.1636C33.675 19.6917 33.675 18.9289 34.1469 18.4571L37.7677 14.8364C38.2384 14.3644 39.0035 14.3644 39.4742 14.8364C39.9461 15.3083 39.9461 16.0711 39.4742 16.5429L35.8535 20.1636C35.6182 20.3989 35.3092 20.5172 35.0002 20.5172Z" fill="#366DB6"/>
<path d="M38.6201 36.2069H30.1718C29.5056 36.2069 28.9648 35.6662 28.9648 34.9999C28.9648 34.3337 29.5056 33.793 30.1718 33.793H38.6201C39.2863 33.793 39.827 34.3337 39.827 34.9999C39.827 35.6662 39.2863 36.2069 38.6201 36.2069Z" fill="#25AE88"/>
<path d="M33.7928 39.8275C33.4838 39.8275 33.1748 39.7092 32.9395 39.4739L29.3188 35.8532C28.8469 35.3813 28.8469 34.6185 29.3188 34.1467C29.7895 33.6747 30.5546 33.6747 31.0253 34.1467L34.6461 37.7674C35.118 38.2394 35.118 39.0021 34.6461 39.4739C34.4108 39.7092 34.1018 39.8275 33.7928 39.8275Z" fill="#25AE88"/>
<path d="M30.1721 36.2069C29.8631 36.2069 29.5541 36.0886 29.3188 35.8533C28.8469 35.3814 28.8469 34.6186 29.3188 34.1468L32.9395 30.5261C33.4103 30.0541 34.1753 30.0541 34.6461 30.5261C35.118 30.998 35.118 31.7608 34.6461 32.2326L31.0253 35.8533C30.7899 36.0885 30.4811 36.2069 30.1721 36.2069Z" fill="#25AE88"/>
<path d="M50.7032 31.3792H50.6899C49.0884 31.3792 47.5797 30.7577 46.4416 29.6304C45.9686 29.1609 45.9649 28.3969 46.4332 27.9239C46.9027 27.4496 47.6666 27.4459 48.1397 27.9154C48.824 28.5924 49.7292 28.9654 50.6899 28.9654C51.3561 28.9654 51.9041 29.5061 51.9041 30.1724C51.904 30.8385 51.3705 31.3792 50.7032 31.3792ZM54.109 29.9599C53.8 29.9599 53.4922 29.8416 53.2557 29.6074C52.7838 29.1367 52.7838 28.3727 53.2545 27.9009C53.9352 27.2179 54.3105 26.3102 54.3105 25.3447C54.3105 24.6821 54.8452 24.1149 55.5077 24.11C56.1969 24.1257 56.7135 24.6072 56.723 25.2698C56.723 25.2758 56.723 25.3385 56.723 25.3446C56.723 26.9533 56.0978 28.4668 54.961 29.6048C54.7269 29.8416 54.4179 29.9599 54.109 29.9599ZM45.8622 26.5649C45.196 26.5649 44.6553 26.0387 44.6553 25.3724H45.8622L44.6553 25.3677C44.6553 23.7492 45.272 22.2454 46.392 21.1097C46.859 20.6342 47.6243 20.6294 48.0985 21.0977C48.5728 21.5659 48.5777 22.3299 48.1106 22.8042C47.4383 23.4849 47.069 24.3877 47.069 25.3447C47.0692 26.0109 46.5285 26.5649 45.8622 26.5649ZM54.0692 23.1035C53.765 23.1035 53.4597 22.9887 53.2255 22.7582C52.5424 22.0908 51.6432 21.724 50.6898 21.724C50.0235 21.724 49.4612 21.1845 49.4612 20.517C49.4612 19.8508 49.9802 19.3101 50.6477 19.3101V20.517L50.6561 19.3101C50.6574 19.3101 50.6574 19.3101 50.6586 19.3101C52.2794 19.3101 53.7771 19.922 54.9129 21.0335C55.3896 21.4993 55.3969 22.2646 54.9309 22.7401C54.6944 22.9816 54.3817 23.1035 54.0692 23.1035Z" fill="#AFB6BB"/>
</svg>
