<svg width="66" height="66" viewBox="0 0 66 66" fill="none" xmlns="http://www.w3.org/2000/svg">
<path d="M19.875 60.3438H11.125C10.8349 60.3438 10.5567 60.2285 10.3516 60.0234C10.1465 59.8183 10.0312 59.5401 10.0312 59.25V42.8438H12.2188V58.1562H19.875V60.3438ZM54.875 60.3438H46.125V58.1562H53.7812V29.7188H55.9688V59.25C55.9688 59.5401 55.8535 59.8183 55.6484 60.0234C55.4433 60.2285 55.1651 60.3438 54.875 60.3438Z" fill="#E2E7F6"/>
<path d="M26.9713 14.4064H22.0625L11.2956 25.1733C10.1479 24.1923 9.24124 22.9604 8.64573 21.573C8.05023 20.1855 7.78186 18.6797 7.86138 17.172C7.9409 15.6642 8.36619 14.195 9.10434 12.8779C9.84248 11.5608 10.8737 10.4311 12.1183 9.57632C13.3628 8.7215 14.7873 8.16442 16.2816 7.94817C17.7758 7.73192 19.2998 7.8623 20.7356 8.32921C22.1715 8.79613 23.4807 9.58707 24.5619 10.6409C25.6432 11.6947 26.4675 12.983 26.9713 14.4064Z" fill="#F4A93C"/>
<path d="M19.875 51.5938H46.125V65.8125H19.875V51.5938Z" fill="#3B5892"/>
<path d="M43.9375 60.3438V51.5938H19.875V63.625H40.6562C41.5265 63.625 42.3611 63.2793 42.9764 62.6639C43.5918 62.0486 43.9375 61.214 43.9375 60.3438Z" fill="#4C6CB5"/>
<path d="M19.875 51.5938H46.125V55.9688H19.875V51.5938Z" fill="#C8CDED"/>
<path d="M43.9375 52.6875V51.5938H19.875V53.7812H42.8438C43.1338 53.7812 43.412 53.666 43.6171 53.4609C43.8223 53.2558 43.9375 52.9776 43.9375 52.6875Z" fill="#E2E7F6"/>
<path d="M65.8125 14.4062H22.0625L0.1875 36.2812H43.9375L65.8125 14.4062Z" fill="#3B5892"/>
<path d="M0.1875 36.2812H43.9375V42.8438H0.1875V36.2812Z" fill="#939393"/>
<path d="M65.8125 14.4062L43.9375 36.2812V42.8438L65.8125 20.9688V14.4062Z" fill="#B5B5B5"/>
<path d="M58.1562 22.0625L60.3438 19.875H50.9528L56.4216 14.4062H53.3284L47.8597 19.875H40.0153L45.4841 14.4062H42.3909L36.9222 19.875H29.0778L34.5466 14.4062H31.4534L25.9847 19.875H16.5938L14.4062 22.0625H23.7972L19.4222 26.4375H10.0312L7.84375 28.625H17.2347L9.57844 36.2812H12.6716L20.3278 28.625H28.1722L20.5159 36.2812H23.6091L31.2653 28.625H39.1097L31.4534 36.2812H34.5466L42.2028 28.625H51.5938L53.7812 26.4375H44.3903L48.7653 22.0625H58.1562ZM30.3597 26.4375H22.5153L26.8903 22.0625H34.7347L30.3597 26.4375ZM41.2972 26.4375H33.4528L37.8278 22.0625H45.6722L41.2972 26.4375Z" fill="#4C6CB5"/>
<path d="M40.6562 38.4688V36.2812H0.1875V39.5625H39.5625C39.8526 39.5625 40.1308 39.4473 40.3359 39.2421C40.541 39.037 40.6562 38.7588 40.6562 38.4688Z" fill="#B5B5B5"/>
<path d="M22.0625 51.5938V47.2188H28.625V51.5938M37.375 51.5938V47.2188H43.9375V51.5938" fill="#5E87CA"/>
<path d="M41.75 48.3125V47.2188H37.375V49.4062H40.6562C40.9463 49.4062 41.2245 49.291 41.4296 49.0859C41.6348 48.8808 41.75 48.6026 41.75 48.3125ZM26.4375 48.3125V47.2188H22.0625V49.4062H25.3438C25.6338 49.4062 25.912 49.291 26.1171 49.0859C26.3223 48.8808 26.4375 48.6026 26.4375 48.3125Z" fill="#78A0D4"/>
<path d="M27.5312 59.25H38.4688V61.4375H27.5312V59.25Z" fill="#C8CDED"/>
<path d="M16.5938 0.1875H18.7812V4.5625H16.5938V0.1875ZM0.1875 16.5938H4.5625V18.7812H0.1875V16.5938ZM3.78703 5.33578L5.33359 3.78922L8.61484 7.07047L7.06828 8.61703L3.78703 5.33578ZM26.7547 7.07266L30.0359 3.79141L31.5814 5.33797L28.3002 8.61922L26.7547 7.07266Z" fill="#F9D266"/>
</svg>
