<svg width="66" height="66" viewBox="0 0 66 66" fill="none" xmlns="http://www.w3.org/2000/svg">
<path fill-rule="evenodd" clip-rule="evenodd" d="M52.984 44.9204L63.2788 50.8641C63.629 51.0653 63.825 51.4316 63.8254 51.8083H63.8299V62.7362H61.6424V52.4343L51.8944 46.8063L51.9651 46.9813C52.1892 47.5405 51.9176 48.1755 51.3585 48.3997C50.7993 48.6238 50.1642 48.3523 49.94 47.7931L48.6985 44.7221C48.6581 44.6311 48.6297 44.5329 48.6153 44.4294C48.5328 43.8325 48.9497 43.2815 49.5467 43.1989L52.8658 42.7333C53.4627 42.6507 54.0137 43.0677 54.0962 43.6646C54.1788 44.2615 53.7618 44.8125 53.1649 44.8951L52.984 44.9204ZM53.0088 34.2041C53.4831 34.5745 53.5672 35.2594 53.1968 35.7337C52.8264 36.208 52.1414 36.2922 51.6672 35.9217L49.0255 33.8587C48.5512 33.4884 48.467 32.8034 48.8375 32.3291C48.8979 32.2517 48.9668 32.1847 49.0418 32.1284L51.6672 30.0782C52.1414 29.7078 52.8263 29.7919 53.1968 30.2662C53.5672 30.7404 53.4831 31.4253 53.0088 31.7958L52.8674 31.9062H62.7363V34.0938H52.8676L53.0088 34.2041ZM31.7959 55.851C31.4255 56.3253 30.7406 56.4094 30.2663 56.039C29.792 55.6687 29.7078 54.9838 30.0783 54.5094L32.1413 51.8679C32.5116 51.3936 33.1965 51.3094 33.6707 51.6799C33.7481 51.7403 33.8151 51.8092 33.8714 51.8841L35.9217 54.5096C36.292 54.9838 36.208 55.6687 35.7337 56.0392C35.2594 56.4095 34.5746 56.3255 34.2041 55.8512L34.0938 55.7097V62.7363H31.9062V55.7098L31.7959 55.851ZM12.8349 44.8951C12.238 44.8125 11.821 44.2615 11.9036 43.6646C11.9862 43.0677 12.537 42.6507 13.1341 42.7333L16.4532 43.1989C17.0501 43.2815 17.4671 43.8325 17.3845 44.4294C17.3702 44.5329 17.3417 44.6311 17.3014 44.7221L16.0599 47.7931C15.8356 48.3523 15.2006 48.6239 14.6414 48.3997C14.0822 48.1755 13.8106 47.5405 14.0348 46.9813L14.1055 46.8063L4.35742 52.4343V62.7363H2.16992V51.8084H2.17443C2.17484 51.4316 2.3709 51.0653 2.72103 50.8642L13.0158 44.9205L12.8349 44.8951ZM14.3327 35.9217C13.8584 36.292 13.1736 36.208 12.8031 35.7337C12.4327 35.2594 12.5168 34.5746 12.9911 34.2041L13.1324 34.0938H3.26367V31.9062H13.1326L12.9912 31.7958C12.5169 31.4254 12.4329 30.7404 12.8032 30.2662C13.1736 29.7919 13.8584 29.7077 14.3328 30.0782L16.9582 32.1284C17.0332 32.1847 17.1019 32.2517 17.1625 32.3291C17.5329 32.8034 17.4488 33.4882 16.9745 33.8587L14.3327 35.9217ZM13.1339 23.2669C12.537 23.3494 11.9861 22.9324 11.9035 22.3355C11.8209 21.7386 12.2379 21.1876 12.8348 21.1051L13.0158 21.0796L2.72103 15.1359C2.3709 14.9347 2.17484 14.5684 2.17443 14.1917H2.16992V3.26367H4.35742V13.5657L14.1055 19.1937L14.0348 19.0187C13.8106 18.4596 14.0822 17.8245 14.6414 17.6003C15.2006 17.3762 15.8356 17.6477 16.0599 18.2069L17.3014 21.2779C17.3417 21.3689 17.3702 21.4671 17.3845 21.5706C17.4671 22.1675 17.0501 22.7185 16.4532 22.8011L13.1339 23.2669ZM30.0783 11.4904C29.708 11.0162 29.792 10.3313 30.2663 9.96084C30.7406 9.59047 31.4254 9.67455 31.7959 10.1488L31.9062 10.2902V3.26367H34.0938V10.2903L34.2042 10.149C34.5746 9.67469 35.2596 9.59061 35.7338 9.96098C36.2081 10.3313 36.2923 11.0162 35.9218 11.4906L33.8716 14.116C33.8153 14.1909 33.7483 14.2597 33.6709 14.3203C33.1966 14.6906 32.5118 14.6065 32.1414 14.1323L30.0783 11.4904ZM53.1651 21.1049C53.762 21.1875 54.179 21.7383 54.0964 22.3354C54.0138 22.9323 53.4628 23.3493 52.8659 23.2667L49.5468 22.8011C48.9499 22.7185 48.5329 22.1676 48.6155 21.5706C48.6298 21.4671 48.6583 21.3689 48.6986 21.2779L49.9401 18.2069C50.1644 17.6477 50.7994 17.3761 51.3586 17.6003C51.9178 17.8245 52.1894 18.4596 51.9652 19.0187L51.8945 19.1937L61.6426 13.5657V3.26367H63.8301V14.1916H63.8256C63.8252 14.5684 63.6291 14.9347 63.279 15.1358L52.9842 21.0795L53.1651 21.1049Z" fill="#A79BA7"/>
<path fill-rule="evenodd" clip-rule="evenodd" d="M45.9883 20.3981V45.6018C45.9883 47.8849 40.1732 49.7356 33 49.7356C25.8268 49.7356 20.0117 47.8849 20.0117 45.6018V20.3981C20.0117 18.1149 25.8268 16.2642 33 16.2642C40.1731 16.2642 45.9883 18.1149 45.9883 20.3981Z" fill="#FFE177"/>
<path fill-rule="evenodd" clip-rule="evenodd" d="M31.6989 38.4429C30.9759 38.4429 30.3896 37.8568 30.3896 37.1338C30.3896 36.4108 30.9758 35.8247 31.6989 35.8247H34.3002C35.0232 35.8247 35.6094 36.4108 35.6094 37.1338C35.6094 37.8568 35.0233 38.4429 34.3002 38.4429H31.6989Z" fill="#FFC338"/>
<path fill-rule="evenodd" clip-rule="evenodd" d="M33 41.3344C25.8268 41.3344 20.0117 39.4836 20.0117 37.2004V45.6016C20.0117 47.8847 25.8268 49.7356 33 49.7356C40.1732 49.7356 45.9883 47.8848 45.9883 45.6016V37.2004C45.9883 39.4836 40.1731 41.3344 33 41.3344ZM20.0117 28.7992C20.0117 31.0822 25.8268 32.9331 33 32.9331C40.1732 32.9331 45.9883 31.0824 45.9883 28.7992V20.3979C45.9883 22.681 40.1731 24.5319 33 24.5319C25.8268 24.5319 20.0117 22.6812 20.0117 20.3979V28.7992Z" fill="#FFD064"/>
<path fill-rule="evenodd" clip-rule="evenodd" d="M31.6989 30.0416C30.9759 30.0416 30.3896 29.4555 30.3896 28.7324C30.3896 28.0095 30.9758 27.4233 31.6989 27.4233H34.3002C35.0232 27.4233 35.6094 28.0095 35.6094 28.7324C35.6094 29.4554 35.0233 30.0416 34.3002 30.0416H31.6989Z" fill="#FFC338"/>
<path fill-rule="evenodd" clip-rule="evenodd" d="M31.6989 46.8441C30.9759 46.8441 30.3896 46.258 30.3896 45.5351C30.3896 44.8121 30.9758 44.2258 31.6989 44.2258H34.3002C35.0232 44.2258 35.6094 44.8119 35.6094 45.5351C35.6094 46.258 35.0233 46.8441 34.3002 46.8441H31.6989Z" fill="#FFC338"/>
<path fill-rule="evenodd" clip-rule="evenodd" d="M45.9883 20.3981V45.6018C45.9883 47.8849 40.1732 49.7356 33 49.7356C25.8268 49.7356 20.0117 47.8849 20.0117 45.6018V20.3981C20.0117 18.1149 25.8268 16.2642 33 16.2642C40.1731 16.2642 45.9883 18.1149 45.9883 20.3981Z" fill="#FFE177"/>
<path fill-rule="evenodd" clip-rule="evenodd" d="M31.6989 38.4429C30.9759 38.4429 30.3896 37.8568 30.3896 37.1338C30.3896 36.4108 30.9758 35.8247 31.6989 35.8247H34.3002C35.0232 35.8247 35.6094 36.4108 35.6094 37.1338C35.6094 37.8568 35.0233 38.4429 34.3002 38.4429H31.6989Z" fill="#FFC338"/>
<path fill-rule="evenodd" clip-rule="evenodd" d="M33 41.3344C25.8268 41.3344 20.0117 39.4836 20.0117 37.2004V45.6016C20.0117 47.8847 25.8268 49.7356 33 49.7356C40.1732 49.7356 45.9883 47.8848 45.9883 45.6016V37.2004C45.9883 39.4836 40.1731 41.3344 33 41.3344ZM20.0117 28.7992C20.0117 31.0822 25.8268 32.9331 33 32.9331C40.1732 32.9331 45.9883 31.0824 45.9883 28.7992V20.3979C45.9883 22.681 40.1731 24.5319 33 24.5319C25.8268 24.5319 20.0117 22.6812 20.0117 20.3979V28.7992Z" fill="#FFD064"/>
<path fill-rule="evenodd" clip-rule="evenodd" d="M31.6989 30.0419C30.9759 30.0419 30.3896 29.4558 30.3896 28.7327C30.3896 28.0097 30.9758 27.4236 31.6989 27.4236H34.3002C35.0232 27.4236 35.6094 28.0097 35.6094 28.7327C35.6094 29.4556 35.0233 30.0419 34.3002 30.0419H31.6989Z" fill="#FFC338"/>
<path fill-rule="evenodd" clip-rule="evenodd" d="M31.6989 46.8444C30.9759 46.8444 30.3896 46.2583 30.3896 45.5353C30.3896 44.8123 30.9758 44.2261 31.6989 44.2261H34.3002C35.0232 44.2261 35.6094 44.8122 35.6094 45.5353C35.6094 46.2583 35.0233 46.8444 34.3002 46.8444H31.6989Z" fill="#FFC338"/>
<path fill-rule="evenodd" clip-rule="evenodd" d="M45.9882 20.3982V45.6019C45.9882 47.885 40.173 49.7359 32.9999 49.7359C32.725 49.7359 32.4523 49.7329 32.1816 49.7274C38.9736 49.593 44.3518 47.7975 44.3518 45.6019V20.3982C44.3518 18.2025 38.9736 16.4071 32.1816 16.2727C32.4523 16.2674 32.725 16.2644 32.9999 16.2644C40.173 16.2643 45.9882 18.115 45.9882 20.3982Z" fill="#FFC338"/>
<path fill-rule="evenodd" clip-rule="evenodd" d="M3.26367 29.9238C4.96268 29.9238 6.33984 31.3011 6.33984 33C6.33984 34.6989 4.96268 36.0762 3.26367 36.0762C1.56467 36.0762 0.1875 34.699 0.1875 33C0.1875 31.3011 1.5648 29.9238 3.26367 29.9238ZM3.26367 59.6602C4.96268 59.6602 6.33984 61.0375 6.33984 62.7363C6.33984 64.4353 4.96268 65.8125 3.26367 65.8125C1.56467 65.8125 0.1875 64.4352 0.1875 62.7363C0.1875 61.0373 1.5648 59.6602 3.26367 59.6602ZM33 59.6602C34.699 59.6602 36.0762 61.0375 36.0762 62.7363C36.0762 64.4353 34.699 65.8125 33 65.8125C31.3011 65.8125 29.9238 64.4353 29.9238 62.7363C29.9238 61.0373 31.301 59.6602 33 59.6602ZM62.7363 59.6602C64.4353 59.6602 65.8125 61.0375 65.8125 62.7363C65.8125 64.4353 64.4353 65.8125 62.7363 65.8125C61.0375 65.8125 59.6602 64.4353 59.6602 62.7363C59.6602 61.0373 61.0373 59.6602 62.7363 59.6602ZM62.7363 29.9238C64.4353 29.9238 65.8125 31.3011 65.8125 33C65.8125 34.6989 64.4353 36.0762 62.7363 36.0762C61.0375 36.0762 59.6602 34.6989 59.6602 33C59.6602 31.3011 61.0373 29.9238 62.7363 29.9238ZM62.7363 0.1875C64.4353 0.1875 65.8125 1.56467 65.8125 3.26367C65.8125 4.96268 64.4352 6.33984 62.7363 6.33984C61.0373 6.33984 59.6602 4.96268 59.6602 3.26367C59.6602 1.56467 61.0373 0.1875 62.7363 0.1875ZM33 0.1875C34.699 0.1875 36.0762 1.56467 36.0762 3.26367C36.0762 4.96268 34.6989 6.33984 33 6.33984C31.3011 6.33984 29.9238 4.96268 29.9238 3.26367C29.9238 1.56467 31.301 0.1875 33 0.1875ZM3.26367 0.1875C4.96268 0.1875 6.33984 1.5648 6.33984 3.26367C6.33984 4.96254 4.96268 6.33984 3.26367 6.33984C1.56467 6.33984 0.1875 4.96268 0.1875 3.26367C0.1875 1.56467 1.5648 0.1875 3.26367 0.1875Z" fill="#8AC9FE"/>
<path fill-rule="evenodd" clip-rule="evenodd" d="M3.26367 29.9238C4.96268 29.9238 6.33984 31.3011 6.33984 33C6.33984 34.6989 4.96268 36.0762 3.26367 36.0762C3.02865 36.0762 2.79992 36.0496 2.58008 35.9997C3.94986 35.6889 4.97266 34.464 4.97266 33C4.97266 31.536 3.95 30.3112 2.58008 30.0003C2.79992 29.9504 3.02865 29.9238 3.26367 29.9238ZM3.26367 59.6602C4.96268 59.6602 6.33984 61.0375 6.33984 62.7363C6.33984 64.4353 4.96268 65.8125 3.26367 65.8125C3.02865 65.8125 2.79992 65.786 2.58008 65.7361C3.94986 65.4252 4.97266 64.2003 4.97266 62.7363C4.97266 61.2723 3.95 60.0475 2.58008 59.7366C2.79992 59.6867 3.02865 59.6602 3.26367 59.6602ZM33 59.6602C34.699 59.6602 36.0762 61.0375 36.0762 62.7363C36.0762 64.4353 34.699 65.8125 33 65.8125C32.765 65.8125 32.5362 65.786 32.3164 65.7361C33.6863 65.4252 34.709 64.2003 34.709 62.7363C34.709 61.2723 33.6863 60.0475 32.3164 59.7366C32.5362 59.6867 32.765 59.6602 33 59.6602ZM62.7363 59.6602C64.4353 59.6602 65.8125 61.0375 65.8125 62.7363C65.8125 64.4353 64.4353 65.8125 62.7363 65.8125C62.5013 65.8125 62.2726 65.786 62.0527 65.7361C63.4227 65.4252 64.4453 64.2003 64.4453 62.7363C64.4453 61.2723 63.4227 60.0475 62.0527 59.7366C62.2726 59.6867 62.5013 59.6602 62.7363 59.6602ZM62.7363 29.9238C64.4353 29.9238 65.8125 31.3011 65.8125 33C65.8125 34.6989 64.4353 36.0762 62.7363 36.0762C62.5013 36.0762 62.2726 36.0496 62.0527 35.9997C63.4227 35.6889 64.4453 34.464 64.4453 33C64.4453 31.536 63.4227 30.3112 62.0527 30.0003C62.2726 29.9504 62.5013 29.9238 62.7363 29.9238ZM62.7363 0.1875C64.4353 0.1875 65.8125 1.56467 65.8125 3.26367C65.8125 4.96268 64.4352 6.33984 62.7363 6.33984C62.5013 6.33984 62.2726 6.31332 62.0527 6.26342C63.4227 5.95252 64.4453 4.72766 64.4453 3.26367C64.4453 1.79969 63.4227 0.574824 62.0527 0.263926C62.2726 0.214023 62.5013 0.1875 62.7363 0.1875ZM33 0.1875C34.699 0.1875 36.0762 1.56467 36.0762 3.26367C36.0762 4.96268 34.6989 6.33984 33 6.33984C32.765 6.33984 32.5362 6.31332 32.3164 6.26342C33.6863 5.95252 34.709 4.72766 34.709 3.26367C34.709 1.79969 33.6863 0.574824 32.3164 0.263926C32.5362 0.214023 32.765 0.1875 33 0.1875ZM3.26367 0.1875C4.96268 0.1875 6.33984 1.5648 6.33984 3.26367C6.33984 4.96254 4.96268 6.33984 3.26367 6.33984C3.02865 6.33984 2.79992 6.31332 2.58008 6.26342C3.94986 5.95252 4.97266 4.72766 4.97266 3.26367C4.97266 1.79969 3.95 0.574824 2.58008 0.263926C2.79992 0.214023 3.02865 0.1875 3.26367 0.1875Z" fill="#60B7FF"/>
</svg>
