<svg width="96" height="74" viewBox="0 0 96 74" fill="none" xmlns="http://www.w3.org/2000/svg">
<path d="M8.62921 68.0147C3.23595 62.0294 0 55.5 0 44.6176C0 25.5735 13.4831 8.70588 32.3596 0L37.2135 7.07353C19.4157 16.8676 15.6405 29.3824 14.5618 37.5441C17.2584 35.9118 21.0337 35.3677 24.809 35.9118C34.5169 37 42.0674 44.6177 42.0674 54.9559C42.0674 59.8529 39.9101 64.75 36.6742 68.5588C32.8989 72.3677 28.5843 74 23.191 74C17.2584 74 11.8652 71.2794 8.62921 68.0147ZM62.5618 68.0147C57.1685 62.0294 53.9326 55.5 53.9326 44.6176C53.9326 25.5735 67.4157 8.70588 86.2921 0L91.1461 7.07353C73.3483 16.8676 69.573 29.3824 68.4944 37.5441C71.191 35.9118 74.9663 35.3677 78.7416 35.9118C88.4494 37 96 44.6177 96 54.9559C96 59.8529 93.8427 64.75 90.6067 68.5588C87.3708 72.3677 82.5169 74 77.1236 74C71.191 74 65.7978 71.2794 62.5618 68.0147Z" fill="black"/>
</svg>
