<svg width="24" height="24" viewBox="0 0 24 24" fill="none" xmlns="http://www.w3.org/2000/svg">
<g clip-path="url(#clip0_656_4695)">
<path d="M18.0319 24H5.96812C2.67202 24 0 21.328 0 18.0319V5.96812C0 2.67202 2.67202 0 5.96812 0H18.0319C21.328 0 24 2.67202 24 5.96812V18.0319C24 21.328 21.328 24 18.0319 24Z" fill="url(#paint0_linear_656_4695)"/>
<path d="M12.4898 11.6817C12.3553 11.8161 12.173 11.8916 11.9828 11.8916C11.7927 11.8916 11.6104 11.8161 11.4759 11.6817L5.7051 5.9114C5.57065 5.77695 5.49512 5.5946 5.49512 5.40445C5.49512 5.21431 5.57065 5.03195 5.7051 4.8975C5.83956 4.76305 6.02191 4.68751 6.21206 4.68751C6.4022 4.68751 6.58456 4.76305 6.71901 4.8975L11.9826 10.1611L17.2462 4.8975C17.3807 4.76305 17.563 4.68751 17.7532 4.68751C17.9433 4.68751 18.1257 4.76305 18.2601 4.8975C18.3946 5.03195 18.4701 5.21431 18.4701 5.40445C18.4701 5.5946 18.3946 5.77695 18.2601 5.9114L12.4898 11.6817Z" fill="white"/>
<path d="M6.24711 12.1084C6.34125 12.1083 6.43449 12.1268 6.52146 12.1628C6.60843 12.1988 6.6874 12.2517 6.75383 12.3184L12.0174 17.582L17.281 12.3184C17.4155 12.184 17.5978 12.1085 17.788 12.1085C17.9781 12.1085 18.1605 12.184 18.2949 12.3184C18.4294 12.4529 18.5049 12.6352 18.5049 12.8254C18.5049 13.0155 18.4294 13.1979 18.2949 13.3323L12.5241 19.1027C12.3897 19.237 12.2075 19.3125 12.0174 19.3125C11.8274 19.3125 11.6451 19.237 11.5107 19.1027L5.73992 13.3323C5.63976 13.232 5.57158 13.1043 5.54399 12.9652C5.5164 12.8261 5.53064 12.682 5.58491 12.5511C5.63918 12.4201 5.73105 12.3082 5.84892 12.2294C5.96678 12.1506 6.10534 12.1085 6.24711 12.1084Z" fill="white"/>
</g>
<defs>
<linearGradient id="paint0_linear_656_4695" x1="1.74797" y1="22.252" x2="21.9998" y2="2.00016" gradientUnits="userSpaceOnUse">
<stop stop-color="#F51D1D"/>
<stop offset="0.5" stop-color="#FF4603"/>
<stop offset="1" stop-color="#2A0505"/>
</linearGradient>
<clipPath id="clip0_656_4695">
<rect width="24" height="24" fill="white" transform="matrix(1 0 0 -1 0 24)"/>
</clipPath>
</defs>
</svg>
