<svg width="70" height="70" viewBox="0 0 70 70" fill="none" xmlns="http://www.w3.org/2000/svg">
<g clip-path="url(#clip0_1216_135)">
<path d="M30.7749 4.22529V17.0658H39.2256V4.22529C39.2255 1.89178 37.3338 0 35.0002 0C32.6665 0 30.7749 1.89178 30.7749 4.22529Z" fill="#A0BE28"/>
<path d="M24.7897 16.2146L32.4474 23.8724C33.8571 25.2821 36.1428 25.2821 37.5525 23.8724L45.2103 16.2146C46.62 14.8049 46.62 12.5192 45.2103 11.1095C43.8006 9.69982 41.5149 9.69982 40.1052 11.1095C37.2856 13.9291 32.7144 13.9291 29.8949 11.1095C28.4852 9.69982 26.1995 9.69982 24.7898 11.1095C23.38 12.5192 23.38 14.8048 24.7897 16.2146Z" fill="#C3DC4B"/>
<path d="M49.0843 30.5635H34.9998C31.8883 30.5635 27.9575 33.0858 27.9575 36.1972V64.3662C27.9575 67.4778 31.8883 70.0001 34.9998 70.0001H49.0843C52.1957 70.0001 54.718 67.4778 54.718 64.3664V36.1974C54.718 33.0858 52.1957 30.5635 49.0843 30.5635Z" fill="#E9EDF5"/>
<path d="M29.3662 64.3662V36.1972C29.3662 33.0858 31.8886 30.5635 35 30.5635H20.9155C17.8041 30.5635 15.2817 33.0858 15.2817 36.1972V64.3662C15.2817 67.4777 17.8041 70 20.9155 70H35C31.8886 70 29.3662 67.4777 29.3662 64.3662Z" fill="#CDD2E1"/>
<path d="M41.5727 40.4224H34.061C32.2459 40.4224 29.3662 41.8937 29.3662 43.7088V56.8543C29.3662 58.6694 32.2461 60.1408 34.061 60.1408H41.5727C43.3878 60.1408 44.8592 58.6694 44.8592 56.8543V43.7088C44.8592 41.8937 43.3878 40.4224 41.5727 40.4224Z" fill="#555A66"/>
<path d="M30.7749 56.8543V43.7088C30.7749 41.8937 32.2462 40.4224 34.0613 40.4224H28.4276C26.6125 40.4224 25.1411 41.8937 25.1411 43.7088V56.8543C25.1411 58.6694 26.6125 60.1408 28.4276 60.1408H34.0613C32.2462 60.1406 30.7749 58.6693 30.7749 56.8543Z" fill="#414952"/>
<path d="M37.8167 46.0562H36.4083C35.6303 46.0562 33.5913 46.6867 33.5913 47.4646V53.0984C33.5913 53.8763 35.6303 54.5069 36.4083 54.5069H37.8167C38.5947 54.5069 39.2252 53.8763 39.2252 53.0984V47.4646C39.2251 46.6867 38.5945 46.0562 37.8167 46.0562Z" fill="#FFF04A"/>
<path d="M35.0002 53.0984V47.4646C35.0002 46.6867 35.6307 46.0562 36.4087 46.0562H32.1834C31.4054 46.0562 30.7749 46.6867 30.7749 47.4646V53.0984C30.7749 53.8763 31.4054 54.5069 32.1834 54.5069H36.4087C35.6307 54.5069 35.0002 53.8763 35.0002 53.0984Z" fill="#FFDA45"/>
<path d="M65.261 65.3916C65.0726 65.3916 64.8821 65.3397 64.7114 65.2312C64.2335 64.9271 64.0927 64.2934 64.3968 63.8156C66.6875 60.2158 67.9492 55.4093 67.9492 50.2815C67.9492 45.1538 66.6875 40.3473 64.3968 36.7473C64.0927 36.2695 64.2337 35.6358 64.7114 35.3318C65.1892 35.0278 65.8229 35.1686 66.127 35.6463C68.6244 39.5713 69.9999 44.7688 69.9999 50.2815C69.9999 55.7943 68.6245 60.9918 66.1271 64.9165C65.9316 65.2235 65.5999 65.3916 65.261 65.3916Z" fill="#87C7FF"/>
<path d="M62.2732 60.6968C62.0849 60.6968 61.8943 60.645 61.7236 60.5365C61.2459 60.2324 61.105 59.5986 61.409 59.1209C62.9017 56.7752 63.7239 53.6361 63.7239 50.2817C63.7239 46.9273 62.9018 43.7881 61.409 41.4426C61.1049 40.9648 61.2459 40.3311 61.7236 40.027C62.2015 39.7232 62.8352 39.8639 63.1391 40.3416C64.8387 43.0123 65.7745 46.5423 65.7745 50.2819C65.7745 54.0214 64.8386 57.5515 63.139 60.2221C62.9439 60.5289 62.6121 60.6968 62.2732 60.6968Z" fill="#87C7FF"/>
<path d="M59.2853 56.002C59.0969 56.002 58.9065 55.9502 58.7357 55.8415C58.2579 55.5375 58.1172 54.9038 58.4212 54.426C59.8509 52.1795 59.8509 48.3838 58.4212 46.1374C58.1172 45.6595 58.258 45.0259 58.7357 44.7218C59.2137 44.418 59.8474 44.5588 60.1513 45.0364C62.0231 47.9778 62.0231 52.5859 60.1513 55.5271C59.9559 55.8342 59.6242 56.002 59.2853 56.002Z" fill="#87C7FF"/>
<path d="M4.73895 65.3914C4.40002 65.3914 4.06834 65.2235 3.87297 64.9163C1.37553 60.9917 0 55.794 0 50.2813C0 44.7685 1.37539 39.571 3.87283 35.6463C4.17689 35.1686 4.81072 35.0278 5.28842 35.3318C5.76625 35.6358 5.90707 36.2695 5.60301 36.7473C3.31242 40.3471 2.05078 45.1536 2.05078 50.2813C2.05078 55.409 3.31242 60.2155 5.60314 63.8155C5.90721 64.2933 5.76625 64.927 5.28855 65.231C5.11793 65.3396 4.92734 65.3914 4.73895 65.3914Z" fill="#87C7FF"/>
<path d="M7.72709 60.6967C7.38816 60.6967 7.05648 60.5288 6.86098 60.2217C5.16143 57.551 4.22559 54.021 4.22559 50.2814C4.22559 46.5419 5.16156 43.0118 6.86111 40.3412C7.16518 39.8635 7.79887 39.7227 8.2767 40.0266C8.75439 40.3306 8.89522 40.9645 8.59129 41.4422C7.09859 43.7878 6.27637 46.9269 6.27637 50.2813C6.27637 53.6357 7.09846 56.7749 8.59129 59.1204C8.89535 59.5983 8.75439 60.232 8.2767 60.536C8.10594 60.6447 7.91535 60.6967 7.72709 60.6967Z" fill="#87C7FF"/>
<path d="M10.7147 56.0017C10.3757 56.0017 10.0441 55.8338 9.84869 55.5268C7.97687 52.5854 7.97687 47.9774 9.84869 45.0361C10.1527 44.5584 10.7863 44.4174 11.2643 44.7215C11.742 45.0255 11.8828 45.6594 11.5787 46.137C10.1491 48.3835 10.1491 52.1792 11.5787 54.4256C11.8828 54.9035 11.742 55.5371 11.2643 55.8412C11.0936 55.9498 10.9029 56.0017 10.7147 56.0017Z" fill="#87C7FF"/>
<path d="M29.3662 41.4478C28.7999 41.4478 28.3408 40.9887 28.3408 40.4224V37.6055C28.3408 37.0392 28.7999 36.5801 29.3662 36.5801C29.9325 36.5801 30.3916 37.0392 30.3916 37.6055V40.4224C30.3916 40.9887 29.9325 41.4478 29.3662 41.4478Z" fill="#636978"/>
<path d="M35 41.4478C34.4337 41.4478 33.9746 40.9887 33.9746 40.4224V37.6055C33.9746 37.0392 34.4337 36.5801 35 36.5801C35.5663 36.5801 36.0254 37.0392 36.0254 37.6055V40.4224C36.0254 40.9887 35.5663 41.4478 35 41.4478Z" fill="#636978"/>
<path d="M40.6338 41.4478C40.0675 41.4478 39.6084 40.9887 39.6084 40.4224V37.6055C39.6084 37.0392 40.0675 36.5801 40.6338 36.5801C41.2001 36.5801 41.6592 37.0392 41.6592 37.6055V40.4224C41.6592 40.9887 41.2001 41.4478 40.6338 41.4478Z" fill="#636978"/>
<path d="M40.6338 63.983C40.0675 63.983 39.6084 63.5239 39.6084 62.9576V60.1406C39.6084 59.5743 40.0675 59.1152 40.6338 59.1152C41.2001 59.1152 41.6592 59.5743 41.6592 60.1406V62.9576C41.6592 63.5239 41.2001 63.983 40.6338 63.983Z" fill="#636978"/>
<path d="M35 63.983C34.4337 63.983 33.9746 63.5239 33.9746 62.9576V60.1406C33.9746 59.5743 34.4337 59.1152 35 59.1152C35.5663 59.1152 36.0254 59.5743 36.0254 60.1406V62.9576C36.0254 63.5239 35.5663 63.983 35 63.983Z" fill="#636978"/>
<path d="M29.3662 63.983C28.7999 63.983 28.3408 63.5239 28.3408 62.9576V60.1406C28.3408 59.5743 28.7999 59.1152 29.3662 59.1152C29.9325 59.1152 30.3916 59.5743 30.3916 60.1406V62.9576C30.3916 63.5239 29.9325 63.983 29.3662 63.983Z" fill="#636978"/>
<path d="M47.6758 45.6729H44.8589C44.2926 45.6729 43.8335 45.2138 43.8335 44.6475C43.8335 44.0812 44.2926 43.6221 44.8589 43.6221H47.6758C48.2421 43.6221 48.7012 44.0812 48.7012 44.6475C48.7012 45.2138 48.2421 45.6729 47.6758 45.6729Z" fill="#636978"/>
<path d="M47.6758 51.3066H44.8589C44.2926 51.3066 43.8335 50.8475 43.8335 50.2812C43.8335 49.715 44.2926 49.2559 44.8589 49.2559H47.6758C48.2421 49.2559 48.7012 49.715 48.7012 50.2812C48.7012 50.8475 48.2421 51.3066 47.6758 51.3066Z" fill="#636978"/>
<path d="M47.6758 56.9409H44.8589C44.2926 56.9409 43.8335 56.4818 43.8335 55.9155C43.8335 55.3492 44.2926 54.8901 44.8589 54.8901H47.6758C48.2421 54.8901 48.7012 55.3492 48.7012 55.9155C48.7012 56.4818 48.2421 56.9409 47.6758 56.9409Z" fill="#636978"/>
<path d="M25.1407 56.9409H22.3237C21.7574 56.9409 21.2983 56.4818 21.2983 55.9155C21.2983 55.3492 21.7574 54.8901 22.3237 54.8901H25.1407C25.707 54.8901 26.1661 55.3492 26.1661 55.9155C26.1661 56.4818 25.707 56.9409 25.1407 56.9409Z" fill="#636978"/>
<path d="M25.1407 51.3066H22.3237C21.7574 51.3066 21.2983 50.8475 21.2983 50.2812C21.2983 49.715 21.7574 49.2559 22.3237 49.2559H25.1407C25.707 49.2559 26.1661 49.715 26.1661 50.2812C26.1661 50.8475 25.707 51.3066 25.1407 51.3066Z" fill="#636978"/>
<path d="M25.1407 45.6729H22.3237C21.7574 45.6729 21.2983 45.2138 21.2983 44.6475C21.2983 44.0812 21.7574 43.6221 22.3237 43.6221H25.1407C25.707 43.6221 26.1661 44.0812 26.1661 44.6475C26.1661 45.2138 25.707 45.6729 25.1407 45.6729Z" fill="#636978"/>
</g>
<defs>
<clipPath id="clip0_1216_135">
<rect width="70" height="70" fill="white"/>
</clipPath>
</defs>
</svg>
