<svg width="50" height="50" viewBox="0 0 50 50" fill="none" xmlns="http://www.w3.org/2000/svg">
<g clip-path="url(#clip0_718_409)">
<path d="M45.498 45.8811C45.498 47.2112 44.4197 48.2894 43.0896 48.2894H6.91029C5.58021 48.2894 4.50197 47.2112 4.50197 45.8811V21.8721C4.50197 21.2168 3.78894 20.5889 4.25668 20.1299L15.0876 9.49962L17.7606 7.83461L18.774 5.88162L23.3828 1.35813C24.3005 0.526456 25.6994 0.526456 26.6171 1.35813L31.226 5.88162L32.2393 7.83461L35.1061 9.69003L45.7431 20.13C46.2109 20.589 45.4979 21.2169 45.4979 21.8722L45.498 45.8811Z" fill="#8EBAFF"/>
<path d="M12.5269 12.0131H37.4729L31.2259 5.88184H18.7739L12.5269 12.0131Z" fill="#7AA3FF"/>
<path d="M41.6689 26.2463V10.2762C41.6689 8.92795 40.576 7.83496 39.2277 7.83496H9.79572C8.44748 7.83496 7.35449 8.92795 7.35449 10.2762V26.2463L21.2657 36.1328L23.8401 34.718C24.5624 34.3211 25.4375 34.3211 26.1598 34.718L28.7343 36.1328L41.6689 26.2463Z" fill="#F7F9FA"/>
<path d="M28.7343 37.1092L26.1598 35.6945C25.4375 35.2976 24.5624 35.2976 23.8401 35.6945L21.2657 37.1092L7.35449 26.2463V20.4884L20.4883 33.599C20.949 34.0589 21.658 34.1596 22.2285 33.846L23.8401 32.9603C24.5624 32.5634 25.4375 32.5634 26.1598 32.9603L27.7714 33.846C28.342 34.1596 29.0509 34.0589 29.5116 33.599L38.9994 24.128C39.4582 23.67 39.716 23.0485 39.716 22.4003V10.2762C39.716 8.92795 38.623 7.83496 37.2747 7.83496H40.2042C41.5524 7.83496 42.6454 8.92795 42.6454 10.2762V26.2463L28.7343 37.1092Z" fill="#DCE6EB"/>
<path d="M3.52539 46.8576C3.52539 48.1159 4.49055 49.1481 5.72083 49.256L21.2656 37.1088L4.25659 20.1299C3.78885 20.5889 3.52539 21.2168 3.52539 21.8721V46.8576Z" fill="#F7F9FA"/>
<path d="M46.279 46.8576C46.279 48.1159 45.5092 49.1481 44.2789 49.256L28.7341 37.1088L45.7431 20.1299C46.2109 20.5889 46.279 21.2168 46.279 21.8721V46.8576Z" fill="#F7F9FA"/>
<path d="M46.4744 21.8721C46.4744 21.2168 46.211 20.5889 45.7432 20.1299L43.5449 22.3243V46.8576C43.5449 47.4008 43.3648 47.9018 43.0613 48.3046L44.279 49.256C45.5092 49.1482 46.4744 48.1159 46.4744 46.8576V21.8721Z" fill="#DCE6EB"/>
<path d="M5.93371 49.266H44.066C45.2316 48.1388 45.2316 48.1388 46.4743 46.8577L26.1597 35.6942C25.4374 35.2972 24.5623 35.2972 23.84 35.6942L3.52539 46.8577C3.52539 48.1878 4.60363 49.266 5.93371 49.266Z" fill="#FED402"/>
<path d="M43.545 45.248V46.8579C43.545 48.188 42.4668 49.2662 41.1367 49.2662H44.0662C45.3963 49.2662 46.4745 48.188 46.4745 46.8579L43.545 45.248Z" fill="#FAC600"/>
<path d="M28.0536 16.3326C28.0556 15.928 27.7293 15.5985 27.3248 15.5966C27.3236 15.5966 27.3224 15.5966 27.3211 15.5966C26.9183 15.5966 26.5909 15.9222 26.5889 16.3253L26.587 16.6943C26.0688 16.2954 25.4378 16.0695 24.7355 16.0695C23.0082 16.0695 21.2214 17.5639 21.2214 20.0646C21.2214 22.3454 22.7661 24.201 24.6648 24.201C25.4902 24.201 26.2375 23.8531 26.8177 23.2673C26.933 23.5006 27.0841 23.7154 27.2681 23.9004C27.6765 24.3108 28.2026 24.5368 28.7497 24.5368C30.333 24.5368 31.3356 23.4346 31.7461 22.403C32.3832 20.8012 32.4977 19.4515 32.1175 18.027C32.1154 18.0195 32.1133 18.0118 32.111 18.0043C31.5354 16.097 30.2475 14.5353 28.4846 13.6069C26.722 12.6785 24.7051 12.5004 22.8053 13.1053C21.0052 13.6783 19.5075 14.9137 18.5883 16.5839C17.6687 18.2546 17.4269 20.1807 17.9074 22.0074C18.3236 23.5897 19.222 24.9549 20.5058 25.955C21.7419 26.918 23.2815 27.4722 24.841 27.5153C24.848 27.5155 24.8548 27.5156 24.8616 27.5156C25.2566 27.5156 25.5823 27.2009 25.5934 26.8035C25.6046 26.3991 25.2859 26.0623 24.8816 26.0512C22.2741 25.9791 19.9889 24.163 19.324 21.635C18.9395 20.1732 19.134 18.6303 19.8715 17.2902C20.609 15.9502 21.8086 14.9597 23.2497 14.5011C24.7727 14.0162 26.3894 14.159 27.802 14.9029C29.2109 15.6449 30.2413 16.8916 30.7047 18.4144C31.0152 19.587 30.8279 20.7483 30.3852 21.8618C30.2403 22.2257 29.7912 23.0722 28.7498 23.0722C28.5414 23.0722 28.3826 22.9439 28.3065 22.8673C28.1289 22.6887 28.0235 22.4259 28.0248 22.1642L28.0536 16.3326ZM24.6648 22.7363C23.7132 22.7363 22.6861 21.7148 22.6861 20.0646C22.6861 18.4807 23.728 17.5342 24.7355 17.5342C25.7886 17.5342 26.5323 18.5126 26.571 19.9278L26.5697 20.1956C26.5139 21.6098 25.6809 22.7363 24.6648 22.7363Z" fill="black"/>
<path d="M47.2068 46.8602C47.2068 46.8599 47.2068 46.8596 47.2068 46.8593V21.8739C47.2068 21.031 46.863 20.2091 46.2638 19.6167C46.263 19.6159 46.2623 19.615 46.2615 19.6142C46.2611 19.6138 46.2606 19.6134 46.2601 19.6129C46.2588 19.6116 46.2576 19.6102 46.2562 19.6089L43.3777 16.7838V15.132C43.3777 14.7274 43.0499 14.3996 42.6454 14.3996C42.2408 14.3996 41.913 14.7274 41.913 15.132V22.9203L28.6055 36.2042L26.5125 35.0541C25.5656 34.5336 24.4345 34.5335 23.4873 35.0541L21.3943 36.2042L8.08681 22.9203V10.2775C8.08681 9.33526 8.85346 8.56861 9.79567 8.56861H40.2042C41.1464 8.56861 41.913 9.33526 41.913 10.2775V12.0145C41.913 12.4191 42.2408 12.7469 42.6454 12.7469C43.0499 12.7469 43.3777 12.4191 43.3777 12.0145V10.2775C43.3777 8.5275 41.9541 7.10388 40.2042 7.10388H33.5151L27.1301 0.837157C27.1232 0.830322 27.1161 0.823584 27.1088 0.817139C25.9066 -0.272331 24.0932 -0.272428 22.8909 0.817139C22.8837 0.823584 22.8766 0.830322 22.8697 0.837157L16.4846 7.10388H9.79557C8.0457 7.10388 6.62198 8.5275 6.62198 10.2775V16.7839L3.74348 19.609C3.74231 19.6102 3.74114 19.6114 3.73997 19.6127C3.73938 19.6133 3.7388 19.6137 3.73821 19.6143C3.73714 19.6154 3.73626 19.6165 3.73528 19.6175C3.1365 20.2098 2.79297 21.0315 2.79297 21.8739V30.2313C2.79297 30.6358 3.12087 30.9636 3.52534 30.9636C3.9298 30.9636 4.2577 30.6358 4.2577 30.2313V21.8739C4.2577 21.6692 4.29715 21.4676 4.36805 21.2778L6.83691 23.7423L20.057 36.939L4.2578 45.6212V33.423C4.2578 33.0185 3.9299 32.6907 3.52543 32.6907C3.12097 32.6907 2.79307 33.0185 2.79307 33.423V46.8593V46.8601C2.79307 46.864 2.79326 46.8678 2.79336 46.8717C2.8001 48.5978 4.20605 50 5.93375 50H32.9724C33.3769 50 33.7047 49.6722 33.7047 49.2676C33.7047 48.8631 33.3769 48.5353 32.9724 48.5353H5.93375C5.14943 48.5353 4.49118 47.993 4.30936 47.2642L21.6183 37.7524L24.1927 36.3376C24.6982 36.0599 25.3015 36.0598 25.807 36.3377L28.3813 37.7524L45.6904 47.2643C45.5085 47.993 44.8502 48.5353 44.066 48.5353H36.1642C35.7597 48.5353 35.4319 48.8631 35.4319 49.2676C35.4319 49.6722 35.7597 50 36.1642 50H44.0661C45.7937 50 47.1997 48.5978 47.2065 46.8717C47.2066 46.8678 47.2068 46.864 47.2068 46.8602ZM23.8844 1.89372C24.5228 1.32423 25.4772 1.32413 26.1155 1.89372L31.424 7.10388H18.5758L23.8844 1.89372ZM6.62208 21.4581L5.29767 20.136L6.62208 18.8362V21.4581ZM43.1628 23.7423L45.6317 21.2777C45.7026 21.4675 45.742 21.6692 45.742 21.8739V45.6211L29.9426 36.939L43.1628 23.7423ZM44.7022 20.136L43.3777 21.4581V18.8362L44.7022 20.136Z" fill="black"/>
</g>
<defs>
<clipPath id="clip0_718_409">
<rect width="50" height="50" fill="white"/>
</clipPath>
</defs>
</svg>
