<svg width="70" height="70" viewBox="0 0 70 70" fill="none" xmlns="http://www.w3.org/2000/svg">
<path fill-rule="evenodd" clip-rule="evenodd" d="M50.0715 16.378C50.0637 16.0899 50.1704 15.8104 50.3682 15.6007C50.566 15.391 50.8388 15.2682 51.127 15.2592C51.4151 15.2502 51.695 15.3556 51.9056 15.5525C52.1162 15.7493 52.2402 16.0216 52.2505 16.3097L52.3738 19.8166C52.3829 20.1056 52.2768 20.3863 52.0789 20.5971C51.881 20.8078 51.6074 20.9313 51.3185 20.9403L47.8115 21.0637C47.5234 21.0714 47.2439 20.9647 47.0342 20.7669C46.8245 20.5691 46.7017 20.2963 46.6927 20.0082C46.6836 19.7201 46.7891 19.4401 46.986 19.2295C47.1828 19.019 47.4551 18.895 47.7432 18.8846L48.7151 18.8505C47.0661 17.7467 45.2452 16.8379 43.295 16.1621C40.7323 15.274 37.9354 14.7868 35 14.7868C32.3865 14.7868 29.8847 15.1724 27.5618 15.883C25.159 16.618 22.9321 17.7053 20.9578 19.0766C20.7197 19.2389 20.4272 19.3006 20.1439 19.2484C19.8605 19.1961 19.6093 19.0341 19.4448 18.7975C19.2804 18.561 19.216 18.269 19.2657 17.9852C19.3154 17.7014 19.4751 17.4487 19.7102 17.2821C21.8567 15.7912 24.2908 14.6052 26.9295 13.798C29.4695 13.021 32.185 12.5991 35 12.5991C38.1656 12.5991 41.2028 13.1318 44.0042 14.1028C46.2049 14.8655 48.2534 15.8977 50.0987 17.1539L50.0713 16.378H50.0715ZM19.7281 53.3722C19.7709 53.6583 19.6986 53.9496 19.5272 54.1825C19.3557 54.4154 19.0989 54.5709 18.8131 54.615C18.5272 54.6591 18.2355 54.5881 18.0019 54.4177C17.7682 54.2472 17.6115 53.9912 17.5662 53.7055L17.0315 50.2374C16.9873 49.9507 17.0588 49.6582 17.2303 49.4242C17.4018 49.1903 17.6592 49.034 17.9458 48.9898L21.414 48.4551C21.6988 48.4149 21.988 48.4886 22.219 48.6601C22.4499 48.8316 22.604 49.0872 22.6478 49.3715C22.6916 49.6558 22.6216 49.946 22.4531 50.1791C22.2845 50.4122 22.0309 50.5695 21.7472 50.6169L20.742 50.7718C22.4019 51.9538 24.2515 52.9336 26.2433 53.6692C28.9375 54.6641 31.8948 55.2131 35 55.2131C39.0441 55.2131 42.8385 54.2818 46.1278 52.6472C49.523 50.9601 52.3827 48.5217 54.4234 45.5851C54.59 45.3501 54.8427 45.1903 55.1264 45.1406C55.4102 45.0909 55.7022 45.1553 55.9387 45.3198C56.1753 45.4842 56.3373 45.7355 56.3896 46.0188C56.4419 46.3021 56.3801 46.5946 56.2178 46.8327C53.9707 50.0663 50.8252 52.7496 47.0933 54.6039C43.5082 56.3855 39.3839 57.4006 35 57.4006C31.6359 57.4006 28.4242 56.8029 25.4915 55.7199C23.3704 54.9367 21.3965 53.8998 19.6171 52.652L19.7281 53.3722Z" fill="#0579C1"/>
<path d="M2.26215 23.1163H19.5967C19.8703 23.1165 20.1325 23.2252 20.326 23.4186C20.5194 23.6121 20.6281 23.8744 20.6283 24.1479V44.8596C20.6281 45.1331 20.5194 45.3954 20.326 45.5888C20.1325 45.7822 19.8703 45.891 19.5967 45.8911H2.26201C1.98847 45.891 1.72618 45.7822 1.53276 45.5888C1.33934 45.3954 1.23061 45.1331 1.23047 44.8596V24.1479C1.23061 23.8743 1.33935 23.612 1.5328 23.4185C1.72625 23.2251 1.98857 23.1164 2.26215 23.1162V23.1163Z" fill="#EFF4F7"/>
<path d="M4.6066 30.5889H7.68441V33.6667H4.6066V30.5889Z" fill="#64B5F6"/>
<path fill-rule="evenodd" clip-rule="evenodd" d="M4.6066 30.5889H7.68441V31.4245H5.1748V33.6667H4.6066V30.5889Z" fill="#42A5F5"/>
<path d="M4.6066 38.1543H7.68441V41.2321H4.6066V38.1543Z" fill="#64B5F6"/>
<path fill-rule="evenodd" clip-rule="evenodd" d="M4.6066 38.1543H7.68441V38.9898H5.1748V41.232H4.6066V38.1543Z" fill="#42A5F5"/>
<path fill-rule="evenodd" clip-rule="evenodd" d="M2.26215 23.1167C1.69395 23.1167 1.23047 23.58 1.23047 24.1482V44.8599C1.23047 45.4281 1.69381 45.8914 2.26215 45.8914H3.96498V25.5154C3.96498 24.9472 4.42832 24.4839 4.99666 24.4839H20.6284V24.1482C20.6284 23.58 20.1651 23.1167 19.5967 23.1167H2.26215Z" fill="#DEE8EE"/>
<path fill-rule="evenodd" clip-rule="evenodd" d="M11.0723 31.6362C10.7822 31.6362 10.504 31.521 10.2989 31.3159C10.0938 31.1108 9.97855 30.8326 9.97855 30.5425C9.97855 30.2524 10.0938 29.9742 10.2989 29.7691C10.504 29.564 10.7822 29.4487 11.0723 29.4487H16.4365C16.7265 29.4487 17.0047 29.564 17.2099 29.7691C17.415 29.9742 17.5302 30.2524 17.5302 30.5425C17.5302 30.8326 17.415 31.1108 17.2099 31.3159C17.0047 31.521 16.7265 31.6362 16.4365 31.6362H11.0723ZM11.0723 39.2016C10.7822 39.2016 10.504 39.0863 10.2989 38.8812C10.0938 38.6761 9.97855 38.3979 9.97855 38.1078C9.97855 37.8177 10.0938 37.5395 10.2989 37.3344C10.504 37.1293 10.7822 37.0141 11.0723 37.0141H16.4365C16.7265 37.0141 17.0047 37.1293 17.2099 37.3344C17.415 37.5395 17.5302 37.8177 17.5302 38.1078C17.5302 38.3979 17.415 38.6761 17.2099 38.8812C17.0047 39.0863 16.7265 39.2016 16.4365 39.2016H11.0723ZM11.0723 42.3725C10.7822 42.3725 10.504 42.2572 10.2989 42.0521C10.0938 41.847 9.97855 41.5688 9.97855 41.2787C9.97855 40.9887 10.0938 40.7105 10.2989 40.5053C10.504 40.3002 10.7822 40.185 11.0723 40.185H16.4365C16.7265 40.185 17.0047 40.3002 17.2099 40.5053C17.415 40.7105 17.5302 40.9887 17.5302 41.2787C17.5302 41.5688 17.415 41.847 17.2099 42.0521C17.0047 42.2572 16.7265 42.3725 16.4365 42.3725H11.0723ZM11.0723 34.8071C10.7822 34.8071 10.504 34.6919 10.2989 34.4868C10.0938 34.2817 9.97855 34.0035 9.97855 33.7134C9.97855 33.4233 10.0938 33.1451 10.2989 32.94C10.504 32.7349 10.7822 32.6196 11.0723 32.6196H16.4365C16.7265 32.6196 17.0047 32.7349 17.2099 32.94C17.415 33.1451 17.5302 33.4233 17.5302 33.7134C17.5302 34.0035 17.415 34.2817 17.2099 34.4868C17.0047 34.6919 16.7265 34.8071 16.4365 34.8071H11.0723Z" fill="#96A4AF"/>
<path fill-rule="evenodd" clip-rule="evenodd" d="M15.8454 23.0956H12.2844L13.7013 21.0924C14.0197 20.6421 13.6991 20.0225 13.1476 20.0225H8.71117C8.15964 20.0225 7.8389 20.6421 8.15746 21.0924L9.57427 23.0956H6.0133C5.97163 23.0954 5.93045 23.1046 5.89282 23.1225C5.85518 23.1404 5.82206 23.1665 5.79589 23.199C5.76972 23.2314 5.75119 23.2693 5.74165 23.3099C5.73212 23.3504 5.73183 23.3926 5.74081 23.4333L6.22234 25.6617C6.26148 25.8492 6.36429 26.0173 6.51332 26.1376C6.66235 26.2578 6.84841 26.3228 7.03992 26.3215H14.8192C15.0107 26.3229 15.1968 26.2579 15.3458 26.1376C15.4949 26.0173 15.5977 25.8492 15.6368 25.6617L16.1183 23.4333C16.1273 23.3926 16.127 23.3504 16.1175 23.3099C16.1079 23.2693 16.0894 23.2314 16.0632 23.199C16.0371 23.1665 16.0039 23.1404 15.9663 23.1225C15.9287 23.1046 15.8875 23.0954 15.8458 23.0956H15.8454Z" fill="#788A98"/>
<path fill-rule="evenodd" clip-rule="evenodd" d="M9.73479 20.0225H8.71104C8.15952 20.0225 7.83878 20.6421 8.15733 21.0924L8.60714 21.7284H10.9413L9.73479 20.0225ZM7.33032 23.0956H6.01317C5.9715 23.0954 5.93033 23.1046 5.89269 23.1225C5.85506 23.1404 5.82193 23.1665 5.79577 23.199C5.7696 23.2314 5.75106 23.2693 5.74153 23.3099C5.732 23.3504 5.73171 23.3926 5.74069 23.4333L6.22222 25.6617C6.26136 25.8492 6.36417 26.0173 6.5132 26.1376C6.66223 26.2578 6.84829 26.3228 7.03979 26.3215H14.8191C15.0106 26.3229 15.1967 26.2579 15.3457 26.1376C15.4947 26.0173 15.5976 25.8492 15.6367 25.6617L15.7895 24.9543H8.40712C8.21562 24.9556 8.02956 24.8907 7.88053 24.7704C7.7315 24.6501 7.62868 24.482 7.58954 24.2945L7.33046 23.0958L7.33032 23.0956Z" fill="#6C7E8D"/>
<path fill-rule="evenodd" clip-rule="evenodd" d="M33.5218 21.9406H36.4781C36.5735 21.9407 36.665 21.9787 36.7326 22.0462C36.8001 22.1137 36.8381 22.2052 36.8383 22.3007V23.7853C38.0339 24.0238 39.1709 24.4951 40.1846 25.1723L41.2351 24.1219C41.3027 24.0545 41.3943 24.0167 41.4898 24.0167C41.5852 24.0167 41.6768 24.0545 41.7445 24.1219L43.8349 26.2123C43.9023 26.28 43.9401 26.3716 43.9401 26.4671C43.9401 26.5625 43.9023 26.6541 43.8349 26.7218L42.7846 27.7722C43.4618 28.7859 43.933 29.9229 44.1715 31.1185H45.6561C45.7516 31.1187 45.8431 31.1567 45.9106 31.2242C45.9781 31.2917 46.0162 31.3831 46.0164 31.4786V34.4349C46.0162 34.5304 45.9782 34.6219 45.9107 34.6894C45.8431 34.7569 45.7516 34.7949 45.6561 34.795H44.1715C43.933 35.9906 43.4617 37.1277 42.7845 38.1415L43.8348 39.1919C43.9021 39.2595 43.94 39.3511 43.94 39.4466C43.94 39.5421 43.9021 39.6336 43.8348 39.7013L41.7443 41.7916C41.6767 41.859 41.5851 41.8968 41.4896 41.8968C41.3942 41.8968 41.3026 41.859 41.2349 41.7916L40.1846 40.7413C39.1709 41.4186 38.0338 41.8898 36.8382 42.1283V43.6128C36.838 43.7083 36.8 43.7998 36.7325 43.8673C36.6649 43.9349 36.5734 43.9729 36.4779 43.9731H33.5217C33.4262 43.9729 33.3346 43.9349 33.2671 43.8673C33.1996 43.7998 33.1616 43.7083 33.1614 43.6128V42.1283C31.9658 41.8898 30.8287 41.4185 29.8149 40.7413L28.7647 41.7916C28.697 41.859 28.6054 41.8968 28.51 41.8968C28.4145 41.8968 28.3229 41.859 28.2553 41.7916L26.1648 39.7012C26.0974 39.6335 26.0596 39.5419 26.0596 39.4464C26.0596 39.351 26.0974 39.2594 26.1648 39.1917L27.2151 38.1415C26.5379 37.1277 26.0666 35.9906 25.8281 34.795H24.3436C24.2481 34.7948 24.1566 34.7568 24.0891 34.6893C24.0216 34.6218 23.9836 34.5303 23.9833 34.4349V31.4786C23.9835 31.3831 24.0215 31.2916 24.0891 31.2241C24.1566 31.1566 24.2481 31.1186 24.3436 31.1185H25.8281C26.0666 29.9229 26.5379 28.7858 27.2151 27.772L26.1648 26.7216C26.0974 26.654 26.0596 26.5624 26.0596 26.4669C26.0596 26.3714 26.0974 26.2799 26.1648 26.2122L28.2553 24.1218C28.3229 24.0544 28.4145 24.0166 28.51 24.0166C28.6054 24.0166 28.697 24.0544 28.7647 24.1218L29.8149 25.1722C30.8287 24.4949 31.9658 24.0237 33.1614 23.7852V22.3005C33.1616 22.2051 33.1996 22.1136 33.2671 22.0461C33.3347 21.9786 33.4262 21.9406 33.5217 21.9404L33.5218 21.9406Z" fill="#FFDA2D"/>
<path fill-rule="evenodd" clip-rule="evenodd" d="M33.5218 21.9404H36.4781C36.5735 21.9406 36.6651 21.9786 36.7326 22.0461C36.8001 22.1136 36.8381 22.2051 36.8383 22.3005V23.7852C38.0339 24.0237 39.1709 24.495 40.1847 25.1722L41.2351 24.1218C41.3027 24.0544 41.3943 24.0166 41.4898 24.0166C41.5853 24.0166 41.6768 24.0544 41.7445 24.1218L43.8349 26.2122C43.9023 26.2799 43.9401 26.3714 43.9401 26.4669C43.9401 26.5624 43.9023 26.654 43.8349 26.7216L43.6017 26.9549L42.805 26.1582C42.7374 26.0908 42.6458 26.053 42.5503 26.053C42.4548 26.053 42.3632 26.0908 42.2956 26.1582L41.2452 27.2086C40.2314 26.5315 39.0944 26.0602 37.8989 25.8216V24.337C37.8987 24.2415 37.8607 24.15 37.7931 24.0824C37.7256 24.0149 37.6341 23.9769 37.5386 23.9767H34.5823C34.4868 23.9769 34.3953 24.0149 34.3278 24.0824C34.2603 24.15 34.2223 24.2415 34.2221 24.337V25.8216C33.0265 26.0601 31.8894 26.5314 30.8756 27.2086L29.8253 26.1582C29.7577 26.0908 29.6661 26.053 29.5706 26.053C29.4752 26.053 29.3836 26.0908 29.3159 26.1582L27.2255 28.2486C27.1581 28.3163 27.1203 28.4079 27.1203 28.5033C27.1203 28.5988 27.1581 28.6904 27.2255 28.758L28.2758 29.8085C27.5986 30.8222 27.1273 31.9593 26.8888 33.1549H25.4043C25.3088 33.1551 25.2173 33.1931 25.1498 33.2606C25.0823 33.3281 25.0442 33.4196 25.044 33.515V34.7951H24.3437C24.2483 34.795 24.1568 34.757 24.0893 34.6895C24.0217 34.622 23.9837 34.5305 23.9835 34.435V31.4787C23.9837 31.3833 24.0217 31.2918 24.0892 31.2243C24.1567 31.1568 24.2483 31.1188 24.3437 31.1186H25.8282C26.0668 29.923 26.538 28.786 27.2152 27.7722L26.165 26.7218C26.0976 26.6541 26.0598 26.5625 26.0598 26.4671C26.0598 26.3716 26.0976 26.28 26.165 26.2123L28.2554 24.1219C28.3231 24.0545 28.4146 24.0167 28.5101 24.0167C28.6056 24.0167 28.6972 24.0545 28.7648 24.1219L29.8151 25.1723C30.8289 24.4951 31.9659 24.0238 33.1616 23.7853V22.3007C33.1617 22.2052 33.1998 22.1137 33.2673 22.0462C33.3348 21.9787 33.4263 21.9406 33.5218 21.9404ZM44.5746 31.1185H45.6561C45.7516 31.1187 45.8431 31.1567 45.9106 31.2242C45.9782 31.2917 46.0162 31.3831 46.0164 31.4786V33.1548H45.232C45.0921 32.4529 44.8716 31.7696 44.5747 31.1184L44.5746 31.1185ZM27.4587 40.9951L26.165 39.7013C26.0976 39.6336 26.0598 39.5421 26.0598 39.4466C26.0598 39.3511 26.0976 39.2595 26.165 39.1919L27.2152 38.1416C26.9373 37.7252 26.6932 37.287 26.4856 36.8314H26.8888C27.1273 38.0271 27.5985 39.1641 28.2758 40.1779L27.4587 40.9949V40.9951Z" fill="#FFC700"/>
<path d="M40.2861 34.7366C41.2512 31.8185 39.668 28.6707 36.7499 27.7057C33.8319 26.7406 30.6841 28.3238 29.719 31.2418C28.754 34.1599 30.3372 37.3077 33.2552 38.2728C36.1732 39.2378 39.3211 37.6546 40.2861 34.7366Z" fill="#EFF4F7"/>
<path fill-rule="evenodd" clip-rule="evenodd" d="M35 27.3916C35.4718 27.3916 35.9298 27.4505 36.3672 27.561C33.9548 28.1704 32.1694 30.3548 32.1694 32.9566C32.1694 35.5584 33.9548 37.7427 36.3672 38.3522C35.9202 38.465 35.461 38.5219 35 38.5216C31.9266 38.5216 29.435 36.03 29.435 32.9566C29.435 29.8832 31.9266 27.3916 35 27.3916Z" fill="#DEE8EE"/>
<path d="M52.4899 24.8169H68.7695V41.0965H52.4899V24.8169Z" fill="#DA8C36"/>
<path fill-rule="evenodd" clip-rule="evenodd" d="M52.4899 24.8169H53.8571V39.7292H68.7695V41.0964H52.4899V24.8169Z" fill="#CD7D25"/>
<path fill-rule="evenodd" clip-rule="evenodd" d="M58.0659 24.8169H63.1934V30.2683L60.6297 28.1345L58.0659 30.2683V24.8169Z" fill="#FFDA2D"/>
<path fill-rule="evenodd" clip-rule="evenodd" d="M63.1934 24.8169H61.8263V28.9011L59.2625 26.7673L58.0659 27.7632V30.2683L60.6297 28.1345L63.1934 30.2683V24.8169Z" fill="#FFC700"/>
</svg>
