<svg width="70" height="70" viewBox="0 0 70 70" fill="none" xmlns="http://www.w3.org/2000/svg">
<rect width="70" height="70" rx="35" fill="#33C481" fill-opacity="0.2"/>
<g clip-path="url(#clip0_1092_525)">
<path d="M14.6178 35.5825L12.6355 36.5736H11.5393C10.6892 36.5736 10 35.8845 10 35.0344C10 34.1843 10.6892 33.4951 11.5393 33.4951H14.0376L15.0287 34.4862L14.6178 35.5825Z" fill="#BDEC6C"/>
<path d="M16.0199 33.4949L16.31 35.0341L14.6179 36.5735H12.6357L14.0377 33.4949H16.0199Z" fill="#78C2A4"/>
<path d="M42.3249 36.5735H43.4213L44.4124 36.5487C45.2625 36.5487 45.9517 35.8843 45.9517 35.0341C45.9517 34.184 45.2625 33.5134 44.4124 33.5134L43.4213 33.4949H40.9229L40.6328 35.0341L42.3249 36.5735Z" fill="#BDEC6C"/>
<path d="M44.9602 35.0341C44.9602 34.184 44.271 33.4949 43.4209 33.4949H45.403C46.2531 33.4949 46.9423 34.184 46.9423 35.0341C46.9423 35.8842 46.2531 36.5734 45.403 36.5734H43.4209C44.271 36.5735 44.9602 35.8843 44.9602 35.0341Z" fill="#78C2A4"/>
<path d="M41.3335 37.5646L38.6479 30.6762C38.1488 29.5805 37.0558 28.8926 35.8518 28.8926L33.8695 28.8772H20.0994C19.5099 28.8772 18.9328 29.0468 18.437 29.3658C17.9412 29.6848 17.5477 30.1397 17.3033 30.6762L14.6177 36.5736L17.8913 37.5647L41.3335 37.5646Z" fill="#ECF4FF"/>
<path d="M33.8699 28.8771H36.8432C37.4327 28.8772 38.0098 29.0468 38.5056 29.3658C39.0014 29.6848 39.3949 30.1397 39.6393 30.6762L42.3249 36.5735L40.6328 37.5646L39.3517 36.5735L36.666 30.6762C36.4217 30.1397 36.0281 29.6848 35.5323 29.3658C35.0366 29.0468 34.4595 28.8772 33.8699 28.8771ZM26.384 21.8559H23.3054C23.1082 21.8559 22.9191 21.7775 22.7797 21.6381C22.6403 21.4987 22.562 21.3097 22.562 21.1125C22.562 20.9153 22.6403 20.7263 22.7797 20.5869C22.9191 20.4475 23.1082 20.3691 23.3054 20.3691H26.384C26.5811 20.3691 26.7702 20.4475 26.9096 20.5869C27.049 20.7263 27.1273 20.9153 27.1273 21.1125C27.1273 21.3097 27.049 21.4987 26.9096 21.6381C26.7702 21.7775 26.5811 21.8559 26.384 21.8559ZM26.384 18.7772H23.3054C23.1082 18.7772 22.9191 18.6989 22.7797 18.5595C22.6403 18.4201 22.562 18.231 22.562 18.0339C22.562 17.8367 22.6403 17.6477 22.7797 17.5083C22.9191 17.3688 23.1082 17.2905 23.3054 17.2905H26.384C26.5811 17.2905 26.7702 17.3688 26.9096 17.5083C27.049 17.6477 27.1273 17.8367 27.1273 18.0339C27.1273 18.231 27.049 18.4201 26.9096 18.5595C26.7702 18.6989 26.5811 18.7772 26.384 18.7772Z" fill="#D3EFFB"/>
<path d="M56.1845 45.0131H46.9533C46.7562 45.0131 46.5671 44.9348 46.4277 44.7954C46.2883 44.656 46.21 44.4669 46.21 44.2697C46.21 44.0726 46.2883 43.8835 46.4277 43.7441C46.5671 43.6047 46.7562 43.5264 46.9533 43.5264H56.1845C57.4688 43.5264 58.5136 42.4815 58.5136 41.1973V22.7138C58.5136 21.4295 57.4688 20.3847 56.1845 20.3847H31.55C31.3528 20.3847 31.1638 20.3064 31.0244 20.1669C30.885 20.0275 30.8066 19.8385 30.8066 19.6413C30.8066 19.4442 30.885 19.2551 31.0244 19.1157C31.1638 18.9763 31.3528 18.8979 31.55 18.8979H56.1846C58.2885 18.8979 60.0003 20.6097 60.0003 22.7137V41.1973C60.0002 43.3014 58.2885 45.0131 56.1845 45.0131Z" fill="#ECF4FF"/>
<path d="M28.4711 16.5146L26.0863 16.4946C25.9023 16.4946 25.7259 16.5677 25.5958 16.6978C25.4657 16.8279 25.3926 17.0044 25.3926 17.1884V21.9579C25.3926 22.1419 25.4657 22.3183 25.5958 22.4484C25.7259 22.5785 25.9023 22.6516 26.0863 22.6517L28.4711 22.6261C30.1713 22.6261 30.573 21.2733 30.573 19.5731C30.573 17.873 30.1713 16.5146 28.4711 16.5146Z" fill="#5882A1"/>
<path d="M28.4714 16.4946H26.0866L26.0684 16.4948C27.7509 16.5153 29.1086 17.8856 29.1086 19.5731C29.1086 21.2605 27.751 22.631 26.0684 22.6515C26.0744 22.6517 26.0806 22.6517 26.0866 22.6517H28.4714C30.1716 22.6517 31.5499 21.2733 31.5499 19.5731C31.5499 17.8729 30.1716 16.4946 28.4714 16.4946Z" fill="#365E7D"/>
<path d="M51.0082 23.6405L47.5731 29.3657C47.2956 29.8281 47.6287 30.4163 48.168 30.4163H50.8667C51.0507 30.4164 51.2272 30.4895 51.3573 30.6196C51.4874 30.7497 51.5605 30.9261 51.5605 31.1101V33.9607C51.5605 34.2622 51.9576 34.3722 52.1127 34.1136L55.5479 28.3884C55.8253 27.926 55.4922 27.3377 54.953 27.3377H52.2542C52.0702 27.3377 51.8938 27.2646 51.7637 27.1345C51.6336 27.0044 51.5605 26.828 51.5605 26.644V23.7934C51.5606 23.4919 51.1634 23.3819 51.0082 23.6405Z" fill="#F9BB41"/>
<path d="M44.0598 49.4358H37.707V52.0188C37.707 52.8399 38.3727 53.5054 39.1937 53.5054H40.591L42.5731 53.4063C43.3942 53.4063 44.0598 52.8398 44.0598 52.0188V49.4358Z" fill="#5882A1"/>
<path d="M42.0775 52.0188V50.4269L43.4211 49.4358L45.0508 50.4269V52.0188C45.0508 52.8398 44.3852 53.5054 43.5642 53.5054H40.5908C41.4119 53.5054 42.0775 52.8399 42.0775 52.0188Z" fill="#365E7D"/>
<path d="M18.2898 49.4358H11.937V52.0188C11.937 52.8399 12.6026 53.5054 13.4236 53.5054H14.821L16.8031 53.4063C17.6241 53.4063 18.2897 52.8398 18.2897 52.0188L18.2898 49.4358Z" fill="#5882A1"/>
<path d="M16.3074 52.0188V50.4269L17.651 49.4358L19.2807 50.4269V52.0188C19.2807 52.8398 18.615 53.5054 17.794 53.5054H14.8208C15.6419 53.5054 16.3074 52.8399 16.3074 52.0188Z" fill="#365E7D"/>
<path d="M11.4866 50.4269H22.3142L27.9757 49.4358L34.6283 50.4269H42.4826L44.4647 50.3278C45.2858 50.3278 45.9514 49.7613 45.9514 48.9403V42.4639C45.9514 42.0604 45.8719 41.6609 45.7175 41.2882C45.5631 40.9154 45.3368 40.5767 45.0515 40.2915L42.3246 37.5646L39.3514 36.5735H14.6178L10.8999 40.2914C10.3237 40.8676 10 41.6491 10 42.4639V48.9403C10 49.7613 10.6656 50.4269 11.4866 50.4269Z" fill="#BDEC6C"/>
<path d="M43.9694 48.9403V42.4639C43.9694 42.0604 43.89 41.6609 43.7356 41.2882C43.5811 40.9154 43.3548 40.5767 43.0695 40.2915L39.3516 36.5735H42.3248L46.0428 40.2915C46.3281 40.5767 46.5544 40.9154 46.7088 41.2882C46.8632 41.6609 46.9427 42.0604 46.9427 42.4639V48.9403C46.9427 49.7613 46.277 50.4269 45.4561 50.4269H42.4828C43.3038 50.4269 43.9694 49.7613 43.9694 48.9403Z" fill="#78C2A4"/>
<path d="M22.314 50.427H31.6549L33.637 49.4358V48.8814C33.637 47.1847 32.2614 45.9082 30.5646 45.9082L28.5825 45.8091H25.3863C23.6896 45.8091 22.314 47.1847 22.314 48.8814V50.427Z" fill="#5882A1"/>
<path d="M28.5825 45.8091H31.5558C33.2526 45.8091 34.6281 47.1847 34.6281 48.8814V50.4269H31.6549V48.8814C31.6549 47.1847 30.2793 45.8091 28.5825 45.8091Z" fill="#365E7D"/>
<path d="M18.154 42.9135H38.7883C38.9854 42.9135 39.1745 42.8352 39.3139 42.6957C39.4533 42.5563 39.5316 42.3673 39.5316 42.1701C39.5316 41.973 39.4533 41.7839 39.3139 41.6445C39.1745 41.5051 38.9854 41.4268 38.7883 41.4268H18.154C17.9569 41.4268 17.7678 41.5051 17.6284 41.6445C17.489 41.7839 17.4106 41.973 17.4106 42.1701C17.4106 42.3673 17.489 42.5563 17.6284 42.6957C17.7678 42.8352 17.9569 42.9135 18.154 42.9135ZM39.7942 48.0918H42.8729C42.9705 48.0918 43.0671 48.0726 43.1573 48.0352C43.2475 47.9979 43.3295 47.9431 43.3985 47.8741C43.4675 47.805 43.5223 47.7231 43.5596 47.6329C43.597 47.5427 43.6162 47.4461 43.6162 47.3484C43.6162 47.2508 43.597 47.1542 43.5596 47.064C43.5223 46.9738 43.4675 46.8918 43.3985 46.8228C43.3295 46.7538 43.2475 46.699 43.1573 46.6617C43.0671 46.6243 42.9705 46.6051 42.8729 46.6051H39.7942C39.6966 46.6051 39.6 46.6243 39.5098 46.6617C39.4196 46.699 39.3376 46.7538 39.2686 46.8228C39.1996 46.8918 39.1448 46.9738 39.1075 47.064C39.0701 47.1542 39.0509 47.2508 39.0509 47.3484C39.0509 47.4461 39.0701 47.5427 39.1075 47.6329C39.1448 47.7231 39.1996 47.805 39.2686 47.8741C39.3376 47.9431 39.4196 47.9979 39.5098 48.0352C39.6 48.0726 39.6966 48.0918 39.7942 48.0918ZM14.0695 48.0918H17.148C17.2457 48.0918 17.3423 48.0726 17.4325 48.0352C17.5227 47.9979 17.6047 47.9431 17.6737 47.8741C17.7427 47.805 17.7975 47.7231 17.8348 47.6329C17.8722 47.5427 17.8914 47.4461 17.8914 47.3484C17.8914 47.2508 17.8722 47.1542 17.8348 47.064C17.7975 46.9738 17.7427 46.8918 17.6737 46.8228C17.6047 46.7538 17.5227 46.699 17.4325 46.6617C17.3423 46.6243 17.2457 46.6051 17.148 46.6051H14.0695C13.9719 46.6051 13.8752 46.6243 13.7851 46.6617C13.6949 46.699 13.6129 46.7538 13.5439 46.8228C13.4749 46.8918 13.4201 46.9738 13.3828 47.064C13.3454 47.1542 13.3262 47.2508 13.3262 47.3484C13.3262 47.4461 13.3454 47.5427 13.3828 47.6329C13.4201 47.7231 13.4749 47.805 13.5439 47.8741C13.6129 47.9431 13.6949 47.9979 13.7851 48.0352C13.8752 48.0726 13.9719 48.0918 14.0695 48.0918Z" fill="#63AA8B"/>
<path d="M38.5017 44.1664L40.8908 43.5267L42.8729 42.7306V40.095L40.8908 40.4465C40.5768 40.6929 40.2144 40.8703 39.8272 40.9671L37.004 41.673C36.4808 41.8038 36.3004 42.4553 36.6817 42.8366L37.8318 43.9867C37.9179 44.0728 38.0251 44.1347 38.1427 44.1663C38.2603 44.1978 38.3841 44.1979 38.5017 44.1664Z" fill="#FFEE5B"/>
<path d="M40.8906 40.4466L42.7418 38.9936C43.1971 38.6362 43.8639 38.9605 43.8639 39.5393V42.1981C43.8639 42.3509 43.8135 42.4994 43.7205 42.6206C43.6275 42.7417 43.4971 42.8288 43.3495 42.8683L40.8906 43.5266V40.4466Z" fill="#FFD064"/>
<path d="M18.441 44.1663L13.593 42.8683C13.4454 42.8288 13.3151 42.7417 13.2221 42.6205C13.1291 42.4993 13.0786 42.3509 13.0786 42.1981V39.5393C13.0786 38.9605 13.7455 38.6362 14.2007 38.9936L16.0123 40.4155C16.3523 40.6824 16.7448 40.8745 17.1642 40.9794L19.9387 41.673C20.4618 41.8038 20.6423 42.4554 20.2609 42.8366L19.1108 43.9867C19.0248 44.0728 18.9176 44.1347 18.8 44.1662C18.6824 44.1978 18.5586 44.1978 18.441 44.1663Z" fill="#FFEE5B"/>
</g>
<defs>
<clipPath id="clip0_1092_525">
<rect width="50" height="50" fill="white" transform="translate(10 10)"/>
</clipPath>
</defs>
</svg>
