<svg width="1700" height="718" viewBox="0 0 1700 718" fill="none" xmlns="http://www.w3.org/2000/svg">
<mask id="mask0_718_784" style="mask-type:luminance" maskUnits="userSpaceOnUse" x="0" y="-181" width="1709" height="900">
<path d="M1709 -181H0V719H1709V-181Z" fill="white"/>
</mask>
<g mask="url(#mask0_718_784)">
<path d="M1701 0H0V719H1701V0Z" fill="url(#paint0_linear_718_784)"/>
<path style="mix-blend-mode:color-dodge" opacity="0.6" d="M1309.27 341.22C1309.27 442.36 1216.49 524.36 1102.05 524.36C987.61 524.36 894.822 442.36 894.822 341.22C894.822 240.08 987.589 158.08 1102.05 158.08C1216.51 158.08 1309.27 240.08 1309.27 341.22Z" fill="url(#paint1_linear_718_784)"/>
<g style="mix-blend-mode:screen" opacity="0.3">
<path d="M858.014 207.84C805.612 207.84 762.94 204.67 716.84 187.23C716.541 184.35 716.615 181.86 716.786 178.97C740.937 177.83 763.228 172.72 785.648 171.56C785.542 163.27 778.663 159.34 770.075 158.29C780.062 158.42 790.188 158.57 800.057 158.07C795.86 140.3 808.56 139.16 824.069 140.1C826.931 126.71 849.501 131.43 862.233 131.45C879.921 131.46 890.378 134.75 901.636 138.3C915.661 142.72 932.216 148.61 946.764 152.11C961.547 155.66 999.263 150.05 1006.61 162.42C989.617 175.28 963.651 165.19 948.879 176.28C959.016 189.72 981.735 185.76 995.311 189.82C972.923 205.71 903.847 186.7 893.614 207.52C880.402 210.51 860.321 213.9 848.422 205.6L858.025 207.85L858.014 207.84Z" fill="white"/>
</g>
<g style="mix-blend-mode:screen" opacity="0.3">
<path d="M1035.05 298.75C1061.21 298.75 1085.33 301.23 1110.88 302.58C1113.71 323.41 1193.12 315.4 1211.72 314.52C1212.32 311.86 1212.33 308.8 1211.72 306.15C1186.41 299.48 1152.9 312.69 1154.59 277.69C1145.02 274.08 1134.84 276.72 1124.48 275.6C1113.94 274.46 1106.01 270.65 1096.26 270.52C1086.93 289.62 1028.11 275.46 1031.53 298.45C1035.47 300.01 1040.21 301.19 1044.56 300.54L1035.04 298.76L1035.05 298.75Z" fill="white"/>
</g>
<g style="mix-blend-mode:screen" opacity="0.3">
<path d="M1404.21 109.35C1394.33 109.35 1373.56 112.05 1368.65 102.36C1370.44 100.76 1418.48 96.4999 1398.91 90.0399C1400.26 87.6699 1401.55 85.6199 1402.21 84.1899C1415.7 84.4199 1429.4 84.7099 1442.85 84.1099C1440.79 82.0699 1437.02 80.0899 1434.24 79.4699C1439.11 79.1099 1444.18 79.3699 1449.06 79.0899C1447.7 67.3799 1474.33 72.5299 1482.42 71.9899C1480.63 71.4599 1476.84 69.0899 1474.93 68.4499C1481.91 66.9499 1489.16 66.9899 1496.22 67.3499C1497.16 73.2599 1507.66 71.7699 1513.35 73.3899C1511.8 76.1999 1514.08 77.0099 1510.31 79.5299C1516.8 81.5899 1550.54 76.3399 1547.64 88.1099C1531.63 91.3399 1532.65 90.8299 1544.82 98.3199C1536.96 101.94 1510.63 96.0999 1510.11 108.17C1500.32 108.67 1490.24 108 1480.43 108.47C1479.89 116.62 1413.89 114.54 1404.18 109.32L1404.21 109.35Z" fill="white"/>
</g>
<g style="mix-blend-mode:screen" opacity="0.3">
<path d="M1476.2 488.21C1463.06 481.37 1435.22 478.04 1417.43 477.4C1409.27 477.11 1372.56 480.54 1368.14 476.64C1359.21 468.75 1397.13 470.2 1402.66 469.84C1417.91 468.84 1432.62 468.02 1448.19 467.51C1448.83 461.83 1440.53 462.02 1434.15 459.81C1463.95 454.87 1504.21 455.73 1534.92 457.05C1527.72 460.4 1511.27 459.42 1507.19 466.62C1523.39 472.86 1544.98 469.02 1562.68 474.43C1560.64 475.03 1559.72 475.99 1556.55 476.48C1556.55 476.54 1556.14 479.48 1556.41 479.33C1567.14 482.08 1605 486.25 1608.56 490.19C1572.38 491.82 1536.87 491.34 1502.23 492.48C1492.21 492.81 1473.53 496.36 1463.12 493.62C1441.73 488 1474.15 489.59 1477.84 486.05L1476.2 488.21Z" fill="white"/>
</g>
<path d="M796.928 173.01C798.647 172.93 800.399 173.26 802.044 173.79C803.7 174.32 805.27 175.07 806.744 175.94C808.218 176.82 809.585 177.83 810.877 178.92C812.159 180.03 813.345 181.17 814.456 182.51L812.448 182.4C814.199 180.82 815.994 179.3 817.863 177.83C818.803 177.1 819.732 176.37 820.715 175.67C821.676 174.97 822.67 174.29 823.695 173.64C823.011 174.61 822.285 175.53 821.537 176.44C820.8 177.35 820.01 178.22 819.241 179.11C817.671 180.85 816.036 182.54 814.349 184.18L813.345 185.16L812.351 184.07C811.337 182.96 810.183 181.83 809.03 180.77C807.865 179.7 806.648 178.69 805.387 177.72C804.127 176.76 802.813 175.86 801.414 175.05C800.015 174.25 798.541 173.57 796.928 173.01Z" fill="#0A1E00"/>
<path d="M848.485 146.089C849.575 146.039 850.664 146.249 851.711 146.579C852.758 146.919 853.751 147.389 854.67 147.939C855.599 148.489 856.464 149.129 857.276 149.819C858.088 150.519 858.825 151.239 859.53 152.079L858.269 152.009C859.37 151.019 860.502 150.049 861.677 149.129C862.275 148.679 862.862 148.209 863.471 147.769C864.08 147.329 864.699 146.899 865.351 146.499C864.924 147.109 864.464 147.689 863.984 148.259C863.514 148.839 863.023 149.389 862.531 149.939C861.538 151.039 860.512 152.099 859.455 153.129L858.825 153.749L858.195 153.059C857.554 152.359 856.827 151.639 856.101 150.979C855.364 150.299 854.606 149.659 853.805 149.059C853.014 148.459 852.181 147.879 851.305 147.379C850.429 146.879 849.489 146.439 848.475 146.089H848.485Z" fill="#0A1E00"/>
<path d="M872.935 163.999C873.982 164.259 874.965 164.769 875.851 165.379C876.738 165.989 877.539 166.719 878.233 167.509C878.938 168.299 879.558 169.149 880.113 170.029C880.658 170.919 881.139 171.819 881.534 172.819L880.348 172.399C881.726 171.759 883.115 171.169 884.525 170.609C885.23 170.339 885.945 170.069 886.672 169.819C887.387 169.569 888.124 169.329 888.872 169.129C888.263 169.589 887.644 170.019 887.003 170.419C886.372 170.839 885.721 171.219 885.08 171.609C883.777 172.379 882.463 173.099 881.117 173.789L880.316 174.199L879.932 173.369C879.547 172.529 879.088 171.639 878.607 170.799C878.127 169.949 877.603 169.119 877.037 168.319C876.471 167.519 875.873 166.739 875.189 166.009C874.506 165.279 873.758 164.609 872.914 163.979L872.935 163.999Z" fill="#0A1E00"/>
<path d="M1623.29 588.14C1623.29 589.13 1622.96 589.93 1622.56 589.93H1617.62C1617.22 589.93 1616.88 589.13 1616.88 588.14L1618.12 473.53C1618.12 472.54 1618.45 471.74 1618.86 471.74H1621.33C1621.73 471.74 1622.07 472.54 1622.07 473.53L1623.29 588.14Z" fill="#7DAF28"/>
<path d="M1624.94 475.09C1624.1 477.45 1621.37 478.73 1618.85 477.95C1616.32 477.16 1614.96 474.61 1615.8 472.24C1616.64 469.88 1619.36 468.6 1621.89 469.38C1624.43 470.17 1625.79 472.72 1624.95 475.09H1624.94Z" fill="#7DAF28"/>
<path d="M1589.49 476.63C1603.5 473.93 1615.48 474.6 1615.48 474.6C1615.48 474.6 1604.75 479.63 1590.74 482.33C1576.72 485.03 1565.08 485.93 1564.74 484.36C1564.4 482.79 1575.47 479.33 1589.49 476.63Z" fill="#7DAF28"/>
<path d="M1643.19 493.35C1633.69 483.33 1623.67 477.15 1623.67 477.15C1623.67 477.15 1629.05 487.2 1638.55 497.22C1648.04 507.23 1656.79 514.49 1658.07 513.42C1659.35 512.35 1652.69 503.37 1643.19 493.36V493.35Z" fill="#7DAF28"/>
<path d="M1633.04 447.15C1628.53 459.86 1621.93 469.25 1621.93 469.25C1621.93 469.25 1622.64 458.03 1627.15 445.32C1631.66 432.61 1636.64 422.71 1638.27 423.22C1639.9 423.73 1637.56 434.44 1633.04 447.15Z" fill="#7DAF28"/>
<path d="M1709 569.22H0V719H1709V569.22Z" fill="url(#paint2_linear_718_784)"/>
<path d="M1708.39 717.9H0.597656V719H1708.39V717.9Z" fill="white"/>
<path d="M1708.39 682.13H0.597656V683.23H1708.39V682.13Z" fill="white"/>
<path d="M1708.39 656.42H0.597656V657.52H1708.39V656.42Z" fill="white"/>
<path d="M1708.39 637.41H0.597656V638.51H1708.39V637.41Z" fill="white"/>
<path d="M1708.39 622.88H0.597656V623.99H1708.39V622.88Z" fill="white"/>
<path d="M1708.39 611.7H0.597656V612.8H1708.39V611.7Z" fill="white"/>
<path d="M1708.39 602.76H0.597656V603.86H1708.39V602.76Z" fill="white"/>
<path d="M1708.39 593.811H0.597656V594.911H1708.39V593.811Z" fill="white"/>
<path d="M1708.39 587.109H0.597656V588.209H1708.39V587.109Z" fill="white"/>
<path d="M1708.39 581.52H0.597656V582.62H1708.39V581.52Z" fill="white"/>
<path d="M1708.39 577.05H0.597656V578.15H1708.39V577.05Z" fill="white"/>
<path d="M1708.39 572.58H0.597656V573.68H1708.39V572.58Z" fill="white"/>
<path d="M1708.39 569.22H0.597656V570.32H1708.39V569.22Z" fill="white"/>
<path d="M855.921 569H853.08V718.45H855.921V569Z" fill="white"/>
<path d="M442.909 718.779L440.645 718.109L733.823 569.439L736.088 570.109L442.909 718.779Z" fill="white"/>
<path d="M1266.08 718.779L972.912 570.109L975.177 569.439L1268.34 718.109L1266.08 718.779Z" fill="white"/>
<path d="M29.8427 718.91L28.2832 717.99L611.779 569.32L613.338 570.24L29.8427 718.91Z" fill="white"/>
<path d="M1679.15 718.91L1095.65 570.24L1097.22 569.32L1680.72 717.99L1679.15 718.91Z" fill="white"/>
<path d="M1.1963 658.21L0 657.21L490.515 569.28L491.711 570.28L1.1963 658.21Z" fill="white"/>
<path d="M1707.79 658.21L1228.66 571.39L1229.87 570.4L1709 657.21L1707.79 658.21Z" fill="white"/>
<path d="M1.01478 613.53L0.181641 612.47L370.212 569.25L371.035 570.3L1.01478 613.53Z" fill="white"/>
<path d="M1707.98 613.53L1337.96 570.3L1338.79 569.25L1708.81 612.47L1707.98 613.53Z" fill="white"/>
<path d="M1182.06 719L888.679 569H820.319L526.938 719H1182.06Z" fill="url(#paint3_linear_718_784)" fill-opacity="0.4"/>
<path d="M871.588 719H837.408L853.078 569H855.919L871.588 719Z" fill="#C9EC70"/>
</g>
<defs>
<linearGradient id="paint0_linear_718_784" x1="850.5" y1="719" x2="850.5" y2="0" gradientUnits="userSpaceOnUse">
<stop stop-color="#E7FF85"/>
<stop offset="0.93" stop-color="#F5FBF0"/>
</linearGradient>
<linearGradient id="paint1_linear_718_784" x1="1102.04" y1="524.36" x2="1102.04" y2="158.08" gradientUnits="userSpaceOnUse">
<stop offset="0.05" stop-color="#231F20"/>
<stop offset="0.25" stop-color="#434142"/>
<stop offset="0.69" stop-color="#969798"/>
<stop offset="0.88" stop-color="#BCBEC0"/>
</linearGradient>
<linearGradient id="paint2_linear_718_784" x1="854.5" y1="719" x2="854.5" y2="569.22" gradientUnits="userSpaceOnUse">
<stop stop-color="#144B28"/>
<stop offset="0.21" stop-color="#174E27"/>
<stop offset="0.37" stop-color="#215826"/>
<stop offset="0.52" stop-color="#326924"/>
<stop offset="0.66" stop-color="#498022"/>
<stop offset="0.8" stop-color="#689F1F"/>
<stop offset="0.93" stop-color="#8DC41B"/>
<stop offset="1" stop-color="#A5DC19"/>
</linearGradient>
<linearGradient id="paint3_linear_718_784" x1="854.499" y1="-181" x2="854.499" y2="569" gradientUnits="userSpaceOnUse">
<stop stop-color="#144B28"/>
<stop offset="0.21" stop-color="#174E27"/>
<stop offset="0.37" stop-color="#215826"/>
<stop offset="0.52" stop-color="#326924"/>
<stop offset="0.66" stop-color="#498022"/>
<stop offset="0.8" stop-color="#689F1F"/>
<stop offset="0.93" stop-color="#8DC41B"/>
<stop offset="1" stop-color="#A5DC19"/>
</linearGradient>
</defs>
</svg>
