<svg width="70" height="70" viewBox="0 0 70 70" fill="none" xmlns="http://www.w3.org/2000/svg">
<path opacity="0.9" d="M24.3797 46.5717C23.6906 43.0061 21.9844 40.4249 20.65 38.8608L17.5875 30.4389C17.1609 29.2686 15.9359 28.6014 14.7984 28.9077C14.1312 29.0936 13.5953 29.5421 13.3219 30.1546C13.2344 30.3296 13.1797 30.4936 13.1469 30.6577C13.0156 31.2702 13.2234 31.8717 13.2234 31.8827C13.3 32.1452 13.6719 34.453 14.0328 37.0999C14.0656 37.2967 13.9234 37.3624 13.8469 37.3842C13.7375 37.4171 13.6062 37.4061 13.5406 37.2311L11.2437 30.9092L11.6703 27.1686L12.775 19.8842C12.8406 19.4796 12.8078 19.0858 12.6656 18.6921C12.3922 17.9155 11.714 17.3467 10.9047 17.2046C9.6578 16.9858 8.46561 17.828 8.2578 19.0311L4.39686 32.9327C4.38592 32.9655 4.38592 32.9983 4.38592 33.0421C4.2328 35.5358 4.4953 38.0186 5.15155 40.3921C6.11405 43.8592 7.94061 47.1186 10.4344 49.8092C10.8172 50.8592 11.1562 52.128 11.4953 53.342C11.8453 54.6217 12.2062 55.9452 12.6109 57.0608C12.6875 57.2795 12.9062 57.4327 13.1469 57.4217C14.7437 57.367 16.4172 57.3999 18.0359 57.4217C18.9875 57.4327 19.95 57.4545 20.9016 57.4545C21.6016 57.4545 22.3016 57.4436 22.9906 57.4217C23.1984 57.4108 23.3953 57.2795 23.4719 57.0827C23.9859 55.792 25.2656 51.1108 24.3797 46.5717ZM22.5859 56.3389C21.0984 56.3827 19.5562 56.3499 18.0578 56.328C17.1062 56.317 16.1437 56.2952 15.1922 56.2952C14.6234 56.2952 14.0656 56.3061 13.5078 56.317C13.1687 55.3217 12.8516 54.1733 12.5453 53.0577C12.1953 51.778 11.8344 50.4545 11.4297 49.328C11.4078 49.2624 11.364 49.1967 11.3094 49.142C8.89217 46.5608 7.13124 43.4327 6.20155 40.1077C5.57811 37.8545 5.33749 35.5249 5.46874 33.1624L9.32967 19.2717C9.38436 18.9546 9.55936 18.6702 9.82186 18.4842C10.0844 18.2983 10.4015 18.2327 10.7187 18.2874C11.1344 18.3639 11.4953 18.6592 11.6375 19.0639C11.714 19.2717 11.7359 19.4686 11.6922 19.6983L10.5875 27.0264L10.1391 30.9202C10.1281 30.9967 10.139 31.0842 10.1719 31.1717L12.5125 37.603C12.7531 38.2592 13.4203 38.6202 14.1094 38.4452C14.7875 38.2811 15.214 37.6467 15.1156 36.9577C14.8094 34.6936 14.3828 31.9155 14.2625 31.5436C14.2406 31.4671 14.164 31.1499 14.2187 30.8874C14.2297 30.7999 14.2625 30.7124 14.3062 30.6139C14.4594 30.2967 14.7328 30.0561 15.0828 29.9686C15.6844 29.8046 16.3297 30.1764 16.5594 30.8108L19.6656 39.3311C19.6875 39.3967 19.7203 39.4514 19.764 39.5061C21.0219 40.9499 22.6516 43.3889 23.3078 46.7796C24.0734 50.728 23.1109 54.7858 22.5859 56.3389Z" fill="#CA9E67"/>
<path d="M22.5859 56.3388C21.0984 56.3825 19.5562 56.3497 18.0578 56.3278C17.1062 56.3169 16.1437 56.295 15.1922 56.295C14.6234 56.295 14.0656 56.3059 13.5078 56.3169C13.1687 55.3216 12.8515 54.1731 12.5453 53.0575C12.1953 51.7778 11.8344 50.4544 11.4297 49.3278C11.4078 49.2622 11.364 49.1966 11.3094 49.1419C8.89217 46.5606 7.13123 43.4325 6.20155 40.1075C5.57811 37.8544 5.33748 35.5247 5.46873 33.1622L9.32967 19.2716C9.38436 18.9544 9.55936 18.67 9.82186 18.4841C10.0844 18.2981 10.4015 18.2325 10.7187 18.2872C11.1344 18.3638 11.4953 18.6591 11.6375 19.0638C11.714 19.2716 11.7359 19.4684 11.6922 19.6981L10.5875 27.0263L10.139 30.92C10.1281 30.9966 10.139 31.0841 10.1719 31.1716L12.5125 37.6028C12.7531 38.2591 13.4203 38.62 14.1094 38.445C14.7875 38.2809 15.214 37.6466 15.1156 36.9575C14.8094 34.6934 14.3828 31.9153 14.2625 31.5434C14.2406 31.4669 14.164 31.1497 14.2187 30.8872C14.2297 30.7997 14.2625 30.7122 14.3062 30.6138C14.4594 30.2966 14.7328 30.0559 15.0828 29.9684C15.6844 29.8044 16.3297 30.1763 16.5594 30.8106L19.6656 39.3309C19.6875 39.3966 19.7203 39.4513 19.764 39.5059C21.0219 40.9497 22.6515 43.3888 23.3078 46.7794C24.0734 50.7278 23.1109 54.7856 22.5859 56.3388Z" fill="#CA9E67"/>
<path opacity="0.04" d="M5.15155 40.3824C6.11405 43.8496 7.94061 47.109 10.4344 49.7996C10.8172 50.8496 11.1562 52.1184 11.4953 53.3324C11.8453 54.6121 12.2062 55.9356 12.6109 57.0512C12.6875 57.2699 12.9172 57.4231 13.1469 57.4121C13.4531 57.4012 13.7594 57.3902 14.0656 57.4012L13.9344 56.2965L13.2234 50.3027C13.2234 50.2699 13.1906 49.5699 10.8062 46.3981C8.33436 43.1387 6.75936 38.0418 6.40936 35.9309C6.05936 33.8199 9.71249 21.2856 9.71249 21.2856L10.3687 18.2668L10.6094 17.1731C9.47186 17.1184 8.44374 17.9168 8.24686 19.0652L4.39686 32.9231C4.38592 32.9559 4.38592 32.9887 4.38592 33.0324C4.2328 35.5262 4.4953 38.009 5.15155 40.3824Z" fill="black"/>
<path opacity="0.9" d="M65.6141 33.0422C65.6141 32.9984 65.6141 32.9656 65.6032 32.9328L61.7532 19.075C61.5563 17.9266 60.5282 17.1281 59.3906 17.1828C59.2922 17.1828 59.1938 17.1828 59.0953 17.2047C58.286 17.3469 57.6078 17.9156 57.3344 18.6922C57.1922 19.0859 57.1594 19.4797 57.225 19.8625L58.3297 27.1578L58.7563 30.9094L56.4594 37.2313C56.3938 37.4063 56.2625 37.4172 56.1532 37.3844C56.0766 37.3625 55.9344 37.2969 55.9672 37.1C56.3281 34.4531 56.7 32.1453 56.7657 31.9156C56.7657 31.9047 56.9844 31.2813 56.8532 30.6578C56.8203 30.4938 56.7657 30.3297 56.6891 30.1656C56.4047 29.5422 55.8688 29.0938 55.2016 28.9078C54.0641 28.6016 52.8391 29.2688 52.4125 30.4391L49.35 38.861C48.0156 40.425 46.3094 43.0063 45.6203 46.5719C44.7344 51.111 46.0141 55.7922 46.5282 57.0828C46.6047 57.2797 46.8016 57.411 47.0094 57.4219C47.6985 57.4438 48.3985 57.4547 49.0985 57.4547C50.05 57.4547 51.0125 57.4328 51.9641 57.4219C53.2766 57.4 54.6219 57.3781 55.9344 57.411C56.2407 57.4 56.5469 57.411 56.8532 57.4219C57.0828 57.4328 57.3125 57.2797 57.3891 57.061C57.7938 55.9453 58.1547 54.6219 58.5047 53.3422C58.8438 52.1281 59.1828 50.8594 59.5656 49.8094C62.0594 47.1188 63.886 43.8594 64.8485 40.3922C65.5047 38.0188 65.7672 35.5359 65.6141 33.0422ZM63.7985 40.1078C62.8688 43.4328 61.1078 46.561 58.6907 49.1422C58.636 49.1969 58.5922 49.2625 58.5703 49.3281C58.1657 50.4547 57.8047 51.7781 57.4547 53.0578C57.1485 54.1735 56.8313 55.3219 56.4922 56.3172C56.35 56.3172 56.2078 56.3063 56.0656 56.3063C54.6985 56.2844 53.2985 56.3063 51.9422 56.3281C50.4438 56.35 48.9016 56.3719 47.4141 56.3391C46.8891 54.786 45.9266 50.7281 46.6922 46.7797C47.3485 43.3891 48.9782 40.95 50.236 39.5063C50.2797 39.4516 50.3125 39.3969 50.3344 39.3313L53.4407 30.811C53.6703 30.1766 54.3156 29.8047 54.9172 29.9688C55.2672 30.0563 55.5406 30.2969 55.6938 30.625C55.7375 30.7125 55.7703 30.8 55.7813 30.8875C55.836 31.15 55.7594 31.4672 55.7266 31.5656C55.6172 31.9156 55.1907 34.6938 54.8844 36.9578C54.786 37.6469 55.2125 38.2813 55.8906 38.4453C56.5797 38.6203 57.2469 38.2594 57.4875 37.6031L59.8282 31.1719C59.861 31.0844 59.8719 30.9969 59.861 30.9203L59.4125 27.0156L58.3078 19.6766C58.2641 19.4688 58.286 19.2719 58.3625 19.0641C58.5047 18.6594 58.8657 18.3641 59.2813 18.2875C59.4016 18.2656 59.5219 18.2656 59.6313 18.2766C59.8282 18.2984 60.0141 18.3641 60.1782 18.4844C60.4407 18.6703 60.6157 18.9547 60.6813 19.3156L64.5313 33.1625C64.6625 35.525 64.4219 37.8547 63.7985 40.1078Z" fill="#CA9E67"/>
<path d="M63.7984 40.108C62.8688 43.433 61.1078 46.5611 58.6906 49.1424C58.6359 49.1971 58.5922 49.2627 58.5703 49.3283C58.1656 50.4549 57.8047 51.7783 57.4547 53.058C57.1484 54.1736 56.8313 55.3221 56.4922 56.3174C54.9938 56.2846 53.4406 56.3064 51.9422 56.3283C50.4438 56.3502 48.9016 56.3721 47.4141 56.3392C46.8891 54.7861 45.9266 50.7283 46.6922 46.7799C47.3484 43.3892 48.9781 40.9502 50.2359 39.5064C50.2797 39.4517 50.3125 39.3971 50.3344 39.3314L53.4406 30.8111C53.6703 30.1767 54.3156 29.8049 54.9172 29.9689C55.2672 30.0564 55.5406 30.2971 55.6938 30.6252C55.7375 30.7127 55.7703 30.8002 55.7813 30.8877C55.8359 31.1502 55.7594 31.4674 55.7266 31.5658C55.6172 31.9158 55.1906 34.6939 54.8844 36.958C54.7859 37.6471 55.2125 38.2814 55.8906 38.4455C56.5797 38.6205 57.2469 38.2596 57.4875 37.6033L59.8281 31.1721C59.8609 31.0846 59.8719 30.9971 59.8609 30.9205L59.4125 27.0158L58.3078 19.6767C58.2641 19.4689 58.2859 19.2721 58.3625 19.0642C58.5047 18.6596 58.8656 18.3642 59.2813 18.2877C59.5984 18.233 59.9156 18.2986 60.1781 18.4846C60.4406 18.6705 60.6156 18.9549 60.6813 19.3158L64.5313 33.1627C64.6625 35.5252 64.4219 37.8549 63.7984 40.108Z" fill="#CA9E67"/>
<path opacity="0.04" d="M64.8484 40.3922C63.8859 43.8594 62.0594 47.1188 59.5656 49.8094C59.1828 50.8594 58.8438 52.1281 58.5047 53.3422C58.1547 54.6219 57.7938 55.9453 57.3891 57.061C57.3125 57.2797 57.0828 57.4328 56.8531 57.4219C56.5469 57.4109 56.2406 57.4 55.9344 57.411L56.0656 56.3063L56.7766 50.3125C56.7766 50.2797 56.8094 49.5797 59.1938 46.4078C61.6656 43.1485 63.2406 38.0516 63.5906 35.9406C63.9406 33.8297 60.2875 21.2953 60.2875 21.2953L59.6313 18.2766L59.3906 17.1828C60.5281 17.1281 61.5563 17.9266 61.7531 19.075L65.6031 32.9328C65.6141 32.9656 65.6141 32.9984 65.6141 33.0422C65.7672 35.5359 65.5047 38.0188 64.8484 40.3922Z" fill="black"/>
<path d="M26.25 55.6445H9.84375C9.76824 55.6445 9.70703 55.7057 9.70703 55.7812V60.1562C9.70703 60.2318 9.76824 60.293 9.84375 60.293H26.25C26.3255 60.293 26.3867 60.2318 26.3867 60.1562V55.7812C26.3867 55.7057 26.3255 55.6445 26.25 55.6445Z" fill="#D50000"/>
<path d="M60.1562 55.6499H43.75C43.6775 55.6499 43.6187 55.7087 43.6187 55.7812V60.1562C43.6187 60.2286 43.6775 60.2874 43.75 60.2874H60.1562C60.2287 60.2874 60.2875 60.2286 60.2875 60.1562V55.7812C60.2875 55.7087 60.2287 55.6499 60.1562 55.6499Z" fill="#D50000"/>
<path opacity="0.1" d="M60.2875 55.7812V60.1562C60.2875 60.2327 60.2328 60.2874 60.1562 60.2874H45.3141V59.4015H59.1937V57.9687C59.1937 57.9687 46.1891 58.439 45.1828 57.9687C44.8 57.7937 44.2094 57.0827 43.6187 56.2733V55.7812C43.6187 55.7046 43.6734 55.6499 43.75 55.6499H60.1562C60.2328 55.6499 60.2875 55.7046 60.2875 55.7812Z" fill="black"/>
<path opacity="0.1" d="M9.70703 55.7758V60.1508C9.70703 60.2273 9.76172 60.282 9.83828 60.282H24.6805V59.3961H10.8008V57.9633C10.8008 57.9633 23.8055 58.4336 24.8117 57.9633C25.1945 57.7883 25.7852 57.0773 26.3758 56.268V55.7758C26.3758 55.6992 26.3211 55.6445 26.2445 55.6445H9.83828C9.76172 55.6445 9.70703 55.6992 9.70703 55.7758Z" fill="black"/>
<path d="M50.0609 29.6143H45.0406C44.648 29.6143 44.3297 29.296 44.3297 28.9033C44.3297 28.5107 44.648 28.1924 45.0406 28.1924H50.0609C50.4536 28.1924 50.7719 28.5107 50.7719 28.9033C50.7719 29.296 50.4536 29.6143 50.0609 29.6143Z" fill="#1E88E5"/>
<path d="M49.0569 22.5859H45.0406C44.648 22.5859 44.3297 22.2677 44.3297 21.875C44.3297 21.4823 44.648 21.1641 45.0406 21.1641H49.0569C49.4495 21.1641 49.7678 21.4823 49.7678 21.875C49.7678 22.2677 49.4495 22.5859 49.0569 22.5859Z" fill="#1E88E5"/>
<path d="M50.0609 15.5571H45.0406C44.648 15.5571 44.3297 15.2388 44.3297 14.8462C44.3297 14.4535 44.648 14.1353 45.0406 14.1353H50.0609C50.4536 14.1353 50.7719 14.4535 50.7719 14.8462C50.7719 15.2388 50.4536 15.5571 50.0609 15.5571Z" fill="#1E88E5"/>
<path d="M47.5508 19.0718H45.0406C44.648 19.0718 44.3297 18.7535 44.3297 18.3608C44.3297 17.9682 44.648 17.6499 45.0406 17.6499H47.5508C47.9434 17.6499 48.2617 17.9682 48.2617 18.3608C48.2617 18.7535 47.9434 19.0718 47.5508 19.0718Z" fill="#FFAB00"/>
<path d="M48.0528 26.1001H45.0406C44.648 26.1001 44.3297 25.7818 44.3297 25.3892C44.3297 24.9965 44.648 24.6782 45.0406 24.6782H48.0528C48.4455 24.6782 48.7637 24.9965 48.7637 25.3892C48.7637 25.7818 48.4455 26.1001 48.0528 26.1001Z" fill="#FFAB00"/>
<g opacity="0.1">
<path d="M50.7718 28.9077C50.7718 29.2687 50.4984 29.5749 50.1375 29.6077C50.2906 29.4874 50.3781 29.2905 50.3781 29.0827C50.3781 28.689 50.0609 28.3718 49.6672 28.3718H44.6578C44.625 28.3718 44.6031 28.3718 44.5703 28.3827C44.6906 28.2624 44.8547 28.1968 45.0406 28.1968H50.0609C50.4547 28.1968 50.7718 28.514 50.7718 28.9077Z" fill="black"/>
<path d="M49.7656 21.875C49.7656 22.2359 49.4922 22.5312 49.1422 22.575C49.2953 22.4547 49.3828 22.2578 49.3828 22.05C49.3828 21.6562 49.0656 21.3391 48.6718 21.3391H44.6578C44.625 21.3391 44.6031 21.3391 44.5703 21.35C44.6906 21.2297 44.8547 21.1641 45.0406 21.1641H49.0547C49.4484 21.1641 49.7656 21.4812 49.7656 21.875Z" fill="black"/>
<path d="M50.7719 14.8423C50.7719 15.2142 50.4984 15.5095 50.1375 15.5423C50.2906 15.422 50.3781 15.2251 50.3781 15.0173C50.3781 14.6345 50.0609 14.3173 49.6672 14.3173H44.6578C44.625 14.3173 44.5922 14.3173 44.5594 14.3282C44.6797 14.2079 44.8547 14.1313 45.0406 14.1313H50.0609C50.4547 14.1313 50.7719 14.4595 50.7719 14.8423Z" fill="black"/>
<path d="M48.2562 18.3643C48.2562 18.7361 47.9828 19.0314 47.6328 19.0643C47.7859 18.9439 47.8734 18.7471 47.8734 18.5393C47.8734 18.1455 47.5562 17.8283 47.1625 17.8283H44.6578C44.625 17.8283 44.6031 17.8283 44.5703 17.8393C44.6906 17.7189 44.8547 17.6533 45.0406 17.6533H47.5562C47.939 17.6533 48.2562 17.9705 48.2562 18.3643Z" fill="black"/>
<path d="M48.7593 25.3862C48.7593 25.7472 48.4859 26.0425 48.1359 26.0862C48.289 25.9659 48.3765 25.769 48.3765 25.5612C48.3765 25.1675 48.0593 24.8503 47.6656 24.8503H44.6578C44.625 24.8503 44.6031 24.8503 44.5703 24.8612C44.6906 24.7409 44.8547 24.6753 45.0406 24.6753H48.0484C48.4422 24.6753 48.7593 24.9925 48.7593 25.3862Z" fill="black"/>
</g>
<path d="M27.9712 12.5452C27.5785 12.5452 27.2603 12.2269 27.2603 11.8343V6.81397C27.2603 6.42131 27.5785 6.10303 27.9712 6.10303C28.3638 6.10303 28.6821 6.42131 28.6821 6.81397V11.8343C28.6821 12.2269 28.3638 12.5452 27.9712 12.5452Z" fill="#FFAB00"/>
<path d="M35 12.5451C34.6073 12.5451 34.2891 12.2268 34.2891 11.8341V7.81787C34.2891 7.42521 34.6073 7.10693 35 7.10693C35.3927 7.10693 35.7109 7.42521 35.7109 7.81787V11.8341C35.7109 12.2268 35.3927 12.5451 35 12.5451Z" fill="#FFAB00"/>
<path d="M42.0284 12.5452C41.6358 12.5452 41.3175 12.2269 41.3175 11.8343V6.81397C41.3175 6.42131 41.6358 6.10303 42.0284 6.10303C42.4211 6.10303 42.7394 6.42131 42.7394 6.81397V11.8343C42.7394 12.2269 42.4211 12.5452 42.0284 12.5452Z" fill="#FFAB00"/>
<path d="M38.5142 12.5453C38.1216 12.5453 37.8033 12.227 37.8033 11.8344V9.32422C37.8033 8.93156 38.1216 8.61328 38.5142 8.61328C38.9069 8.61328 39.2252 8.93156 39.2252 9.32422V11.8344C39.2252 12.227 38.9069 12.5453 38.5142 12.5453Z" fill="#1E88E5"/>
<path d="M31.4858 12.5454C31.0931 12.5454 30.7748 12.2271 30.7748 11.8345V8.82227C30.7748 8.42961 31.0931 8.11133 31.4858 8.11133C31.8784 8.11133 32.1967 8.42961 32.1967 8.82227V11.8345C32.1967 12.2271 31.8784 12.5454 31.4858 12.5454Z" fill="#1E88E5"/>
<g opacity="0.1">
<path d="M28.6672 6.71553C28.5688 6.66084 28.4484 6.62803 28.3281 6.62803C27.9344 6.62803 27.6172 6.95615 27.6172 7.33896V12.3593C27.6172 12.3921 27.6172 12.4249 27.6281 12.4577C27.4094 12.3374 27.2563 12.1077 27.2563 11.8343V6.81396C27.2563 6.42021 27.5844 6.10303 27.9672 6.10303C28.3281 6.10303 28.6234 6.36553 28.6672 6.71553Z" fill="black"/>
<path d="M35.7 7.73281C35.6016 7.66719 35.4812 7.63438 35.35 7.63438C34.9562 7.63438 34.6391 7.95156 34.6391 8.34531V12.3594C34.6391 12.3922 34.6391 12.4141 34.65 12.4469C34.4312 12.3375 34.2891 12.0969 34.2891 11.8344V7.82031C34.2891 7.42656 34.6062 7.10938 35 7.10938C35.3609 7.10938 35.6562 7.38281 35.7 7.73281Z" fill="black"/>
<path d="M42.7328 6.72646C42.6344 6.66084 42.5141 6.62803 42.3828 6.62803C41.9891 6.62803 41.6719 6.95615 41.6719 7.33896V12.3593C41.6719 12.3921 41.6719 12.414 41.6828 12.4468C41.4641 12.3374 41.3219 12.0968 41.3219 11.8343V6.81396C41.3219 6.42021 41.6391 6.10303 42.0328 6.10303C42.3828 6.10303 42.6891 6.37646 42.7328 6.72646Z" fill="black"/>
<path d="M39.2109 9.24209C39.1125 9.17646 38.9922 9.14365 38.8609 9.14365C38.4781 9.14365 38.15 9.46084 38.15 9.85459V12.3593C38.15 12.3921 38.15 12.414 38.1609 12.4468C37.9422 12.3374 37.8 12.0968 37.8 11.8343V9.31865C37.8 8.93584 38.1172 8.61865 38.5109 8.61865C38.8828 8.61865 39.1781 8.89209 39.2109 9.24209Z" fill="black"/>
<path d="M32.1891 8.73916C32.0906 8.67353 31.9703 8.64072 31.8391 8.64072C31.4453 8.64072 31.1281 8.95791 31.1281 9.35166V12.3595C31.1281 12.3923 31.1281 12.4142 31.1391 12.447C30.9203 12.3376 30.7781 12.097 30.7781 11.8345V8.82666C30.7781 8.43291 31.0953 8.11572 31.4891 8.11572C31.85 8.11572 32.1453 8.38916 32.1891 8.73916Z" fill="black"/>
</g>
<path d="M24.9594 29.6143H19.9391C19.5464 29.6143 19.2281 29.296 19.2281 28.9033C19.2281 28.5107 19.5464 28.1924 19.9391 28.1924H24.9594C25.352 28.1924 25.6703 28.5107 25.6703 28.9033C25.6703 29.296 25.352 29.6143 24.9594 29.6143Z" fill="#1E88E5"/>
<path d="M24.9594 22.5859H20.9431C20.5505 22.5859 20.2322 22.2677 20.2322 21.875C20.2322 21.4823 20.5505 21.1641 20.9431 21.1641H24.9594C25.352 21.1641 25.6703 21.4823 25.6703 21.875C25.6703 22.2677 25.352 22.5859 24.9594 22.5859Z" fill="#1E88E5"/>
<path d="M24.9594 15.5576H19.9391C19.5464 15.5576 19.2281 15.2393 19.2281 14.8467C19.2281 14.454 19.5464 14.1357 19.9391 14.1357H24.9594C25.352 14.1357 25.6703 14.454 25.6703 14.8467C25.6703 15.2393 25.352 15.5576 24.9594 15.5576Z" fill="#1E88E5"/>
<path d="M24.9594 19.0718H22.4492C22.0566 19.0718 21.7383 18.7535 21.7383 18.3608C21.7383 17.9682 22.0566 17.6499 22.4492 17.6499H24.9594C25.352 17.6499 25.6703 17.9682 25.6703 18.3608C25.6703 18.7535 25.352 19.0718 24.9594 19.0718Z" fill="#FFAB00"/>
<path d="M24.9594 26.1001H21.9472C21.5545 26.1001 21.2362 25.7818 21.2362 25.3892C21.2362 24.9965 21.5545 24.6782 21.9472 24.6782H24.9594C25.352 24.6782 25.6703 24.9965 25.6703 25.3892C25.6703 25.7818 25.352 26.1001 24.9594 26.1001Z" fill="#FFAB00"/>
<g opacity="0.1">
<path d="M19.2281 14.8377C19.2281 14.4768 19.5016 14.1705 19.8625 14.1377C19.7094 14.258 19.6219 14.4549 19.6219 14.6627C19.6219 15.0564 19.9391 15.3736 20.3328 15.3736H25.3422C25.375 15.3736 25.3969 15.3736 25.4297 15.3627C25.3094 15.483 25.1453 15.5486 24.9594 15.5486H19.9391C19.5453 15.5486 19.2281 15.2314 19.2281 14.8377Z" fill="black"/>
</g>
<g opacity="0.1">
<path d="M20.2344 21.8709C20.2344 21.51 20.5078 21.2146 20.8578 21.1709C20.7047 21.2912 20.6172 21.4881 20.6172 21.6959C20.6172 22.0896 20.9344 22.4068 21.3281 22.4068H25.3422C25.375 22.4068 25.3969 22.4068 25.4297 22.3959C25.3094 22.5162 25.1453 22.5818 24.9594 22.5818H20.9453C20.5516 22.5818 20.2344 22.2646 20.2344 21.8709Z" fill="black"/>
</g>
<g opacity="0.1">
<path d="M19.2281 28.9036C19.2281 28.5317 19.5016 28.2364 19.8625 28.2036C19.7094 28.3239 19.6219 28.5208 19.6219 28.7286C19.6219 29.1114 19.9391 29.4286 20.3328 29.4286H25.3422C25.375 29.4286 25.4078 29.4286 25.4406 29.4177C25.3203 29.538 25.1453 29.6146 24.9594 29.6146H19.9391C19.5453 29.6146 19.2281 29.2864 19.2281 28.9036Z" fill="black"/>
</g>
<g opacity="0.1">
<path d="M25.5719 25.7361C25.4625 25.9549 25.2219 26.0971 24.9594 26.0971H21.9516C21.5578 26.0971 21.2406 25.7799 21.2406 25.3861C21.2406 25.0689 21.4484 24.7955 21.7438 24.708C21.6781 24.8064 21.6453 24.9268 21.6453 25.058C21.6453 25.4518 21.9734 25.7689 22.3563 25.7689H25.375C25.4406 25.7689 25.5172 25.758 25.5719 25.7361Z" fill="black"/>
</g>
<g opacity="0.1">
<path d="M25.5937 18.6812C25.4844 18.9108 25.2437 19.0749 24.9594 19.0749H22.4437C22.0609 19.0749 21.7437 18.7577 21.7437 18.364C21.7437 18.1015 21.8859 17.8718 22.0937 17.7515C22.0391 17.8499 22.0062 17.9593 22.0062 18.0796C22.0062 18.4624 22.3234 18.7905 22.7172 18.7905H25.2219C25.3641 18.7905 25.4844 18.7468 25.5937 18.6812Z" fill="black"/>
</g>
<path d="M54.7422 7.1661C54.3254 6.98782 53.8431 7.18032 53.6648 7.59704C53.4865 8.01375 53.679 8.4961 54.0958 8.67438C55.6467 9.33829 56.8673 10.5589 57.5323 12.1109C57.6658 12.4216 57.9687 12.6086 58.287 12.6086C58.3953 12.6086 58.5047 12.5867 58.6097 12.5419C59.0264 12.3636 59.2189 11.8813 59.0406 11.4645C58.2093 9.52422 56.6825 7.99844 54.7422 7.1661Z" fill="#00B0FF"/>
<path d="M58.0464 5.19644C57.6045 5.11222 57.1703 5.39551 57.0806 5.83957C56.9909 6.28363 57.2797 6.71676 57.7237 6.80535C58.5725 6.97488 59.2309 7.63332 59.4015 8.48316C59.4792 8.87254 59.8215 9.14269 60.2044 9.14269C60.2579 9.14269 60.3126 9.13722 60.3662 9.12629C60.8103 9.03769 61.0979 8.60457 61.0094 8.16051C60.7097 6.66097 59.5459 5.49613 58.0464 5.19644Z" fill="#00B0FF"/>
<path d="M54.6131 11.5951C53.2667 10.2487 51.7639 9.681 50.739 9.44256C50.2928 9.34085 49.8564 9.61538 49.7536 10.0551C49.6508 10.4969 49.9253 10.9377 50.3661 11.0405C51.1831 11.2308 52.3808 11.6826 53.4537 12.7555C53.9383 13.239 54.8045 14.2835 55.1676 15.841C55.2562 16.2194 55.5931 16.4754 55.9661 16.4754C56.0273 16.4754 56.0908 16.4688 56.1531 16.4535C56.5939 16.3507 56.8684 15.9088 56.7656 15.468C56.3325 13.6108 55.3558 12.3377 54.6131 11.5951Z" fill="#00B0FF"/>
<path d="M15.9042 8.67474C16.3209 8.49646 16.5134 8.01411 16.3352 7.59739C16.1558 7.18177 15.6734 6.98927 15.2578 7.16646C13.3175 7.99771 11.7917 9.52458 10.9594 11.4649C10.7811 11.8816 10.9736 12.364 11.3903 12.5422C11.4953 12.5871 11.6047 12.609 11.713 12.609C12.0312 12.609 12.3342 12.423 12.4677 12.1113C13.1316 10.5604 14.3522 9.33974 15.9042 8.67474Z" fill="#00B0FF"/>
<path d="M12.2762 6.80516C12.7203 6.71657 13.0079 6.28345 12.9193 5.83938C12.8307 5.39532 12.4009 5.11095 11.9535 5.19626C10.454 5.49595 9.29026 6.65969 8.99058 8.15923C8.90089 8.60329 9.18964 9.03641 9.6337 9.12501C9.68839 9.13595 9.74308 9.14141 9.79558 9.14141C10.1784 9.14141 10.5207 8.87235 10.5984 8.48188C10.7679 7.63313 11.4264 6.97579 12.2762 6.80516Z" fill="#00B0FF"/>
<path d="M19.262 9.44147C17.4048 9.87459 16.1295 10.8513 15.388 11.594C14.0416 12.9393 13.4739 14.4432 13.2355 15.468C13.1327 15.9088 13.4072 16.3507 13.848 16.4535C13.9114 16.4677 13.9738 16.4754 14.035 16.4754C14.408 16.4754 14.7448 16.2205 14.8334 15.841C15.0238 15.0251 15.4755 13.8274 16.5484 12.7544C17.1402 12.1627 18.1552 11.3851 19.6339 11.0405C20.0758 10.9377 20.3492 10.4969 20.2475 10.0562C20.1447 9.61537 19.7039 9.34084 19.2631 9.44256L19.262 9.44147Z" fill="#00B0FF"/>
<g opacity="0.1">
<path d="M59.1062 11.8234C58.2641 9.92027 56.7547 8.44371 54.8516 7.62339C54.4359 7.43746 53.9547 7.63433 53.7687 8.04996C53.7359 8.13746 53.7141 8.22496 53.7141 8.31246C53.5828 8.10464 53.5609 7.84214 53.6703 7.60152C53.8453 7.18589 54.3266 6.98902 54.7422 7.16402C56.6781 7.99527 58.2094 9.52652 59.0406 11.4625C59.0844 11.5828 59.1062 11.7031 59.1062 11.8234Z" fill="black"/>
<path d="M61.0203 8.24705C60.6156 6.92361 59.5219 5.9283 58.1547 5.65486C57.7172 5.56736 57.2797 5.85173 57.1922 6.28923C57.1813 6.33298 57.1813 6.37673 57.1813 6.42048C57.0828 6.24548 57.0391 6.04861 57.0828 5.8408C57.1703 5.39236 57.6078 5.10798 58.0453 5.19548C59.5438 5.50173 60.7141 6.66111 61.0094 8.15955C61.0203 8.19236 61.0203 8.21423 61.0203 8.24705Z" fill="black"/>
<path d="M56.7766 15.5859C56.3172 13.9124 55.4203 12.7421 54.7203 12.0531C53.375 10.6968 51.8656 10.139 50.8484 9.89837C50.4 9.789 49.9625 10.0624 49.8641 10.5109C49.8531 10.5546 49.8531 10.6093 49.8531 10.6531C49.7437 10.4781 49.7109 10.2702 49.7547 10.0515C49.8531 9.614 50.2906 9.34056 50.7391 9.439C51.7672 9.67962 53.2656 10.2484 54.6109 11.5937C55.3547 12.3374 56.3281 13.6062 56.7656 15.4656C56.7766 15.5093 56.7766 15.5421 56.7766 15.5859Z" fill="black"/>
</g>
<g opacity="0.1">
<path d="M15.6176 7.09619C13.7145 7.93838 12.238 9.44775 11.4176 11.3509C11.2317 11.7665 11.4286 12.2478 11.8442 12.4337C11.9317 12.4665 12.0192 12.4884 12.1067 12.4884C11.8989 12.6196 11.6364 12.6415 11.3958 12.5321C10.9801 12.3571 10.7833 11.8759 10.9583 11.4603C11.7895 9.52432 13.3208 7.99307 15.2567 7.16182C15.377 7.11807 15.4973 7.09619 15.6176 7.09619Z" fill="black"/>
<path d="M12.0411 5.18213C10.7176 5.58682 9.72233 6.68057 9.4489 8.04775C9.3614 8.48525 9.64577 8.92275 10.0833 9.01025C10.127 9.02119 10.1708 9.02119 10.2145 9.02119C10.0395 9.11963 9.84265 9.16338 9.63483 9.11963C9.1864 9.03213 8.90202 8.59463 8.98952 8.15713C9.29577 6.65869 10.4551 5.48838 11.9536 5.19307C11.9864 5.18213 12.0083 5.18213 12.0411 5.18213Z" fill="black"/>
<path d="M19.3802 9.42627C17.7067 9.88564 16.5364 10.7825 15.8473 11.4825C14.4911 12.8278 13.9333 14.3372 13.6927 15.3544C13.5833 15.8028 13.8567 16.2403 14.3052 16.3388C14.3489 16.3497 14.4036 16.3497 14.4473 16.3497C14.2723 16.4591 14.0645 16.4919 13.8458 16.4481C13.4083 16.3497 13.1348 15.9122 13.2333 15.4638C13.4739 14.4356 14.0427 12.9372 15.388 11.5919C16.1317 10.8481 17.4005 9.87471 19.2598 9.43721C19.3036 9.42627 19.3364 9.42627 19.3802 9.42627Z" fill="black"/>
</g>
<path d="M43.5312 11.6924H26.4687C25.5609 11.6924 24.8172 12.4361 24.8172 13.3439V30.4064C24.8172 30.8549 25.0031 31.2924 25.3203 31.5877H44.6797C44.9969 31.2924 45.1828 30.8549 45.1828 30.4064V13.3439C45.1828 12.4361 44.439 11.6924 43.5312 11.6924Z" fill="#82B1FF"/>
<path opacity="0.1" d="M45.1828 13.3439V30.4064C45.1828 30.8549 44.9969 31.2924 44.6797 31.5877H44.0781C44.0891 31.5549 44.0891 31.533 44.0891 31.5002V14.4377C44.0891 13.5299 43.3453 12.7861 42.4375 12.7861H25.375C25.2109 12.7861 25.0469 12.808 24.8937 12.8627C25.1016 12.1846 25.725 11.6924 26.4687 11.6924H43.5312C44.4391 11.6924 45.1828 12.4361 45.1828 13.3439Z" fill="black"/>
<path d="M47.1625 31.7187V34.3874C47.1625 34.464 47.1078 34.5187 47.0312 34.5187H44.0672C43.9031 35.0765 43.6734 35.6124 43.4 36.1483L45.5 38.2374C45.5547 38.2921 45.5547 38.3796 45.5 38.4343L41.7156 42.2187C41.6609 42.2733 41.5734 42.2733 41.5187 42.2187L39.4297 40.1187C38.9047 40.3921 38.3578 40.6218 37.8 40.7858V43.7499C37.8 43.8265 37.7453 43.8812 37.6687 43.8812H32.3312C32.2547 43.8812 32.2 43.8265 32.2 43.7499V40.7858C31.6422 40.6218 31.0953 40.3921 30.5703 40.1187L28.4812 42.2187C28.4266 42.2733 28.3391 42.2733 28.2844 42.2187L24.5 38.4343C24.4453 38.3796 24.4453 38.2921 24.5 38.2374L26.6 36.1483C26.3266 35.6124 26.0969 35.0765 25.9328 34.5187H22.9687C22.8922 34.5187 22.8375 34.464 22.8375 34.3874V31.7187C22.8375 31.6421 22.8922 31.5874 22.9687 31.5874H29.6516C29.7281 31.5874 29.7828 31.6421 29.7828 31.7187C29.7828 31.7624 29.7828 31.8062 29.7937 31.8499C29.7937 32.0249 29.8156 32.1999 29.8266 32.364C29.8484 32.539 29.8703 32.714 29.925 32.878C29.9906 33.2062 30.0891 33.5233 30.2312 33.8296C30.4172 34.2671 30.6687 34.6718 30.975 35.0327C31.2047 35.3062 31.4562 35.5577 31.7297 35.7765C31.85 35.8749 31.9812 35.9733 32.1234 36.0718C32.2656 36.1593 32.4078 36.2468 32.55 36.3233C32.8453 36.4765 33.1516 36.6077 33.4687 36.7062C33.5344 36.728 33.5891 36.739 33.6547 36.7608C33.8953 36.8265 34.1359 36.8702 34.3875 36.903C34.5844 36.9249 34.7922 36.9358 35 36.9358C35.2078 36.9358 35.4156 36.9249 35.6125 36.903C35.8641 36.8702 36.1047 36.8265 36.3453 36.7608C36.4109 36.739 36.4656 36.728 36.5312 36.7062C36.8484 36.6077 37.1547 36.4765 37.45 36.3233C37.5922 36.2468 37.7344 36.1593 37.8766 36.0718C38.0187 35.9733 38.15 35.8749 38.2703 35.7765C38.5437 35.5577 38.7953 35.3062 39.025 35.0327C39.3312 34.6718 39.5828 34.2671 39.7687 33.8296C39.9109 33.5233 40.0094 33.2062 40.075 32.878C40.1297 32.714 40.1516 32.539 40.1734 32.364C40.1844 32.1999 40.2062 32.0249 40.2062 31.8499C40.2172 31.8062 40.2172 31.7624 40.2172 31.7187C40.2172 31.6421 40.2719 31.5874 40.3484 31.5874H47.0312C47.1078 31.5874 47.1625 31.6421 47.1625 31.7187Z" fill="#37474F"/>
<path opacity="0.1" d="M47.1625 31.7405V34.3874C47.1625 34.464 47.1078 34.5187 47.0312 34.5187H44.0672C43.9031 35.0765 43.6734 35.6124 43.4 36.1483L45.5 38.2374C45.5547 38.2921 45.5547 38.3796 45.5 38.4343L41.7156 42.2187C41.6609 42.2733 41.5734 42.2733 41.5187 42.2187L39.4297 40.1187C38.9047 40.3921 38.3578 40.6218 37.8 40.7858V43.7499C37.8 43.8265 37.7453 43.8812 37.6687 43.8812H32.3312C32.2547 43.8812 32.2 43.8265 32.2 43.7499V40.7858C31.6422 40.6218 31.0953 40.3921 30.5703 40.1187L28.4812 42.2187C28.4266 42.2733 28.3391 42.2733 28.2844 42.2187L24.5 38.4343C24.4453 38.3796 24.4453 38.2921 24.5 38.2374L26.6 36.1483C26.3266 35.6124 26.0969 35.0765 25.9328 34.5187H22.9687C22.8922 34.5187 22.8375 34.464 22.8375 34.3874V31.7187C22.8375 31.6421 22.8922 31.5874 22.9687 31.5874H23.0234C23.6031 31.9921 24.3906 32.4624 25.2328 32.7249C26.8953 33.2608 28.1094 34.8358 27.8359 36.1155C27.5625 37.3843 25.9766 38.4452 25.9766 38.4452L27.9125 40.8187L30.625 38.5327C30.625 38.5327 31.6203 37.8983 32.6594 38.9265C33.6875 39.9546 33.4578 40.6437 33.4578 40.6437L33.2719 42.9733H37.0344V40.4249C37.0344 40.4249 36.9469 38.9702 38.2047 38.7077C39.4625 38.4452 39.9109 39.189 39.9109 39.189L41.4859 41.1249L44.3297 38.314L42.3719 36.4655C42.3719 36.4655 41.8359 35.5249 42.5031 34.3983C43.1594 33.2608 43.9469 32.9983 43.9469 32.9983L47.1625 31.7405Z" fill="black"/>
<path d="M29.5203 31.5768V31.8502C29.5203 31.9804 29.5313 32.1105 29.5422 32.2363L29.5553 32.3982C29.5783 32.5841 29.6133 32.7591 29.657 32.9319C29.7205 33.2491 29.8266 33.5783 29.9819 33.9415C30.1875 34.3976 30.45 34.823 30.765 35.208C31.0155 35.5055 31.2834 35.7691 31.5569 35.9879C31.6827 36.0907 31.8194 36.1935 31.9802 36.304C32.1267 36.3947 32.2744 36.4844 32.4242 36.5654C32.7491 36.7338 33.0728 36.8683 33.3824 36.9646L33.5825 37.0237C33.8177 37.0882 34.0616 37.1352 34.358 37.1746C34.5647 37.1976 34.7824 37.2085 35 37.2085C35.2177 37.2085 35.4353 37.1965 35.6486 37.1735C35.9384 37.1352 36.1824 37.0871 36.4317 37.0193L36.6122 36.9668C36.9272 36.8683 37.251 36.7338 37.5791 36.5632C37.7256 36.4844 37.8733 36.3937 38.0319 36.2952C38.1806 36.1924 38.3174 36.0896 38.442 35.989C38.7166 35.768 38.9845 35.5055 39.2372 35.2047C39.5511 34.8219 39.8136 34.3965 40.0203 33.9371C40.1745 33.5772 40.2795 33.2491 40.3408 32.944C40.3867 32.758 40.4217 32.583 40.4469 32.3818L40.4589 32.2352C40.4699 32.1094 40.4808 31.9793 40.4808 31.8491V31.5757H29.5214L29.5203 31.5768Z" fill="#B0BEC5"/>
<path opacity="0.1" d="M39.6703 34.6063C39.5391 34.8142 39.3969 35.022 39.2328 35.2079C38.9813 35.5032 38.7188 35.7657 38.4453 35.9954C38.3141 36.0938 38.1828 36.1923 38.0297 36.3017C37.8766 36.4001 37.7235 36.4876 37.5813 36.5642C37.2531 36.7392 36.925 36.8704 36.6078 36.9688L36.4328 37.0235C36.1813 37.0892 35.9406 37.1329 35.6453 37.1767C35.4375 37.1985 35.2188 37.2095 35 37.2095C34.7813 37.2095 34.5625 37.1985 34.3547 37.1767C34.0594 37.1329 33.8188 37.0892 33.5781 37.0235L33.3813 36.9688C33.075 36.8704 32.7469 36.7392 32.4188 36.5642C32.2766 36.4876 32.1235 36.4001 31.9813 36.3017C31.8172 36.1923 31.686 36.0938 31.5547 35.9845C31.2813 35.7657 31.0188 35.5032 30.7672 35.2079C30.45 34.8251 30.1875 34.3985 29.9797 33.9392C29.8266 33.5782 29.7172 33.2501 29.6516 32.9329C29.6078 32.7579 29.575 32.5829 29.5531 32.397L29.5422 32.2329C29.5313 32.1126 29.5203 31.9813 29.5203 31.8501V31.5767H29.9797V31.6204L29.9906 31.7845C30.0235 31.9704 30.0563 32.1454 30.1 32.3204C30.1547 32.6376 30.2641 32.9657 30.4172 33.3267C30.625 33.786 30.8875 34.2126 31.2047 34.5954C31.4563 34.8907 31.7188 35.1532 31.9922 35.372C32.1235 35.4813 32.2547 35.5798 32.4188 35.6892C32.561 35.7767 32.7141 35.8751 32.8672 35.9517C33.1844 36.1157 33.5125 36.2579 33.8188 36.3454L34.0266 36.411C34.2563 36.4767 34.4969 36.5204 34.7922 36.5642C35 36.586 35.2188 36.597 35.4375 36.597C35.6563 36.597 35.875 36.586 36.0828 36.5642C36.3781 36.5204 36.6188 36.4767 36.8703 36.4001L37.0563 36.3563C37.3625 36.2579 37.6906 36.1157 38.0188 35.9517C38.1609 35.8751 38.3141 35.7767 38.4672 35.6782C38.6203 35.5798 38.7516 35.4813 38.8828 35.372C39.1563 35.1532 39.4078 34.9017 39.6703 34.6063Z" fill="black"/>
<path d="M40.5234 14.7109H29.4766C28.5705 14.7109 27.8359 15.4455 27.8359 16.3516V27.3984C27.8359 28.3045 28.5705 29.0391 29.4766 29.0391H40.5234C41.4295 29.0391 42.1641 28.3045 42.1641 27.3984V16.3516C42.1641 15.4455 41.4295 14.7109 40.5234 14.7109Z" fill="#01579B"/>
<path opacity="0.1" d="M42.1641 16.3516V27.3984C42.1641 28.1422 41.6719 28.7656 40.9938 28.9625C41.0484 28.8094 41.0703 28.6563 41.0703 28.4922V17.4453C41.0703 16.5375 40.3375 15.8047 39.4297 15.8047H28.3828C28.2188 15.8047 28.0656 15.8266 27.9125 15.8813C28.1094 15.2031 28.7328 14.7109 29.4766 14.7109H40.5234C41.4313 14.7109 42.1641 15.4438 42.1641 16.3516Z" fill="black"/>
<path d="M36.6078 24.4564C36.4328 24.4564 36.3234 24.4455 36.2797 24.4346C36.225 24.4127 36.1812 24.3908 36.1484 24.358C36.1156 24.3252 36.0609 24.2158 35.9734 24.0408C35.8859 23.8658 35.8094 23.7018 35.7438 23.5486L35.5141 23.0127L33.8188 19.0205H33.5563C33.5234 19.0971 33.4906 19.1846 33.4578 19.2611C33.2938 19.6658 33.1187 20.0596 32.9547 20.4643L31.8719 22.9143L31.4453 23.8221C31.3141 24.1064 31.2266 24.2705 31.1828 24.3252C31.1391 24.3799 31.0953 24.4127 31.0297 24.4346C30.975 24.4455 30.8547 24.4564 30.6578 24.4564L30.625 24.4893V24.6971L30.6578 24.7299C30.9531 24.708 31.2484 24.6971 31.5438 24.6971C31.8063 24.6971 32.1016 24.708 32.4406 24.7299L32.4734 24.6971V24.4893L32.4406 24.4564C32.1562 24.4564 31.9703 24.4455 31.8937 24.4127C31.8281 24.3799 31.7953 24.3252 31.7953 24.2596C31.7953 24.1721 31.8281 24.0408 31.9047 23.8549L32.3422 22.8377H34.65L35.1312 24.0518C35.175 24.1502 35.1859 24.2268 35.1859 24.2814C35.1859 24.358 35.1531 24.4018 35.0766 24.4236C35 24.4455 34.825 24.4564 34.5187 24.4564L34.4859 24.4893V24.6971L34.5187 24.7299C34.9672 24.7189 35.4047 24.708 35.8422 24.6971H35.9953C36.1812 24.6971 36.3891 24.708 36.6078 24.7299L36.6406 24.6971V24.4893L36.6078 24.4564ZM32.4734 22.4986L33.4906 20.0924L34.4859 22.4986H32.4734Z" fill="white"/>
<path d="M38.5875 23.6033C38.5875 23.8986 38.5984 24.0955 38.6094 24.183C38.6203 24.2705 38.6422 24.3252 38.664 24.358C38.6969 24.3908 38.7406 24.4127 38.8172 24.4346C38.8828 24.4455 39.0578 24.4674 39.3422 24.4783L39.375 24.5002V24.6971L39.3422 24.7299C39.3312 24.7299 39.1016 24.7189 38.6422 24.708C38.5219 24.6971 38.4234 24.6971 38.3359 24.6971H38.2047C38.1172 24.6971 37.7344 24.708 37.0672 24.7299L37.0344 24.6971V24.5002L37.0672 24.4783C37.3078 24.4674 37.4719 24.4564 37.5594 24.4346C37.6359 24.4236 37.6906 24.4018 37.7234 24.3799C37.7453 24.3471 37.7672 24.2924 37.789 24.2158C37.8109 24.1283 37.8109 23.9533 37.8219 23.6689V20.9783L37.8109 20.2018C37.8109 19.9064 37.8 19.7096 37.789 19.6221C37.7781 19.5346 37.7672 19.4689 37.7344 19.4471C37.7125 19.4143 37.6578 19.3924 37.5922 19.3705C37.5156 19.3596 37.3406 19.3377 37.0672 19.3268L37.0344 19.3049V19.0971L37.0672 19.0752L37.5594 19.0861C37.8875 19.0971 38.0953 19.108 38.2047 19.108H38.3359C38.5109 19.0971 38.85 19.0861 39.3422 19.0752L39.375 19.0971V19.3049L39.3422 19.3268C39.1562 19.3377 39.0141 19.3377 38.9156 19.3486C38.8172 19.3596 38.7516 19.3814 38.6969 19.4143C38.6531 19.4471 38.6312 19.5127 38.6094 19.6221C38.5984 19.7205 38.5875 19.8736 38.5875 20.0705V23.6033Z" fill="white"/>
<path opacity="0.1" d="M38.5875 23.6033C38.5875 23.8986 38.5984 24.0955 38.6094 24.183C38.6203 24.2705 38.6422 24.3252 38.6641 24.358C38.6969 24.3908 38.7406 24.4127 38.8172 24.4346C38.8828 24.4455 39.0578 24.4674 39.3422 24.4783L39.375 24.5002V24.6971L39.3422 24.7299C39.3313 24.7299 39.1016 24.7189 38.6422 24.708C38.5219 24.6971 38.4234 24.6971 38.3359 24.6971V19.108C38.5109 19.0971 38.85 19.0861 39.3422 19.0752L39.375 19.0971V19.3049L39.3422 19.3268C39.1563 19.3377 39.0141 19.3377 38.9156 19.3486C38.8172 19.3596 38.7516 19.3814 38.6969 19.4143C38.6531 19.4471 38.6312 19.5127 38.6094 19.6221C38.5984 19.7205 38.5875 19.8736 38.5875 20.0705V23.6033Z" fill="black"/>
<path opacity="0.1" d="M36.6406 24.4893V24.6971L36.6078 24.7299C36.3891 24.708 36.1813 24.6971 35.9953 24.6971L33.4578 19.2611C33.4906 19.1846 33.5234 19.0971 33.5563 19.0205H33.8188L35.5141 23.0127L35.7438 23.5486C35.8094 23.7018 35.8859 23.8658 35.9734 24.0408C36.0609 24.2158 36.1156 24.3252 36.1484 24.358C36.1813 24.3908 36.225 24.4127 36.2797 24.4346C36.3234 24.4455 36.4328 24.4564 36.6078 24.4564L36.6406 24.4893Z" fill="black"/>
</svg>
