<svg width="70" height="70" viewBox="0 0 70 70" fill="none" xmlns="http://www.w3.org/2000/svg">
<path d="M46.9135 46.4424L49.5021 53.1732L53.6442 63.9424H42.875H22.6827H13.2596L19.9904 46.4424H46.9135Z" fill="#DBEEFF"/>
<path d="M33.4519 6.05762C21.9921 6.05762 12.7037 15.3461 12.7037 26.8059C12.7037 40.2196 25.2017 44.5537 33.4519 55.8653C41.7069 44.5526 54.2017 40.2172 54.2017 26.8059C54.2017 15.3461 44.9132 6.05762 33.4519 6.05762Z" fill="#232B3F"/>
<path d="M44.8001 20.7308C42.6247 16.6883 38.3507 13.9287 33.4519 13.9287C28.5533 13.9287 24.2792 16.6883 22.1038 20.7308C21.1279 22.5427 20.5746 24.6118 20.5746 26.806C20.5746 28.9868 21.1212 31.0437 22.085 32.8462C24.255 36.9089 28.5398 39.6833 33.4519 39.6833C38.364 39.6833 42.6488 36.9089 44.8187 32.8462C45.7826 31.0437 46.3292 28.9868 46.3292 26.806C46.3292 24.6118 45.7761 22.5427 44.8001 20.7308Z" fill="#DBEEFF"/>
<path d="M60.2404 35.5386C62.471 35.5386 64.2788 37.3465 64.2788 39.577C64.2788 41.8076 62.471 43.6155 60.2404 43.6155C58.011 43.6155 56.2019 41.8076 56.2019 39.577C56.2019 37.3465 58.011 35.5386 60.2404 35.5386Z" fill="#FF7CB9"/>
<path d="M9.75961 41.5962C11.2471 41.5962 12.4519 42.801 12.4519 44.2885C12.4519 45.776 11.2471 46.9808 9.75961 46.9808C8.27346 46.9808 7.06731 45.776 7.06731 44.2885C7.06731 42.801 8.27346 41.5962 9.75961 41.5962Z" fill="#FF7CB9"/>
<path d="M37.5792 26.8059H33.4519L36.3677 23.8901C37.1163 24.6373 37.5792 25.6684 37.5792 26.8059Z" fill="#0095FF"/>
<path d="M33.4519 26.8057L36.3677 29.7214C35.6204 30.4699 34.5881 30.933 33.4519 30.933V26.8057Z" fill="#0095FF"/>
<path d="M33.4519 26.8057L30.5362 29.7214C29.7877 28.9743 29.3246 27.9432 29.3246 26.8057H33.4519Z" fill="#0095FF"/>
<path d="M33.4519 22.6787V26.806L30.5362 23.8902C31.2846 23.1418 32.3158 22.6787 33.4519 22.6787Z" fill="#0095FF"/>
<path d="M33.4519 26.8057V30.933C32.3158 30.933 31.2846 30.4699 30.5362 29.7214L33.4519 26.8057Z" fill="#0579C1"/>
<path d="M33.4519 26.8057H37.5792C37.5792 27.9432 37.1163 28.9743 36.3677 29.7214L33.4519 26.8057Z" fill="#0579C1"/>
<path d="M36.3677 23.8902L33.4519 26.806V22.6787C34.5881 22.6787 35.6204 23.1418 36.3677 23.8902Z" fill="#0579C1"/>
<path d="M33.4519 26.8059H29.3246C29.3246 25.6684 29.7877 24.6373 30.5362 23.8901L33.4519 26.8059Z" fill="#0579C1"/>
<path d="M22.085 32.8462H44.8187C42.6488 36.9089 38.364 39.6833 33.4519 39.6833C28.5398 39.6833 24.255 36.9089 22.085 32.8462Z" fill="#7FE881"/>
<path d="M44.8001 20.7308H22.1038C24.2792 16.6883 28.5533 13.9287 33.4519 13.9287C38.3507 13.9287 42.6247 16.6883 44.8001 20.7308Z" fill="#FF7815"/>
<path d="M61.25 22.75C61.8087 22.75 62.2596 23.2023 62.2596 23.7596C62.2596 24.3169 61.8087 24.7692 61.25 24.7692C60.6926 24.7692 60.2404 24.3169 60.2404 23.7596C60.2404 23.2023 60.6926 22.75 61.25 22.75Z" fill="#FF7CB9"/>
<path d="M59.9038 55.0576C60.4625 55.0576 60.9135 55.5099 60.9135 56.0672C60.9135 56.6245 60.4625 57.0768 59.9038 57.0768C59.3464 57.0768 58.8942 56.6245 58.8942 56.0672C58.8942 55.5099 59.3464 55.0576 59.9038 55.0576Z" fill="#FF7CB9"/>
<path d="M53.1731 6.59619C53.7317 6.59619 54.1827 7.0485 54.1827 7.60581C54.1827 8.16311 53.7317 8.61542 53.1731 8.61542C52.6156 8.61542 52.1635 8.16311 52.1635 7.60581C52.1635 7.0485 52.6156 6.59619 53.1731 6.59619Z" fill="#FF7CB9"/>
<path d="M51.8269 45.6348C52.3856 45.6348 52.8365 46.0871 52.8365 46.6444C52.8365 47.2017 52.3856 47.654 51.8269 47.654C51.2695 47.654 50.8173 47.2017 50.8173 46.6444C50.8173 46.0871 51.2695 45.6348 51.8269 45.6348Z" fill="#FF7CB9"/>
<path d="M13.4615 7.26904C14.0202 7.26904 14.4712 7.72135 14.4712 8.27866C14.4712 8.83597 14.0202 9.28827 13.4615 9.28827C12.9042 9.28827 12.4519 8.83597 12.4519 8.27866C12.4519 7.72135 12.9042 7.26904 13.4615 7.26904Z" fill="#FF7CB9"/>
<path d="M8.07692 56.4038C8.63558 56.4038 9.08654 56.8561 9.08654 57.4134C9.08654 57.9707 8.63558 58.423 8.07692 58.423C7.51961 58.423 7.06731 57.9707 7.06731 57.4134C7.06731 56.8561 7.51961 56.4038 8.07692 56.4038Z" fill="#FF7CB9"/>
<path d="M6.73077 24.0962C7.28942 24.0962 7.74038 24.5485 7.74038 25.1058C7.74038 25.6631 7.28942 26.1154 6.73077 26.1154C6.17346 26.1154 5.72115 25.6631 5.72115 25.1058C5.72115 24.5485 6.17346 24.0962 6.73077 24.0962Z" fill="#FF7CB9"/>
<path d="M36.1442 55.1924H30.7596C30.3879 55.1924 30.0865 55.4937 30.0865 55.8655C30.0865 56.2373 30.3879 56.5385 30.7596 56.5385H36.1442C36.516 56.5385 36.8173 56.2373 36.8173 55.8655C36.8173 55.4937 36.516 55.1924 36.1442 55.1924Z" fill="#BFE1FF"/>
<path d="M46.9135 57.7501H43.5481V57.2117C43.5481 56.8398 43.2468 56.5386 42.875 56.5386C42.5032 56.5386 42.2019 56.8398 42.2019 57.2117V57.7501H40.1827C39.8109 57.7501 39.5096 58.0514 39.5096 58.4232C39.5096 58.795 39.8109 59.0963 40.1827 59.0963H42.2019V63.9424H42.875H43.5481V59.0963H46.9135C47.2853 59.0963 47.5865 58.795 47.5865 58.4232C47.5865 58.0514 47.2853 57.7501 46.9135 57.7501Z" fill="#BFE1FF"/>
<path d="M26.7212 57.75H23.3558V53.1731C23.3558 52.8013 23.0544 52.5 22.6827 52.5C22.311 52.5 22.0096 52.8013 22.0096 53.1731V57.75H18.5096C18.1379 57.75 17.8365 58.0513 17.8365 58.4231C17.8365 58.7949 18.1379 59.0962 18.5096 59.0962H22.0096V63.9423H22.6827H23.3558V59.0962H26.7212C27.0928 59.0962 27.3942 58.7949 27.3942 58.4231C27.3942 58.0513 27.0928 57.75 26.7212 57.75Z" fill="#BFE1FF"/>
<path d="M49.5021 53.1731L49.2431 52.5H44.2212C43.8493 52.5 43.5481 52.8013 43.5481 53.1731C43.5481 53.5449 43.8493 53.8462 44.2212 53.8462H49.5021C49.5873 53.8462 49.668 53.8287 49.7431 53.7997L49.5021 53.1731Z" fill="#BFE1FF"/>
<path d="M29.9383 63.9423C29.9472 63.8989 29.9519 63.8539 29.9519 63.8077V59.7693C29.9519 59.3975 29.6505 59.0962 29.2788 59.0962C28.9072 59.0962 28.6058 59.3975 28.6058 59.7693V63.8077C28.6058 63.8539 28.6105 63.8989 28.6194 63.9423H29.9383Z" fill="#BFE1FF"/>
<path d="M46.9135 46.4424L49.5021 53.1732L53.6442 63.9424H42.875H22.6827H13.2596L19.9904 46.4424H46.9135Z" fill="#DBEEFF"/>
<path d="M33.4519 6.05762C21.9921 6.05762 12.7037 15.3461 12.7037 26.8059C12.7037 40.2196 25.2017 44.5537 33.4519 55.8653C41.7069 44.5526 54.2017 40.2172 54.2017 26.8059C54.2017 15.3461 44.9132 6.05762 33.4519 6.05762Z" fill="#33C481"/>
<path d="M44.8001 20.7308C42.6247 16.6883 38.3507 13.9287 33.4519 13.9287C28.5533 13.9287 24.2792 16.6883 22.1038 20.7308C21.1279 22.5427 20.5746 24.6118 20.5746 26.806C20.5746 28.9868 21.1212 31.0437 22.085 32.8462C24.255 36.9089 28.5398 39.6833 33.4519 39.6833C38.364 39.6833 42.6488 36.9089 44.8187 32.8462C45.7826 31.0437 46.3292 28.9868 46.3292 26.806C46.3292 24.6118 45.7761 22.5427 44.8001 20.7308Z" fill="#DBEEFF"/>
<path d="M60.2404 35.5386C62.471 35.5386 64.2788 37.3465 64.2788 39.577C64.2788 41.8076 62.471 43.6155 60.2404 43.6155C58.011 43.6155 56.2019 41.8076 56.2019 39.577C56.2019 37.3465 58.011 35.5386 60.2404 35.5386Z" fill="#FF7CB9"/>
<path d="M9.75961 41.5962C11.2471 41.5962 12.4519 42.801 12.4519 44.2885C12.4519 45.776 11.2471 46.9808 9.75961 46.9808C8.27346 46.9808 7.06731 45.776 7.06731 44.2885C7.06731 42.801 8.27346 41.5962 9.75961 41.5962Z" fill="#FF7CB9"/>
<path d="M37.5792 26.8059H33.4519L36.3677 23.8901C37.1163 24.6373 37.5792 25.6684 37.5792 26.8059Z" fill="#0095FF"/>
<path d="M33.4519 26.8057L36.3677 29.7214C35.6204 30.4699 34.5881 30.933 33.4519 30.933V26.8057Z" fill="#0095FF"/>
<path d="M33.4519 26.8057L30.5362 29.7214C29.7877 28.9743 29.3246 27.9432 29.3246 26.8057H33.4519Z" fill="#0095FF"/>
<path d="M33.4519 22.6787V26.806L30.5362 23.8902C31.2846 23.1418 32.3158 22.6787 33.4519 22.6787Z" fill="#0095FF"/>
<path d="M33.4519 26.8057V30.933C32.3158 30.933 31.2846 30.4699 30.5362 29.7214L33.4519 26.8057Z" fill="#0579C1"/>
<path d="M33.4519 26.8057H37.5792C37.5792 27.9432 37.1163 28.9743 36.3677 29.7214L33.4519 26.8057Z" fill="#0579C1"/>
<path d="M36.3677 23.8902L33.4519 26.806V22.6787C34.5881 22.6787 35.6204 23.1418 36.3677 23.8902Z" fill="#0579C1"/>
<path d="M33.4519 26.8059H29.3246C29.3246 25.6684 29.7877 24.6373 30.5362 23.8901L33.4519 26.8059Z" fill="#0579C1"/>
<path d="M22.085 32.8462H44.8187C42.6488 36.9089 38.364 39.6833 33.4519 39.6833C28.5398 39.6833 24.255 36.9089 22.085 32.8462Z" fill="#7FE881"/>
<path d="M44.8001 20.7308H22.1038C24.2792 16.6883 28.5533 13.9287 33.4519 13.9287C38.3507 13.9287 42.6247 16.6883 44.8001 20.7308Z" fill="#FF7815"/>
<path d="M61.25 22.75C61.8087 22.75 62.2596 23.2023 62.2596 23.7596C62.2596 24.3169 61.8087 24.7692 61.25 24.7692C60.6926 24.7692 60.2404 24.3169 60.2404 23.7596C60.2404 23.2023 60.6926 22.75 61.25 22.75Z" fill="#FF7CB9"/>
<path d="M59.9038 55.0576C60.4625 55.0576 60.9135 55.5099 60.9135 56.0672C60.9135 56.6245 60.4625 57.0768 59.9038 57.0768C59.3464 57.0768 58.8942 56.6245 58.8942 56.0672C58.8942 55.5099 59.3464 55.0576 59.9038 55.0576Z" fill="#FF7CB9"/>
<path d="M53.1731 6.59619C53.7317 6.59619 54.1827 7.0485 54.1827 7.60581C54.1827 8.16311 53.7317 8.61542 53.1731 8.61542C52.6156 8.61542 52.1635 8.16311 52.1635 7.60581C52.1635 7.0485 52.6156 6.59619 53.1731 6.59619Z" fill="#FF7CB9"/>
<path d="M51.8269 45.6348C52.3856 45.6348 52.8365 46.0871 52.8365 46.6444C52.8365 47.2017 52.3856 47.654 51.8269 47.654C51.2695 47.654 50.8173 47.2017 50.8173 46.6444C50.8173 46.0871 51.2695 45.6348 51.8269 45.6348Z" fill="#FF7CB9"/>
<path d="M13.4615 7.26904C14.0202 7.26904 14.4712 7.72135 14.4712 8.27866C14.4712 8.83597 14.0202 9.28827 13.4615 9.28827C12.9042 9.28827 12.4519 8.83597 12.4519 8.27866C12.4519 7.72135 12.9042 7.26904 13.4615 7.26904Z" fill="#FF7CB9"/>
<path d="M8.07692 56.4038C8.63558 56.4038 9.08654 56.8561 9.08654 57.4134C9.08654 57.9707 8.63558 58.423 8.07692 58.423C7.51961 58.423 7.06731 57.9707 7.06731 57.4134C7.06731 56.8561 7.51961 56.4038 8.07692 56.4038Z" fill="#FF7CB9"/>
<path d="M6.73077 24.0962C7.28942 24.0962 7.74038 24.5485 7.74038 25.1058C7.74038 25.6631 7.28942 26.1154 6.73077 26.1154C6.17346 26.1154 5.72115 25.6631 5.72115 25.1058C5.72115 24.5485 6.17346 24.0962 6.73077 24.0962Z" fill="#FF7CB9"/>
<path d="M36.1442 55.1924H30.7596C30.3879 55.1924 30.0865 55.4937 30.0865 55.8655C30.0865 56.2373 30.3879 56.5385 30.7596 56.5385H36.1442C36.516 56.5385 36.8173 56.2373 36.8173 55.8655C36.8173 55.4937 36.516 55.1924 36.1442 55.1924Z" fill="#BFE1FF"/>
<path d="M46.9135 57.7501H43.5481V57.2117C43.5481 56.8398 43.2468 56.5386 42.875 56.5386C42.5032 56.5386 42.2019 56.8398 42.2019 57.2117V57.7501H40.1827C39.8109 57.7501 39.5096 58.0514 39.5096 58.4232C39.5096 58.795 39.8109 59.0963 40.1827 59.0963H42.2019V63.9424H42.875H43.5481V59.0963H46.9135C47.2853 59.0963 47.5865 58.795 47.5865 58.4232C47.5865 58.0514 47.2853 57.7501 46.9135 57.7501Z" fill="#BFE1FF"/>
<path d="M26.7212 57.75H23.3558V53.1731C23.3558 52.8013 23.0544 52.5 22.6827 52.5C22.311 52.5 22.0096 52.8013 22.0096 53.1731V57.75H18.5096C18.1379 57.75 17.8365 58.0513 17.8365 58.4231C17.8365 58.7949 18.1379 59.0962 18.5096 59.0962H22.0096V63.9423H22.6827H23.3558V59.0962H26.7212C27.0928 59.0962 27.3942 58.7949 27.3942 58.4231C27.3942 58.0513 27.0928 57.75 26.7212 57.75Z" fill="#BFE1FF"/>
<path d="M49.5021 53.1731L49.2431 52.5H44.2212C43.8493 52.5 43.5481 52.8013 43.5481 53.1731C43.5481 53.5449 43.8493 53.8462 44.2212 53.8462H49.5021C49.5873 53.8462 49.668 53.8287 49.7431 53.7997L49.5021 53.1731Z" fill="#BFE1FF"/>
<path d="M29.9383 63.9423C29.9472 63.8989 29.9519 63.8539 29.9519 63.8077V59.7693C29.9519 59.3975 29.6505 59.0962 29.2788 59.0962C28.9072 59.0962 28.6058 59.3975 28.6058 59.7693V63.8077C28.6058 63.8539 28.6105 63.8989 28.6194 63.9423H29.9383Z" fill="#BFE1FF"/>
</svg>
