<svg width="60" height="60" viewBox="0 0 60 60" fill="none" xmlns="http://www.w3.org/2000/svg">
<g clip-path="url(#clip0_541_15323)">
<path d="M59.9991 30.001C59.9991 46.5688 46.5686 59.9987 29.9996 59.9987C13.431 59.9987 0.000488281 46.5688 0.000488281 30.0001C0.000488281 13.431 13.431 0.00146484 29.9996 0.00146484C46.5686 0.00146484 59.9991 13.431 59.9991 30.001Z" fill="#007CB8"/>
<path opacity="0.1" d="M32.856 24.8054L32.0375 25.6238L22.151 15.7371L16.7924 21.0948L22.1042 26.4057L16.1743 45.5553L30.6009 59.9831C43.4108 59.7304 54.2487 51.4558 58.2961 39.9709L44.6066 26.2821L35.6429 27.5932L32.856 24.8054Z" fill="black"/>
<path d="M23.1526 18.2693C23.1526 20.3842 21.4516 22.0972 19.3532 22.0972C17.2566 22.0972 15.5557 20.3842 15.5557 18.2703C15.5557 16.1582 17.2568 14.4446 19.3532 14.4446C21.4517 14.4446 23.1526 16.1582 23.1526 18.2693ZM22.5969 24.8136H16.1728L16.1746 45.5553L22.597 45.5543V24.8136H22.5969ZM32.8636 24.8136H26.7038V45.5543L32.8636 45.5553C32.8636 45.5553 32.8636 37.8615 32.8636 34.6681C32.8645 31.7512 34.2066 30.0154 36.7774 30.0154C39.1393 30.0154 40.2755 31.6817 40.2755 34.6681C40.2755 37.6545 40.2755 45.5543 40.2755 45.5543H46.6667C46.6667 45.5543 46.6667 37.9768 46.6667 32.4231C46.6667 26.8642 43.5173 24.1809 39.1164 24.1809C34.7156 24.1809 32.8636 27.6086 32.8636 27.6086V24.8136Z" fill="#F4F6F9"/>
</g>
<defs>
<clipPath id="clip0_541_15323">
<rect width="60" height="60" fill="white"/>
</clipPath>
</defs>
</svg>
