<svg width="70" height="70" viewBox="0 0 70 70" fill="none" xmlns="http://www.w3.org/2000/svg">
<path d="M68.1847 53.9564L35.0005 67.7125L1.81641 53.9564L35.0005 40.2002L68.1847 53.9564Z" fill="#1C1C1B"/>
<path d="M1.81641 42.8874L35.0005 56.6435L68.1847 42.8874V31.6541L35.0005 45.4101L1.81641 31.6541V42.8874Z" fill="white"/>
<path d="M68.1847 39.8446V42.8843L35.0005 56.6425L1.81641 42.8843V31.6548L4.80959 32.8959C5.28742 34.3759 5.96445 35.7697 6.82059 37.0505C8.62582 39.7584 11.2207 41.9352 14.3601 43.2427L31.795 50.4702C35.2329 51.8904 39.1021 51.8904 42.54 50.4702L68.1847 39.8446Z" fill="#E7E6FD"/>
<path d="M68.1847 31.654L35.0005 45.4101L1.81641 31.654L35.0005 17.8979L68.1847 31.654Z" fill="#636268"/>
<path d="M68.1847 16.0436L35.0005 29.7997L1.81641 16.0436L35.0005 2.28735L68.1847 16.0436Z" fill="white"/>
<path d="M40.8343 27.3871L35.0005 29.8029L1.81641 16.0448L35.0005 2.28662L39.6796 4.22461L20.6915 12.1025C17.6054 13.3767 17.6054 17.7505 20.6915 19.0314L40.8343 27.3871Z" fill="#E7E6FD"/>
<path d="M31.9866 14.8037H30.022V20.1529C30.022 21.1813 29.1882 22.0148 28.16 22.0148H26.8386C25.8102 22.0148 24.9766 21.1811 24.9766 20.1529V14.8037H23.0132C22.2976 14.8037 21.9062 13.9695 22.3638 13.4192L26.8528 8.02043C27.1906 7.6141 27.8144 7.61438 28.1519 8.0207L32.6363 13.4195C33.0933 13.9699 32.7019 14.8037 31.9866 14.8037Z" fill="#1C1C1B"/>
<path d="M46.9876 14.8037H45.0229V20.1529C45.0229 21.1813 44.1892 22.0148 43.161 22.0148H41.8396C40.8112 22.0148 39.9776 21.1811 39.9776 20.1529V14.8037H38.0142C37.2986 14.8037 36.9072 13.9695 37.3648 13.4192L41.8538 8.02043C42.1916 7.6141 42.8153 7.61438 43.1529 8.0207L47.6373 13.4195C48.0944 13.9699 47.703 14.8037 46.9876 14.8037Z" fill="#1C1C1B"/>
<path d="M68.8481 16.0436C68.8481 15.7752 68.6868 15.5332 68.4385 15.4304L35.2542 1.67433C35.0922 1.60693 34.9082 1.60693 34.7461 1.67433L1.56195 15.4306C1.31367 15.5332 1.15234 15.7754 1.15234 16.0437C1.15234 16.3121 1.31367 16.5541 1.56195 16.6569L18.9116 23.849L1.56195 31.0411C1.33855 31.1335 1.15234 31.3826 1.15234 31.6543V42.8876C1.15234 43.156 1.31367 43.398 1.56195 43.5008L13.4341 48.4222L1.56195 53.3436C1.31367 53.4463 1.15234 53.6884 1.15234 53.9568C1.15234 54.2252 1.31367 54.4672 1.56195 54.57L34.7461 68.3262C34.9079 68.3936 35.0921 68.3936 35.2542 68.3262L68.4383 54.57C68.6866 54.4673 68.8479 54.2252 68.8479 53.9568C68.8479 53.6884 68.6866 53.4464 68.4383 53.3436L56.5662 48.4222L68.4383 43.5008C68.6866 43.3982 68.8479 43.156 68.8479 42.8876V31.6543C68.8479 31.3843 68.6635 31.1346 68.4383 31.0411L51.0887 23.849L68.4383 16.6569C68.6866 16.554 68.8481 16.312 68.8481 16.0436ZM66.4513 53.9565L35.0002 66.9943L3.54916 53.9565L15.1672 49.1403L34.7462 57.2564C34.9081 57.3238 35.0922 57.3238 35.2544 57.2564L54.8333 49.1403L66.4513 53.9565ZM67.5207 42.4441L35.0002 55.9249L2.47975 42.4441V32.6477L34.7462 46.0234C34.9082 46.0908 35.0922 46.0908 35.2544 46.0234L67.5208 32.6477L67.5207 42.4441ZM66.4513 31.6542L35.0002 44.6919L3.54916 31.6542L20.6447 24.5673L34.7462 30.413C34.9081 30.4804 35.0922 30.4804 35.2544 30.413L49.3558 24.5673L66.4513 31.6542ZM35.0002 29.0814L3.54916 16.0436L35.0002 3.00584L66.4513 16.0436L35.0002 29.0814Z" fill="#ABAFBD"/>
<path d="M28.6626 7.59734C28.3755 7.25131 27.9529 7.05266 27.5031 7.05225C27.0533 7.05225 26.63 7.25062 26.3429 7.59639L21.854 12.995C21.4755 13.4493 21.3971 14.0644 21.6479 14.5998C21.8993 15.1352 22.4224 15.4677 23.0134 15.4677H24.3129V20.153C24.3129 21.5459 25.4459 22.6788 26.8387 22.6788H28.1602C29.5531 22.6788 30.6859 21.5458 30.6859 20.153V15.4677H31.9867C32.5777 15.4677 33.1008 15.1352 33.3522 14.6002C33.6031 14.0652 33.5246 13.4501 33.1467 12.9954L28.6626 7.59734ZM32.1509 14.0361C32.1282 14.0834 32.0821 14.1402 31.9869 14.1402H30.0224C29.6556 14.1402 29.3588 14.4374 29.3588 14.8038V20.1528C29.3588 20.8135 28.8215 21.3511 28.1605 21.3511H26.8389C26.1779 21.3511 25.6406 20.8135 25.6406 20.1528V14.8038C25.6406 14.4372 25.3438 14.1402 24.977 14.1402H23.0138C22.9185 14.1402 22.8726 14.0834 22.8499 14.0361C22.8279 13.9885 22.8142 13.9165 22.8745 13.8433L27.3641 8.44473C27.4107 8.38799 27.471 8.37965 27.5027 8.37965C27.5344 8.37965 27.5947 8.38812 27.6413 8.44514L32.1257 13.8437C32.1864 13.9169 32.1729 13.9888 32.1509 14.0361Z" fill="#ABAFBD"/>
<path d="M38.0145 15.4676H39.3147V20.1529C39.3147 21.5458 40.4477 22.6787 41.8397 22.6787H43.1613C44.5541 22.6787 45.687 21.5457 45.687 20.1529V15.4676H46.9877C47.5788 15.4676 48.1019 15.1353 48.3533 14.6004C48.6042 14.0654 48.5257 13.4505 48.1485 12.9953L43.6641 7.59666C43.3763 7.2509 42.9537 7.05252 42.5046 7.05225C42.5039 7.05225 42.5039 7.05225 42.5034 7.05225C42.0542 7.05225 41.6316 7.25021 41.3439 7.59639L36.855 12.995C36.4765 13.4493 36.3981 14.0644 36.6488 14.5998C36.9004 15.1351 37.4233 15.4676 38.0145 15.4676ZM37.8752 13.8433L42.364 8.44514C42.4094 8.391 42.4652 8.37965 42.5034 8.37965C42.5417 8.37965 42.598 8.391 42.6427 8.44514L47.1271 13.8433C47.188 13.9166 47.1737 13.9885 47.1517 14.0361C47.1297 14.0834 47.0829 14.1402 46.9877 14.1402H45.0232C44.6564 14.1402 44.3596 14.4374 44.3596 14.8038V20.1528C44.3596 20.8135 43.8223 21.3511 43.1613 21.3511H41.8397C41.1792 21.3511 40.6419 20.8135 40.6419 20.1528V14.8038C40.6419 14.4372 40.3451 14.1402 39.9783 14.1402H38.0145C37.9192 14.1402 37.8732 14.0834 37.8506 14.0361C37.8284 13.9885 37.8149 13.9166 37.8752 13.8433Z" fill="#ABAFBD"/>
</svg>
