<svg width="70" height="70" viewBox="0 0 70 70" fill="none" xmlns="http://www.w3.org/2000/svg">
<path d="M8.37598 19.3149L20.1829 11.04L22.7728 14.7355L10.966 23.0104L8.37598 19.3149Z" fill="#9BA0A4"/>
<g opacity="0.3">
<path d="M22.7782 14.7381L10.9633 23.0056L8.38086 19.3165L9.97005 18.2002C10.8876 19.5056 12.6849 19.8273 13.9903 18.9097L21.8417 13.4043L22.7782 14.7381Z" fill="black"/>
</g>
<path d="M10.9627 23.4787C10.8113 23.4787 10.6694 23.4125 10.5748 23.2801L7.98295 19.5909C7.90728 19.4868 7.8789 19.3639 7.90728 19.2409C7.9262 19.1179 8.00187 19.0044 8.10593 18.9382L19.9113 10.6611C20.1289 10.5098 20.4221 10.5666 20.5735 10.7747L23.1654 14.4639C23.2411 14.5679 23.2694 14.6909 23.2411 14.8139C23.2221 14.9368 23.1465 15.0503 23.0424 15.1166L11.237 23.3936C11.1519 23.4503 11.0573 23.4787 10.9627 23.4787ZM9.03296 19.4301L11.0762 22.3436L22.1154 14.6152L20.0721 11.7017L9.03296 19.4301Z" fill="black"/>
<path d="M6.82617 14.3471L15.7743 8.07568L17.5933 10.6711L8.64513 16.9424L6.82617 14.3471Z" fill="#181717"/>
<g opacity="0.3">
<path d="M17.5852 10.6799L8.64599 16.9421L6.82031 14.3502L8.22031 13.3664C8.75004 14.1232 9.79058 14.3124 10.5473 13.7826L16.7244 9.4502L17.5852 10.6799Z" fill="black"/>
</g>
<path d="M8.64569 17.4149C8.49434 17.4149 8.35244 17.3486 8.25785 17.2162L6.43217 14.6149C6.3565 14.5108 6.32812 14.3878 6.3565 14.2649C6.37542 14.1419 6.45109 14.0284 6.55515 13.9622L15.5038 7.69049C15.7214 7.53914 16.0146 7.5959 16.166 7.80401L17.9727 10.3959C18.0484 10.5 18.0768 10.623 18.0484 10.7459C18.0295 10.8689 17.9538 10.9824 17.8497 11.0486L8.90109 17.3203C8.83488 17.3865 8.74028 17.4149 8.64569 17.4149ZM7.48217 14.4635L8.7592 16.2892L16.9322 10.5662L15.6551 8.74049L7.48217 14.4635Z" fill="black"/>
<path d="M6.09375 18.0841L20.1009 8.26709L22.061 11.0639L8.05388 20.8809L6.09375 18.0841Z" fill="#3F3737"/>
<g opacity="0.3">
<path d="M22.0594 11.0677L8.05936 20.8867L6.0918 18.0867L7.72828 16.9421C8.31477 17.7745 9.46882 17.9826 10.3013 17.3961L21.1607 9.78125L22.0594 11.0677Z" fill="black"/>
</g>
<path d="M8.05906 21.3501C7.90771 21.3501 7.76582 21.2839 7.67123 21.1514L5.70366 18.3514C5.62798 18.2474 5.5996 18.1244 5.62798 18.0014C5.6469 17.8785 5.72258 17.7649 5.82663 17.6987L19.8266 7.88923C20.0442 7.73787 20.3374 7.79463 20.4888 8.00274L22.4469 10.8028C22.5226 10.9068 22.551 11.0298 22.5226 11.1528C22.5037 11.2758 22.428 11.3893 22.3239 11.4555L8.32393 21.2649C8.24825 21.3217 8.15366 21.3501 8.05906 21.3501ZM6.75366 18.2001L8.17258 20.2244L21.4064 10.9541L19.9874 8.92977L6.75366 18.2001Z" fill="black"/>
<path d="M20.6404 53.0489H14.7093C13.262 53.0489 12.0039 52.1218 11.5782 50.7408L7.99311 39.134C7.58636 37.8097 8.04987 36.3718 9.15663 35.5489L16.2323 30.2326L14.3593 27.7354L7.28365 33.0516C5.13636 34.6691 4.21879 37.4786 5.01338 40.0516L8.59852 51.6583C9.43095 54.3543 11.8904 56.1705 14.7093 56.1705H20.6404V53.0489Z" fill="#D3DAE0"/>
<g opacity="0.3">
<path d="M20.6404 55.2813H16.081C13.2526 55.2813 10.8026 53.4745 9.97014 50.7786L6.38501 39.1624C5.59041 36.5894 6.49852 33.7799 8.64582 32.1624L14.4255 27.8205L14.3593 27.7354L7.28365 33.0516C5.13636 34.6691 4.21879 37.4786 5.01338 40.0516L8.59852 51.6678C9.43095 54.3637 11.8904 56.1705 14.7093 56.1705H20.6404V55.2813Z" fill="black"/>
</g>
<path d="M62.7158 33.0516L55.6401 27.7354L53.7672 30.2326L60.8428 35.5489C61.9496 36.3813 62.4131 37.8191 62.0064 39.134L58.4212 50.7408C57.9955 52.1218 56.7374 53.0489 55.2901 53.0489H49.832V56.1705H55.2901C58.1185 56.1705 60.5685 54.3543 61.401 51.6583L64.9861 40.0516C65.7807 37.4786 64.8726 34.6597 62.7158 33.0516Z" fill="#D3DAE0"/>
<g opacity="0.3">
<path d="M61.032 52.5947C59.9726 54.7704 57.7685 56.1704 55.2901 56.1704H49.832V53.0582H50.8347C50.8347 53.9474 51.5631 54.6758 52.4523 54.6758H56.2928C58.1469 54.6758 59.8496 53.9001 61.032 52.5947Z" fill="black"/>
</g>
<path d="M20.6401 56.6435H14.7091C11.6726 56.6435 9.03338 54.6949 8.14419 51.8003L4.55905 40.1935C3.7077 37.4314 4.68202 34.4043 6.99959 32.6733L14.0753 27.357C14.1793 27.2814 14.3023 27.253 14.4253 27.2625C14.5482 27.2814 14.6618 27.3476 14.7374 27.4422L16.6104 29.9395C16.7712 30.1476 16.7239 30.4408 16.5158 30.6016L9.44013 35.9179C8.49419 36.6273 8.09689 37.857 8.44689 38.9922L12.032 50.5989C12.4009 51.7814 13.4793 52.576 14.7185 52.576H20.6496C20.9145 52.576 21.1226 52.7841 21.1226 53.0489V56.1706C21.1131 56.426 20.905 56.6435 20.6401 56.6435ZM14.2645 28.3881L7.56716 33.43C5.58067 34.9246 4.72932 37.5354 5.46716 39.9192L9.05229 51.526C9.82797 54.0233 12.0982 55.6976 14.7185 55.6976H20.1766V53.5219H14.7185C13.0631 53.5219 11.6253 52.4625 11.1334 50.8733L7.53878 39.2665C7.07527 37.7625 7.605 36.107 8.87257 35.1611L15.5699 30.1287L14.2645 28.3881Z" fill="black"/>
<path d="M55.2905 56.6437H49.8323C49.5675 56.6437 49.3594 56.4356 49.3594 56.1707V53.0491C49.3594 52.7842 49.5675 52.5761 49.8323 52.5761H55.2905C56.5296 52.5761 57.608 51.7815 57.9675 50.5991L61.5526 38.9923C61.9026 37.8666 61.5053 36.6275 60.5594 35.918L53.4837 30.6018C53.2756 30.441 53.2283 30.1477 53.3891 29.9396L55.2621 27.4423C55.3378 27.3383 55.4513 27.272 55.5742 27.2626C55.6972 27.2437 55.8202 27.2815 55.9242 27.3572L62.9999 32.6734C65.308 34.4045 66.2918 37.4315 65.4405 40.1937L61.8553 51.8004C60.9567 54.695 58.3175 56.6437 55.2905 56.6437ZM50.3053 55.6977H55.2905C57.9013 55.6977 60.181 54.0234 60.9567 51.5261L64.5418 39.9193C65.2796 37.5356 64.4283 34.9342 62.4418 33.4302L55.7445 28.3977L54.4391 30.1383L61.1364 35.1707C62.3945 36.1166 62.9337 37.772 62.4702 39.2761L58.8851 50.8829C58.3932 52.4626 56.9553 53.5315 55.2999 53.5315H50.3148V55.6977H50.3053Z" fill="black"/>
<path d="M60.4648 25.6162L50.731 60.3419C50.4661 61.2784 49.6148 61.9311 48.6405 61.9311H21.3594C20.3851 61.9311 19.5242 61.2784 19.2688 60.3419L9.53505 25.6162C9.28911 24.727 9.62965 23.7716 10.3864 23.2513L23.7148 13.9338C24.0837 13.6784 24.5188 13.5459 24.9634 13.5459H45.0364C45.481 13.5459 45.9161 13.6784 46.2851 13.9338L59.6134 23.2513C60.3702 23.7716 60.7107 24.727 60.4648 25.6162Z" fill="#D6DFE7"/>
<g opacity="0.3">
<path d="M51.0148 59.3302L50.731 60.3423C50.4661 61.2788 49.6148 61.9315 48.6405 61.9315H21.3594C20.3851 61.9315 19.5337 61.2788 19.2688 60.3423L9.53505 25.6166C9.28911 24.7274 9.62965 23.7815 10.3864 23.2518L11.4269 22.5234C11.4269 22.7031 11.4459 22.8923 11.5026 23.0626L21.2364 57.7788C21.5013 58.7247 22.3526 59.368 23.3269 59.368H50.608C50.7499 59.368 50.8824 59.3585 51.0148 59.3302Z" fill="black"/>
</g>
<path d="M26.306 53.2284L19.1641 27.7257L27.0154 22.2393H42.983L50.8343 27.7257L43.6924 53.2284H26.306Z" fill="#9BA0A4"/>
<g opacity="0.3">
<path d="M50.8343 27.7352L43.6924 53.2284H42.1884L47.1735 35.4447C48.2424 31.6136 46.7857 27.5366 43.5222 25.2568C41.9519 24.1595 40.0789 23.573 38.1681 23.573H25.1424L19.1641 27.7447V27.7352L27.0154 22.2393H42.983L50.8343 27.7352Z" fill="black"/>
</g>
<path d="M43.6926 53.7017H26.3061C26.098 53.7017 25.9088 53.5598 25.852 53.3517L18.7101 27.849C18.6534 27.6598 18.7291 27.4517 18.8899 27.3382L26.7412 21.8517C26.8169 21.7949 26.9115 21.7666 27.0155 21.7666H42.9831C43.0777 21.7666 43.1723 21.7949 43.2574 21.8517L51.1088 27.3382C51.2696 27.4517 51.3453 27.6598 51.2885 27.849L44.1466 53.3517C44.0899 53.5598 43.9007 53.7017 43.6926 53.7017ZM26.6655 52.7557H43.3331L50.2953 27.9247L42.8412 22.7125H27.1669L19.7128 27.9247L26.6655 52.7557Z" fill="black"/>
<path d="M20.0332 42.5661L21.0944 39.9761L42.6894 48.8242L41.6282 51.4142L20.0332 42.5661Z" fill="#EDEDED"/>
<path d="M21.7354 33.0246L35.7057 21.4492L37.492 23.6052L23.5218 35.1806L21.7354 33.0246Z" fill="#EDEDED"/>
<path d="M41.0947 23.9923L43.8667 23.5947L46.8702 44.5345L44.0982 44.9321L41.0947 23.9923Z" fill="#EDEDED"/>
<path d="M41.6493 51.8661C41.5925 51.8661 41.5263 51.8567 41.4695 51.8283L19.8641 42.9837C19.7506 42.9364 19.656 42.8418 19.6087 42.7283C19.5614 42.6148 19.5614 42.4823 19.6087 42.3688L20.6682 39.7769C20.7722 39.531 21.0466 39.4175 21.283 39.5215L42.8884 48.3661C43.002 48.4134 43.0966 48.508 43.1439 48.6215C43.1912 48.735 43.1912 48.8675 43.1439 48.981L42.0844 51.5729C42.0182 51.7526 41.8384 51.8661 41.6493 51.8661ZM20.6587 42.2837L41.3939 50.7688L42.0939 49.0472L21.3587 40.5621L20.6587 42.2837Z" fill="black"/>
<path d="M23.5345 35.6431C23.4021 35.6431 23.2602 35.5864 23.1656 35.4729L21.3778 33.3161C21.3021 33.2215 21.2548 33.0986 21.2737 32.9661C21.2832 32.8431 21.3494 32.7296 21.444 32.6445L35.4061 21.0661C35.6048 20.8958 35.9075 20.9242 36.0683 21.1323L37.8561 23.2891C37.9318 23.3837 37.9791 23.5067 37.9602 23.6391C37.9507 23.7621 37.8845 23.8756 37.7899 23.9607L23.8372 35.5391C23.7426 35.6053 23.6386 35.6431 23.5345 35.6431ZM22.4088 33.0796L23.5913 34.508L36.8251 23.535L35.6426 22.1067L22.4088 33.0796Z" fill="black"/>
<path d="M44.0995 45.3866C43.8725 45.3866 43.6644 45.2163 43.636 44.9798L40.6279 24.046C40.609 23.923 40.6468 23.8001 40.7131 23.696C40.7793 23.592 40.9022 23.5257 41.0252 23.5068L43.7968 23.1095C44.0617 23.0812 44.2982 23.2514 44.336 23.5068L47.3441 44.4406C47.3631 44.5636 47.3252 44.6866 47.259 44.7906C47.1928 44.8947 47.0698 44.9609 46.9468 44.9798L44.1752 45.3771C44.1468 45.3866 44.1279 45.3866 44.0995 45.3866ZM41.6212 24.3771L44.4968 44.3744L46.332 44.1095L43.4563 24.1122L41.6212 24.3771Z" fill="black"/>
<path d="M48.6406 62.3948H21.3595C20.1771 62.3948 19.1271 61.6002 18.8149 60.4651L9.08112 25.7489C8.77842 24.6705 9.19464 23.507 10.1122 22.8637L23.4406 13.5462C23.8852 13.234 24.4149 13.0732 24.9541 13.0732H45.0271C45.5757 13.0732 46.096 13.234 46.5406 13.5462L59.869 22.8637C60.7865 23.507 61.2027 24.6705 60.9 25.7489L51.1852 60.4651C50.873 61.6002 49.823 62.3948 48.6406 62.3948ZM24.9636 14.0097C24.6136 14.0097 24.273 14.1137 23.9892 14.3124L10.6609 23.63C10.0649 24.0462 9.80004 24.784 9.99869 25.484L19.7325 60.2097C19.9406 60.9381 20.6122 61.4489 21.369 61.4489H48.65C49.4068 61.4489 50.0879 60.9381 50.2865 60.2097L60.0109 25.484C60.2095 24.784 59.9352 24.0462 59.3487 23.63L46.0203 14.3124C45.7365 14.1137 45.396 14.0097 45.046 14.0097H24.9636Z" fill="black"/>
<path d="M51.3651 48.2718C51.3651 52.2542 48.1394 55.4893 44.1475 55.4893C40.1934 55.4893 36.9678 52.2637 36.9678 48.2718C36.9678 44.2799 40.1934 41.0542 44.1475 41.0542C48.1394 41.0542 51.3651 44.2893 51.3651 48.2718Z" fill="#D3DAE0"/>
<g opacity="0.3">
<path d="M49.5678 53.0391C48.2434 54.5432 46.3137 55.4891 44.1475 55.4891C40.1934 55.4891 36.9678 52.2634 36.9678 48.281C36.9678 45.9351 38.084 43.854 39.8056 42.5391C38.7083 43.8067 38.0272 45.4715 38.0272 47.2878C38.0272 51.2796 41.2624 54.5053 45.2164 54.5053C46.8529 54.5053 48.357 53.9661 49.5678 53.0391Z" fill="black"/>
</g>
<path d="M44.1478 55.9622C39.9289 55.9622 36.4951 52.5095 36.4951 48.2716C36.4951 44.0338 39.9289 40.5811 44.1478 40.5811C48.3857 40.5811 51.8384 44.0338 51.8384 48.2716C51.8384 52.5095 48.3857 55.9622 44.1478 55.9622ZM44.1478 41.527C40.4492 41.527 37.4411 44.5541 37.4411 48.2716C37.4411 51.9892 40.4492 55.0162 44.1478 55.0162C47.8654 55.0162 50.8924 51.9892 50.8924 48.2716C50.8924 44.5541 47.8654 41.527 44.1478 41.527Z" fill="black"/>
<path d="M48.3099 48.2718C48.3099 50.5705 46.4559 52.4245 44.1572 52.4245C41.8775 52.4245 40.0234 50.5705 40.0234 48.2718C40.0234 45.9732 41.8775 44.1191 44.1572 44.1191C46.4464 44.1191 48.3099 45.9827 48.3099 48.2718Z" fill="#BEC6CC"/>
<g opacity="0.3">
<path d="M47.0617 51.2424C47.232 50.8072 47.3171 50.3248 47.3171 49.8329C47.3171 47.5343 45.4631 45.6802 43.1644 45.6802C42.0482 45.6802 41.0361 46.1248 40.2793 46.8532C40.8563 45.2545 42.3793 44.1289 44.1577 44.1289C46.4563 44.1289 48.3104 45.9829 48.3104 48.2816C48.3104 49.4451 47.8279 50.4951 47.0617 51.2424Z" fill="black"/>
</g>
<path d="M44.1575 52.8974C41.6129 52.8974 39.5508 50.8258 39.5508 48.2717C39.5508 45.7177 41.6224 43.646 44.1575 43.646C46.7116 43.646 48.7832 45.7177 48.7832 48.2717C48.7832 50.8258 46.7116 52.8974 44.1575 52.8974ZM44.1575 44.592C42.1427 44.592 40.4967 46.2474 40.4967 48.2717C40.4967 50.296 42.1427 51.9514 44.1575 51.9514C46.1913 51.9514 47.8373 50.296 47.8373 48.2717C47.8373 46.2474 46.1819 44.592 44.1575 44.592Z" fill="black"/>
<path d="M33.1268 39.465C33.1268 44.3271 29.1916 48.2717 24.32 48.2717C19.4957 48.2717 15.5605 44.3366 15.5605 39.465C15.5605 34.5933 19.4957 30.6582 24.32 30.6582C29.1916 30.6582 33.1268 34.6028 33.1268 39.465Z" fill="#D3DAE0"/>
<g opacity="0.3">
<path d="M31.3105 44.8193C29.7119 46.9193 27.1768 48.272 24.3295 48.272C19.5051 48.272 15.5605 44.3369 15.5605 39.4652C15.5605 36.7125 16.8281 34.2531 18.7957 32.645C17.6511 34.1301 16.9795 35.9842 16.9795 37.999C16.9795 42.8612 20.9241 46.8058 25.7484 46.8058C27.8578 46.8058 29.797 46.068 31.3105 44.8193Z" fill="black"/>
</g>
<path d="M24.3203 48.7446C19.2311 48.7446 15.0879 44.5824 15.0879 39.4648C15.0879 34.3473 19.2311 30.1851 24.3203 30.1851C29.4379 30.1851 33.6001 34.3473 33.6001 39.4648C33.6001 44.5824 29.4379 48.7446 24.3203 48.7446ZM24.3203 31.131C19.7514 31.131 16.0338 34.8675 16.0338 39.4648C16.0338 44.0621 19.7514 47.7986 24.3203 47.7986C28.9176 47.7986 32.6541 44.0621 32.6541 39.4648C32.6541 34.8675 28.9176 31.131 24.3203 31.131Z" fill="black"/>
<path d="M29.3993 39.4652C29.3993 42.2652 27.129 44.5355 24.329 44.5355C21.5479 44.5355 19.2871 42.2652 19.2871 39.4652C19.2871 36.6652 21.5574 34.395 24.329 34.395C27.129 34.395 29.3993 36.6652 29.3993 39.4652Z" fill="#BEC6CC"/>
<g opacity="0.3">
<path d="M29.4 39.4651C29.4 41.2624 28.473 42.8327 27.0635 43.7313C27.4419 43.0219 27.65 42.2178 27.65 41.3665C27.65 38.5665 25.3892 36.2962 22.5892 36.2962C21.596 36.2962 20.6689 36.5894 19.8838 37.1002C20.7162 35.4921 22.4 34.4043 24.3297 34.4043C27.1392 34.4043 29.4 36.6651 29.4 39.4651Z" fill="black"/>
</g>
<path d="M24.3293 45.0084C21.2834 45.0084 18.8145 42.5205 18.8145 39.4651C18.8145 36.4097 21.2928 33.9219 24.3293 33.9219C27.3847 33.9219 29.8726 36.4097 29.8726 39.4651C29.8726 42.5205 27.3847 45.0084 24.3293 45.0084ZM24.3293 34.8678C21.8036 34.8678 19.7604 36.93 19.7604 39.4651C19.7604 42.0003 21.8131 44.0624 24.3293 44.0624C26.8645 44.0624 28.9266 42.0003 28.9266 39.4651C28.9266 36.93 26.8645 34.8678 24.3293 34.8678Z" fill="black"/>
<path d="M47.3156 23.611C47.3156 27.0731 44.5062 29.8826 41.044 29.8826C37.6102 29.8826 34.8008 27.0731 34.8008 23.611C34.8008 20.1488 37.6102 17.3394 41.044 17.3394C44.5062 17.3394 47.3156 20.1488 47.3156 23.611Z" fill="#D3DAE0"/>
<g opacity="0.3">
<path d="M45.3859 28.142C44.2602 29.2299 42.7278 29.892 41.044 29.892C37.6102 29.892 34.8008 27.0826 34.8008 23.6204C34.8008 21.1515 36.2292 19.0137 38.2913 18.0015C37.1089 19.1366 36.3711 20.7448 36.3711 22.5231C36.3711 25.9853 39.171 28.7948 42.6143 28.7948C43.6075 28.7948 44.5535 28.5583 45.3859 28.142Z" fill="black"/>
</g>
<path d="M41.0443 30.3558C37.3362 30.3558 34.3281 27.3288 34.3281 23.6112C34.3281 19.8937 37.3457 16.8667 41.0443 16.8667C44.7619 16.8667 47.7889 19.8937 47.7889 23.6112C47.7889 27.3288 44.7619 30.3558 41.0443 30.3558ZM41.0443 17.8126C37.866 17.8126 35.2741 20.414 35.2741 23.6112C35.2741 26.8085 37.866 29.4099 41.0443 29.4099C44.2416 29.4099 46.843 26.8085 46.843 23.6112C46.843 20.414 44.2416 17.8126 41.0443 17.8126Z" fill="black"/>
<path d="M44.6583 23.6111C44.6583 25.607 43.0407 27.2246 41.0448 27.2246C39.0678 27.2246 37.4502 25.607 37.4502 23.6111C37.4502 21.6151 39.0678 19.9976 41.0448 19.9976C43.0502 20.007 44.6583 21.6151 44.6583 23.6111Z" fill="#BEC6CC"/>
<g opacity="0.3">
<path d="M44.6675 23.6208C44.6675 24.8978 44.0054 26.0235 43.0027 26.6573C43.1635 26.2411 43.2581 25.7965 43.2581 25.3235C43.2581 23.337 41.6405 21.7194 39.6446 21.7194C38.9351 21.7194 38.273 21.9276 37.7148 22.287C38.2446 20.9532 39.5405 20.0073 41.054 20.0073C43.05 20.0073 44.6675 21.6248 44.6675 23.6208Z" fill="black"/>
</g>
<path d="M41.0539 27.6978C38.812 27.6978 36.9863 25.8627 36.9863 23.6113C36.9863 21.36 38.812 19.5249 41.0539 19.5249C43.3052 19.5249 45.1404 21.36 45.1404 23.6113C45.1404 25.8627 43.3052 27.6978 41.0539 27.6978ZM41.0539 20.4708C39.3323 20.4708 37.9323 21.8803 37.9323 23.6113C37.9323 25.3424 39.3323 26.7519 41.0539 26.7519C42.785 26.7519 44.1944 25.3424 44.1944 23.6113C44.1944 21.8803 42.785 20.4708 41.0539 20.4708Z" fill="black"/>
<path d="M47.3252 14.7272L49.9152 11.0317L61.7221 19.3066L59.1321 23.0021L47.3252 14.7272Z" fill="#9BA0A4"/>
<g opacity="0.3">
<path d="M47.3164 14.7381L59.1313 23.0056L61.7137 19.3165L60.1245 18.2002C59.2069 19.5056 57.4097 19.8273 56.1042 18.9097L48.2529 13.4043L47.3164 14.7381Z" fill="black"/>
</g>
<path d="M59.1308 23.4784C59.0362 23.4784 58.9416 23.4501 58.8565 23.3933L47.0511 15.1163C46.947 15.0406 46.8808 14.9366 46.8524 14.8136C46.8335 14.6906 46.8619 14.5582 46.9281 14.4636L49.52 10.7744C49.6714 10.5568 49.9646 10.5095 50.1822 10.6609L61.9876 18.9379C62.0916 19.0136 62.1578 19.1176 62.1862 19.2406C62.2051 19.3636 62.1768 19.496 62.1105 19.5906L59.5186 23.2798C59.4241 23.4122 59.2822 23.4784 59.1308 23.4784ZM47.9781 14.6149L59.0173 22.3433L61.0605 19.4298L50.0214 11.7014L47.9781 14.6149Z" fill="black"/>
<path d="M52.5127 10.67L54.3317 8.07471L63.2798 14.346L61.4608 16.9414L52.5127 10.67Z" fill="#181717"/>
<g opacity="0.3">
<path d="M52.5088 10.6799L61.448 16.9421L63.2737 14.3502L61.8737 13.3664C61.3439 14.1232 60.3034 14.3124 59.5466 13.7826L53.3696 9.4502L52.5088 10.6799Z" fill="black"/>
</g>
<path d="M61.4479 17.415C61.3533 17.415 61.2587 17.3866 61.1736 17.3299L52.2249 11.0582C52.1209 10.9826 52.0546 10.8785 52.0263 10.7555C52.0073 10.6326 52.0357 10.5001 52.1019 10.4055L53.9182 7.80418C54.0695 7.58661 54.3627 7.53931 54.5803 7.69066L63.529 13.9623C63.633 14.038 63.6992 14.142 63.7276 14.265C63.7465 14.388 63.7182 14.5204 63.6519 14.615L61.8357 17.2163C61.7506 17.3393 61.5992 17.415 61.4479 17.415ZM53.1614 10.5569L61.3344 16.2799L62.6114 14.4542L54.4384 8.7312L53.1614 10.5569Z" fill="black"/>
<path d="M48.041 11.0663L50.0011 8.26953L64.0083 18.0865L62.0481 20.8833L48.041 11.0663Z" fill="#3F3737"/>
<g opacity="0.3">
<path d="M48.0342 11.0677L62.0342 20.8867L64.0018 18.0867L62.3653 16.9421C61.7788 17.7745 60.6247 17.9826 59.7923 17.3961L48.9328 9.78125L48.0342 11.0677Z" fill="black"/>
</g>
<path d="M62.0346 21.3502C61.94 21.3502 61.8454 21.3218 61.7602 21.2651L47.7602 11.4556C47.5427 11.3043 47.4954 11.011 47.6467 10.7935L49.6048 7.99346C49.6805 7.88941 49.7846 7.82319 49.9075 7.79482C50.0305 7.7759 50.1629 7.80428 50.2575 7.87049L64.2575 17.68C64.4751 17.8313 64.5224 18.1245 64.371 18.3421L62.4129 21.1421C62.3373 21.2462 62.2332 21.3124 62.1102 21.3408C62.0913 21.3502 62.0629 21.3502 62.0346 21.3502ZM48.6967 10.9543L61.9305 20.2245L63.3494 18.2002L50.1156 8.92995L48.6967 10.9543Z" fill="black"/>
<path d="M25.9374 20.65C26.8644 21.577 28.1604 22.1446 29.5698 22.1541C26.732 22.1635 24.4428 24.4622 24.4334 27.2906C24.4239 25.8811 23.8469 24.5851 22.9293 23.6581C22.0023 22.7311 20.7063 22.1635 19.2969 22.1541C20.7158 22.1541 21.9928 21.577 22.9293 20.65C23.8658 19.7135 24.4334 18.446 24.4334 17.0176C24.4428 18.4365 25.0104 19.7324 25.9374 20.65Z" fill="white"/>
<path d="M51.9696 33.2595C52.6696 33.9595 53.6439 34.3852 54.7034 34.3946C52.5655 34.4041 50.8344 36.1352 50.825 38.273C50.8155 37.2041 50.3804 36.2298 49.6898 35.5392C48.9898 34.8392 48.0155 34.4135 46.9561 34.4041C48.025 34.4041 48.9898 33.9689 49.6898 33.2689C50.3898 32.5689 50.825 31.6041 50.825 30.5352C50.8439 31.5946 51.2696 32.5689 51.9696 33.2595Z" fill="white"/>
<path d="M24.4236 27.773C24.1682 27.773 23.9506 27.5649 23.9506 27.3C23.9412 26.0608 23.4398 24.8595 22.579 23.9987C21.7182 23.1379 20.5168 22.6365 19.2777 22.627C19.0128 22.627 18.8047 22.4095 18.8047 22.1541C18.8047 21.8987 19.0128 21.6811 19.2777 21.6811C20.5168 21.6811 21.6898 21.1987 22.579 20.3095C23.4587 19.4298 23.9506 18.2568 23.9506 17.0081C23.9506 16.7433 24.1587 16.5352 24.4236 16.5352C24.679 16.5352 24.8966 16.7433 24.8966 17.0081C24.906 18.2473 25.4074 19.4487 26.2682 20.3095C27.129 21.1703 28.3304 21.6716 29.5696 21.6811C29.8344 21.6811 30.0425 21.8987 30.0425 22.1541C30.0425 22.4095 29.8344 22.627 29.5696 22.627C27.006 22.6365 24.9155 24.727 24.8966 27.3C24.8966 27.5649 24.6885 27.773 24.4236 27.773ZM21.529 22.1635C22.1723 22.4379 22.7587 22.8352 23.2506 23.327C23.752 23.8284 24.1398 24.4149 24.4236 25.0581C24.9912 23.7622 26.0317 22.7216 27.3277 22.1541C26.6844 21.8703 26.0885 21.4825 25.5966 20.9811C25.1047 20.4892 24.7074 19.9027 24.4331 19.2595C24.1587 19.8933 23.7614 20.4798 23.2506 20.9811C22.7493 21.4919 22.1628 21.8892 21.529 22.1635Z" fill="black"/>
<path d="M50.8341 38.746C50.5787 38.746 50.3611 38.5379 50.3611 38.273C50.3516 37.3744 49.9922 36.4946 49.3679 35.8703C48.7435 35.246 47.8638 34.8771 46.9652 34.8676C46.7003 34.8676 46.4922 34.65 46.4922 34.3946C46.4922 34.1392 46.7003 33.9217 46.9652 33.9217C47.8733 33.9217 48.7246 33.5622 49.3679 32.9284C50.0111 32.2852 50.3706 31.4338 50.3706 30.5257C50.3706 30.2608 50.5787 30.0527 50.8435 30.0527C51.0989 30.0527 51.3165 30.2608 51.3165 30.5257C51.326 31.4244 51.6854 32.3041 52.3098 32.9284C52.9341 33.5527 53.8138 33.9217 54.7125 33.9217C54.9679 33.9217 55.1854 34.1392 55.1854 34.3946C55.1854 34.65 54.9773 34.8676 54.7125 34.8676C52.8395 34.8771 51.3165 36.4 51.3071 38.273C51.3071 38.5379 51.0895 38.746 50.8341 38.746ZM48.9233 34.4041C49.33 34.6122 49.7084 34.8771 50.03 35.1987C50.3516 35.5203 50.626 35.8987 50.8341 36.3149C51.2503 35.4919 51.9314 34.8203 52.7543 34.3946C52.3381 34.1865 51.9692 33.9217 51.6381 33.5906C51.3165 33.2689 51.0422 32.8906 50.8435 32.4838C50.6354 32.8906 50.3706 33.2595 50.0395 33.5906C49.7084 33.9217 49.33 34.196 48.9233 34.4041Z" fill="black"/>
</svg>
