<svg width="1705" height="855" viewBox="0 0 1705 855" fill="none" xmlns="http://www.w3.org/2000/svg">
<g clip-path="url(#clip0_1107_590)">
<rect width="1705" height="855" fill="#0D251C"/>
<path opacity="0.46" d="M676.528 1093.54L676.527 1024.37C677.507 1023.85 678.187 1022.79 678.187 1021.54C678.187 1019.79 676.854 1018.37 675.21 1018.37C674.413 1018.37 673.693 1018.71 673.159 1019.25L615.875 984.056C615.987 983.723 616.059 983.369 616.059 982.994C616.059 981.438 615.002 980.15 613.612 979.884L613.529 908.805C614.916 908.536 615.969 907.25 615.969 905.696C615.969 905.318 615.896 904.961 615.782 904.625L671.882 869.917C672.814 871.322 674.345 872.246 676.085 872.246C678.929 872.246 681.235 869.792 681.235 866.766C681.235 863.902 679.163 861.579 676.533 861.333L676.613 792.471C678.003 792.205 679.061 790.917 679.061 789.361C679.061 787.612 677.728 786.194 676.085 786.194C675.1 786.194 674.234 786.709 673.692 787.493L615.873 751.771C615.987 751.436 616.059 751.08 616.059 750.702C616.059 749.146 615.002 747.858 613.611 747.592L613.528 676.494C614.959 676.264 616.059 674.962 616.059 673.375C616.059 671.626 614.726 670.209 613.083 670.209C612.12 670.209 611.273 670.703 610.729 671.457L554.784 636.788C555.01 636.173 555.142 635.505 555.142 634.803C555.142 631.776 552.836 629.323 549.992 629.323C548.201 629.323 546.626 630.297 545.703 631.773L491.801 598.418C492.176 597.635 492.407 596.762 492.407 595.825C492.407 592.647 489.978 590.061 486.991 590.061C484.003 590.061 481.574 592.647 481.574 595.825C481.574 596.789 481.819 597.685 482.213 598.484L428.306 631.557C427.495 630.227 426.162 629.294 424.613 629.093V560.242C425.957 559.937 426.965 558.669 426.965 557.148C426.965 555.399 425.633 553.98 423.989 553.98C423.028 553.98 422.183 554.473 421.638 555.226L366.119 520.921C366.121 520.851 366.138 520.784 366.138 520.713C366.138 517.687 363.832 515.233 360.988 515.233C359.827 515.233 358.767 515.657 357.905 516.347L302.848 482.432C303.245 481.63 303.492 480.731 303.492 479.763C303.492 476.585 301.063 474 298.075 474C295.088 474 292.659 476.585 292.659 479.763C292.659 480.695 292.887 481.562 293.257 482.341L239.258 515.517C238.328 514.091 236.783 513.154 235.029 513.154C232.184 513.154 229.879 515.608 229.879 518.635C229.879 519.387 230.026 520.1 230.285 520.751L174.345 555.126C173.799 554.432 172.989 553.981 172.072 553.981C170.429 553.981 169.096 555.4 169.096 557.149C169.096 558.67 170.105 559.938 171.449 560.244V631.438C170.639 631.597 169.938 632.085 169.5 632.789L109.07 595.608L50.5649 631.502C49.608 629.867 47.917 628.769 45.9779 628.769C42.9912 628.769 40.5612 631.354 40.5612 634.532C40.5612 637.614 42.8508 640.116 45.7118 640.267V712.057L104.427 748.177C104.085 748.91 103.875 749.726 103.875 750.6C103.875 751.42 104.056 752.19 104.358 752.888L48.2383 787.268C47.6923 786.583 46.888 786.139 45.9779 786.139C44.3342 786.139 43.0015 787.558 43.0015 789.307C43.0015 790.862 44.0563 792.149 45.4451 792.416V863.72C44.0563 863.988 43.0015 865.275 43.0015 866.829C43.0015 867.203 43.0731 867.557 43.1852 867.89L-14.6306 903.41C-15.1722 902.625 -16.0389 902.11 -17.024 902.11C-18.6678 902.11 -20 903.528 -20 905.277C-20 906.832 -18.9451 908.119 -17.5568 908.387V979.075C-18.9456 979.344 -20 980.63 -20 982.185C-20 983.934 -18.6678 985.352 -17.024 985.352C-16.3304 985.352 -15.7001 985.089 -15.1941 984.666L41.2559 1019.21C40.9824 1019.88 40.8269 1020.62 40.8269 1021.4C40.8269 1024.23 42.8543 1026.53 45.4446 1026.82V1095.51C44.0558 1095.78 43.001 1097.07 43.001 1098.62C43.001 1100.27 44.1938 1101.62 45.7108 1101.76V1176.39L104.181 1212.31C103.799 1213.1 103.562 1213.98 103.562 1214.93C103.562 1218.1 105.992 1220.69 108.978 1220.69C111.965 1220.69 114.395 1218.1 114.395 1214.93C114.395 1213.98 114.158 1213.09 113.774 1212.3L172.246 1176.33V1104.26C173.846 1104.17 175.241 1103.3 176.129 1102.01L232.266 1136.5C232.164 1136.82 232.096 1137.16 232.096 1137.51C232.096 1139.04 233.105 1140.3 234.45 1140.61V1211.95C233.061 1212.22 232.006 1213.51 232.006 1215.06C232.006 1216.81 233.339 1218.23 234.982 1218.23C235.916 1218.23 236.74 1217.76 237.286 1217.05L295.188 1252.52C295.076 1252.85 295.007 1253.21 295.007 1253.58C295.007 1255.33 296.34 1256.75 297.984 1256.75C298.988 1256.75 299.871 1256.22 300.41 1255.4L355.662 1289.49C355.609 1289.81 355.569 1290.14 355.569 1290.48C355.569 1293.66 357.998 1296.24 360.985 1296.24C363.972 1296.24 366.402 1293.66 366.402 1290.48C366.402 1290.14 366.361 1289.81 366.308 1289.49L421.56 1255.4C422.099 1256.22 422.983 1256.75 423.987 1256.75C425.631 1256.75 426.963 1255.33 426.963 1253.58C426.963 1253.29 426.915 1253.02 426.847 1252.75L484.908 1217.14C485.445 1217.7 486.178 1218.04 486.989 1218.04C488.632 1218.04 489.965 1216.62 489.965 1214.88C489.965 1214.4 489.861 1213.96 489.687 1213.56L545.692 1179.39C546.679 1180.81 548.251 1181.75 550.035 1181.75C553.023 1181.75 555.452 1179.16 555.452 1175.98C555.452 1172.88 553.14 1170.37 550.257 1170.24V1102.1C551.028 1102.04 551.718 1101.67 552.214 1101.1L610.179 1136.61C610.082 1136.92 610.017 1137.25 610.017 1137.6C610.017 1139.35 611.349 1140.77 612.993 1140.77C614.637 1140.77 615.969 1139.35 615.969 1137.6C615.969 1137.25 615.904 1136.92 615.807 1136.61C620.885 1133.5 632.819 1126.19 644.76 1118.87C652.635 1114.04 660.51 1109.21 666.417 1105.58C668.704 1104.18 670.452 1103.11 671.822 1102.26C672.763 1103.57 674.233 1104.44 675.904 1104.44C678.749 1104.44 681.054 1101.98 681.054 1098.95C681.054 1096.15 679.074 1093.87 676.528 1093.54ZM612.336 986.049L612.696 1054.61C609.849 1054.77 607.576 1057.27 607.576 1060.34C607.576 1061.29 607.815 1062.17 608.201 1062.97L552.455 1097.12C552.006 1096.45 551.316 1095.99 550.524 1095.85V1026.97C553.115 1026.68 555.142 1024.38 555.142 1021.54C555.142 1020.75 554.977 1020 554.693 1019.32L610.82 985.032C611.211 985.518 611.735 985.882 612.336 986.049ZM612.992 1055.14C615.685 1055.14 617.877 1057.47 617.877 1060.34C617.877 1063.2 615.686 1065.53 612.992 1065.53C610.299 1065.53 608.108 1063.2 608.108 1060.34C608.108 1057.47 610.3 1055.14 612.992 1055.14ZM484.554 1213.06L428.614 1178.94C429.105 1178.07 429.404 1177.07 429.404 1175.98C429.404 1172.9 427.115 1170.4 424.254 1170.25L424.253 1104.42C425.913 1104.36 427.364 1103.46 428.266 1102.11L484.152 1136.69C484.07 1136.98 484.013 1137.28 484.013 1137.6C484.013 1139.15 485.068 1140.44 486.456 1140.71V1211.78C485.674 1211.93 484.994 1212.39 484.554 1213.06ZM293.1 1175.98C293.1 1173.12 295.292 1170.78 297.985 1170.78C300.677 1170.78 302.869 1173.12 302.869 1175.98C302.869 1178.85 300.678 1181.18 297.985 1181.18C295.292 1181.18 293.1 1178.85 293.1 1175.98ZM298.251 1250.44V1181.72C301.112 1181.57 303.401 1179.06 303.401 1175.98C303.401 1175.11 303.205 1174.29 302.879 1173.55L358.501 1139.53C358.939 1140.24 359.641 1140.73 360.453 1140.88V1209.64C357.863 1209.93 355.836 1212.23 355.836 1215.06C355.836 1215.86 356.006 1216.62 356.295 1217.3L300.246 1251.54C299.753 1250.93 299.05 1250.52 298.251 1250.44ZM108.979 1134.46C108.071 1134.46 107.267 1134.9 106.721 1135.58L48.6789 1099.92C48.85 1099.53 48.9534 1099.09 48.9534 1098.62C48.9534 1098.21 48.8734 1097.81 48.7365 1097.45L104.43 1063.41C105.395 1065 107.069 1066.07 108.979 1066.07C110.889 1066.07 112.563 1065 113.528 1063.41L167.407 1096.34C167.051 1097.08 166.831 1097.91 166.831 1098.81C166.831 1099.61 167.004 1100.36 167.294 1101.04L111.235 1135.58C110.689 1134.9 109.887 1134.46 108.979 1134.46ZM51.1279 1021.4C51.1279 1020.62 50.9724 1019.88 50.699 1019.21L106.391 985.13C106.9 986.099 107.862 986.761 108.979 986.761C110.093 986.761 111.054 986.102 111.563 985.137L169.189 1020.59C169.077 1020.92 169.005 1021.28 169.005 1021.65C169.005 1023.21 170.06 1024.5 171.449 1024.76V1093.36C169.859 1093.54 168.487 1094.48 167.661 1095.84L113.782 1062.91C114.162 1062.13 114.396 1061.25 114.396 1060.3C114.396 1057.12 111.966 1054.54 108.979 1054.54C105.993 1054.54 103.563 1057.12 103.563 1060.3C103.563 1061.25 103.798 1062.13 104.177 1062.91L48.4927 1096.94C48.0574 1096.21 47.3428 1095.69 46.5107 1095.53V1026.82C49.1011 1026.53 51.1279 1024.23 51.1279 1021.4ZM109.246 899.825V828.231L167.737 792.244C168.545 793.592 169.886 794.54 171.448 794.743V863.535C170.059 863.803 169.004 865.09 169.004 866.644C169.004 867.073 169.086 867.48 169.232 867.853L113.138 902.086C112.25 900.79 110.851 899.914 109.246 899.825ZM239.912 595.934C239.912 598.8 237.721 601.132 235.028 601.132C232.335 601.132 230.143 598.801 230.143 595.934C230.143 593.069 232.334 590.738 235.028 590.738C237.721 590.738 239.912 593.069 239.912 595.934ZM240.445 595.934C240.445 592.867 238.176 590.376 235.334 590.204L235.256 524.09C236.929 524.01 238.39 523.083 239.277 521.706L295.273 556.207C295.168 556.531 295.099 556.874 295.099 557.236C295.099 558.789 296.152 560.076 297.539 560.345L297.458 629.091C295.892 629.291 294.546 630.243 293.737 631.597L239.839 598.525C240.214 597.744 240.445 596.872 240.445 595.934ZM360.801 526.174L360.72 595.773L302.372 631.517C301.529 630.158 300.132 629.229 298.524 629.08L298.605 560.347C299.995 560.08 301.051 558.793 301.051 557.237C301.051 556.875 300.982 556.533 300.877 556.208L356.056 522.211C356.656 524.438 358.532 526.087 360.801 526.174ZM298.075 640.01C299.772 640.01 301.264 639.126 302.202 637.779L358.193 672.177C358.081 672.51 358.01 672.863 358.01 673.236C358.01 674.791 359.065 676.078 360.453 676.346V745.51C357.885 745.819 355.882 748.113 355.882 750.929C355.882 751.68 356.025 752.397 356.283 753.049L300.324 787.377C299.83 786.708 299.096 786.249 298.252 786.168V717.134C301.113 716.982 303.402 714.48 303.402 711.399C303.402 708.22 300.973 705.635 297.986 705.635C295.923 705.635 294.147 706.883 293.232 708.692L239.573 675.676C239.92 674.939 240.134 674.118 240.134 673.236C240.134 672.472 239.986 671.747 239.721 671.086L293.893 637.708C294.827 639.097 296.347 640.01 298.075 640.01ZM549.731 640.255L549.816 711.778L489.415 749.102C488.975 748.442 488.302 747.985 487.526 747.831L487.61 676.486C489 676.219 490.056 674.932 490.056 673.376C490.056 673.04 489.994 672.722 489.902 672.418L545.741 637.871C546.623 639.24 548.07 640.165 549.731 640.255ZM612.463 908.807L612.547 979.899C611.77 980.053 611.094 980.511 610.655 981.173L555.142 946.975C555.329 946.392 555.453 945.777 555.453 945.127C555.453 941.948 553.024 939.363 550.036 939.363C547.05 939.363 544.621 941.948 544.621 945.127C544.621 945.757 544.74 946.353 544.916 946.921L489.392 981.033C488.943 980.408 488.281 979.98 487.523 979.842V910.912C490.157 910.67 492.231 908.345 492.231 905.479C492.231 904.671 492.057 903.91 491.761 903.218L545.809 870.199C546.743 871.59 548.263 872.504 549.992 872.504C551.716 872.504 553.233 871.594 554.168 870.21L610.201 904.636C610.09 904.969 610.018 905.323 610.018 905.696C610.017 907.252 611.073 908.54 612.463 908.807ZM486.723 986.081V1060.16L428.31 1095.84C427.46 1094.53 426.091 1093.65 424.52 1093.5V1024.5C425.909 1024.24 426.964 1022.95 426.964 1021.4C426.964 1021.07 426.904 1020.76 426.816 1020.46L484.707 984.893C485.192 985.541 485.905 985.989 486.723 986.081ZM423.721 1104.4L423.722 1170.25C421.798 1170.35 420.152 1171.51 419.269 1173.21L363.722 1139.04C363.876 1138.65 363.962 1138.23 363.962 1137.79C363.962 1137.33 363.865 1136.9 363.698 1136.5L419.827 1102.02C420.692 1103.36 422.1 1104.28 423.721 1104.4ZM232.472 906.786L174.506 942.118C173.773 939.857 171.776 938.219 169.406 938.219C167.971 938.219 166.673 938.826 165.703 939.799L113.548 907.756C113.908 907.009 114.13 906.174 114.13 905.277C114.13 904.485 113.961 903.741 113.677 903.064L169.815 868.804C170.358 869.421 171.124 869.812 171.981 869.812C172.838 869.812 173.605 869.421 174.148 868.804L232.263 904.27C232.162 904.587 232.098 904.923 232.098 905.277C232.097 905.826 232.24 906.336 232.472 906.786ZM174.29 943.983C174.29 946.849 172.099 949.179 169.406 949.179C166.713 949.179 164.522 946.849 164.522 943.983C164.522 941.118 166.712 938.786 169.406 938.786C172.099 938.786 174.29 941.118 174.29 943.983ZM172.254 783.845L172.338 712.217L230.693 676.263C231.523 677.592 232.882 678.508 234.45 678.68V747.707C233.062 747.975 232.007 749.261 232.007 750.817C232.007 751.125 232.061 751.416 232.138 751.697L176.245 786.13C175.343 784.799 173.902 783.907 172.254 783.845ZM297.718 717.134V786.167C296.908 786.245 296.197 786.671 295.704 787.296L237.829 751.695C237.905 751.415 237.959 751.124 237.959 750.817C237.959 749.262 236.904 747.975 235.516 747.707V678.679C237.115 678.502 238.493 677.548 239.317 676.175L292.983 709.194C292.718 709.874 292.568 710.617 292.568 711.399C292.568 714.48 294.857 716.983 297.718 717.134ZM361.032 756.408C362.769 756.408 364.299 755.486 365.232 754.083L421.206 788.521C421.145 788.774 421.102 789.033 421.102 789.306C421.102 790.829 422.113 792.098 423.459 792.402L423.542 863.659C422.707 863.795 421.979 864.277 421.524 864.991L365.796 830.798C366.171 830.015 366.403 829.142 366.403 828.204C366.403 825.026 363.973 822.441 360.986 822.441C357.999 822.441 355.57 825.026 355.57 828.204C355.57 829.144 355.803 830.019 356.179 830.804L300.488 865.065C300.053 864.341 299.344 863.836 298.521 863.673L298.605 792.402C299.95 792.098 300.961 790.829 300.961 789.306C300.961 788.981 300.903 788.675 300.818 788.381L356.798 754.04C357.728 755.469 359.275 756.408 361.032 756.408ZM423.724 869.904L423.812 944.069L366.081 979.494C365.819 976.938 363.921 974.927 361.519 974.66V909.574C364.131 909.308 366.182 906.994 366.182 904.145C366.182 903.741 366.135 903.35 366.057 902.971L421.756 868.842C422.247 869.433 422.941 869.83 423.724 869.904ZM298.257 938.506L298.338 869.895C299.114 869.796 299.793 869.379 300.268 868.775L355.995 903.012C355.922 903.379 355.882 903.757 355.882 904.146C355.882 906.962 357.885 909.254 360.453 909.564V974.66C358.059 974.927 356.166 976.926 355.894 979.47L302.874 946.68C303.203 945.937 303.401 945.116 303.401 944.242C303.401 941.162 301.116 938.661 298.257 938.506ZM172.514 863.535V794.756C174.12 794.609 175.517 793.686 176.362 792.332L228.95 824.726C228.368 825.645 228.028 826.75 228.028 827.939C228.028 831.117 230.457 833.702 233.444 833.702C233.918 833.702 234.37 833.617 234.807 833.495L234.806 902.139C233.99 902.217 233.276 902.649 232.783 903.281L174.731 867.853C174.875 867.48 174.957 867.073 174.957 866.644C174.957 865.09 173.902 863.803 172.514 863.535ZM234.983 753.984C235.955 753.984 236.81 753.48 237.353 752.713L295.178 788.283C295.074 788.604 295.008 788.946 295.008 789.306C295.008 789.833 295.14 790.322 295.354 790.759L238.454 825.764C237.645 823.662 235.707 822.175 233.444 822.175C231.768 822.175 230.287 823.006 229.292 824.282L176.616 791.834C176.99 791.074 177.222 790.223 177.222 789.306C177.222 788.522 177.059 787.783 176.78 787.111L232.614 752.715C233.157 753.481 234.011 753.984 234.983 753.984ZM300.737 865.567L356.433 831.302C357.397 832.9 359.072 833.967 360.986 833.967C362.902 833.967 364.579 832.897 365.543 831.296L421.269 865.488C421.106 865.88 421.012 866.31 421.012 866.766C421.012 867.156 421.083 867.528 421.205 867.872L365.708 901.877C364.896 899.986 363.113 898.664 361.032 898.664C358.936 898.664 357.141 900.001 356.336 901.913L300.792 867.788C300.896 867.466 300.96 867.126 300.96 866.766C300.961 866.341 300.879 865.937 300.737 865.567ZM356.102 828.204C356.102 825.338 358.293 823.007 360.986 823.007C363.678 823.007 365.87 825.338 365.87 828.204C365.87 831.069 363.679 833.4 360.986 833.4C358.293 833.4 356.102 831.069 356.102 828.204ZM238.327 827.939C238.327 830.804 236.137 833.135 233.444 833.135C230.752 833.135 228.56 830.804 228.56 827.939C228.56 825.073 230.751 822.741 233.444 822.741C236.137 822.741 238.327 825.072 238.327 827.939ZM235.339 902.138L235.34 833.318C237.39 832.496 238.86 830.404 238.86 827.938C238.86 827.372 238.759 826.836 238.616 826.319L295.641 791.236C296.098 791.863 296.77 792.289 297.539 792.416L297.456 863.655C296.066 863.922 295.008 865.209 295.008 866.766C295.008 867.123 295.075 867.461 295.177 867.781L237.306 903.201C236.815 902.611 236.122 902.214 235.339 902.138ZM302.869 944.241C302.869 947.107 300.677 949.438 297.984 949.438C295.292 949.438 293.1 947.107 293.1 944.241C293.1 941.376 295.291 939.044 297.984 939.044C300.677 939.044 302.869 941.376 302.869 944.241ZM293.1 711.399C293.1 708.533 295.292 706.202 297.985 706.202C300.677 706.202 302.869 708.533 302.869 711.399C302.869 714.264 300.678 716.596 297.985 716.596C295.292 716.596 293.1 714.264 293.1 711.399ZM235.516 908.397C236.948 908.167 238.049 906.865 238.049 905.277C238.049 904.887 237.978 904.516 237.856 904.172L295.7 868.77C296.211 869.421 296.956 869.859 297.805 869.914L297.724 938.505C294.86 938.653 292.568 941.157 292.568 944.242C292.568 945.116 292.766 945.937 293.095 946.68L237.436 981.103C236.996 980.421 236.309 979.95 235.516 979.796L235.516 908.397ZM237.694 981.598L293.349 947.178C294.295 948.862 296.009 950.005 297.985 950.005C299.96 950.005 301.674 948.862 302.62 947.178L355.837 980.09C355.838 981.708 356.514 983.139 357.564 984.136L300.223 1019.37C299.68 1018.76 298.919 1018.38 298.07 1018.38C297.186 1018.38 296.402 1018.79 295.857 1019.44L237.768 983.992C237.889 983.649 237.959 983.281 237.959 982.892C237.959 982.429 237.861 981.994 237.694 981.598ZM298.517 1024.66C299.946 1024.43 301.045 1023.13 301.045 1021.54C301.045 1021.11 300.962 1020.69 300.812 1020.31L358.522 984.857C359.184 985.241 359.922 985.494 360.719 985.539V1054.5C357.858 1054.65 355.569 1057.15 355.569 1060.23C355.569 1061.15 355.793 1062.02 356.158 1062.79L302.3 1095.83C301.474 1094.48 300.104 1093.54 298.517 1093.36V1024.66H298.517ZM356.102 1060.23C356.102 1057.37 358.293 1055.03 360.986 1055.03C363.678 1055.03 365.87 1057.36 365.87 1060.23C365.87 1063.1 363.679 1065.43 360.986 1065.43C358.293 1065.43 356.102 1063.1 356.102 1060.23ZM366.134 980.115L424.211 944.479L424.344 944.397L424.258 869.904C425.069 869.825 425.78 869.398 426.272 868.77L482.365 903.288C482.088 903.96 481.93 904.699 481.93 905.48C481.93 908.279 483.911 910.563 486.457 910.894V979.843C485.09 980.129 484.059 981.409 484.059 982.948C484.059 983.279 484.118 983.593 484.207 983.892L426.323 1019.45C425.778 1018.71 424.94 1018.23 423.988 1018.23C423.038 1018.23 422.201 1018.71 421.656 1019.45L364.403 984.141C365.449 983.149 366.126 981.726 366.134 980.115ZM487.256 986.09C488.096 986.024 488.831 985.582 489.334 984.931L545.295 1019.31C545.008 1019.99 544.841 1020.75 544.841 1021.54C544.841 1024.37 546.868 1026.68 549.459 1026.97V1095.86C548.689 1096.03 548.022 1096.49 547.59 1097.16L487.256 1060.16V986.09ZM549.991 1016.06C548.277 1016.06 546.769 1016.96 545.833 1018.33L489.849 983.939C489.947 983.626 490.011 983.296 490.011 982.947C490.011 982.428 489.883 981.946 489.675 981.514L545.096 947.466C545.942 949.479 547.833 950.89 550.036 950.89C552.221 950.89 554.096 949.5 554.952 947.514L610.391 981.665C610.214 982.071 610.107 982.519 610.107 982.996C610.107 983.368 610.169 983.724 610.28 984.055L554.157 1018.34C553.222 1016.97 551.71 1016.06 549.991 1016.06ZM545.153 945.127C545.153 942.262 547.343 939.93 550.036 939.93C552.729 939.93 554.92 942.262 554.92 945.127C554.92 947.993 552.729 950.323 550.036 950.323C547.343 950.323 545.153 947.993 545.153 945.127ZM549.458 794.775V861.6C546.868 861.888 544.841 864.191 544.841 867.023C544.841 867.805 545 868.544 545.276 869.217L491.217 902.243C490.28 900.889 488.783 899.999 487.08 899.999C485.351 899.999 483.829 900.914 482.895 902.305L426.795 867.783C426.899 867.463 426.964 867.124 426.964 866.766C426.964 865.243 425.953 863.972 424.607 863.669L424.524 792.425C425.955 792.194 427.055 790.892 427.055 789.306C427.055 789 427.001 788.71 426.925 788.431L484.731 752.968C485.277 753.651 486.081 754.094 486.99 754.094C487.902 754.094 488.707 753.649 489.253 752.961L545.357 787.187C545.085 787.854 544.931 788.587 544.931 789.361C544.932 792.161 546.911 794.444 549.458 794.775ZM486.545 676.486L486.461 747.831C485.682 747.982 485.005 748.441 484.564 749.103L428.806 714.701C429.231 713.879 429.495 712.948 429.495 711.946C429.495 708.831 427.157 706.302 424.253 706.201V639.982C425.79 639.897 427.134 639.087 428.026 637.882L484.255 672.428C484.165 672.729 484.104 673.044 484.104 673.376C484.104 674.93 485.157 676.216 486.545 676.486ZM424.079 717.143C421.386 717.143 419.194 714.812 419.194 711.946C419.194 709.08 421.386 706.749 424.079 706.749C426.772 706.749 428.962 709.08 428.962 711.946C428.962 714.812 426.772 717.143 424.079 717.143ZM423.721 639.982V706.221C420.903 706.421 418.662 708.898 418.662 711.946C418.662 715.124 421.092 717.71 424.079 717.71C425.933 717.71 427.569 716.711 428.546 715.196L484.299 749.595C484.12 750.002 484.014 750.45 484.014 750.928C484.014 751.302 484.085 751.654 484.197 751.987L426.452 787.413C425.909 786.644 425.052 786.139 424.079 786.139C423.074 786.139 422.189 786.673 421.65 787.484L365.758 753.098C366.029 752.432 366.182 751.699 366.182 750.928C366.182 748.078 364.131 745.764 361.519 745.499V676.345C362.908 676.077 363.963 674.791 363.963 673.236C363.963 672.866 363.892 672.517 363.783 672.188L419.996 637.944C420.888 639.113 422.211 639.898 423.721 639.982ZM230.439 675.764L172.337 711.562L172.251 637.67C173.045 637.593 173.745 637.183 174.236 636.577L230.246 671.086C229.98 671.747 229.832 672.473 229.832 673.236C229.833 674.153 230.064 675.004 230.439 675.764ZM171.718 637.671L171.805 711.889L113.352 747.648C112.52 746.268 111.126 745.316 109.512 745.153V676.407C110.922 676.159 112.001 674.864 112.001 673.292C112.001 672.926 111.931 672.58 111.823 672.252L169.726 636.576C170.219 637.184 170.921 637.595 171.718 637.671ZM113.607 748.146L171.805 712.543L171.722 783.863C170.11 783.98 168.71 784.886 167.842 786.214L113.667 752.936C113.984 752.225 114.175 751.439 114.175 750.6C114.175 749.713 113.958 748.887 113.607 748.146ZM108.979 1065.5C106.287 1065.5 104.096 1063.17 104.096 1060.3C104.096 1057.44 106.287 1055.11 108.979 1055.11C111.673 1055.11 113.864 1057.44 113.864 1060.3C113.864 1063.17 111.673 1065.5 108.979 1065.5ZM171.981 1018.49C171.074 1018.49 170.271 1018.93 169.725 1019.61L111.913 984.043C111.933 983.895 111.955 983.747 111.955 983.594C111.955 982.039 110.9 980.752 109.512 980.484V910.721C111.097 910.546 112.467 909.609 113.293 908.255L165.331 940.226C164.506 941.238 163.989 942.542 163.989 943.984C163.989 947.162 166.418 949.747 169.405 949.747C172.392 949.747 174.822 947.162 174.822 943.984C174.822 943.531 174.76 943.095 174.667 942.672L232.767 907.258C233.187 907.811 233.775 908.21 234.449 908.366V979.781C233.06 980.049 232.005 981.336 232.005 982.891C232.005 983.283 232.077 983.656 232.199 984.002L174.237 1019.61C173.693 1018.93 172.89 1018.49 171.981 1018.49ZM240.49 1060.23C240.49 1057.12 238.153 1054.59 235.249 1054.49V986.03C236.033 985.955 236.726 985.557 237.217 984.965L295.298 1020.41C295.17 1020.76 295.093 1021.14 295.093 1021.54C295.093 1023.07 296.105 1024.34 297.452 1024.64V1093.36C295.861 1093.54 294.489 1094.48 293.663 1095.84L239.806 1062.98C240.228 1062.16 240.49 1061.23 240.49 1060.23ZM235.073 1065.43C232.381 1065.43 230.19 1063.1 230.19 1060.23C230.19 1057.37 232.381 1055.03 235.073 1055.03C237.766 1055.03 239.956 1057.36 239.956 1060.23C239.956 1063.1 237.767 1065.43 235.073 1065.43ZM302.554 1096.33L356.413 1063.29C357.373 1064.91 359.057 1065.99 360.986 1065.99C363.973 1065.99 366.402 1063.41 366.402 1060.23C366.402 1057.15 364.113 1054.65 361.252 1054.5V985.539C362.047 985.495 362.783 985.243 363.443 984.861L421.16 1020.45C421.072 1020.75 421.011 1021.07 421.011 1021.4C421.011 1022.95 422.066 1024.24 423.454 1024.51V1093.54C420.907 1093.87 418.928 1096.16 418.928 1098.95C418.928 1099.69 419.066 1100.39 419.313 1101.02L363.098 1135.56C362.559 1134.98 361.812 1134.62 360.986 1134.62C360.16 1134.62 359.414 1134.98 358.875 1135.56L302.68 1101.04C302.968 1100.36 303.135 1099.6 303.135 1098.81C303.135 1097.91 302.913 1097.08 302.554 1096.33ZM361.518 1209.64V1140.89C362.329 1140.73 363.03 1140.24 363.468 1139.54L419.014 1173.71C418.73 1174.41 418.571 1175.17 418.571 1175.98C418.571 1179.06 420.86 1181.57 423.722 1181.72L423.721 1250.44C422.845 1250.53 422.087 1251.02 421.594 1251.73L365.669 1217.32C365.963 1216.63 366.136 1215.87 366.136 1215.07C366.137 1212.23 364.109 1209.93 361.518 1209.64ZM419.104 1175.98C419.104 1173.12 421.295 1170.78 423.988 1170.78C426.681 1170.78 428.871 1173.12 428.871 1175.98C428.871 1178.85 426.681 1181.18 423.988 1181.18C421.295 1181.18 419.104 1178.85 419.104 1175.98ZM486.99 1134.43C486.028 1134.43 485.182 1134.93 484.638 1135.68L428.797 1101.13C429.07 1100.46 429.228 1099.73 429.228 1098.95C429.228 1098 428.978 1097.11 428.574 1096.33L486.989 1060.65L547.33 1097.65C547.16 1098.05 547.06 1098.49 547.06 1098.95C547.06 1099.36 547.132 1099.75 547.264 1100.1L489.347 1135.69C488.804 1134.93 487.955 1134.43 486.99 1134.43ZM673.229 788.518C673.158 788.788 673.109 789.068 673.109 789.362C673.109 790.915 674.162 792.202 675.548 792.471L675.467 861.352C672.918 861.681 670.935 863.965 670.935 866.767C670.935 867.536 671.087 868.267 671.356 868.932L615.245 903.648C614.699 902.97 613.898 902.53 612.992 902.53C612.084 902.53 611.281 902.973 610.735 903.656L554.699 869.23C554.979 868.554 555.141 867.81 555.141 867.024C555.141 864.192 553.113 861.889 550.523 861.601V794.795C553.157 794.552 555.231 792.227 555.231 789.362C555.231 788.55 555.055 787.787 554.758 787.094L610.822 752.742C611.368 753.427 612.173 753.871 613.083 753.871C613.988 753.871 614.79 753.431 615.336 752.751L673.229 788.518ZM610.246 672.47C610.164 672.759 610.107 673.058 610.107 673.376C610.107 674.898 611.118 676.168 612.463 676.472L612.547 747.594C611.16 747.863 610.107 749.149 610.107 750.703C610.107 751.076 610.179 751.429 610.29 751.761L554.215 786.12C553.277 784.769 551.782 783.881 550.082 783.881C548.345 783.881 546.817 784.802 545.884 786.203L489.785 751.98C489.895 751.65 489.966 751.299 489.966 750.929C489.966 750.45 489.858 750.001 489.679 749.594L550.215 712.187L550.347 712.106L550.264 640.254C551.95 640.158 553.421 639.206 554.295 637.798L610.246 672.47ZM482.106 595.824C482.106 592.958 484.297 590.626 486.99 590.626C489.683 590.626 491.874 592.958 491.874 595.824C491.874 598.689 489.683 601.02 486.99 601.02C484.297 601.021 482.106 598.689 482.106 595.824ZM482.467 598.981C483.436 600.548 485.099 601.587 486.99 601.587C488.906 601.587 490.583 600.517 491.546 598.916L545.448 632.271C545.073 633.031 544.841 633.884 544.841 634.802C544.841 635.538 544.978 636.239 545.226 636.878L489.402 671.417C488.857 670.686 488.025 670.209 487.08 670.209C486.132 670.209 485.298 670.689 484.753 671.424L428.596 636.923C428.931 636.198 429.138 635.394 429.138 634.53C429.138 633.634 428.916 632.802 428.559 632.055L482.467 598.981ZM421.151 556.237C421.069 556.527 421.011 556.829 421.011 557.148C421.011 558.736 422.113 560.038 423.546 560.267V629.097C420.912 629.339 418.837 631.664 418.837 634.53C418.837 635.422 419.057 636.25 419.413 636.991L363.252 671.204C362.706 670.516 361.899 670.069 360.986 670.069C360.077 670.069 359.273 670.512 358.727 671.196L302.748 636.804C303.047 636.11 303.225 635.344 303.225 634.53C303.225 633.619 302.996 632.772 302.626 632.016L361.119 596.183L361.252 596.101L361.334 526.157C363.559 525.996 365.381 524.339 365.941 522.124L421.151 556.237ZM293.191 479.763C293.191 476.898 295.382 474.567 298.075 474.567C300.768 474.567 302.96 476.898 302.96 479.763C302.96 482.629 300.769 484.961 298.075 484.961C295.382 484.96 293.191 482.629 293.191 479.763ZM293.511 482.839C294.473 484.449 296.153 485.528 298.075 485.528C299.963 485.528 301.624 484.492 302.594 482.93L357.466 516.732C356.468 517.732 355.836 519.14 355.836 520.714C355.836 520.818 355.859 520.916 355.864 521.018L300.353 555.221C299.807 554.524 298.995 554.07 298.075 554.07C297.156 554.07 296.344 554.524 295.798 555.221L239.793 520.714C240.041 520.074 240.179 519.372 240.179 518.634C240.179 517.677 239.928 516.791 239.523 516.008L293.511 482.839ZM230.807 521.739C231.683 523.073 233.098 523.979 234.723 524.082L234.8 590.195C231.921 590.325 229.611 592.839 229.611 595.934C229.611 599.113 232.04 601.698 235.028 601.698C236.944 601.698 238.622 600.627 239.584 599.025L293.482 632.097C293.136 632.833 292.924 633.651 292.924 634.529C292.924 635.312 293.083 636.052 293.361 636.725L239.196 670.098C238.264 668.684 236.728 667.755 234.982 667.755C233.237 667.755 231.7 668.684 230.769 670.097L174.774 635.598C174.888 635.264 174.957 634.908 174.957 634.531C174.957 632.976 173.902 631.689 172.513 631.422V560.267C173.945 560.038 175.047 558.735 175.047 557.148C175.047 556.782 174.977 556.437 174.87 556.11L230.807 521.739ZM41.0935 634.532C41.0935 631.666 43.2842 629.334 45.9779 629.334C48.6706 629.334 50.8613 631.666 50.8613 634.532C50.8613 637.397 48.6706 639.728 45.9779 639.728C43.2847 639.729 41.0935 637.398 41.0935 634.532ZM46.2441 711.73V640.267C49.105 640.115 51.3941 637.613 51.3941 634.532C51.3941 633.62 51.1757 632.767 50.8194 632L109.07 596.262L169.245 633.287C169.091 633.669 169.005 634.089 169.005 634.532C169.005 634.908 169.074 635.265 169.187 635.598L111.295 671.267C110.749 670.575 109.94 670.125 109.025 670.125C107.381 670.125 106.048 671.543 106.048 673.292C106.048 674.83 107.08 676.11 108.447 676.397V745.159C106.86 745.35 105.496 746.308 104.681 747.677L46.2441 711.73ZM104.906 753.86C105.845 755.2 107.333 756.08 109.025 756.08C110.698 756.08 112.169 755.218 113.11 753.902L167.322 787.204C167.067 787.851 166.921 788.558 166.921 789.306C166.921 790.187 167.135 791.008 167.483 791.746L108.713 827.904V899.825C107.108 899.914 105.708 900.79 104.821 902.086L48.773 867.881C48.8832 867.55 48.9543 867.2 48.9543 866.829C48.9543 865.274 47.8995 863.987 46.5112 863.72V792.416C47.9 792.148 48.9543 790.861 48.9543 789.306C48.9543 788.933 48.8827 788.581 48.7715 788.249L104.906 753.86ZM-14.4751 983.798C-14.2099 983.324 -14.0476 982.777 -14.0476 982.185C-14.0476 980.63 -15.1025 979.343 -16.4913 979.075V908.387C-15.1025 908.118 -14.0476 906.832 -14.0476 905.277C-14.0476 904.983 -14.0973 904.704 -14.1675 904.435L43.72 868.871C44.2659 869.554 45.0693 869.996 45.9779 869.996C46.8895 869.996 47.6952 869.551 48.2412 868.864L104.283 903.064C103.998 903.742 103.829 904.486 103.829 905.277C103.829 908.11 105.857 910.413 108.447 910.701V980.484C107.058 980.752 106.003 982.039 106.003 983.594C106.003 983.744 106.026 983.889 106.045 984.034L50.1711 1018.23C49.2376 1016.83 47.7118 1015.91 45.9784 1015.91C44.245 1015.91 42.7192 1016.83 41.7857 1018.23L-14.4751 983.798ZM113.863 1214.93C113.863 1217.79 111.673 1220.12 108.979 1220.12C106.286 1220.12 104.095 1217.79 104.095 1214.93C104.095 1212.06 106.286 1209.73 108.979 1209.73C111.673 1209.73 113.863 1212.06 113.863 1214.93ZM171.715 1176L113.521 1211.8C112.554 1210.22 110.884 1209.16 108.979 1209.16C107.073 1209.16 105.402 1210.22 104.437 1211.81L46.2441 1176.06V1101.76C46.9533 1101.69 47.5856 1101.36 48.0642 1100.86L106.187 1136.56C106.075 1136.9 106.003 1137.25 106.003 1137.62C106.003 1139.37 107.336 1140.79 108.979 1140.79C110.623 1140.79 111.956 1139.37 111.956 1137.62C111.956 1137.25 111.884 1136.89 111.771 1136.56L167.836 1102.02C168.724 1103.3 170.117 1104.17 171.715 1104.26V1176H171.715ZM176.672 1101.03C176.96 1100.35 177.131 1099.6 177.131 1098.81C177.131 1095.97 175.104 1093.67 172.514 1093.38V1024.76C173.903 1024.5 174.957 1023.21 174.957 1021.65C174.957 1021.28 174.886 1020.93 174.773 1020.59L232.753 984.972C233.244 985.56 233.935 985.956 234.717 986.03V1054.51C231.899 1054.7 229.657 1057.18 229.657 1060.23C229.657 1063.41 232.086 1065.99 235.073 1065.99C236.931 1065.99 238.571 1064.99 239.547 1063.47L293.408 1096.34C293.053 1097.09 292.834 1097.92 292.834 1098.81C292.834 1099.6 293.001 1100.35 293.288 1101.04L237.302 1135.43C236.756 1134.77 235.965 1134.35 235.073 1134.35C234.148 1134.35 233.332 1134.81 232.786 1135.51L176.672 1101.03ZM237.797 1216.05C237.894 1215.74 237.959 1215.41 237.959 1215.06C237.959 1213.51 236.904 1212.22 235.516 1211.95V1140.63C236.948 1140.4 238.049 1139.1 238.049 1137.51C238.049 1137.12 237.973 1136.75 237.852 1136.4L293.826 1102.02C294.762 1103.39 296.27 1104.29 297.984 1104.29C299.699 1104.29 301.207 1103.39 302.143 1102.02L358.273 1136.5C358.107 1136.89 358.01 1137.33 358.01 1137.79C358.01 1138.23 358.094 1138.65 358.246 1139.03L302.624 1173.05C301.678 1171.36 299.962 1170.22 297.984 1170.22C294.997 1170.22 292.568 1172.8 292.568 1175.98C292.568 1179.06 294.857 1181.57 297.718 1181.72V1250.44C296.92 1250.52 296.218 1250.93 295.725 1251.54L237.797 1216.05ZM360.986 1295.68C358.293 1295.68 356.102 1293.34 356.102 1290.48C356.102 1287.61 358.293 1285.28 360.986 1285.28C363.678 1285.28 365.87 1287.61 365.87 1290.48C365.87 1293.34 363.679 1295.68 360.986 1295.68ZM366.176 1288.92C365.532 1286.5 363.462 1284.71 360.986 1284.71C358.51 1284.71 356.44 1286.5 355.796 1288.92L300.676 1254.91C300.854 1254.51 300.96 1254.06 300.96 1253.58C300.96 1253.21 300.892 1252.86 300.781 1252.53L356.834 1218.28C357.77 1219.65 359.275 1220.54 360.986 1220.54C362.69 1220.54 364.19 1219.65 365.128 1218.29L421.129 1252.75C421.06 1253.02 421.011 1253.29 421.011 1253.58C421.011 1254.06 421.118 1254.51 421.296 1254.91L366.176 1288.92ZM424.254 1250.44L424.255 1181.72C425.919 1181.63 427.38 1180.75 428.318 1179.41L484.292 1213.56C484.117 1213.96 484.013 1214.4 484.013 1214.87C484.013 1215.35 484.118 1215.8 484.295 1216.2L426.384 1251.73C425.891 1251.02 425.131 1250.53 424.254 1250.44ZM489.425 1213.06C488.985 1212.39 488.305 1211.93 487.522 1211.78V1140.71C488.911 1140.44 489.966 1139.15 489.966 1137.6C489.966 1137.29 489.909 1136.99 489.829 1136.7L547.829 1101.07C548.308 1101.63 548.975 1102 549.724 1102.09V1170.25C546.885 1170.43 544.62 1172.92 544.62 1175.98C544.62 1177.06 544.916 1178.05 545.4 1178.92L489.425 1213.06ZM554.92 1175.98C554.92 1178.85 552.729 1181.18 550.036 1181.18C547.344 1181.18 545.154 1178.85 545.154 1175.98C545.154 1173.12 547.344 1170.78 550.036 1170.78C552.729 1170.78 554.92 1173.12 554.92 1175.98ZM615.295 1135.61C614.75 1134.9 613.927 1134.43 612.993 1134.43C612.059 1134.43 611.236 1134.9 610.69 1135.62L552.792 1100.15C552.933 1099.78 553.013 1099.38 553.013 1098.95C553.013 1098.47 552.903 1098.02 552.721 1097.61L608.455 1063.47C609.422 1065.05 611.09 1066.1 612.992 1066.1C615.98 1066.1 618.409 1063.52 618.409 1060.34C618.409 1057.25 616.104 1054.73 613.228 1054.6L612.869 986.14C612.941 986.146 613.01 986.163 613.083 986.163C613.992 986.163 614.796 985.721 615.341 985.038L672.533 1020.18C672.347 1020.6 672.234 1021.05 672.234 1021.54C672.234 1023.29 673.566 1024.71 675.21 1024.71C675.296 1024.71 675.377 1024.69 675.461 1024.68L675.462 1093.52C672.828 1093.76 670.754 1096.09 670.754 1098.96C670.754 1099.8 670.947 1100.58 671.265 1101.3C659 1108.84 624.931 1129.71 615.295 1135.61Z" fill="#33C481" fill-opacity="0.5"/>
<path opacity="0.46" d="M1807.53 459.54L1807.53 390.368C1808.51 389.85 1809.19 388.785 1809.19 387.541C1809.19 385.792 1807.85 384.374 1806.21 384.374C1805.41 384.374 1804.69 384.712 1804.16 385.255L1746.88 350.056C1746.99 349.723 1747.06 349.369 1747.06 348.994C1747.06 347.438 1746 346.15 1744.61 345.884L1744.53 274.805C1745.92 274.536 1746.97 273.25 1746.97 271.696C1746.97 271.318 1746.9 270.961 1746.78 270.625L1802.88 235.917C1803.81 237.322 1805.35 238.246 1807.08 238.246C1809.93 238.246 1812.23 235.792 1812.23 232.766C1812.23 229.902 1810.16 227.579 1807.53 227.333L1807.61 158.471C1809 158.205 1810.06 156.917 1810.06 155.361C1810.06 153.612 1808.73 152.194 1807.08 152.194C1806.1 152.194 1805.23 152.709 1804.69 153.493L1746.87 117.771C1746.99 117.436 1747.06 117.08 1747.06 116.702C1747.06 115.146 1746 113.858 1744.61 113.592L1744.53 42.4943C1745.96 42.264 1747.06 40.9615 1747.06 39.3753C1747.06 37.6262 1745.73 36.2085 1744.08 36.2085C1743.12 36.2085 1742.27 36.7029 1741.73 37.4571L1685.78 2.78784C1686.01 2.17265 1686.14 1.50507 1686.14 0.802719C1686.14 -2.22397 1683.84 -4.67749 1680.99 -4.67749C1679.2 -4.67749 1677.63 -3.70282 1676.7 -2.22708L1622.8 -35.5824C1623.18 -36.3652 1623.41 -37.2382 1623.41 -38.175C1623.41 -41.3531 1620.98 -43.9389 1617.99 -43.9389C1615 -43.9389 1612.57 -41.3531 1612.57 -38.175C1612.57 -37.2107 1612.82 -36.3154 1613.21 -35.5155L1559.31 -2.44287C1558.49 -3.77286 1557.16 -4.70602 1555.61 -4.90677V-73.7577C1556.96 -74.0632 1557.97 -75.3314 1557.97 -76.8523C1557.97 -78.6014 1556.63 -80.0196 1554.99 -80.0196C1554.03 -80.0196 1553.18 -79.5268 1552.64 -78.7741L1497.12 -113.079C1497.12 -113.149 1497.14 -113.216 1497.14 -113.287C1497.14 -116.313 1494.83 -118.767 1491.99 -118.767C1490.83 -118.767 1489.77 -118.343 1488.9 -117.653L1433.85 -151.568C1434.25 -152.37 1434.49 -153.269 1434.49 -154.237C1434.49 -157.415 1432.06 -160 1429.08 -160C1426.09 -160 1423.66 -157.415 1423.66 -154.237C1423.66 -153.305 1423.89 -152.438 1424.26 -151.659L1370.26 -118.483C1369.33 -119.909 1367.78 -120.846 1366.03 -120.846C1363.18 -120.846 1360.88 -118.392 1360.88 -115.365C1360.88 -114.613 1361.03 -113.9 1361.29 -113.249L1305.35 -78.8743C1304.8 -79.5678 1303.99 -80.0185 1303.07 -80.0185C1301.43 -80.0185 1300.1 -78.6004 1300.1 -76.8513C1300.1 -75.3299 1301.11 -74.0616 1302.45 -73.7561V-2.56166C1301.64 -2.40346 1300.94 -1.91534 1300.5 -1.21092L1240.07 -38.3923L1181.56 -2.49837C1180.61 -4.13284 1178.92 -5.23146 1176.98 -5.23146C1173.99 -5.23146 1171.56 -2.64568 1171.56 0.532471C1171.56 3.61363 1173.85 6.11591 1176.71 6.26738V78.0573L1235.43 114.177C1235.09 114.91 1234.87 115.726 1234.87 116.6C1234.87 117.42 1235.06 118.19 1235.36 118.888L1179.24 153.268C1178.69 152.583 1177.89 152.139 1176.98 152.139C1175.33 152.139 1174 153.558 1174 155.307C1174 156.862 1175.06 158.149 1176.45 158.416V229.72C1175.06 229.988 1174 231.275 1174 232.829C1174 233.203 1174.07 233.557 1174.19 233.89L1116.37 269.41C1115.83 268.625 1114.96 268.11 1113.98 268.11C1112.33 268.11 1111 269.528 1111 271.277C1111 272.832 1112.05 274.119 1113.44 274.387V345.075C1112.05 345.344 1111 346.63 1111 348.185C1111 349.934 1112.33 351.352 1113.98 351.352C1114.67 351.352 1115.3 351.089 1115.81 350.666L1172.26 385.215C1171.98 385.884 1171.83 386.62 1171.83 387.395C1171.83 390.228 1173.85 392.531 1176.44 392.818V461.513C1175.06 461.781 1174 463.068 1174 464.622C1174 466.274 1175.19 467.615 1176.71 467.761V542.388L1235.18 578.307C1234.8 579.096 1234.56 579.978 1234.56 580.926C1234.56 584.104 1236.99 586.689 1239.98 586.689C1242.97 586.689 1245.4 584.104 1245.4 580.926C1245.4 579.977 1245.16 579.094 1244.77 578.303L1303.25 542.333V470.26C1304.85 470.171 1306.24 469.3 1307.13 468.011L1363.27 502.499C1363.16 502.819 1363.1 503.156 1363.1 503.514C1363.1 505.035 1364.11 506.304 1365.45 506.609V577.955C1364.06 578.223 1363.01 579.509 1363.01 581.065C1363.01 582.814 1364.34 584.231 1365.98 584.231C1366.92 584.231 1367.74 583.763 1368.29 583.047L1426.19 618.522C1426.08 618.853 1426.01 619.208 1426.01 619.581C1426.01 621.33 1427.34 622.748 1428.98 622.748C1429.99 622.748 1430.87 622.215 1431.41 621.405L1486.66 655.491C1486.61 655.813 1486.57 656.141 1486.57 656.479C1486.57 659.657 1489 662.243 1491.99 662.243C1494.97 662.243 1497.4 659.657 1497.4 656.479C1497.4 656.141 1497.36 655.814 1497.31 655.492L1552.56 621.405C1553.1 622.216 1553.98 622.748 1554.99 622.748C1556.63 622.748 1557.96 621.33 1557.96 619.582C1557.96 619.293 1557.91 619.02 1557.85 618.755L1615.91 583.136C1616.44 583.695 1617.18 584.043 1617.99 584.043C1619.63 584.043 1620.97 582.624 1620.97 580.876C1620.97 580.403 1620.86 579.959 1620.69 579.556L1676.69 545.391C1677.68 546.812 1679.25 547.747 1681.04 547.747C1684.02 547.747 1686.45 545.161 1686.45 541.983C1686.45 538.884 1684.14 536.369 1681.26 536.242V468.098C1682.03 468.037 1682.72 467.666 1683.21 467.102L1741.18 502.612C1741.08 502.925 1741.02 503.253 1741.02 503.6C1741.02 505.349 1742.35 506.767 1743.99 506.767C1745.64 506.767 1746.97 505.349 1746.97 503.6C1746.97 503.252 1746.9 502.924 1746.81 502.611C1751.89 499.5 1763.82 492.188 1775.76 484.867C1783.63 480.04 1791.51 475.21 1797.42 471.584C1799.7 470.18 1801.45 469.107 1802.82 468.262C1803.76 469.575 1805.23 470.435 1806.9 470.435C1809.75 470.435 1812.05 467.982 1812.05 464.955C1812.05 462.155 1810.07 459.871 1807.53 459.54ZM1743.34 352.049L1743.7 420.605C1740.85 420.773 1738.58 423.267 1738.58 426.338C1738.58 427.289 1738.82 428.175 1739.2 428.967L1683.45 463.118C1683.01 462.45 1682.32 461.993 1681.52 461.851V392.966C1684.11 392.678 1686.14 390.375 1686.14 387.542C1686.14 386.751 1685.98 386.003 1685.69 385.324L1741.82 351.032C1742.21 351.518 1742.73 351.882 1743.34 352.049ZM1743.99 421.141C1746.69 421.141 1748.88 423.472 1748.88 426.338C1748.88 429.203 1746.69 431.534 1743.99 431.534C1741.3 431.534 1739.11 429.203 1739.11 426.338C1739.11 423.472 1741.3 421.141 1743.99 421.141ZM1615.55 579.062L1559.61 544.937C1560.1 544.069 1560.4 543.066 1560.4 541.982C1560.4 538.9 1558.11 536.398 1555.25 536.247L1555.25 470.416C1556.91 470.356 1558.36 469.456 1559.27 468.111L1615.15 502.692C1615.07 502.981 1615.01 503.282 1615.01 503.599C1615.01 505.154 1616.07 506.441 1617.46 506.709V577.779C1616.67 577.932 1615.99 578.394 1615.55 579.062ZM1424.1 541.982C1424.1 539.116 1426.29 536.784 1428.98 536.784C1431.68 536.784 1433.87 539.116 1433.87 541.982C1433.87 544.847 1431.68 547.179 1428.98 547.179C1426.29 547.179 1424.1 544.847 1424.1 541.982ZM1429.25 616.442V547.717C1432.11 547.566 1434.4 545.063 1434.4 541.982C1434.4 541.11 1434.21 540.293 1433.88 539.551L1489.5 505.527C1489.94 506.236 1490.64 506.726 1491.45 506.885V575.64C1488.86 575.928 1486.84 578.231 1486.84 581.064C1486.84 581.863 1487.01 582.618 1487.3 583.303L1431.25 617.545C1430.75 616.934 1430.05 616.519 1429.25 616.442ZM1239.98 500.457C1239.07 500.457 1238.27 500.9 1237.72 501.583L1179.68 465.923C1179.85 465.526 1179.95 465.089 1179.95 464.622C1179.95 464.206 1179.87 463.811 1179.74 463.447L1235.43 429.41C1236.4 431.004 1238.07 432.068 1239.98 432.068C1241.89 432.068 1243.56 431.004 1244.53 429.41L1298.41 462.338C1298.05 463.083 1297.83 463.914 1297.83 464.807C1297.83 465.607 1298 466.358 1298.29 467.04L1242.24 501.58C1241.69 500.898 1240.89 500.457 1239.98 500.457ZM1182.13 387.395C1182.13 386.619 1181.97 385.884 1181.7 385.215L1237.39 351.13C1237.9 352.099 1238.86 352.761 1239.98 352.761C1241.09 352.761 1242.05 352.102 1242.56 351.137L1300.19 386.59C1300.08 386.924 1300 387.278 1300 387.653C1300 389.208 1301.06 390.495 1302.45 390.763V459.364C1300.86 459.539 1299.49 460.481 1298.66 461.84L1244.78 428.912C1245.16 428.125 1245.4 427.247 1245.4 426.303C1245.4 423.125 1242.97 420.539 1239.98 420.539C1236.99 420.539 1234.56 423.125 1234.56 426.303C1234.56 427.247 1234.8 428.125 1235.18 428.912L1179.49 462.943C1179.06 462.207 1178.34 461.694 1177.51 461.53V392.818C1180.1 392.531 1182.13 390.228 1182.13 387.395ZM1240.25 265.825V194.231L1298.74 158.244C1299.55 159.592 1300.89 160.54 1302.45 160.743V229.535C1301.06 229.803 1300 231.09 1300 232.644C1300 233.073 1300.09 233.48 1300.23 233.853L1244.14 268.086C1243.25 266.79 1241.85 265.914 1240.25 265.825ZM1370.91 -38.0655C1370.91 -35.1996 1368.72 -32.868 1366.03 -32.868C1363.33 -32.868 1361.14 -35.1991 1361.14 -38.0655C1361.14 -40.9309 1363.33 -43.262 1366.03 -43.262C1368.72 -43.262 1370.91 -40.9309 1370.91 -38.0655ZM1371.44 -38.0655C1371.44 -41.1327 1369.18 -43.6235 1366.33 -43.7963L1366.26 -109.91C1367.93 -109.99 1369.39 -110.917 1370.28 -112.294L1426.27 -77.7927C1426.17 -77.4685 1426.1 -77.1262 1426.1 -76.7641C1426.1 -75.2106 1427.15 -73.9242 1428.54 -73.655L1428.46 -4.90936C1426.89 -4.70862 1425.55 -3.75676 1424.74 -2.40344L1370.84 -35.4751C1371.21 -36.2562 1371.44 -37.1282 1371.44 -38.0655ZM1491.8 -107.826L1491.72 -38.2268L1433.37 -2.48282C1432.53 -3.84236 1431.13 -4.77086 1429.52 -4.92024L1429.6 -73.6529C1431 -73.9195 1432.05 -75.2069 1432.05 -76.7631C1432.05 -77.1251 1431.98 -77.4675 1431.88 -77.7917L1487.06 -111.789C1487.66 -109.562 1489.53 -107.913 1491.8 -107.826ZM1429.07 6.01009C1430.77 6.01009 1432.26 5.12569 1433.2 3.77858L1489.19 38.1771C1489.08 38.5096 1489.01 38.8628 1489.01 39.2363C1489.01 40.7914 1490.06 42.0783 1491.45 42.346V111.51C1488.88 111.819 1486.88 114.113 1486.88 116.929C1486.88 117.68 1487.02 118.397 1487.28 119.049L1431.32 153.377C1430.83 152.708 1430.1 152.249 1429.25 152.168V83.1339C1432.11 82.9825 1434.4 80.4797 1434.4 77.3985C1434.4 74.2204 1431.97 71.6351 1428.99 71.6351C1426.92 71.6351 1425.15 72.8826 1424.23 74.6924L1370.57 41.6763C1370.92 40.9387 1371.13 40.1176 1371.13 39.2357C1371.13 38.4722 1370.99 37.7465 1370.72 37.0857L1424.89 3.70802C1425.83 5.09714 1427.35 6.01009 1429.07 6.01009ZM1680.73 6.25491L1680.82 77.7782L1620.41 115.102C1619.98 114.442 1619.3 113.985 1618.53 113.831L1618.61 42.486C1620 42.2194 1621.06 40.9319 1621.06 39.3758C1621.06 39.0397 1620.99 38.7217 1620.9 38.4177L1676.74 3.87143C1677.62 5.24031 1679.07 6.16518 1680.73 6.25491ZM1743.46 274.807L1743.55 345.899C1742.77 346.053 1742.09 346.511 1741.66 347.173L1686.14 312.975C1686.33 312.392 1686.45 311.777 1686.45 311.127C1686.45 307.948 1684.02 305.363 1681.04 305.363C1678.05 305.363 1675.62 307.948 1675.62 311.127C1675.62 311.757 1675.74 312.353 1675.92 312.921L1620.39 347.033C1619.94 346.408 1619.28 345.98 1618.52 345.842V276.912C1621.16 276.67 1623.23 274.345 1623.23 271.479C1623.23 270.671 1623.06 269.91 1622.76 269.218L1676.81 236.199C1677.74 237.59 1679.26 238.504 1680.99 238.504C1682.72 238.504 1684.23 237.594 1685.17 236.21L1741.2 270.636C1741.09 270.969 1741.02 271.323 1741.02 271.696C1741.02 273.252 1742.07 274.54 1743.46 274.807ZM1617.72 352.081V426.16L1559.31 461.84C1558.46 460.534 1557.09 459.646 1555.52 459.503V390.505C1556.91 390.237 1557.96 388.95 1557.96 387.395C1557.96 387.067 1557.9 386.757 1557.82 386.459L1615.71 350.893C1616.19 351.541 1616.91 351.989 1617.72 352.081ZM1554.72 470.396L1554.72 536.246C1552.8 536.348 1551.15 537.515 1550.27 539.21L1494.72 505.036C1494.88 504.653 1494.96 504.233 1494.96 503.791C1494.96 503.33 1494.87 502.895 1494.7 502.5L1550.83 468.016C1551.69 469.359 1553.1 470.276 1554.72 470.396ZM1363.47 272.786L1305.51 308.118C1304.77 305.857 1302.78 304.219 1300.41 304.219C1298.97 304.219 1297.67 304.826 1296.7 305.799L1244.55 273.756C1244.91 273.009 1245.13 272.174 1245.13 271.277C1245.13 270.485 1244.96 269.741 1244.68 269.064L1300.82 234.804C1301.36 235.421 1302.12 235.812 1302.98 235.812C1303.84 235.812 1304.6 235.421 1305.15 234.804L1363.26 270.27C1363.16 270.587 1363.1 270.923 1363.1 271.277C1363.1 271.826 1363.24 272.336 1363.47 272.786ZM1305.29 309.983C1305.29 312.849 1303.1 315.179 1300.41 315.179C1297.71 315.179 1295.52 312.849 1295.52 309.983C1295.52 307.118 1297.71 304.786 1300.41 304.786C1303.1 304.786 1305.29 307.118 1305.29 309.983ZM1303.25 149.845L1303.34 78.2171L1361.69 42.263C1362.52 43.5919 1363.88 44.5079 1365.45 44.6802V113.707C1364.06 113.975 1363.01 115.261 1363.01 116.817C1363.01 117.125 1363.06 117.416 1363.14 117.697L1307.25 152.13C1306.34 150.799 1304.9 149.907 1303.25 149.845ZM1428.72 83.1339V152.167C1427.91 152.245 1427.2 152.671 1426.7 153.296L1368.83 117.695C1368.91 117.415 1368.96 117.124 1368.96 116.817C1368.96 115.262 1367.9 113.975 1366.52 113.707V44.6791C1368.12 44.5022 1369.49 43.5478 1370.32 42.1748L1423.98 75.194C1423.72 75.874 1423.57 76.6174 1423.57 77.3985C1423.57 80.4797 1425.86 82.983 1428.72 83.1339ZM1492.03 122.408C1493.77 122.408 1495.3 121.486 1496.23 120.083L1552.21 154.521C1552.14 154.774 1552.1 155.033 1552.1 155.306C1552.1 156.829 1553.11 158.098 1554.46 158.402L1554.54 229.659C1553.71 229.795 1552.98 230.277 1552.52 230.991L1496.8 196.798C1497.17 196.015 1497.4 195.142 1497.4 194.204C1497.4 191.026 1494.97 188.441 1491.99 188.441C1489 188.441 1486.57 191.026 1486.57 194.204C1486.57 195.144 1486.8 196.019 1487.18 196.804L1431.49 231.065C1431.05 230.341 1430.34 229.836 1429.52 229.673L1429.6 158.402C1430.95 158.098 1431.96 156.829 1431.96 155.306C1431.96 154.981 1431.9 154.675 1431.82 154.381L1487.8 120.04C1488.73 121.469 1490.27 122.408 1492.03 122.408ZM1554.72 235.904L1554.81 310.069L1497.08 345.494C1496.82 342.938 1494.92 340.927 1492.52 340.66V275.574C1495.13 275.308 1497.18 272.994 1497.18 270.145C1497.18 269.741 1497.14 269.35 1497.06 268.971L1552.76 234.842C1553.25 235.433 1553.94 235.83 1554.72 235.904ZM1429.26 304.506L1429.34 235.895C1430.11 235.796 1430.79 235.379 1431.27 234.775L1486.99 269.012C1486.92 269.379 1486.88 269.757 1486.88 270.146C1486.88 272.962 1488.88 275.254 1491.45 275.564V340.66C1489.06 340.927 1487.17 342.926 1486.89 345.47L1433.87 312.68C1434.2 311.937 1434.4 311.116 1434.4 310.242C1434.4 307.162 1432.12 304.661 1429.26 304.506ZM1303.51 229.535V160.756C1305.12 160.609 1306.52 159.686 1307.36 158.332L1359.95 190.726C1359.37 191.645 1359.03 192.75 1359.03 193.939C1359.03 197.117 1361.46 199.702 1364.44 199.702C1364.92 199.702 1365.37 199.617 1365.81 199.495L1365.81 268.139C1364.99 268.217 1364.28 268.649 1363.78 269.281L1305.73 233.853C1305.88 233.48 1305.96 233.073 1305.96 232.644C1305.96 231.09 1304.9 229.803 1303.51 229.535ZM1365.98 119.984C1366.96 119.984 1367.81 119.48 1368.35 118.713L1426.18 154.283C1426.07 154.604 1426.01 154.946 1426.01 155.306C1426.01 155.833 1426.14 156.322 1426.35 156.759L1369.45 191.764C1368.64 189.662 1366.71 188.175 1364.44 188.175C1362.77 188.175 1361.29 189.006 1360.29 190.282L1307.62 157.834C1307.99 157.074 1308.22 156.223 1308.22 155.306C1308.22 154.522 1308.06 153.783 1307.78 153.111L1363.61 118.715C1364.16 119.481 1365.01 119.984 1365.98 119.984ZM1431.74 231.567L1487.43 197.302C1488.4 198.9 1490.07 199.967 1491.99 199.967C1493.9 199.967 1495.58 198.897 1496.54 197.296L1552.27 231.488C1552.11 231.88 1552.01 232.31 1552.01 232.766C1552.01 233.156 1552.08 233.528 1552.21 233.872L1496.71 267.877C1495.9 265.986 1494.11 264.664 1492.03 264.664C1489.94 264.664 1488.14 266.001 1487.34 267.913L1431.79 233.788C1431.9 233.466 1431.96 233.126 1431.96 232.766C1431.96 232.341 1431.88 231.937 1431.74 231.567ZM1487.1 194.204C1487.1 191.338 1489.29 189.007 1491.99 189.007C1494.68 189.007 1496.87 191.338 1496.87 194.204C1496.87 197.069 1494.68 199.4 1491.99 199.4C1489.29 199.4 1487.1 197.069 1487.1 194.204ZM1369.33 193.939C1369.33 196.804 1367.14 199.135 1364.44 199.135C1361.75 199.135 1359.56 196.804 1359.56 193.939C1359.56 191.073 1361.75 188.741 1364.44 188.741C1367.14 188.741 1369.33 191.072 1369.33 193.939ZM1366.34 268.138L1366.34 199.318C1368.39 198.496 1369.86 196.404 1369.86 193.938C1369.86 193.372 1369.76 192.836 1369.62 192.319L1426.64 157.236C1427.1 157.863 1427.77 158.289 1428.54 158.416L1428.46 229.655C1427.07 229.922 1426.01 231.209 1426.01 232.766C1426.01 233.123 1426.07 233.461 1426.18 233.781L1368.31 269.201C1367.81 268.611 1367.12 268.214 1366.34 268.138ZM1433.87 310.241C1433.87 313.107 1431.68 315.438 1428.98 315.438C1426.29 315.438 1424.1 313.107 1424.1 310.241C1424.1 307.376 1426.29 305.044 1428.98 305.044C1431.68 305.044 1433.87 307.376 1433.87 310.241ZM1424.1 77.3985C1424.1 74.5332 1426.29 72.2021 1428.98 72.2021C1431.68 72.2021 1433.87 74.5332 1433.87 77.3985C1433.87 80.2644 1431.68 82.5961 1428.98 82.5961C1426.29 82.5961 1424.1 80.2644 1424.1 77.3985ZM1366.52 274.397C1367.95 274.167 1369.05 272.865 1369.05 271.277C1369.05 270.887 1368.98 270.516 1368.86 270.172L1426.7 234.77C1427.21 235.421 1427.96 235.859 1428.8 235.914L1428.72 304.505C1425.86 304.653 1423.57 307.157 1423.57 310.242C1423.57 311.116 1423.77 311.937 1424.09 312.68L1368.44 347.103C1368 346.421 1367.31 345.95 1366.52 345.796L1366.52 274.397ZM1368.69 347.598L1424.35 313.178C1425.3 314.862 1427.01 316.005 1428.98 316.005C1430.96 316.005 1432.67 314.862 1433.62 313.178L1486.84 346.09C1486.84 347.708 1487.51 349.139 1488.56 350.136L1431.22 385.365C1430.68 384.758 1429.92 384.375 1429.07 384.375C1428.19 384.375 1427.4 384.793 1426.86 385.443L1368.77 349.992C1368.89 349.649 1368.96 349.281 1368.96 348.892C1368.96 348.429 1368.86 347.994 1368.69 347.598ZM1429.52 390.661C1430.95 390.43 1432.05 389.128 1432.05 387.542C1432.05 387.106 1431.96 386.691 1431.81 386.313L1489.52 350.857C1490.18 351.241 1490.92 351.494 1491.72 351.539V420.495C1488.86 420.647 1486.57 423.149 1486.57 426.231C1486.57 427.155 1486.79 428.016 1487.16 428.791L1433.3 461.833C1432.47 460.478 1431.1 459.539 1429.52 459.364V390.661H1429.52ZM1487.1 426.231C1487.1 423.365 1489.29 421.033 1491.99 421.033C1494.68 421.033 1496.87 423.365 1496.87 426.231C1496.87 429.097 1494.68 431.427 1491.99 431.427C1489.29 431.427 1487.1 429.096 1487.1 426.231ZM1497.13 346.115L1555.21 310.479L1555.34 310.397L1555.26 235.904C1556.07 235.825 1556.78 235.398 1557.27 234.77L1613.36 269.288C1613.09 269.96 1612.93 270.699 1612.93 271.48C1612.93 274.279 1614.91 276.563 1617.46 276.894V345.843C1616.09 346.129 1615.06 347.409 1615.06 348.948C1615.06 349.279 1615.12 349.593 1615.21 349.892L1557.32 385.453C1556.78 384.713 1555.94 384.228 1554.99 384.228C1554.04 384.228 1553.2 384.711 1552.66 385.449L1495.4 350.141C1496.45 349.149 1497.13 347.726 1497.13 346.115ZM1618.26 352.09C1619.1 352.024 1619.83 351.582 1620.33 350.931L1676.3 385.311C1676.01 385.994 1675.84 386.746 1675.84 387.542C1675.84 390.375 1677.87 392.678 1680.46 392.965V461.864C1679.69 462.027 1679.02 462.492 1678.59 463.155L1618.26 426.16V352.09ZM1680.99 382.062C1679.28 382.062 1677.77 382.962 1676.83 384.333L1620.85 349.939C1620.95 349.626 1621.01 349.296 1621.01 348.947C1621.01 348.428 1620.88 347.946 1620.68 347.514L1676.1 313.466C1676.94 315.479 1678.83 316.89 1681.04 316.89C1683.22 316.89 1685.1 315.5 1685.95 313.514L1741.39 347.665C1741.21 348.071 1741.11 348.519 1741.11 348.996C1741.11 349.368 1741.17 349.724 1741.28 350.055L1685.16 384.344C1684.22 382.966 1682.71 382.062 1680.99 382.062ZM1676.15 311.127C1676.15 308.262 1678.34 305.93 1681.04 305.93C1683.73 305.93 1685.92 308.262 1685.92 311.127C1685.92 313.993 1683.73 316.323 1681.04 316.323C1678.34 316.323 1676.15 313.993 1676.15 311.127ZM1680.46 160.775V227.6C1677.87 227.888 1675.84 230.191 1675.84 233.023C1675.84 233.805 1676 234.544 1676.28 235.217L1622.22 268.243C1621.28 266.889 1619.78 265.999 1618.08 265.999C1616.35 265.999 1614.83 266.914 1613.9 268.305L1557.8 233.783C1557.9 233.463 1557.96 233.124 1557.96 232.766C1557.96 231.243 1556.95 229.972 1555.61 229.669L1555.52 158.425C1556.95 158.194 1558.05 156.892 1558.05 155.306C1558.05 155 1558 154.71 1557.93 154.431L1615.73 118.968C1616.28 119.651 1617.08 120.094 1617.99 120.094C1618.9 120.094 1619.71 119.649 1620.25 118.961L1676.36 153.187C1676.09 153.854 1675.93 154.587 1675.93 155.361C1675.93 158.161 1677.91 160.444 1680.46 160.775ZM1617.54 42.4855L1617.46 113.831C1616.68 113.982 1616 114.441 1615.56 115.103L1559.81 80.7007C1560.23 79.8785 1560.49 78.9484 1560.49 77.9458C1560.49 74.8314 1558.16 72.3017 1555.25 72.201V5.98207C1556.79 5.897 1558.13 5.08678 1559.03 3.88232L1615.25 38.4276C1615.17 38.729 1615.1 39.0438 1615.1 39.3763C1615.1 40.9299 1616.16 42.2163 1617.54 42.4855ZM1555.08 83.1428C1552.39 83.1428 1550.19 80.8117 1550.19 77.9458C1550.19 75.0804 1552.39 72.7493 1555.08 72.7493C1557.77 72.7493 1559.96 75.0804 1559.96 77.9458C1559.96 80.8117 1557.77 83.1428 1555.08 83.1428ZM1554.72 5.98155V72.2207C1551.9 72.421 1549.66 74.8978 1549.66 77.9458C1549.66 81.1239 1552.09 83.7097 1555.08 83.7097C1556.93 83.7097 1558.57 82.7112 1559.55 81.1955L1615.3 115.595C1615.12 116.002 1615.01 116.45 1615.01 116.928C1615.01 117.302 1615.09 117.654 1615.2 117.987L1557.45 153.413C1556.91 152.644 1556.05 152.139 1555.08 152.139C1554.07 152.139 1553.19 152.673 1552.65 153.484L1496.76 119.098C1497.03 118.432 1497.18 117.699 1497.18 116.928C1497.18 114.078 1495.13 111.764 1492.52 111.499V42.3454C1493.91 42.0773 1494.96 40.7908 1494.96 39.2357C1494.96 38.8664 1494.89 38.5173 1494.78 38.188L1551 3.94353C1551.89 5.11324 1553.21 5.89804 1554.72 5.98155ZM1361.44 41.764L1303.34 77.5619L1303.25 3.67017C1304.05 3.59288 1304.74 3.18257 1305.24 2.57672L1361.25 37.0862C1360.98 37.7465 1360.83 38.4727 1360.83 39.2363C1360.83 40.1528 1361.06 41.004 1361.44 41.764ZM1302.72 3.67068L1302.81 77.8892L1244.35 113.648C1243.52 112.268 1242.13 111.316 1240.51 111.153V42.4072C1241.92 42.1587 1243 40.864 1243 39.2923C1243 38.9256 1242.93 38.5796 1242.82 38.2518L1300.73 2.57619C1301.22 3.18413 1301.92 3.59547 1302.72 3.67068ZM1244.61 114.146L1302.8 78.5434L1302.72 149.863C1301.11 149.98 1299.71 150.886 1298.84 152.214L1244.67 118.936C1244.98 118.225 1245.17 117.439 1245.17 116.6C1245.17 115.713 1244.96 114.887 1244.61 114.146ZM1239.98 431.501C1237.29 431.501 1235.1 429.169 1235.1 426.303C1235.1 423.437 1237.29 421.106 1239.98 421.106C1242.67 421.106 1244.86 423.437 1244.86 426.303C1244.86 429.169 1242.67 431.501 1239.98 431.501ZM1302.98 384.486C1302.07 384.486 1301.27 384.928 1300.72 385.61L1242.91 350.043C1242.93 349.895 1242.96 349.747 1242.96 349.594C1242.96 348.039 1241.9 346.752 1240.51 346.484V276.721C1242.1 276.546 1243.47 275.609 1244.29 274.255L1296.33 306.226C1295.51 307.238 1294.99 308.542 1294.99 309.984C1294.99 313.162 1297.42 315.747 1300.41 315.747C1303.39 315.747 1305.82 313.162 1305.82 309.984C1305.82 309.531 1305.76 309.095 1305.67 308.672L1363.77 273.258C1364.19 273.811 1364.77 274.21 1365.45 274.366V345.781C1364.06 346.049 1363 347.336 1363 348.891C1363 349.283 1363.08 349.656 1363.2 350.002L1305.24 385.611C1304.69 384.929 1303.89 384.486 1302.98 384.486ZM1371.49 426.231C1371.49 423.116 1369.15 420.587 1366.25 420.485V352.03C1367.03 351.955 1367.73 351.557 1368.22 350.965L1426.3 386.41C1426.17 386.762 1426.09 387.142 1426.09 387.542C1426.09 389.066 1427.11 390.336 1428.45 390.639V459.364C1426.86 459.539 1425.49 460.482 1424.66 461.843L1370.81 428.976C1371.23 428.156 1371.49 427.23 1371.49 426.231ZM1366.07 431.427C1363.38 431.427 1361.19 429.096 1361.19 426.231C1361.19 423.365 1363.38 421.033 1366.07 421.033C1368.77 421.033 1370.96 423.365 1370.96 426.231C1370.96 429.097 1368.77 431.427 1366.07 431.427ZM1433.55 462.33L1487.41 429.289C1488.37 430.908 1490.06 431.994 1491.99 431.994C1494.97 431.994 1497.4 429.408 1497.4 426.231C1497.4 423.149 1495.11 420.646 1492.25 420.495V351.539C1493.05 351.495 1493.78 351.243 1494.44 350.861L1552.16 386.455C1552.07 386.754 1552.01 387.066 1552.01 387.396C1552.01 388.95 1553.07 390.237 1554.45 390.505V459.541C1551.91 459.872 1549.93 462.155 1549.93 464.954C1549.93 465.689 1550.07 466.386 1550.31 467.024L1494.1 501.561C1493.56 500.983 1492.81 500.625 1491.99 500.625C1491.16 500.625 1490.41 500.984 1489.87 501.562L1433.68 467.038C1433.97 466.356 1434.13 465.604 1434.13 464.808C1434.13 463.911 1433.91 463.077 1433.55 462.33ZM1492.52 575.641V506.886C1493.33 506.728 1494.03 506.24 1494.47 505.535L1550.01 539.709C1549.73 540.407 1549.57 541.175 1549.57 541.983C1549.57 545.064 1551.86 547.567 1554.72 547.718L1554.72 616.443C1553.85 616.527 1553.09 617.017 1552.59 617.728L1496.67 583.32C1496.96 582.631 1497.14 581.871 1497.14 581.065C1497.14 578.231 1495.11 575.928 1492.52 575.641ZM1550.1 541.982C1550.1 539.116 1552.3 536.784 1554.99 536.784C1557.68 536.784 1559.87 539.116 1559.87 541.982C1559.87 544.847 1557.68 547.179 1554.99 547.179C1552.3 547.179 1550.1 544.847 1550.1 541.982ZM1617.99 500.432C1617.03 500.432 1616.18 500.926 1615.64 501.679L1559.8 467.127C1560.07 466.461 1560.23 465.729 1560.23 464.954C1560.23 463.999 1559.98 463.114 1559.57 462.332L1617.99 426.65L1678.33 463.65C1678.16 464.049 1678.06 464.488 1678.06 464.954C1678.06 465.361 1678.13 465.749 1678.26 466.105L1620.35 501.687C1619.8 500.929 1618.95 500.432 1617.99 500.432ZM1804.23 154.518C1804.16 154.788 1804.11 155.068 1804.11 155.362C1804.11 156.915 1805.16 158.202 1806.55 158.471L1806.47 227.352C1803.92 227.681 1801.93 229.965 1801.93 232.767C1801.93 233.536 1802.09 234.267 1802.36 234.932L1746.24 269.648C1745.7 268.97 1744.9 268.53 1743.99 268.53C1743.08 268.53 1742.28 268.973 1741.73 269.656L1685.7 235.23C1685.98 234.554 1686.14 233.81 1686.14 233.024C1686.14 230.192 1684.11 227.889 1681.52 227.601V160.795C1684.16 160.552 1686.23 158.227 1686.23 155.362C1686.23 154.55 1686.06 153.787 1685.76 153.094L1741.82 118.742C1742.37 119.427 1743.17 119.871 1744.08 119.871C1744.99 119.871 1745.79 119.431 1746.34 118.751L1804.23 154.518ZM1741.25 38.4696C1741.16 38.7585 1741.11 39.0583 1741.11 39.3758C1741.11 40.8982 1742.12 42.1675 1743.46 42.472L1743.55 113.594C1742.16 113.863 1741.11 115.149 1741.11 116.703C1741.11 117.076 1741.18 117.429 1741.29 117.761L1685.21 152.12C1684.28 150.769 1682.78 149.881 1681.08 149.881C1679.35 149.881 1677.82 150.802 1676.88 152.203L1620.78 117.98C1620.89 117.65 1620.97 117.299 1620.97 116.929C1620.97 116.45 1620.86 116.001 1620.68 115.594L1681.22 78.1875L1681.35 78.1056L1681.26 6.25389C1682.95 6.15845 1684.42 5.20607 1685.3 3.79778L1741.25 38.4696ZM1613.11 -38.176C1613.11 -41.0419 1615.3 -43.3735 1617.99 -43.3735C1620.68 -43.3735 1622.87 -41.0424 1622.87 -38.176C1622.87 -35.3106 1620.68 -32.9795 1617.99 -32.9795C1615.3 -32.979 1613.11 -35.3106 1613.11 -38.176ZM1613.47 -35.0186C1614.44 -33.4521 1616.1 -32.4126 1617.99 -32.4126C1619.91 -32.4126 1621.58 -33.4827 1622.55 -35.0845L1676.45 -1.72913C1676.07 -0.968689 1675.84 -0.11644 1675.84 0.8022C1675.84 1.53825 1675.98 2.23851 1676.23 2.87808L1620.4 37.4166C1619.86 36.6863 1619.02 36.2091 1618.08 36.2091C1617.13 36.2091 1616.3 36.6894 1615.75 37.4239L1559.6 2.9227C1559.93 2.19806 1560.14 1.39406 1560.14 0.529877C1560.14 -0.365936 1559.92 -1.19847 1559.56 -1.94542L1613.47 -35.0186ZM1552.15 -77.7626C1552.07 -77.4727 1552.01 -77.1708 1552.01 -76.8523C1552.01 -75.264 1553.11 -73.9615 1554.55 -73.7328V-4.90312C1551.91 -4.66089 1549.84 -2.33601 1549.84 0.529877C1549.84 1.42207 1550.06 2.24994 1550.41 2.99118L1494.25 37.2045C1493.71 36.5156 1492.9 36.069 1491.99 36.069C1491.08 36.069 1490.27 36.512 1489.73 37.1962L1433.75 2.80443C1434.05 2.10988 1434.22 1.34425 1434.22 0.530396C1434.22 -0.380997 1434 -1.22752 1433.63 -1.98381L1492.12 -37.817L1492.25 -37.899L1492.33 -107.843C1494.56 -108.004 1496.38 -109.661 1496.94 -111.876L1552.15 -77.7626ZM1424.19 -154.237C1424.19 -157.102 1426.38 -159.433 1429.08 -159.433C1431.77 -159.433 1433.96 -157.102 1433.96 -154.237C1433.96 -151.371 1431.77 -149.039 1429.08 -149.039C1426.38 -149.04 1424.19 -151.371 1424.19 -154.237ZM1424.51 -151.161C1425.47 -149.551 1427.15 -148.472 1429.08 -148.472C1430.96 -148.472 1432.62 -149.508 1433.59 -151.07L1488.47 -117.268C1487.47 -116.268 1486.84 -114.86 1486.84 -113.286C1486.84 -113.182 1486.86 -113.084 1486.86 -112.982L1431.35 -78.7788C1430.81 -79.4765 1430 -79.9298 1429.08 -79.9298C1428.16 -79.9298 1427.34 -79.4765 1426.8 -78.7788L1370.79 -113.286C1371.04 -113.926 1371.18 -114.628 1371.18 -115.366C1371.18 -116.323 1370.93 -117.209 1370.52 -117.992L1424.51 -151.161ZM1361.81 -112.261C1362.68 -110.927 1364.1 -110.021 1365.72 -109.918L1365.8 -43.8046C1362.92 -43.6749 1360.61 -41.1607 1360.61 -38.0655C1360.61 -34.8874 1363.04 -32.3016 1366.03 -32.3016C1367.94 -32.3016 1369.62 -33.3727 1370.58 -34.975L1424.48 -1.90341C1424.14 -1.16736 1423.92 -0.348816 1423.92 0.529358C1423.92 1.31158 1424.08 2.05231 1424.36 2.72507L1370.2 36.0975C1369.26 34.6841 1367.73 33.7545 1365.98 33.7545C1364.24 33.7545 1362.7 34.6835 1361.77 36.097L1305.77 1.5979C1305.89 1.26437 1305.96 0.907501 1305.96 0.531433C1305.96 -1.02367 1304.9 -2.31059 1303.51 -2.57825V-73.7328C1304.95 -73.9615 1306.05 -75.2645 1306.05 -76.8523C1306.05 -77.218 1305.98 -77.5635 1305.87 -77.8897L1361.81 -112.261ZM1172.09 0.531952C1172.09 -2.33394 1174.28 -4.66556 1176.98 -4.66556C1179.67 -4.66556 1181.86 -2.33446 1181.86 0.531952C1181.86 3.39732 1179.67 5.72842 1176.98 5.72842C1174.28 5.72894 1172.09 3.39784 1172.09 0.531952ZM1177.24 77.73V6.26685C1180.1 6.11539 1182.39 3.61311 1182.39 0.531952C1182.39 -0.380463 1182.18 -1.23271 1181.82 -2.00041L1240.07 -37.7382L1300.25 -0.712952C1300.09 -0.330658 1300 0.0894928 1300 0.531952C1300 0.90802 1300.07 1.26489 1300.19 1.59843L1242.3 37.2672C1241.75 36.5748 1240.94 36.125 1240.02 36.125C1238.38 36.125 1237.05 37.5432 1237.05 39.2918C1237.05 40.8303 1238.08 42.1099 1239.45 42.3968V111.159C1237.86 111.35 1236.5 112.308 1235.68 113.677L1177.24 77.73ZM1235.91 119.86C1236.84 121.2 1238.33 122.08 1240.02 122.08C1241.7 122.08 1243.17 121.218 1244.11 119.902L1298.32 153.204C1298.07 153.851 1297.92 154.558 1297.92 155.306C1297.92 156.187 1298.13 157.008 1298.48 157.746L1239.71 193.904V265.825C1238.11 265.914 1236.71 266.79 1235.82 268.086L1179.77 233.881C1179.88 233.55 1179.95 233.2 1179.95 232.829C1179.95 231.274 1178.9 229.987 1177.51 229.72V158.416C1178.9 158.148 1179.95 156.861 1179.95 155.306C1179.95 154.933 1179.88 154.581 1179.77 154.249L1235.91 119.86ZM1116.52 349.798C1116.79 349.324 1116.95 348.777 1116.95 348.185C1116.95 346.63 1115.9 345.343 1114.51 345.075V274.387C1115.9 274.118 1116.95 272.832 1116.95 271.277C1116.95 270.983 1116.9 270.704 1116.83 270.435L1174.72 234.871C1175.27 235.554 1176.07 235.996 1176.98 235.996C1177.89 235.996 1178.7 235.551 1179.24 234.864L1235.28 269.064C1235 269.742 1234.83 270.486 1234.83 271.277C1234.83 274.11 1236.86 276.413 1239.45 276.701V346.484C1238.06 346.752 1237 348.039 1237 349.594C1237 349.744 1237.03 349.889 1237.05 350.034L1181.17 384.23C1180.24 382.834 1178.71 381.915 1176.98 381.915C1175.24 381.915 1173.72 382.834 1172.79 384.23L1116.52 349.798ZM1244.86 580.926C1244.86 583.791 1242.67 586.122 1239.98 586.122C1237.29 586.122 1235.1 583.791 1235.1 580.926C1235.1 578.06 1237.29 575.728 1239.98 575.728C1242.67 575.729 1244.86 578.06 1244.86 580.926ZM1302.71 542.005L1244.52 577.805C1243.55 576.218 1241.88 575.162 1239.98 575.162C1238.07 575.162 1236.4 576.22 1235.44 577.808L1177.24 542.06V467.761C1177.95 467.693 1178.59 467.356 1179.06 466.856L1237.19 502.563C1237.07 502.896 1237 503.25 1237 503.624C1237 505.373 1238.34 506.792 1239.98 506.792C1241.62 506.792 1242.96 505.373 1242.96 503.624C1242.96 503.249 1242.88 502.894 1242.77 502.559L1298.84 468.016C1299.72 469.302 1301.12 470.17 1302.72 470.259V542.005H1302.71ZM1307.67 467.033C1307.96 466.352 1308.13 465.604 1308.13 464.807C1308.13 461.974 1306.1 459.671 1303.51 459.384V390.763C1304.9 390.495 1305.96 389.208 1305.96 387.653C1305.96 387.279 1305.89 386.926 1305.77 386.593L1363.75 350.972C1364.24 351.56 1364.94 351.956 1365.72 352.03V420.505C1362.9 420.705 1360.66 423.182 1360.66 426.231C1360.66 429.408 1363.09 431.994 1366.07 431.994C1367.93 431.994 1369.57 430.992 1370.55 429.471L1424.41 462.341C1424.05 463.085 1423.83 463.915 1423.83 464.807C1423.83 465.604 1424 466.355 1424.29 467.037L1368.3 501.434C1367.76 500.773 1366.97 500.347 1366.07 500.347C1365.15 500.347 1364.33 500.805 1363.79 501.509L1307.67 467.033ZM1368.8 582.051C1368.89 581.738 1368.96 581.411 1368.96 581.064C1368.96 579.509 1367.9 578.223 1366.52 577.954V506.633C1367.95 506.404 1369.05 505.101 1369.05 503.513C1369.05 503.122 1368.97 502.751 1368.85 502.405L1424.83 468.016C1425.76 469.387 1427.27 470.288 1428.98 470.288C1430.7 470.288 1432.21 469.387 1433.14 468.016L1489.27 502.5C1489.11 502.895 1489.01 503.33 1489.01 503.791C1489.01 504.23 1489.09 504.648 1489.25 505.028L1433.62 539.053C1432.68 537.364 1430.96 536.217 1428.98 536.217C1426 536.217 1423.57 538.802 1423.57 541.981C1423.57 545.063 1425.86 547.566 1428.72 547.716V616.442C1427.92 616.518 1427.22 616.932 1426.73 617.542L1368.8 582.051ZM1491.99 661.676C1489.29 661.676 1487.1 659.344 1487.1 656.478C1487.1 653.612 1489.29 651.281 1491.99 651.281C1494.68 651.281 1496.87 653.612 1496.87 656.478C1496.87 659.344 1494.68 661.676 1491.99 661.676ZM1497.18 654.918C1496.53 652.501 1494.46 650.714 1491.99 650.714C1489.51 650.714 1487.44 652.501 1486.8 654.918L1431.68 620.914C1431.85 620.508 1431.96 620.059 1431.96 619.581C1431.96 619.209 1431.89 618.857 1431.78 618.526L1487.83 584.282C1488.77 585.647 1490.28 586.545 1491.99 586.545C1493.69 586.545 1495.19 585.653 1496.13 584.295L1552.13 618.749C1552.06 619.015 1552.01 619.291 1552.01 619.581C1552.01 620.059 1552.12 620.508 1552.3 620.914L1497.18 654.918ZM1555.25 616.442L1555.25 547.717C1556.92 547.629 1558.38 546.746 1559.32 545.409L1615.29 579.555C1615.12 579.958 1615.01 580.402 1615.01 580.875C1615.01 581.35 1615.12 581.797 1615.3 582.202L1557.38 617.73C1556.89 617.018 1556.13 616.526 1555.25 616.442ZM1620.42 579.062C1619.98 578.394 1619.31 577.932 1618.52 577.779V506.709C1619.91 506.441 1620.97 505.154 1620.97 503.599C1620.97 503.285 1620.91 502.988 1620.83 502.701L1678.83 467.067C1679.31 467.628 1679.98 468.004 1680.72 468.088V536.251C1677.89 536.426 1675.62 538.916 1675.62 541.982C1675.62 543.057 1675.92 544.053 1676.4 544.915L1620.42 579.062ZM1685.92 541.982C1685.92 544.847 1683.73 547.179 1681.04 547.179C1678.34 547.179 1676.15 544.847 1676.15 541.982C1676.15 539.116 1678.34 536.784 1681.04 536.784C1683.73 536.785 1685.92 539.116 1685.92 541.982ZM1746.3 501.615C1745.75 500.899 1744.93 500.432 1743.99 500.432C1743.06 500.432 1742.24 500.899 1741.69 501.615L1683.79 466.146C1683.93 465.779 1684.01 465.377 1684.01 464.954C1684.01 464.471 1683.9 464.018 1683.72 463.609L1739.46 429.466C1740.42 431.049 1742.09 432.102 1743.99 432.102C1746.98 432.102 1749.41 429.516 1749.41 426.339C1749.41 423.246 1747.1 420.735 1744.23 420.6L1743.87 352.14C1743.94 352.146 1744.01 352.163 1744.08 352.163C1744.99 352.163 1745.8 351.721 1746.34 351.038L1803.53 386.182C1803.35 386.596 1803.23 387.054 1803.23 387.543C1803.23 389.292 1804.57 390.71 1806.21 390.71C1806.3 390.71 1806.38 390.691 1806.46 390.683L1806.46 459.522C1803.83 459.764 1801.75 462.09 1801.75 464.955C1801.75 465.797 1801.95 466.585 1802.27 467.297C1790 474.836 1755.93 495.712 1746.3 501.615Z" fill="#33C481" fill-opacity="0.5"/>
<g filter="url(#filter0_f_1107_590)">
<ellipse cx="1323" cy="636" rx="77" ry="6" fill="white"/>
</g>
</g>
<defs>
<filter id="filter0_f_1107_590" x="1212" y="596" width="222" height="80" filterUnits="userSpaceOnUse" color-interpolation-filters="sRGB">
<feFlood flood-opacity="0" result="BackgroundImageFix"/>
<feBlend mode="normal" in="SourceGraphic" in2="BackgroundImageFix" result="shape"/>
<feGaussianBlur stdDeviation="17" result="effect1_foregroundBlur_1107_590"/>
</filter>
<clipPath id="clip0_1107_590">
<rect width="1705" height="855" fill="white"/>
</clipPath>
</defs>
</svg>
