<svg width="70" height="70" viewBox="0 0 70 70" fill="none" xmlns="http://www.w3.org/2000/svg">
<rect width="70" height="70" rx="35" fill="#33C481" fill-opacity="0.2"/>
<path d="M37.3438 38.125H56.0938V50.625H37.3438V38.125Z" fill="#FF9811"/>
<path d="M57.6562 35V38.125H56.0938H37.3438H35.7812V35H49.8438H57.6562Z" fill="#FF9811"/>
<path d="M48.2812 42.8125H52.9688V47.5H48.2812V42.8125Z" fill="#E6E7E8"/>
<path d="M49.8438 26.4062C50.7067 26.4062 51.4062 25.7067 51.4062 24.8438C51.4062 23.9808 50.7067 23.2812 49.8438 23.2812C48.9808 23.2812 48.2812 23.9808 48.2812 24.8438C48.2812 25.7067 48.9808 26.4062 49.8438 26.4062Z" fill="#FF9811"/>
<path d="M40.4688 42.8125H45.1562V50.625H40.4688V42.8125Z" fill="#E6E7E8"/>
<path d="M32.3594 36.6641L31.5781 38.0234L24.0703 34.3672L22.5 33.6094V33.4375C22.7741 33.4372 23.0434 33.3648 23.2807 33.2276C23.518 33.0903 23.715 32.893 23.852 32.6556C23.9889 32.4181 24.061 32.1487 24.0609 31.8746C24.0608 31.6005 23.9886 31.3312 23.8516 31.0938L24 31.0078L32.3594 36.6641Z" fill="#D1D3D4"/>
<path d="M24.3906 41.0547L24.2344 37.875L24.0703 34.3672L22.5 33.6094L20.9297 34.3672L20.7656 37.875L20.6094 41.0547L20.1562 50.625H24.8438L24.3906 41.0547Z" fill="#ACABB1"/>
<path d="M23.2812 20.9375L24 31.0078L23.8516 31.0938C23.7142 30.857 23.5171 30.6604 23.2799 30.5238C23.0427 30.3872 22.7737 30.3153 22.5 30.3153C22.2263 30.3153 21.9573 30.3872 21.7201 30.5238C21.4829 30.6604 21.2858 30.857 21.1484 31.0938L21 31.0078L21.7188 20.9375H23.2812Z" fill="#D1D3D4"/>
<path d="M23.8517 31.0938C24.0237 31.3917 24.0926 31.7381 24.0476 32.0791C24.0027 32.4202 23.8464 32.7369 23.6031 32.9801C23.3598 33.2233 23.043 33.3794 22.7019 33.4242C22.3608 33.469 22.0144 33.3999 21.7166 33.2278C21.4187 33.0556 21.186 32.7899 21.0546 32.472C20.9231 32.1541 20.9003 31.8017 20.9896 31.4694C21.0789 31.1372 21.2753 30.8437 21.5485 30.6345C21.8216 30.4253 22.1561 30.3121 22.5001 30.3125C22.7742 30.3124 23.0435 30.3845 23.2808 30.5217C23.5181 30.6589 23.715 30.8562 23.8517 31.0938Z" fill="#ACABB1"/>
<path d="M22.5 33.4375V33.6094L20.9297 34.3672L13.4219 38.0234L12.6406 36.6641L21 31.0078L21.1484 31.0938C21.0114 31.3312 20.9392 31.6005 20.9391 31.8746C20.939 32.1487 21.0111 32.4181 21.148 32.6556C21.285 32.893 21.482 33.0903 21.7193 33.2276C21.9566 33.3648 22.2259 33.4372 22.5 33.4375Z" fill="#D1D3D4"/>
<path d="M37.3438 38.125H56.0938V39.6875H37.3438V38.125Z" fill="#EE8700"/>
<path d="M29.5313 31.875H27.9688C27.9683 30.8983 27.7065 29.9396 27.2106 29.0982C26.7147 28.2567 26.0027 27.5633 25.1484 27.0898L25.9063 25.7227C27.0042 26.3317 27.9193 27.2233 28.5567 28.3051C29.1941 29.3869 29.5306 30.6194 29.5313 31.875Z" fill="#C6C5CA"/>
<path d="M17.0312 31.875H15.4688C15.4694 30.6194 15.8059 29.3869 16.4433 28.3051C17.0807 27.2233 17.9958 26.3317 19.0938 25.7227L19.8516 27.0898C18.9973 27.5633 18.2853 28.2567 17.7894 29.0982C17.2935 29.9396 17.0317 30.8983 17.0312 31.875Z" fill="#C6C5CA"/>
<path d="M32.5155 33.5672L30.9749 33.3078C31.3099 31.3121 30.9311 29.2622 29.9052 27.518C28.8793 25.7737 27.2717 24.4466 25.3647 23.7695L25.8851 22.2969C28.139 23.096 30.0392 24.6639 31.2518 26.7251C32.4644 28.7863 32.9119 31.2088 32.5155 33.5672Z" fill="#C6C5CA"/>
<path d="M22.5 38.9063C21.2658 38.9067 20.0532 38.582 18.9844 37.9648L19.7656 36.6117C20.6115 37.1004 21.5728 37.3535 22.5497 37.3449C23.5265 37.3362 24.4832 37.0661 25.3203 36.5625L26.125 37.9023C25.0301 38.5595 23.777 38.9066 22.5 38.9063Z" fill="#C6C5CA"/>
<path d="M22.5 42.0313C20.7174 42.033 18.9658 41.5647 17.4219 40.6735C16.9314 40.3898 16.465 40.0663 16.0273 39.7063L17.0211 38.5009C17.3919 38.8051 17.7873 39.0782 18.2031 39.3173C19.7428 40.2047 21.5194 40.5938 23.2891 40.4311C25.0587 40.2684 26.7346 39.562 28.0867 38.4087L29.1023 39.5962C27.2618 41.1684 24.9206 42.0319 22.5 42.0313Z" fill="#C6C5CA"/>
<path d="M12.4844 33.5672C12.0881 31.2088 12.5355 28.7863 13.7481 26.7251C14.9607 24.6639 16.8609 23.096 19.1149 22.2969L19.6352 23.7695C17.7282 24.4466 16.1207 25.7737 15.0947 27.518C14.0688 29.2622 13.6901 31.3121 14.025 33.3078L12.4844 33.5672Z" fill="#C6C5CA"/>
<path d="M11.5625 49.8438H58.4375V51.4062H11.5625V49.8438Z" fill="#898890"/>
<path d="M49.0625 26.4062H50.625V35H49.0625V26.4062Z" fill="#EE8700"/>
<path d="M45.9765 28.71C45.4686 28.2021 45.0657 27.5992 44.7908 26.9357C44.516 26.2722 44.3745 25.561 44.3745 24.8428C44.3745 24.1246 44.516 23.4134 44.7908 22.7498C45.0657 22.0863 45.4686 21.4834 45.9765 20.9756L47.0812 22.0803C46.3488 22.8128 45.9375 23.8062 45.9375 24.842C45.9375 25.8778 46.3488 26.8712 47.0812 27.6037L45.9765 28.71Z" fill="#FFA733"/>
<path d="M53.7111 28.7101L52.6064 27.6054C53.3388 26.8729 53.7501 25.8795 53.7501 24.8437C53.7501 23.8079 53.3388 22.8145 52.6064 22.082L53.7111 20.9773C54.219 21.4851 54.6219 22.088 54.8968 22.7516C55.1716 23.4151 55.3131 24.1263 55.3131 24.8445C55.3131 25.5627 55.1716 26.2739 54.8968 26.9374C54.6219 27.6009 54.219 28.2038 53.7111 28.7117V28.7101Z" fill="#FFA733"/>
<path d="M43.7669 30.9202C42.1577 29.3074 41.2539 27.122 41.2539 24.8437C41.2539 22.5653 42.1577 20.3799 43.7669 18.7671L44.8716 19.8718C43.5549 21.1914 42.8154 22.9795 42.8154 24.8437C42.8154 26.7078 43.5549 28.4959 44.8716 29.8155L43.7669 30.9202Z" fill="#FFA733"/>
<path d="M55.9201 30.9202L54.8154 29.8155C56.1322 28.4959 56.8716 26.7078 56.8716 24.8437C56.8716 22.9795 56.1322 21.1914 54.8154 19.8718L55.9201 18.7671C57.5294 20.3799 58.4332 22.5653 58.4332 24.8437C58.4332 27.122 57.5294 29.3074 55.9201 30.9202Z" fill="#FFA733"/>
<path d="M22.5 34.2188C22.0365 34.2188 21.5833 34.0813 21.1979 33.8238C20.8125 33.5662 20.5121 33.2002 20.3347 32.7719C20.1573 32.3437 20.1109 31.8724 20.2013 31.4178C20.2917 30.9631 20.5149 30.5455 20.8427 30.2177C21.1705 29.8899 21.5881 29.6667 22.0428 29.5763C22.4974 29.4859 22.9687 29.5323 23.3969 29.7097C23.8252 29.8871 24.1912 30.1875 24.4488 30.5729C24.7063 30.9583 24.8438 31.4115 24.8438 31.875C24.8438 32.4966 24.5968 33.0927 24.1573 33.5323C23.7177 33.9718 23.1216 34.2188 22.5 34.2188ZM22.5 31.0938C22.3455 31.0938 22.1944 31.1396 22.066 31.2254C21.9375 31.3113 21.8374 31.4333 21.7782 31.576C21.7191 31.7188 21.7036 31.8759 21.7338 32.0274C21.7639 32.179 21.8383 32.3182 21.9476 32.4274C22.0568 32.5367 22.196 32.6111 22.3476 32.6412C22.4991 32.6714 22.6562 32.6559 22.799 32.5968C22.9417 32.5377 23.0637 32.4375 23.1496 32.309C23.2354 32.1806 23.2813 32.0295 23.2813 31.875C23.2813 31.6678 23.1989 31.4691 23.0524 31.3226C22.9059 31.1761 22.7072 31.0938 22.5 31.0938Z" fill="#898890"/>
<path d="M49.8438 27.1875C49.3802 27.1875 48.9271 27.05 48.5416 26.7925C48.1562 26.535 47.8558 26.1689 47.6784 25.7407C47.501 25.3124 47.4546 24.8412 47.545 24.3865C47.6355 23.9319 47.8587 23.5142 48.1865 23.1865C48.5142 22.8587 48.9319 22.6355 49.3865 22.545C49.8412 22.4546 50.3124 22.501 50.7407 22.6784C51.1689 22.8558 51.535 23.1562 51.7925 23.5416C52.05 23.9271 52.1875 24.3802 52.1875 24.8438C52.1875 25.4654 51.9406 26.0615 51.501 26.501C51.0615 26.9406 50.4654 27.1875 49.8438 27.1875ZM49.8438 24.0625C49.6892 24.0625 49.5382 24.1083 49.4097 24.1942C49.2812 24.28 49.1811 24.402 49.122 24.5448C49.0628 24.6875 49.0474 24.8446 49.0775 24.9962C49.1077 25.1477 49.1821 25.2869 49.2913 25.3962C49.4006 25.5054 49.5398 25.5798 49.6913 25.61C49.8429 25.6401 50 25.6247 50.1427 25.5655C50.2855 25.5064 50.4075 25.4063 50.4933 25.2778C50.5792 25.1493 50.625 24.9983 50.625 24.8438C50.625 24.6366 50.5427 24.4378 50.3962 24.2913C50.2497 24.1448 50.051 24.0625 49.8438 24.0625Z" fill="#EE8700"/>
</svg>
