<svg width="70" height="70" viewBox="0 0 70 70" fill="none" xmlns="http://www.w3.org/2000/svg">
<path fill-rule="evenodd" clip-rule="evenodd" d="M46.6437 53.7842L23.1812 54.0851L17.9686 63.0299C17.7396 63.4228 18.0492 63.8538 18.442 63.8538H51.558C51.9508 63.8538 52.2605 63.4228 52.0315 63.0299L46.6437 53.7842Z" fill="#003748"/>
<path fill-rule="evenodd" clip-rule="evenodd" d="M46.6436 53.7842L43.9295 53.819L49.2971 63.0299C49.5261 63.423 49.2163 63.8538 48.8236 63.8538H51.558C51.9508 63.8538 52.2605 63.4228 52.0315 63.0299L46.6436 53.7842Z" fill="#00242F"/>
<path fill-rule="evenodd" clip-rule="evenodd" d="M65.2437 6.146C67.1829 6.146 68.7697 7.73275 68.7697 9.67197V50.7491C68.7697 52.6883 67.1828 54.2751 65.2437 54.2751H4.75645C2.8175 54.2751 1.23047 52.6886 1.23047 50.7491V9.67197C1.23047 7.73262 2.81723 6.146 4.75645 6.146H65.2437Z" fill="#E6F8FF"/>
<path fill-rule="evenodd" clip-rule="evenodd" d="M65.2437 6.146C67.1829 6.146 68.7697 7.73275 68.7697 9.67197V50.7491C68.7697 52.6883 67.1828 54.2751 65.2437 54.2751H61.1422C63.0811 54.2751 64.6681 52.6883 64.6681 50.7491V9.67197C64.6681 7.73275 63.0814 6.146 61.1422 6.146H65.2437Z" fill="#D0F1FF"/>
<path fill-rule="evenodd" clip-rule="evenodd" d="M68.7695 49.7383H1.23047V52.1161C1.23047 54.0554 2.81723 55.6421 4.75631 55.6421H65.2437C67.1828 55.6421 68.7695 54.0556 68.7695 52.1161V49.7383Z" fill="#004960"/>
<path fill-rule="evenodd" clip-rule="evenodd" d="M68.7696 49.7383H64.668V52.1161C64.668 54.0554 63.0812 55.6421 61.1422 55.6421H65.2437C67.1828 55.6421 68.7696 54.0556 68.7696 52.1161V49.7383Z" fill="#003748"/>
<path fill-rule="evenodd" clip-rule="evenodd" d="M7.83588 46.2329C7.23185 46.2329 6.74213 45.7432 6.74213 45.1392C6.74213 44.5352 7.23185 44.0454 7.83588 44.0454H8.83898C9.44301 44.0454 9.93273 44.5352 9.93273 45.1392C9.93273 45.7432 9.44301 46.2329 8.83898 46.2329H7.83588ZM12.0746 46.2329C11.4705 46.2329 10.9808 45.7432 10.9808 45.1392C10.9808 44.5352 11.4705 44.0454 12.0746 44.0454H21.9677C22.5717 44.0454 23.0614 44.5352 23.0614 45.1392C23.0614 45.7432 22.5717 46.2329 21.9677 46.2329H12.0746ZM12.0746 37.4336C11.4705 37.4336 10.9808 36.9439 10.9808 36.3398C10.9808 35.7358 11.4705 35.2461 12.0746 35.2461H21.9677C22.5717 35.2461 23.0614 35.7358 23.0614 36.3398C23.0614 36.9439 22.5717 37.4336 21.9677 37.4336H12.0746ZM12.0746 41.8332C11.4705 41.8332 10.9808 41.3435 10.9808 40.7395C10.9808 40.1354 11.4705 39.6457 12.0746 39.6457H21.9677C22.5717 39.6457 23.0614 40.1354 23.0614 40.7395C23.0614 41.3435 22.5717 41.8332 21.9677 41.8332H12.0746ZM7.83588 37.4336C7.23185 37.4336 6.74213 36.9439 6.74213 36.3398C6.74213 35.7358 7.23185 35.2461 7.83588 35.2461H8.83898C9.44301 35.2461 9.93273 35.7358 9.93273 36.3398C9.93273 36.9439 9.44301 37.4336 8.83898 37.4336H7.83588ZM7.83588 41.8332C7.23185 41.8332 6.74213 41.3435 6.74213 40.7395C6.74213 40.1354 7.23185 39.6457 7.83588 39.6457H8.83898C9.44301 39.6457 9.93273 40.1354 9.93273 40.7395C9.93273 41.3435 9.44301 41.8332 8.83898 41.8332H7.83588Z" fill="#FFDA2D"/>
<path d="M22.6498 27.8777C26.4687 24.0587 26.4687 17.867 22.6498 14.0481C18.8309 10.2292 12.6392 10.2292 8.82023 14.0481C5.00131 17.867 5.00131 24.0587 8.82023 27.8777C12.6392 31.6966 18.8309 31.6966 22.6498 27.8777Z" fill="#64B5F6"/>
<path d="M21.3542 21.2579C21.5248 18.1603 19.1519 15.5109 16.0542 15.3403C12.9565 15.1698 10.307 17.5427 10.1365 20.6403C9.96595 23.7379 12.3389 26.3873 15.4366 26.5578C18.5343 26.7284 21.1837 24.3555 21.3542 21.2579Z" fill="#42A5F5"/>
<path fill-rule="evenodd" clip-rule="evenodd" d="M15.739 20.9637V11.1831C10.3374 11.1831 5.95844 15.5619 5.95844 20.9636C5.95844 24.1611 7.49297 27.0005 9.86572 28.7851L15.739 20.9637Z" fill="#72D561"/>
<path fill-rule="evenodd" clip-rule="evenodd" d="M15.7391 20.9636V15.3491C12.6384 15.3491 10.1246 17.8628 10.1246 20.9635C10.1246 22.7991 11.0056 24.4288 12.3677 25.4532L15.7391 20.9636Z" fill="#57CA5A"/>
<path fill-rule="evenodd" clip-rule="evenodd" d="M15.739 11.1831V20.9637L24.7218 24.8388C25.2352 23.6506 25.5196 22.3403 25.5196 20.9637C25.5195 15.5619 21.1406 11.1831 15.739 11.1831Z" fill="#FFDA2D"/>
<path fill-rule="evenodd" clip-rule="evenodd" d="M15.739 15.3491V20.9636L20.8952 23.188C21.19 22.5059 21.3535 21.754 21.3535 20.9636C21.3535 17.8628 18.8398 15.3491 15.739 15.3491Z" fill="#FFC700"/>
<path fill-rule="evenodd" clip-rule="evenodd" d="M15.7391 25.0682C18 25.0682 19.844 23.2242 19.844 20.9632C19.844 18.7023 18 16.8584 15.7391 16.8584C13.4781 16.8584 11.6342 18.7023 11.6342 20.9632C11.6342 23.2243 13.4781 25.0682 15.7391 25.0682Z" fill="#EFF4F7"/>
<path fill-rule="evenodd" clip-rule="evenodd" d="M15.739 16.8584C16.9762 16.8584 18.0855 17.4058 18.8382 18.2715C18.1786 17.8197 17.3809 17.5553 16.521 17.5553C14.254 17.5553 12.4161 19.393 12.4161 21.6601C12.4161 22.69 12.7953 23.6312 13.4218 24.3518C12.3424 23.6123 11.634 22.3705 11.634 20.9632C11.634 18.6962 13.4719 16.8584 15.739 16.8584Z" fill="#E2E3E3"/>
<path fill-rule="evenodd" clip-rule="evenodd" d="M32.6931 28.1915C32.3251 28.6681 31.6403 28.7561 31.1635 28.3879C30.6869 28.0199 30.5989 27.3351 30.9671 26.8585L40.7039 14.1988C41.0618 13.7355 41.7192 13.6395 42.1933 13.9728L51.195 20.005L58.6634 13.1096L57.3032 13.0455C56.7015 13.0172 56.2367 12.5064 56.265 11.9047C56.2933 11.303 56.804 10.8382 57.4057 10.8665L61.5102 11.0598C62.1119 11.0881 62.5767 11.5989 62.5484 12.2006C62.5453 12.268 62.536 12.3337 62.5212 12.3973L61.7969 16.3847C61.6908 16.977 61.1245 17.371 60.5322 17.2649C59.94 17.1588 59.5459 16.5925 59.652 16.0002L59.8336 15.0007L52.0429 22.1936L52.0421 22.1927C51.6802 22.5262 51.1242 22.5822 50.6972 22.2961L41.8087 16.3397L32.6931 28.1915Z" fill="#B4D2D7"/>
<path fill-rule="evenodd" clip-rule="evenodd" d="M31.918 30.446C33.502 30.446 34.794 29.154 34.794 27.5699C34.794 25.9858 33.502 24.6938 31.918 24.6938C30.3338 24.6938 29.0418 25.9858 29.0418 27.5699C29.0418 29.154 30.3338 30.446 31.918 30.446Z" fill="#FC685B"/>
<path fill-rule="evenodd" clip-rule="evenodd" d="M31.9179 24.6938C32.9718 24.6938 33.893 25.2607 34.3938 26.106C33.9187 25.7593 33.3335 25.5546 32.7004 25.5546C31.112 25.5546 29.8244 26.8422 29.8244 28.4306C29.8244 28.9654 29.9704 29.4657 30.2245 29.8946C29.5077 29.3715 29.0419 28.5253 29.0419 27.57C29.0418 25.9815 30.3294 24.6938 31.9179 24.6938Z" fill="#F35244"/>
<path fill-rule="evenodd" clip-rule="evenodd" d="M41.6282 17.8215C43.2122 17.8215 44.5042 16.5295 44.5042 14.9454C44.5042 13.3612 43.2122 12.0693 41.6282 12.0693C40.044 12.0693 38.752 13.3613 38.752 14.9454C38.752 16.5295 40.044 17.8215 41.6282 17.8215Z" fill="#FFDA2D"/>
<path fill-rule="evenodd" clip-rule="evenodd" d="M41.628 12.0693C42.6819 12.0693 43.6031 12.6362 44.1039 13.4815C43.6288 13.1348 43.0436 12.9301 42.4105 12.9301C40.8221 12.9301 39.5345 14.2177 39.5345 15.8063C39.5345 16.3408 39.6805 16.8414 39.9346 17.2703C39.2178 16.7472 38.752 15.9009 38.752 14.9456C38.752 13.357 40.0396 12.0693 41.628 12.0693Z" fill="#FFC700"/>
<path fill-rule="evenodd" clip-rule="evenodd" d="M51.3383 24.3282C52.9223 24.3282 54.2143 23.0362 54.2143 21.4522C54.2143 19.8682 52.9223 18.5762 51.3383 18.5762C49.7541 18.5762 48.4623 19.8682 48.4623 21.4522C48.4621 23.0362 49.7541 24.3282 51.3383 24.3282Z" fill="#72D561"/>
<path fill-rule="evenodd" clip-rule="evenodd" d="M51.3382 18.5762C52.392 18.5762 53.3132 19.143 53.814 19.9883C53.3389 19.6416 52.7538 19.437 52.1206 19.437C50.5322 19.437 49.2446 20.7246 49.2446 22.313C49.2446 22.8477 49.3906 23.3481 49.6448 23.777C48.928 23.2539 48.4622 22.4076 48.4622 21.4523C48.4622 19.8639 49.7498 18.5762 51.3382 18.5762Z" fill="#57CA5A"/>
<path fill-rule="evenodd" clip-rule="evenodd" d="M29.7266 34.2427H34.1093C34.4336 34.2427 34.6981 34.5072 34.6981 34.8315V43.3394C34.6981 43.6638 34.4336 43.9284 34.1093 43.9284H29.7266C29.4022 43.9284 29.1378 43.6638 29.1378 43.3394V34.8315C29.1376 34.5072 29.4022 34.2427 29.7266 34.2427Z" fill="#FC685B"/>
<path fill-rule="evenodd" clip-rule="evenodd" d="M33.2258 34.2427H34.1091C34.4334 34.2427 34.698 34.5072 34.698 34.8315V43.3394C34.698 43.6638 34.4334 43.9284 34.1091 43.9284H29.7265C29.402 43.9284 29.1376 43.6638 29.1376 43.3394V42.4561H32.637C32.9614 42.4561 33.2259 42.1915 33.2259 41.8672V34.2427H33.2258Z" fill="#F35244"/>
<path fill-rule="evenodd" clip-rule="evenodd" d="M39.4367 23.5088H43.8193C44.1436 23.5088 44.4082 23.7733 44.4082 24.0976V43.3394C44.4082 43.6639 44.1436 43.9284 43.8193 43.9284H39.4367C39.1123 43.9284 38.8478 43.6639 38.8478 43.3394V24.0976C38.8478 23.7735 39.1124 23.5088 39.4367 23.5088Z" fill="#FFDA2D"/>
<path fill-rule="evenodd" clip-rule="evenodd" d="M42.936 23.5088H43.8193C44.1436 23.5088 44.4082 23.7733 44.4082 24.0976V43.3394C44.4082 43.6639 44.1436 43.9284 43.8193 43.9284H39.4367C39.1123 43.9284 38.8478 43.6639 38.8478 43.3394V42.4561H42.3472C42.6716 42.4561 42.936 42.1915 42.936 41.8672V23.5088Z" fill="#FFC700"/>
<path fill-rule="evenodd" clip-rule="evenodd" d="M49.1468 28.125H53.5295C53.8538 28.125 54.1184 28.3895 54.1184 28.7138V43.3395C54.1184 43.6639 53.8538 43.9285 53.5295 43.9285H49.1468C48.8224 43.9285 48.5579 43.6639 48.5579 43.3395V28.7138C48.558 28.3895 48.8226 28.125 49.1468 28.125Z" fill="#72D561"/>
<path fill-rule="evenodd" clip-rule="evenodd" d="M52.6462 28.125H53.5295C53.8538 28.125 54.1184 28.3895 54.1184 28.7138V43.3395C54.1184 43.6639 53.8538 43.9285 53.5295 43.9285H49.1468C48.8224 43.9285 48.5579 43.6639 48.5579 43.3395V42.4561H52.0572C52.3815 42.4561 52.646 42.1916 52.646 41.8673V28.125H52.6462Z" fill="#57CA5A"/>
<path fill-rule="evenodd" clip-rule="evenodd" d="M58.8571 19.1597H63.2397C63.564 19.1597 63.8287 19.4242 63.8287 19.7485V43.3393C63.8287 43.6638 63.5641 43.9283 63.2397 43.9283H58.8571C58.5328 43.9283 58.2681 43.6638 58.2681 43.3393V19.7485C58.2681 19.4242 58.5328 19.1597 58.8571 19.1597Z" fill="#64B5F6"/>
<path fill-rule="evenodd" clip-rule="evenodd" d="M62.3562 19.1597H63.2395C63.5638 19.1597 63.8285 19.4242 63.8285 19.7485V43.3393C63.8285 43.6638 63.564 43.9283 63.2395 43.9283H58.8569C58.5326 43.9283 58.2679 43.6638 58.2679 43.3393V42.456H61.7672C62.0915 42.456 62.356 42.1914 62.356 41.8671V19.1597H62.3562Z" fill="#42A5F5"/>
</svg>
