<svg width="80" height="80" viewBox="0 0 80 80" fill="none" xmlns="http://www.w3.org/2000/svg">
<path fill-rule="evenodd" clip-rule="evenodd" d="M17.8601 13.1692C15.5568 14.1123 13.9233 16.3814 13.9233 19.0139C13.9233 22.4854 16.7635 25.3256 20.2351 25.3256H45.4241C48.8957 25.3256 51.7358 22.4854 51.7358 19.0139C51.7358 16.1115 49.7504 13.6508 47.0707 12.9219C46.5768 8.35826 42.7121 4.80514 38.0171 4.80514C36.9383 4.80514 35.9035 4.99279 34.9433 5.33701C33.128 3.58061 30.6555 2.49951 27.9304 2.49951C22.3594 2.49951 17.8432 7.01576 17.8432 12.5867C17.843 12.7825 17.849 12.9764 17.8601 13.1692Z" fill="#8AC9FE"/>
<path fill-rule="evenodd" clip-rule="evenodd" d="M48.8837 24.2854C50.5984 23.154 51.7359 21.2104 51.7359 19.0139C51.7359 16.1115 49.7504 13.6508 47.0707 12.9219C46.5768 8.35826 42.7121 4.80514 38.0171 4.80514C36.9384 4.80514 35.9035 4.99279 34.9434 5.33701C33.1281 3.58061 30.6556 2.49951 27.9304 2.49951C24.6831 2.49951 21.7945 4.03451 19.9495 6.41795C21.6548 5.09764 23.7946 4.31154 26.1184 4.31154C28.8435 4.31154 31.316 5.39264 33.1313 7.14904C34.0915 6.80467 35.1265 6.61717 36.2051 6.61717C40.8999 6.61717 44.7648 10.1701 45.2587 14.7339C47.9384 15.4628 49.9238 17.9234 49.9238 20.8259C49.9237 22.1008 49.5402 23.2903 48.8837 24.2854Z" fill="#60B7FF"/>
<path fill-rule="evenodd" clip-rule="evenodd" d="M28.0182 32.0454V19.2391H21.9707V16.7391H29.2682C29.9585 16.7391 30.5182 17.2988 30.5182 17.9891V32.0454H28.0182ZM31.5796 32.0454V11.5835H34.0796V32.0454H31.5796ZM35.1409 32.0454V17.9891C35.1409 17.2988 35.7005 16.7391 36.3909 16.7391H43.6884V19.2391H37.6409V32.0454H35.1409Z" fill="#A79BA7"/>
<path fill-rule="evenodd" clip-rule="evenodd" d="M30.2005 11.5837C30.2005 10.1316 31.3776 8.95459 32.8296 8.95459C34.2815 8.95459 35.4587 10.1316 35.4587 11.5837C35.4587 13.0355 34.2816 14.2127 32.8296 14.2127C31.3776 14.2127 30.2005 13.0355 30.2005 11.5837ZM41.0593 17.9893C41.0593 16.5372 42.2363 15.3602 43.6884 15.3602C45.1404 15.3602 46.3174 16.5372 46.3174 17.9893C46.3174 19.4413 45.1404 20.6183 43.6884 20.6183C42.2363 20.6183 41.0593 19.4413 41.0593 17.9893ZM24.5999 17.9893C24.5999 16.5372 23.4229 15.3602 21.9709 15.3602C20.5188 15.3602 19.3418 16.5372 19.3418 17.9893C19.3418 19.4413 20.5188 20.6183 21.9709 20.6183C23.4227 20.6183 24.5999 19.4413 24.5999 17.9893Z" fill="#6CF5C2"/>
<path fill-rule="evenodd" clip-rule="evenodd" d="M32.3759 8.99365C32.5233 8.96803 32.6748 8.95459 32.8294 8.95459C34.2812 8.95459 35.4584 10.1316 35.4584 11.5837C35.4584 13.0355 34.2814 14.2127 32.8294 14.2127C32.6747 14.2127 32.5231 14.1993 32.3759 14.1737C33.6117 13.9588 34.5514 12.881 34.5514 11.5838C34.5516 10.2863 33.6119 9.20865 32.3759 8.99365ZM43.2347 15.3993C43.382 15.3737 43.5336 15.3602 43.6881 15.3602C45.1402 15.3602 46.3172 16.5372 46.3172 17.9893C46.3172 19.4413 45.1402 20.6183 43.6881 20.6183C43.5334 20.6183 43.3819 20.6049 43.2347 20.5793C44.4705 20.3644 45.4101 19.2866 45.4101 17.9893C45.4103 16.6919 44.4706 15.6143 43.2347 15.3993ZM24.5998 17.9893C24.5998 16.5372 23.4228 15.3602 21.9708 15.3602C21.8161 15.3602 21.6647 15.3737 21.5173 15.3993C22.7531 15.6141 23.6928 16.6919 23.6928 17.9893C23.6928 19.2866 22.7531 20.3643 21.5173 20.5793C21.6647 20.6049 21.8161 20.6183 21.9708 20.6183C23.4226 20.6183 24.5998 19.4413 24.5998 17.9893Z" fill="#00E499"/>
<path fill-rule="evenodd" clip-rule="evenodd" d="M23.8152 62.8525H41.8439V73.1218H23.8152V62.8525Z" fill="#A79BA7"/>
<path fill-rule="evenodd" clip-rule="evenodd" d="M40.4458 62.8525H41.8439V73.1218H40.4458V62.8525Z" fill="#837683"/>
<path fill-rule="evenodd" clip-rule="evenodd" d="M13.3418 77.4998H52.3171V74.4949C52.3171 72.8423 50.6248 71.4902 48.5565 71.4902H17.1026C15.0341 71.4902 13.3418 72.8424 13.3418 74.4949V77.4998Z" fill="#ECEFF1"/>
<path fill-rule="evenodd" clip-rule="evenodd" d="M13.3418 77.4996H52.3171V74.4947C52.3171 73.5126 51.7193 72.6366 50.8002 72.0874C51.0068 72.4587 51.122 72.8688 51.122 73.2996V76.3044H13.3418V77.4996Z" fill="#D1D1D6"/>
<path fill-rule="evenodd" clip-rule="evenodd" d="M8.5573 25.3257H57.1015C59.527 25.3257 61.5115 27.3102 61.5115 29.7357V60.0738C61.5115 62.4993 59.527 64.4838 57.1015 64.4838H8.5573C6.13184 64.4838 4.14746 62.4994 4.14746 60.0738V29.7357C4.14746 27.3102 6.13184 25.3257 8.5573 25.3257Z" fill="#ECEFF1"/>
<path fill-rule="evenodd" clip-rule="evenodd" d="M59.5616 26.0806C60.7358 26.8751 61.5116 28.219 61.5116 29.7356V60.0737C61.5116 62.4992 59.527 64.4835 57.1016 64.4835H8.55734C7.04094 64.4835 5.69687 63.7078 4.90234 62.5335C5.60625 63.0096 6.45328 63.2884 7.36219 63.2884H55.9064C58.3319 63.2884 60.3164 61.3038 60.3164 58.8784V28.5404C60.3164 27.6315 60.0377 26.7845 59.5616 26.0806Z" fill="#D1D1D6"/>
<path fill-rule="evenodd" clip-rule="evenodd" d="M8.44677 29.0137H57.2122C57.5486 29.0137 57.8238 29.2891 57.8238 29.6252V57.0874H7.83521V29.6252C7.83521 29.2888 8.11036 29.0137 8.44677 29.0137Z" fill="#D8ECFE"/>
<path fill-rule="evenodd" clip-rule="evenodd" d="M54.822 29.0137H57.2123C57.5487 29.0137 57.8239 29.2891 57.8239 29.6252V57.0874H55.4337V29.6252C55.4336 29.289 55.1584 29.0137 54.822 29.0137Z" fill="#C4E2FF"/>
<path fill-rule="evenodd" clip-rule="evenodd" d="M60.0052 22.5821C59.3175 22.6118 58.7359 22.0783 58.7063 21.3907C58.6766 20.703 59.21 20.1215 59.8977 20.0918C60.8217 20.0501 61.7408 20.1891 62.5974 20.5112C63.4355 20.8263 64.2095 21.3119 64.8672 21.9694C65.5249 22.6271 66.0103 23.4012 66.3255 24.2393C66.6477 25.0958 66.7866 26.0148 66.7449 26.939C66.7152 27.6266 66.1336 28.1599 65.4459 28.1304C64.7583 28.1007 64.2249 27.5191 64.2545 26.8315C64.2813 26.2404 64.1941 25.6569 63.9914 25.1182C63.8014 24.613 63.5045 24.1421 63.0995 23.7369C62.6944 23.3318 62.2236 23.0351 61.7183 22.8451C61.1797 22.6426 60.5963 22.5554 60.0052 22.5821ZM70.5019 26.7696C70.5656 25.3557 70.3536 23.9512 69.8617 22.6435C69.3831 21.371 68.6447 20.1946 67.6434 19.1933C66.6422 18.1921 65.4656 17.4537 64.1933 16.9751C62.8856 16.4832 61.4811 16.2712 60.0672 16.3349C59.3795 16.3646 58.8461 16.9462 58.8758 17.6338C58.9055 18.3215 59.487 18.8548 60.1747 18.8252C61.2556 18.7765 62.3244 18.9368 63.3144 19.3091C64.2539 19.6626 65.1272 20.2123 65.8759 20.961C66.6247 21.7098 67.1744 22.583 67.5278 23.5226C67.9002 24.5126 68.0605 25.5813 68.0117 26.6623C67.982 27.3499 68.5155 27.9315 69.2031 27.9612C69.8908 27.9907 70.4724 27.4573 70.5019 26.7696ZM60.3442 15.0685C61.915 14.9977 63.4694 15.2312 64.9105 15.7732C66.2844 16.2899 67.56 17.0924 68.6522 18.1848C69.7445 19.2771 70.547 20.5526 71.0638 21.9265C71.6058 23.3676 71.8392 24.9219 71.7684 26.4927C71.7388 27.1804 72.2722 27.7619 72.9599 27.7916C73.6475 27.8213 74.2291 27.2879 74.2588 26.6002C74.3445 24.6965 74.0594 22.8063 73.3978 21.0476C72.7559 19.3408 71.7647 17.7619 70.4199 16.4173C69.075 15.0726 67.4963 14.0813 65.7894 13.4393C64.0306 12.7777 62.1406 12.4926 60.2367 12.5783C59.5491 12.608 59.0156 13.1896 59.0453 13.8773C59.075 14.5648 59.6566 15.0982 60.3442 15.0685Z" fill="#FFE177"/>
<path fill-rule="evenodd" clip-rule="evenodd" d="M66.5399 56.1704C67.5666 56.4147 68.5471 56.8218 69.4458 57.3751L71.3341 56.5365L73.5596 58.7619L72.7211 60.6496C73.2747 61.5483 73.6817 62.5293 73.9261 63.5563L75.8525 64.2979V67.4452L73.9257 68.1869C73.6813 69.2137 73.2742 70.1941 72.721 71.0929L73.5596 72.9812L71.3341 75.2068L69.4464 74.3683C68.5477 74.9218 67.5666 75.3288 66.5397 75.5732L65.7982 77.4997H62.6508L61.9091 75.5729C60.8824 75.3285 59.9019 74.9215 59.0032 74.3682L57.1149 75.2068L54.8894 72.9813L55.7278 71.0937C55.1742 70.1949 54.7674 69.2138 54.5228 68.1869L52.5964 67.4454V64.2979L54.5232 63.5563C54.7675 62.5296 55.1746 61.5488 55.728 60.6502L54.8894 58.7621L57.1149 56.5366L59.0032 57.3752C59.9017 56.8219 60.8824 56.4149 61.9089 56.1705L62.6507 54.2437H65.7978L66.5399 56.1704Z" fill="#FFE177"/>
<path fill-rule="evenodd" clip-rule="evenodd" d="M59.003 74.3682L57.1148 75.2068L56.824 74.916L58.5943 74.1297C58.7288 74.2126 58.8651 74.2919 59.003 74.3682ZM66.5398 56.1705C67.5665 56.4149 68.5469 56.8219 69.4457 57.3752L68.909 57.6137C68.0104 57.0604 66.6212 56.4149 65.5944 56.1705L64.8527 54.2437H65.798L66.5398 56.1705ZM69.4462 74.3683C68.5474 74.9218 67.5663 75.3288 66.5394 75.5732L65.7979 77.4997H64.8524L65.594 75.5732C66.6208 75.3288 68.0104 74.6835 68.9093 74.1299L69.4462 74.3683ZM56.824 56.8272L57.1148 56.5365L59.003 57.3751C58.8651 57.4512 58.7288 57.5307 58.5943 57.6135L56.824 56.8272ZM70.6791 56.8272L71.3338 56.5365L73.5593 58.7619L72.7208 60.6496C73.2744 61.5483 73.6815 62.5293 73.9258 63.5563L75.8523 64.2979V67.4452L73.9254 68.1869C73.681 69.2137 73.274 70.1941 72.7207 71.0929L73.5593 72.9812L71.3338 75.2068L70.6791 74.916L72.614 72.9812L71.7754 71.0929C72.3287 70.1943 72.7357 69.2137 72.9801 68.1869L74.9069 67.4452V64.298L72.9804 63.5565C72.736 62.5296 72.329 61.5485 71.7755 60.6497L72.614 58.7621L70.6791 56.8272Z" fill="#FFD064"/>
<path d="M64.2244 71.36C67.2557 71.36 69.713 68.9027 69.713 65.8714C69.713 62.8401 67.2557 60.3828 64.2244 60.3828C61.1932 60.3828 58.7358 62.8401 58.7358 65.8714C58.7358 68.9027 61.1932 71.36 64.2244 71.36Z" fill="#ECEFF1"/>
<path fill-rule="evenodd" clip-rule="evenodd" d="M64.2244 60.3828C61.193 60.3828 58.7358 62.8398 58.7358 65.8716C58.7358 68.903 61.193 71.3602 64.2244 71.3602C64.3715 71.3602 64.5169 71.3542 64.661 71.3428C61.8337 71.1203 59.609 68.7561 59.609 65.8716C59.609 62.9869 61.8337 60.6227 64.661 60.4002C64.5169 60.3887 64.3713 60.3828 64.2244 60.3828Z" fill="#D1D1D6"/>
<path d="M41.7163 49.7574C45.4278 44.8375 44.4482 37.8403 39.5283 34.1288C34.6084 30.4173 27.6113 31.3969 23.8997 36.3168C20.1882 41.2367 21.1678 48.2339 26.0877 51.9454C31.0077 55.6569 38.0048 54.6773 41.7163 49.7574Z" fill="#8AC9FE"/>
<path fill-rule="evenodd" clip-rule="evenodd" d="M32.8296 31.8711C38.9949 31.8711 43.9928 36.8691 43.9928 43.0344C43.9928 49.1997 38.9949 54.1977 32.8296 54.1977C32.6044 54.1977 32.381 54.1902 32.1589 54.177C38.0119 53.8302 42.6516 48.9744 42.6516 43.0344C42.6516 37.0942 38.0119 32.2386 32.1589 31.8917C32.381 31.8786 32.6044 31.8711 32.8296 31.8711Z" fill="#60B7FF"/>
<path fill-rule="evenodd" clip-rule="evenodd" d="M32.8295 31.8711C33.8247 31.8711 34.7892 32.002 35.7075 32.2464C36.6806 33.0948 37.5381 34.0723 38.2531 35.1516C38.8305 34.9433 39.3919 34.6998 39.9319 34.4214C40.5967 34.9702 41.1964 35.595 41.7189 36.2817C40.995 36.6991 40.2364 37.0597 39.4527 37.3633C40.0491 38.7402 40.4347 40.2275 40.5683 41.7842H43.9228C43.9686 42.1947 43.9928 42.6116 43.9928 43.0342C43.9928 43.4569 43.9686 43.8737 43.9228 44.2842H40.5652C40.4297 45.8263 40.0492 47.3156 39.4506 48.7044C40.235 49.0081 40.9942 49.3691 41.7188 49.7867C41.1964 50.4734 40.5966 51.0983 39.9317 51.647C39.3924 51.3689 38.8317 51.1258 38.2553 50.9177C37.5489 51.9873 36.6959 52.9648 35.7128 53.8206C34.793 54.0658 33.8267 54.1973 32.8295 54.1973C31.8324 54.1973 30.8659 54.0658 29.9461 53.8206C28.9628 52.9648 28.1099 51.9875 27.4034 50.9177C26.827 51.1258 26.2664 51.3689 25.727 51.647C25.0622 51.0983 24.4625 50.4733 23.94 49.7866C24.6645 49.3687 25.4236 49.0081 26.2081 48.7044C25.6095 47.3156 25.2292 45.8263 25.0938 44.2842H21.7363C21.6905 43.8737 21.6663 43.4569 21.6663 43.0342C21.6663 42.6116 21.6905 42.1947 21.7363 41.7842H25.0906C25.2244 40.2275 25.61 38.7402 26.2063 37.3633C25.4225 37.0597 24.6641 36.6991 23.9402 36.2817C24.4627 35.595 25.0624 34.9703 25.7272 34.4212C26.2674 34.6997 26.8286 34.9431 27.4059 35.1514C28.1208 34.072 28.9783 33.0945 29.9514 32.2463C30.8697 32.002 31.8342 31.8711 32.8295 31.8711ZM31.5795 51.9353V50.0372C31.0428 50.0775 30.5091 50.1439 29.9816 50.2362C30.4534 50.8498 30.988 51.4192 31.5795 51.9353ZM31.5795 47.5316V44.2844H27.6052C27.7419 45.5753 28.0855 46.8167 28.6128 47.9675C29.5855 47.743 30.5797 47.5977 31.5795 47.5316ZM31.5795 41.7844V38.537C30.5794 38.4709 29.5847 38.3256 28.6119 38.1009C28.0859 39.2425 27.7372 40.4822 27.6017 41.7844H31.5795ZM31.5795 36.0316V34.1361C30.9944 34.6478 30.4599 35.2164 29.9849 35.8331C30.5111 35.9252 31.0439 35.9914 31.5795 36.0316ZM34.0794 34.1361V36.0316C34.615 35.9914 35.1478 35.9252 35.6742 35.8331C35.1991 35.2164 34.6647 34.648 34.0794 34.1361ZM34.0794 38.5372V41.7844H38.0572C37.9216 40.4822 37.573 39.2425 37.047 38.1009C36.0742 38.3258 35.0797 38.4711 34.0794 38.5372ZM34.0794 44.2844V47.5316C35.0792 47.5975 36.0734 47.743 37.0459 47.9675C37.5733 46.8167 37.9169 45.5753 38.0536 44.2844H34.0794ZM34.0794 50.037V51.9353C34.6709 51.4194 35.2053 50.8498 35.6774 50.2362C35.15 50.1437 34.6161 50.0773 34.0794 50.037Z" fill="#60B7FF"/>
<path fill-rule="evenodd" clip-rule="evenodd" d="M32.8296 31.8711C33.8247 31.8711 34.7892 32.002 35.7075 32.2464C36.0275 32.5253 36.3349 32.8183 36.6289 33.1241C35.2772 32.4216 33.7639 31.9869 32.1589 31.8917C32.381 31.8786 32.6044 31.8711 32.8296 31.8711ZM39.9319 34.4214C40.5967 34.9702 41.1964 35.595 41.7189 36.2817C41.4017 36.4647 41.0778 36.6367 40.748 36.7978C40.2625 36.0787 39.6958 35.4191 39.0607 34.8325C39.3563 34.7053 39.6471 34.5683 39.9319 34.4214ZM43.9228 41.7844C43.9686 42.1948 43.9928 42.6117 43.9928 43.0344C43.9928 43.457 43.9686 43.8739 43.9228 44.2844H42.5817C42.6275 43.8739 42.6517 43.457 42.6517 43.0344C42.6517 42.6117 42.6275 42.1948 42.5817 41.7844H43.9228ZM41.7188 49.7869C41.1964 50.4736 40.5966 51.0984 39.9317 51.6472C39.6471 51.5003 39.3564 51.3634 39.0605 51.2361C39.6957 50.6495 40.2625 49.9898 40.7478 49.2708C41.0777 49.432 41.4016 49.6041 41.7188 49.7869ZM35.7128 53.8209C34.793 54.0661 33.8267 54.1977 32.8296 54.1977C32.6044 54.1977 32.381 54.1902 32.1589 54.177C33.7675 54.0817 35.2842 53.6452 36.6385 52.9397C36.3444 53.2458 36.0357 53.54 35.7128 53.8209Z" fill="#41A8FC"/>
</svg>
