<svg width="70" height="70" viewBox="0 0 70 70" fill="none" xmlns="http://www.w3.org/2000/svg">
<rect width="70" height="70" rx="35" fill="#33C481" fill-opacity="0.2"/>
<path d="M44.1665 33.6628H35.6653V36.6207H34.523V33.6628H29.667V32.5205H44.1665V33.6628Z" fill="#C3D5EF"/>
<path d="M43.0442 53.9394C43.0442 54.1796 42.9488 54.4099 42.7789 54.5798C42.6091 54.7496 42.3787 54.845 42.1385 54.845H27.9228C27.6826 54.845 27.4522 54.7496 27.2824 54.5798C27.1125 54.4099 27.0171 54.1796 27.0171 53.9394C27.0171 53.6992 27.1125 53.4688 27.2824 53.299C27.4522 53.1291 27.6826 53.0337 27.9228 53.0337H42.1385C42.3787 53.0337 42.6091 53.1291 42.7789 53.299C42.9488 53.4688 43.0442 53.6992 43.0442 53.9394Z" fill="#393939"/>
<path d="M43.0425 53.9048C43.0425 53.9164 43.0442 53.9276 43.0442 53.9393C43.0442 54.1795 42.9488 54.4099 42.7789 54.5797C42.6091 54.7495 42.3787 54.845 42.1385 54.845H27.9228C27.6826 54.845 27.4522 54.7495 27.2824 54.5797C27.1125 54.4099 27.0171 54.1795 27.0171 53.9393C27.0171 53.9276 27.0183 53.9164 27.0188 53.9048C27.1072 53.9978 27.2137 54.0718 27.3316 54.1222C27.4496 54.1726 27.5767 54.1984 27.705 54.198H42.3562C42.4845 54.1984 42.6116 54.1726 42.7296 54.1222C42.8476 54.0718 42.954 53.9978 43.0425 53.9048Z" fill="#343434"/>
<path d="M41.5628 43.7036V53.0339H28.5962V43.7036L35.0827 37.8115L41.5628 43.7036Z" fill="#94E671"/>
<path d="M29.8532 43.7036V53.0339H28.5967V43.7036L35.0832 37.8115L29.8532 43.7036Z" fill="#52CC7B"/>
<path d="M28.5961 43.8167C27.5212 44.6843 26.4073 43.3043 27.4822 42.4367L33.9763 36.6345C34.2794 36.3639 34.6712 36.2137 35.0776 36.2124C35.4839 36.2111 35.8767 36.3587 36.1816 36.6274L42.8237 42.4341C43.8343 43.356 42.5734 44.7384 41.5627 43.8167L35.083 37.9246L28.5961 43.8167Z" fill="#68544F"/>
<path d="M34.6283 47.5927V53.0339H30.4575V47.5927C30.4575 47.3189 30.5115 47.0477 30.6163 46.7947C30.7211 46.5417 30.8747 46.3118 31.0683 46.1181C31.262 45.9245 31.4919 45.7709 31.7449 45.6661C31.9979 45.5613 32.2691 45.5073 32.5429 45.5073C32.8168 45.5073 33.088 45.5613 33.341 45.6661C33.594 45.7709 33.8239 45.9245 34.0175 46.1181C34.2112 46.3118 34.3648 46.5417 34.4696 46.7947C34.5744 47.0477 34.6283 47.3189 34.6283 47.5927ZM39.3718 45.5073H36.7253V49.2332H39.3718V45.5073Z" fill="#3D997A"/>
<path d="M15 28.8787H36.4059V30.5329H15V28.8787Z" fill="#C3D5EF"/>
<path d="M15 28.8787H16.9066V30.5329H15V28.8787Z" fill="#B7C8EA"/>
<path d="M36.4059 28.8785H15L17.4178 18.1965H33.9881L36.4059 28.8785Z" fill="#365E7D"/>
<path d="M16.9763 28.8785H15L17.4178 18.1965H18.813L16.9763 28.8785Z" fill="#2B4D66"/>
<path d="M27.5808 32.2922H23.8242V30.533H27.5808V32.2922Z" fill="#66CCFF"/>
<path d="M25.7025 32.2922H23.8242V30.533H25.7025V32.2922Z" fill="#4DA6FF"/>
<path d="M30.1746 33.0916C30.1746 33.3037 30.0904 33.507 29.9404 33.657C29.7905 33.8069 29.5871 33.8912 29.375 33.8912H22.0303C21.8217 33.886 21.6234 33.7995 21.4777 33.6502C21.332 33.5009 21.2505 33.3005 21.2505 33.0918C21.2505 32.8832 21.332 32.6828 21.4777 32.5335C21.6234 32.3841 21.8217 32.2976 22.0303 32.2925H29.3753C29.5872 32.2925 29.7905 32.3767 29.9404 32.5266C30.0902 32.6764 30.1745 32.8797 30.1746 33.0916Z" fill="#393939"/>
<path d="M30.1725 33.1262C30.1637 33.3319 30.0758 33.5262 29.9272 33.6686C29.7786 33.811 29.5808 33.8906 29.375 33.8907H22.03C21.8242 33.8906 21.6263 33.811 21.4777 33.6686C21.3291 33.5261 21.2413 33.3319 21.2324 33.1262C21.3925 33.268 21.5992 33.3458 21.813 33.3448H29.592C29.8058 33.3458 30.0125 33.2679 30.1725 33.1262Z" fill="#343434"/>
<path d="M45.3579 25.3621H47.8819V31.5785H45.3579V25.3621Z" fill="#C3D5EF"/>
<path d="M45.3579 25.3621H46.6199V31.5785H45.3579V25.3621Z" fill="#B7C8EA"/>
<path d="M54.2579 28.9998L47.2889 25.9576L48.329 24.3514L55.328 28.0354L54.2579 28.9998ZM38.9487 30.1315L45.8101 25.9093L44.88 24.2488L38.8198 28.7201L38.9487 30.1315ZM45.7204 15V22.9489L47.618 22.9271L47.0306 15.6052L45.7204 15Z" fill="#365E7D"/>
<path d="M48.6045 24.3513C48.6045 24.7439 48.4881 25.1277 48.27 25.4541C48.0519 25.7805 47.7419 26.0349 47.3792 26.1851C47.0165 26.3354 46.6174 26.3747 46.2324 26.2981C45.8474 26.2215 45.4937 26.0325 45.2161 25.7549C44.9385 25.4773 44.7495 25.1236 44.6729 24.7386C44.5963 24.3535 44.6356 23.9544 44.7859 23.5918C44.9361 23.2291 45.1905 22.9191 45.5169 22.701C45.8433 22.4829 46.2271 22.3665 46.6197 22.3665C47.1461 22.3665 47.6509 22.5756 48.0232 22.9478C48.3954 23.3201 48.6045 23.8249 48.6045 24.3513Z" fill="#66CCFF"/>
<path d="M46.6197 26.3362C46.0932 26.3362 45.5884 26.1271 45.2161 25.7549C44.8439 25.3826 44.6348 24.8778 44.6348 24.3513C44.6348 23.8249 44.8439 23.3201 45.2161 22.9478C45.5884 22.5756 46.0932 22.3665 46.6197 22.3665V26.3362Z" fill="#4DA6FF"/>
<path d="M49.5445 33.8691H43.6948V32.5545C43.6948 32.2956 43.7976 32.0474 43.9806 31.8644C44.1636 31.6814 44.4119 31.5786 44.6707 31.5786H48.5686C48.6968 31.5786 48.8237 31.6038 48.9421 31.6529C49.0605 31.7019 49.1681 31.7738 49.2587 31.8644C49.3493 31.955 49.4212 32.0626 49.4702 32.181C49.5192 32.2994 49.5445 32.4263 49.5445 32.5545V33.8691Z" fill="#393939"/>
<path d="M46.6196 33.8691H43.6948V32.5545C43.6948 32.2956 43.7976 32.0474 43.9806 31.8644C44.1636 31.6814 44.4119 31.5786 44.6707 31.5786H46.6196V33.8691Z" fill="#343434"/>
<path d="M35.0794 37.928L28.5961 43.8168C27.5212 44.6844 26.4073 43.3044 27.4822 42.4368L33.9763 36.6346C34.2797 36.3632 34.6724 36.213 35.0794 36.2126V37.928Z" fill="#53433F"/>
<path d="M15.9251 24.7911L15.6665 25.9334H19.559L19.1352 28.8789H20.2893L20.7131 25.9334H25.195V28.8789H26.3373V25.9334H30.8193L31.2431 28.8789H32.3972L31.9734 25.9334H35.7392L35.4806 24.7911H31.809L31.4673 22.4168H34.9432L34.6846 21.2745H31.3031L30.8601 18.1963H29.706L30.149 21.2745H26.3373V18.1965H25.195V21.2748H21.3831L21.826 18.1965H20.6723L20.2294 21.2748H16.7209L16.4624 22.417H20.065L19.7234 24.7914L15.9251 24.7911ZM26.3373 22.4168H30.3134L30.6549 24.7911H26.3373V22.4168ZM21.2191 22.4168H25.195V24.7911H20.8772L21.2191 22.4168Z" fill="#2B4D66"/>
</svg>
