<svg width="50" height="50" viewBox="0 0 50 50" fill="none" xmlns="http://www.w3.org/2000/svg">
<g clip-path="url(#clip0_718_428)">
<path d="M44.7621 33.8168L33.9413 22.7745C33.7181 22.5471 33.3239 22.2754 32.7166 22.2754H17.2812C16.6735 22.2754 16.282 22.5461 16.0605 22.7731L5.23838 33.8168C5.13154 33.9259 5.08789 34.0409 5.08789 34.214V40.057H44.9126V34.214C44.9126 34.0409 44.869 33.9259 44.7621 33.8168Z" fill="#FFE187"/>
<path d="M25.0012 25.5059C21.8801 25.5059 19.3408 28.045 19.3408 31.1662C19.3408 34.2873 21.88 36.8266 25.0012 36.8266C28.1208 36.8266 30.6588 34.2873 30.6588 31.1662C30.6588 28.045 28.1207 25.5059 25.0012 25.5059Z" fill="#ECEFF1"/>
<path fill-rule="evenodd" clip-rule="evenodd" d="M35.0566 21.6808C34.4442 21.0567 33.613 20.7132 32.7163 20.7132H32.3349V19.2384C32.3349 18.3329 31.597 17.5962 30.69 17.5962H29.007C28.1 17.5962 27.3621 18.3328 27.3621 19.2384V20.7132H22.638V19.2384C22.638 18.3329 21.9001 17.5962 20.9931 17.5962H19.31C18.403 17.5962 17.6651 18.3328 17.6651 19.2384V20.7132H17.2809C16.382 20.7132 15.5512 21.0574 14.943 21.6813L4.12212 32.7235C3.72602 33.1278 3.52524 33.6293 3.52524 34.2143V44.0137C3.52524 45.368 4.84184 46.4696 6.4601 46.4696H43.54C45.1583 46.4696 46.475 45.3679 46.475 44.0137V34.2143C46.475 33.6293 46.2741 33.1278 45.878 32.7235L35.0566 21.6808ZM28.9246 19.2384C28.9246 19.1959 28.9631 19.1587 29.007 19.1587H30.69C30.7339 19.1587 30.7724 19.1959 30.7724 19.2384V20.7132H28.9245V19.2384H28.9246ZM19.2276 19.2384C19.2276 19.1959 19.2662 19.1587 19.31 19.1587H20.9931C21.0371 19.1587 21.0755 19.1959 21.0755 19.2384V20.7132H19.2276V19.2384ZM5.23813 33.8171L16.0603 22.7734C16.2818 22.5464 16.6733 22.2757 17.2809 22.2757H32.7164C33.3238 22.2757 33.7178 22.5474 33.9411 22.7748L44.7619 33.8171C44.8688 33.9262 44.9124 34.0412 44.9124 34.2143V40.0573H5.08764V34.2143C5.08764 34.0412 5.1312 33.9262 5.23813 33.8171ZM43.54 44.9071H6.46001C5.65122 44.9071 5.08764 44.4362 5.08764 44.0137V41.6198H44.9124V44.0137C44.9124 44.4362 44.3488 44.9071 43.54 44.9071ZM25.0014 38.3894C28.9826 38.3894 32.2215 35.1492 32.2215 31.1665C32.2215 27.1838 28.9827 23.9437 25.0014 23.9437C21.0187 23.9437 17.7786 27.1838 17.7786 31.1665C17.7786 35.1492 21.0187 38.3894 25.0014 38.3894ZM25.0014 25.5062C28.121 25.5062 30.659 28.0453 30.659 31.1665C30.659 34.2877 28.121 36.8269 25.0014 36.8269C21.8803 36.8269 19.3411 34.2876 19.3411 31.1665C19.3411 28.0454 21.8802 25.5062 25.0014 25.5062ZM49.7996 15.2817C49.0183 12.6861 46.4609 9.89503 43.284 8.17101C37.5339 5.05255 31.3814 3.48751 24.9987 3.53116C18.6179 3.48897 12.4663 5.05255 6.71577 8.1711C3.53911 9.89513 0.981687 12.6862 0.200535 15.2815C-0.332669 17.0502 0.304343 19.3716 0.866355 21.4197C0.928074 21.6447 0.988718 21.8657 1.04673 22.0822C1.32436 23.1145 1.91899 23.6246 2.36889 23.8709C3.34536 24.4054 4.42378 24.1899 4.97973 24.0138L14.0633 21.1354C15.2638 20.7577 15.9182 19.8498 15.6918 18.8772L14.8504 15.2374C14.7579 14.8358 14.7667 14.4306 15.4542 14.1859C18.3467 13.1503 23.079 12.9379 24.9986 12.8947C26.919 12.9379 31.653 13.1502 34.5471 14.1863C35.2332 14.4306 35.2421 14.8358 35.1497 15.237L34.3083 18.8761C34.0818 19.8498 34.7362 20.7577 35.935 21.135L45.0205 24.0139C45.3123 24.1063 45.748 24.2095 46.2372 24.2095C46.6804 24.2095 47.1677 24.1247 47.6317 23.8703C48.0812 23.6238 48.6749 23.1134 48.9508 22.0811C49.0075 21.8705 49.0668 21.6548 49.1274 21.4353C49.6929 19.3817 50.3339 17.0545 49.7996 15.2817ZM13.5929 19.6452L4.50796 22.524C3.97426 22.693 3.45503 22.684 3.11899 22.5001C2.84927 22.3525 2.66499 22.083 2.55581 21.6772C2.49721 21.4586 2.43579 21.2344 2.37309 21.0062C2.35991 20.958 2.34663 20.9096 2.33335 20.8611L13.713 17.2544L14.1697 19.23C14.1902 19.3177 13.9577 19.5305 13.5929 19.6452ZM35.0724 12.7146C31.9556 11.5986 27.0013 11.376 25.0159 11.3319L24.9986 11.3316L24.9813 11.3319C22.9966 11.376 18.0441 11.5987 14.929 12.714C13.6384 13.1733 13.0249 14.2746 13.328 15.5886L13.36 15.7272L1.93755 19.3476C1.61489 18.0015 1.41128 16.6786 1.69663 15.732C2.35493 13.5449 4.67143 11.0582 7.46079 9.54444C12.9781 6.55226 18.8745 5.05187 24.9936 5.09356H25.0036C31.1213 5.05362 37.0219 6.55226 42.5389 9.54435C45.3285 11.0582 47.645 13.5448 48.3035 15.7323C48.5888 16.6788 48.3853 18.0011 48.0618 19.3473L36.64 15.7272L36.6721 15.5882C36.9749 14.2747 36.3615 13.1733 35.0724 12.7146ZM47.6209 21.0202C47.5595 21.2433 47.4992 21.4623 47.4417 21.6762L47.4413 21.6775C47.3328 22.0836 47.1494 22.3526 46.8805 22.5C46.5448 22.6841 46.0258 22.693 45.4922 22.524L36.4055 19.6446C36.0424 19.5305 35.8098 19.3176 35.8305 19.2288L36.287 17.2544L47.6649 20.8606C47.6502 20.914 47.6356 20.9672 47.6209 21.0202ZM25.0014 33.7747C26.4396 33.7747 27.6097 32.6047 27.6097 31.1664C27.6097 29.7282 26.4397 28.5582 25.0014 28.5582C23.5617 28.5582 22.3904 29.7282 22.3904 31.1664C22.3904 32.6047 23.5617 33.7747 25.0014 33.7747ZM25.0014 30.1208C25.5781 30.1208 26.0472 30.59 26.0472 31.1665C26.0472 31.7432 25.5781 32.2123 25.0014 32.2123C24.4233 32.2123 23.9529 31.7432 23.9529 31.1665C23.9529 30.5899 24.4232 30.1208 25.0014 30.1208ZM24.218 27.0336C24.218 26.6018 24.5696 26.2529 25.0014 26.2529C25.4305 26.2529 25.7821 26.6018 25.7821 27.0336C25.7821 27.4626 25.4305 27.8142 25.0014 27.8142C24.5696 27.8142 24.218 27.4627 24.218 27.0336ZM20.7439 28.7084C20.9598 28.3347 21.436 28.2073 21.8096 28.4233C22.1833 28.6392 22.3107 29.1181 22.0948 29.4918C21.8816 29.8655 21.4028 29.9929 21.0291 29.777C20.6553 29.5609 20.528 29.082 20.7439 28.7084ZM20.7439 33.6246C20.528 33.2509 20.6553 32.7748 21.0291 32.5589C21.4028 32.343 21.8817 32.4703 22.0948 32.8441C22.3107 33.2178 22.1833 33.6967 21.8096 33.9098C21.436 34.1257 20.9598 33.9983 20.7439 33.6246ZM25.7821 35.3022C25.7821 35.734 25.4305 36.0828 24.9987 36.0828C24.5696 36.0828 24.218 35.734 24.218 35.3022C24.218 34.8703 24.5696 34.5215 24.9987 34.5215C25.4304 34.5216 25.7821 34.8703 25.7821 35.3022ZM27.9025 32.8441C28.1184 32.4703 28.5973 32.343 28.971 32.5589C29.3448 32.7748 29.4721 33.251 29.2562 33.6246C29.0403 33.9983 28.5641 34.1257 28.1905 33.9098C27.8167 33.6966 27.6893 33.2178 27.9025 32.8441ZM27.9025 29.4917C27.6893 29.118 27.8167 28.6391 28.1904 28.4232C28.5641 28.2072 29.0402 28.3346 29.2561 28.7083C29.472 29.082 29.3447 29.5609 28.9709 29.7769C28.5973 29.9928 28.1184 29.8654 27.9025 29.4917Z" fill="black"/>
<path d="M30.7727 19.2389C30.7727 19.1964 30.7341 19.1592 30.6902 19.1592H29.0072C28.9633 19.1592 28.9248 19.1964 28.9248 19.2389V20.7137H30.7728V19.2389H30.7727Z" fill="#FFE187"/>
<path d="M5.08765 44.014C5.08765 44.4366 5.65122 44.9074 6.46001 44.9074H43.5399C44.3487 44.9074 44.9124 44.4365 44.9124 44.014V41.6201H5.08765V44.014Z" fill="#F9C969"/>
<path d="M21.0755 19.2389C21.0755 19.1964 21.0369 19.1592 20.9931 19.1592H19.31C19.2661 19.1592 19.2275 19.1964 19.2275 19.2389V20.7137H21.0755V19.2389Z" fill="#FFE187"/>
<path d="M25.0017 32.2126C25.5783 32.2126 26.0475 31.7435 26.0475 31.1668C26.0475 30.5902 25.5783 30.1211 25.0017 30.1211C24.4235 30.1211 23.9531 30.5902 23.9531 31.1668C23.9531 31.7435 24.4234 32.2126 25.0017 32.2126Z" fill="#A79BA7"/>
<path d="M13.7132 17.2549L2.3335 20.8616C2.34678 20.9101 2.36006 20.9585 2.37324 21.0066C2.43584 21.2348 2.49736 21.459 2.55596 21.6776C2.66514 22.0835 2.84932 22.3529 3.11904 22.5006C3.45508 22.6845 3.97432 22.6936 4.50801 22.5245L13.593 19.6457C13.9576 19.5311 14.1902 19.3182 14.1698 19.2305L13.7132 17.2549Z" fill="#F9C969"/>
<path d="M36.2868 17.2549L35.8304 19.2293C35.8098 19.3181 36.0423 19.531 36.4054 19.6451L45.4921 22.5245C46.0257 22.6935 46.5446 22.6846 46.8804 22.5005C47.1492 22.3531 47.3326 22.0841 47.4411 21.6779L47.4415 21.6767C47.499 21.4628 47.5594 21.2437 47.6208 21.0207C47.6353 20.9677 47.6501 20.9145 47.6647 20.8611L36.2868 17.2549Z" fill="#F9C969"/>
<path d="M36.6721 15.5883L36.64 15.7273L48.0618 19.3474C48.3852 18.0012 48.5887 16.679 48.3035 15.7325C47.6451 13.545 45.3285 11.0583 42.5389 9.5445C37.0219 6.55231 31.1213 5.05368 25.0035 5.09362H24.9936C18.8745 5.05192 12.9781 6.55231 7.46078 9.5445C4.67142 11.0583 2.35492 13.545 1.69662 15.7321C1.41126 16.6787 1.61488 18.0015 1.93744 19.3476L13.3599 15.7273L13.3279 15.5887C13.0248 14.2748 13.6383 13.1734 14.9288 12.7141C18.044 11.5989 22.9965 11.376 24.9812 11.3321L24.9985 11.3317L25.0158 11.3321C27.0012 11.376 31.9555 11.5988 35.0723 12.7147C36.3615 13.1734 36.975 14.2748 36.6721 15.5883Z" fill="#FFE187"/>
</g>
<defs>
<clipPath id="clip0_718_428">
<rect width="50" height="50" fill="white"/>
</clipPath>
</defs>
</svg>
