<svg width="81" height="80" viewBox="0 0 81 80" fill="none" xmlns="http://www.w3.org/2000/svg">
<path d="M14.5415 19.4771H8.60938V13.8312C8.60936 13.7288 8.6295 13.6274 8.66866 13.5329C8.70783 13.4383 8.76523 13.3524 8.83761 13.28C8.90999 13.2076 8.99592 13.1502 9.09049 13.111C9.18506 13.0719 9.28641 13.0517 9.38877 13.0518H13.7621C13.8644 13.0518 13.9657 13.072 14.0603 13.1111C14.1548 13.1503 14.2407 13.2078 14.313 13.2802C14.3854 13.3525 14.4427 13.4385 14.4819 13.533C14.521 13.6276 14.5411 13.729 14.541 13.8313V19.4773L14.5415 19.4771Z" fill="#81B8FD"/>
<path d="M67.0703 19.4771H73.0025V13.8312C73.0026 13.7288 72.9824 13.6274 72.9433 13.5329C72.9041 13.4383 72.8467 13.3524 72.7743 13.28C72.7019 13.2076 72.616 13.1502 72.5214 13.111C72.4269 13.0719 72.3255 13.0517 72.2231 13.0518H67.8499C67.7475 13.0518 67.6462 13.072 67.5516 13.1111C67.4571 13.1503 67.3712 13.2078 67.2989 13.2802C67.2265 13.3525 67.1692 13.4385 67.1301 13.533C67.0909 13.6276 67.0708 13.729 67.0709 13.8313V19.4773L67.0703 19.4771Z" fill="#F2385A"/>
<path d="M11.5751 16.9837C11.7167 16.9837 11.8569 16.9558 11.9878 16.9016C12.1186 16.8474 12.2375 16.768 12.3376 16.6678C12.4377 16.5677 12.5172 16.4488 12.5713 16.318C12.6255 16.1872 12.6534 16.047 12.6534 15.9054V13.0518H10.4968V15.9054C10.4968 16.5006 10.9798 16.9837 11.5751 16.9837Z" fill="#62A6FD"/>
<path d="M70.037 16.9837C70.6323 16.9837 71.1153 16.5006 71.1153 15.9054V13.0518H68.9587V15.9054C68.9587 16.1914 69.0723 16.4656 69.2746 16.6678C69.4768 16.8701 69.7511 16.9837 70.037 16.9837Z" fill="#B52A44"/>
<path d="M63.4925 19.4774H18.1196V9.4492C18.1196 9.3165 18.1457 9.18509 18.1964 9.06247C18.2472 8.93985 18.3216 8.82844 18.4154 8.73458C18.5092 8.64072 18.6206 8.56627 18.7432 8.51546C18.8658 8.46465 18.9972 8.4385 19.1299 8.43848H62.4822C62.7502 8.43855 63.0072 8.54506 63.1968 8.7346C63.3863 8.92413 63.4928 9.18116 63.4929 9.4492V19.4774H63.4925Z" fill="#5F6C75"/>
<path d="M62.4822 8.43799H57.7415V11.979C57.7415 14.5321 55.6719 16.6016 53.1189 16.6016H18.1196V19.477H63.4925V9.44886C63.4925 9.31615 63.4664 9.18474 63.4156 9.06213C63.3649 8.93951 63.2905 8.82809 63.1967 8.73424C63.1028 8.64038 62.9915 8.56592 62.8689 8.51512C62.7463 8.46431 62.6149 8.43815 62.4822 8.43813V8.43799Z" fill="#4E5A61"/>
<path d="M25.0046 5H21.29C21.2361 5.00002 21.1826 5.01067 21.1328 5.03135C21.0829 5.05203 21.0377 5.08233 20.9995 5.12051C20.9614 5.1587 20.9312 5.20403 20.9105 5.2539C20.8899 5.30378 20.8794 5.35723 20.8794 5.41119V8.43819H25.4156V5.41119C25.4155 5.30217 25.3721 5.19765 25.295 5.12056C25.218 5.04347 25.1136 5.00011 25.0046 5ZM32.068 5H28.3539C28.2448 5 28.1403 5.04332 28.0631 5.12044C27.986 5.19755 27.9427 5.30214 27.9427 5.41119V8.43819H32.4789V5.41119C32.4789 5.30216 32.4356 5.1976 32.3585 5.12049C32.2814 5.04338 32.1769 5.00004 32.0679 5H32.068ZM39.1314 5H35.4175C35.3084 5 35.2038 5.04332 35.1267 5.12044C35.0496 5.19755 35.0063 5.30214 35.0063 5.41119V8.43819H39.5423V5.41119C39.5423 5.30221 39.4991 5.19769 39.4221 5.12059C39.345 5.04349 39.2406 5.00011 39.1316 5H39.1314ZM46.1947 5H42.4808C42.3717 5.00004 42.2672 5.04338 42.1901 5.12049C42.113 5.1976 42.0697 5.30216 42.0697 5.41119V8.43819H46.6058V5.41119C46.6058 5.30216 46.5625 5.1976 46.4854 5.12049C46.4083 5.04338 46.3038 5.00004 46.1947 5ZM53.2587 5H49.5442C49.4903 5.00004 49.4368 5.0107 49.387 5.03139C49.3372 5.05208 49.2919 5.08238 49.2538 5.12056C49.2157 5.15875 49.1855 5.20407 49.1649 5.25393C49.1443 5.3038 49.1337 5.35724 49.1337 5.41119V8.43819H53.6694V5.41119C53.6694 5.35723 53.6588 5.30378 53.6382 5.2539C53.6176 5.20403 53.5874 5.1587 53.5492 5.12051C53.5111 5.08233 53.4658 5.05203 53.416 5.03135C53.3661 5.01067 53.3127 5.00002 53.2587 5ZM60.3222 5H56.6076C56.5537 5.00004 56.5003 5.0107 56.4504 5.03139C56.4006 5.05208 56.3553 5.08238 56.3172 5.12056C56.2791 5.15875 56.2489 5.20407 56.2283 5.25393C56.2077 5.3038 56.1971 5.35724 56.1972 5.41119V8.43819H60.7328V5.41119C60.7328 5.35723 60.7223 5.30378 60.7017 5.2539C60.681 5.20403 60.6508 5.1587 60.6127 5.12051C60.5746 5.08233 60.5293 5.05203 60.4794 5.03135C60.4296 5.01067 60.3761 5.00002 60.3222 5ZM8.60938 27.7987H73.0027V68.8993H8.60952L8.60938 27.7987Z" fill="#DADEE4"/>
<path d="M67.2519 27.7988V52.2976C67.2519 59.8788 61.1062 66.024 53.5256 66.024H8.60938V68.8994H73.0027V27.799L67.2519 27.7988Z" fill="#B4BCC9"/>
<path d="M39.0147 51.8379L35.1904 62.5462C35.0136 63.0433 35.3815 63.5655 35.9093 63.5655H38.3468C38.4751 63.5655 38.6014 63.5331 38.7138 63.4714C38.8263 63.4097 38.9214 63.3206 38.9904 63.2124L49.3444 46.9491C49.8166 46.2078 49.2837 45.2367 48.4041 45.2367H44.492C43.7214 45.2367 43.184 44.4736 43.4429 43.748L46.7025 34.6212C46.9613 33.8955 46.4233 33.1323 45.6528 33.1323H38.9573C38.7275 33.1322 38.5032 33.2032 38.3154 33.3356C38.1275 33.4681 37.9853 33.6554 37.9082 33.8719L32.1578 49.9723C31.8989 50.698 32.4363 51.4611 33.207 51.4611H38.7494C38.7946 51.4611 38.8391 51.472 38.8792 51.4928C38.9192 51.5137 38.9537 51.5438 38.9797 51.5808C39.0057 51.6177 39.0224 51.6604 39.0285 51.7051C39.0346 51.7499 39.0299 51.7954 39.0147 51.8379Z" fill="#F7B735"/>
<path d="M48.4041 45.2368H45.158C45.1281 45.3336 45.0854 45.4259 45.0311 45.5114L36.4743 58.9521L35.1904 62.5464C35.0135 63.0428 35.3814 63.5657 35.9092 63.5657H38.3468C38.4751 63.5657 38.6013 63.5333 38.7138 63.4715C38.8263 63.4098 38.9214 63.3207 38.9903 63.2125L49.3443 46.9492C49.8166 46.2073 49.2836 45.2368 48.404 45.2368H48.4041Z" fill="#F5A503"/>
<path d="M75.3037 18.3989H6.30852C5.03584 18.3989 4.00024 19.4345 4.00024 20.7072V26.5688C4.00024 27.8414 5.03584 28.877 6.30852 28.877H75.3037C76.577 28.877 77.612 27.8414 77.612 26.5688V20.7072C77.612 19.4345 76.5764 18.3989 75.3037 18.3989Z" fill="#5F6C75"/>
<path d="M75.3037 18.3989H71.8611V21.0239C71.8611 23.773 69.6326 26.0015 66.8835 26.0015H4.00024V26.5688C4.00024 27.8414 5.03584 28.877 6.30852 28.877H75.3037C76.577 28.877 77.612 27.8414 77.612 26.5688V20.7072C77.612 19.4345 76.5764 18.3989 75.3037 18.3989Z" fill="#4E5A61"/>
<path d="M75.6639 67.8208H5.94837C4.8741 67.8208 4.00024 68.6947 4.00024 69.7691V72.1902C4.00024 73.2646 4.8741 74.1383 5.94837 74.1383H75.6639C76.7382 74.1383 77.612 73.2646 77.612 72.1902V69.7691C77.612 68.6947 76.7382 67.8209 75.6639 67.8209V67.8208Z" fill="#5F6C75"/>
<path d="M75.6639 67.8208H71.8611V69.3146C71.8611 70.3892 70.9872 71.263 69.913 71.263H4.00024V72.1902C4.00024 73.2646 4.8741 74.1383 5.94837 74.1383H75.6639C76.7382 74.1383 77.612 73.2646 77.612 72.1902V69.7691C77.612 68.6947 76.7382 67.8209 75.6639 67.8209V67.8208Z" fill="#4E5A61"/>
<path d="M17.7941 33.4695H16.4367V32.112C16.4367 31.5162 15.9544 31.0337 15.3584 31.0337C15.0725 31.0337 14.7982 31.1473 14.596 31.3495C14.3938 31.5517 14.2801 31.826 14.2801 32.112V33.4695H12.9228C12.3274 33.4695 11.8445 33.9519 11.8445 34.5478C11.8445 35.1437 12.3274 35.6261 12.9228 35.6261H14.2801V36.9835C14.2801 37.2694 14.3938 37.5437 14.596 37.7459C14.7982 37.9482 15.0725 38.0618 15.3584 38.0618C15.6444 38.0618 15.9187 37.9482 16.1209 37.7459C16.3231 37.5437 16.4367 37.2694 16.4367 36.9835V35.6261H17.7941C18.39 35.6261 18.8724 35.1436 18.8724 34.5478C18.8724 33.952 18.39 33.4695 17.7941 33.4695Z" fill="#81B8FD"/>
<path d="M68.6895 35.6258H63.8183C63.2223 35.6258 62.74 35.1433 62.74 34.5475C62.74 33.9517 63.2223 33.4692 63.8183 33.4692H68.6896C69.285 33.4692 69.7679 33.9516 69.7679 34.5475C69.7679 35.1435 69.2848 35.6258 68.6895 35.6258Z" fill="#F2385A"/>
<path d="M68.6897 33.4692H67.252V35.6258H68.6897C68.9757 35.6258 69.2499 35.5122 69.4522 35.31C69.6544 35.1078 69.768 34.8335 69.768 34.5475C69.768 34.2616 69.6544 33.9873 69.4522 33.7851C69.2499 33.5828 68.9757 33.4692 68.6897 33.4692Z" fill="#B52A44"/>
<path d="M35.3702 23.6384C35.3702 23.9243 35.2566 24.1986 35.0544 24.4008C34.8522 24.6031 34.5779 24.7167 34.2919 24.7167C34.0059 24.7167 33.7317 24.6031 33.5294 24.4008C33.3272 24.1986 33.2136 23.9243 33.2136 23.6384C33.2136 23.3524 33.3272 23.0781 33.5294 22.8759C33.7317 22.6737 34.0059 22.5601 34.2919 22.5601C34.8879 22.5601 35.3702 23.0424 35.3702 23.6384ZM39.7132 23.6384C39.7132 24.2336 39.2302 24.7167 38.6349 24.7167C38.3489 24.7167 38.0746 24.6031 37.8724 24.4008C37.6702 24.1986 37.5566 23.9243 37.5566 23.6384C37.5566 23.3524 37.6702 23.0781 37.8724 22.8759C38.0746 22.6737 38.3489 22.5601 38.6349 22.5601C38.9209 22.5601 39.1951 22.6737 39.3974 22.8759C39.5996 23.0781 39.7132 23.3524 39.7132 23.6384ZM44.0557 23.6384C44.0557 24.2336 43.5726 24.7167 42.9774 24.7167C42.6914 24.7167 42.4172 24.6031 42.2149 24.4008C42.0127 24.1986 41.8991 23.9243 41.8991 23.6384C41.8991 23.3524 42.0127 23.0781 42.2149 22.8759C42.4172 22.6737 42.6914 22.5601 42.9774 22.5601C43.2634 22.5601 43.5377 22.6737 43.7399 22.8759C43.9421 23.0781 44.0557 23.3524 44.0557 23.6384ZM48.3987 23.6384C48.3987 23.9243 48.2851 24.1986 48.0828 24.4008C47.8806 24.6031 47.6063 24.7167 47.3204 24.7167C47.0344 24.7167 46.7601 24.6031 46.5579 24.4008C46.3557 24.1986 46.2421 23.9243 46.2421 23.6384C46.2421 23.0424 46.7244 22.5601 47.3204 22.5601C47.6063 22.5601 47.8806 22.6737 48.0828 22.8759C48.2851 23.0781 48.3987 23.3524 48.3987 23.6384Z" fill="#DADEE4"/>
</svg>
