<svg width="24" height="24" viewBox="0 0 24 24" fill="none" xmlns="http://www.w3.org/2000/svg">
<g clip-path="url(#clip0_656_4711)">
<path d="M18.0319 0H5.96812C2.67202 0 0 2.67202 0 5.96812V18.0319C0 21.328 2.67202 24 5.96812 24H18.0319C21.328 24 24 21.328 24 18.0319V5.96812C24 2.67202 21.328 0 18.0319 0Z" fill="url(#paint0_linear_656_4711)"/>
<path d="M12.4898 12.3183C12.3553 12.1839 12.173 12.1084 11.9828 12.1084C11.7927 12.1084 11.6104 12.1839 11.4759 12.3183L5.7051 18.0886C5.57065 18.223 5.49512 18.4054 5.49512 18.5955C5.49512 18.7857 5.57065 18.968 5.7051 19.1025C5.83956 19.237 6.02191 19.3125 6.21206 19.3125C6.4022 19.3125 6.58456 19.237 6.71901 19.1025L11.9826 13.8389L17.2462 19.1025C17.3807 19.237 17.563 19.3125 17.7532 19.3125C17.9433 19.3125 18.1257 19.237 18.2601 19.1025C18.3946 18.968 18.4701 18.7857 18.4701 18.5955C18.4701 18.4054 18.3946 18.223 18.2601 18.0886L12.4898 12.3183Z" fill="white"/>
<path d="M6.24711 11.8916C6.34125 11.8917 6.43449 11.8732 6.52146 11.8372C6.60843 11.8012 6.6874 11.7483 6.75383 11.6816L12.0174 6.41797L17.281 11.6816C17.4155 11.816 17.5978 11.8915 17.788 11.8915C17.9781 11.8915 18.1605 11.816 18.2949 11.6816C18.4294 11.5471 18.5049 11.3648 18.5049 11.1746C18.5049 10.9845 18.4294 10.8021 18.2949 10.6677L12.5241 4.89734C12.3897 4.76298 12.2075 4.6875 12.0174 4.6875C11.8274 4.6875 11.6451 4.76298 11.5107 4.89734L5.73992 10.6677C5.63976 10.768 5.57158 10.8957 5.54399 11.0348C5.5164 11.1739 5.53064 11.318 5.58491 11.4489C5.63918 11.5799 5.73105 11.6918 5.84892 11.7706C5.96678 11.8494 6.10534 11.8915 6.24711 11.8916Z" fill="white"/>
</g>
<defs>
<linearGradient id="paint0_linear_656_4711" x1="1.74797" y1="1.74797" x2="21.9998" y2="21.9998" gradientUnits="userSpaceOnUse">
<stop stop-color="#78EC0E"/>
<stop offset="0.5" stop-color="#20D43A"/>
<stop offset="1" stop-color="#099924"/>
</linearGradient>
<clipPath id="clip0_656_4711">
<rect width="24" height="24" fill="white"/>
</clipPath>
</defs>
</svg>
