<svg width="70" height="70" viewBox="0 0 70 70" fill="none" xmlns="http://www.w3.org/2000/svg">
<rect width="70" height="70" rx="35" fill="white"/>
<g clip-path="url(#clip0_1092_359)">
<path fill-rule="evenodd" clip-rule="evenodd" d="M40.0005 15.8617C39.6774 15.8617 25.6216 16.0463 25.6216 15.2758V10.5862C25.6216 10.2627 25.8841 10.0002 26.2075 10.0002H40.0005C40.324 10.0002 40.5865 10.2627 40.5865 10.5862V15.2758C40.5865 15.5998 40.3234 15.8617 40.0005 15.8617Z" fill="#C8D4ED"/>
<path fill-rule="evenodd" clip-rule="evenodd" d="M45.1493 59.9997H21.0572C19.9229 59.9997 19 59.0766 19 57.9422V16.7474C19 15.613 19.9229 14.6902 21.0572 14.6902H45.1493C46.2837 14.6902 47.2071 15.613 47.2071 16.7474C47.2071 30.657 47.2066 44.0332 47.2066 57.9428C47.2066 59.0772 46.2837 60 45.1493 60V59.9997Z" fill="#D6E3FF"/>
<path fill-rule="evenodd" clip-rule="evenodd" d="M38.1009 40.827H23.77C23.4466 40.827 23.1841 40.5642 23.1841 40.2411V35.1838C23.1841 34.8604 23.4466 34.5979 23.77 34.5979H37.8856C38.5697 34.5979 38.6467 35.5196 38.1173 35.7282L38.2386 39.6686C38.8691 39.7996 38.8222 40.8273 38.1006 40.8273L38.1009 40.827Z" fill="#9CC735"/>
<path fill-rule="evenodd" clip-rule="evenodd" d="M42.4371 48.6435H23.7705C23.4471 48.6435 23.1846 48.3807 23.1846 48.0576V42.9998C23.1846 42.6763 23.4471 42.4138 23.7705 42.4138H39.6246C39.9624 42.4138 40.1522 42.6385 40.1941 42.8914H42.5762V44.7467C42.8162 44.7983 43.023 44.9864 43.023 45.3104V48.0573C43.023 48.3813 42.7608 48.6435 42.4371 48.6435Z" fill="#9CC735"/>
<path fill-rule="evenodd" clip-rule="evenodd" d="M42.4371 56.4594H23.7705C23.4471 56.4594 23.1846 56.1966 23.1846 55.8734V50.8162C23.1846 50.4927 23.4471 50.2302 23.7705 50.2302H42.4371C42.7605 50.2302 43.023 50.493 43.023 50.8162V55.8734C43.0233 56.1969 42.7611 56.4594 42.4374 56.4594H42.4371Z" fill="#9CC735"/>
<path fill-rule="evenodd" clip-rule="evenodd" d="M29.7777 31.2739C29.2193 31.2739 28.9764 30.5599 29.4235 30.221L34.9029 26.0696L29.7437 25.3577C29.2283 25.2871 29.0558 24.6244 29.47 24.3103L36.0762 19.3046C36.6888 18.8406 37.3963 19.7746 36.784 20.2389L31.3049 24.3906L36.4638 25.1025C36.9792 25.1731 37.1517 25.8358 36.7378 26.1499L30.131 31.1553C30.0252 31.2352 29.901 31.2739 29.7777 31.2739Z" fill="#FFB800"/>
<path fill-rule="evenodd" clip-rule="evenodd" d="M46.621 46.9151C41.3438 46.9151 37.0503 42.6216 37.0503 37.3443C37.0503 32.0671 41.3438 27.7742 46.621 27.7742C51.8983 27.7742 56.1918 32.0676 56.1918 37.3449C56.1918 42.6222 51.8986 46.9151 46.621 46.9151Z" fill="#FFD08C"/>
<path fill-rule="evenodd" clip-rule="evenodd" d="M46.6212 39.8152C46.5246 39.8152 46.4285 39.7903 46.342 39.7408C42.8979 37.7664 42.8715 32.7669 46.342 30.7686C46.5146 30.6689 46.7273 30.6689 46.9004 30.7686C50.3625 32.7602 50.3528 37.7579 46.9004 39.7408C46.8143 39.7903 46.7179 39.8152 46.6212 39.8152Z" fill="#25A753"/>
<path fill-rule="evenodd" clip-rule="evenodd" d="M46.621 39.8153C46.3116 39.8153 46.0605 39.564 46.0605 39.2549V35.2547C46.0605 34.5167 47.1817 34.5167 47.1817 35.2547V39.2546C47.1817 39.5645 46.931 39.8156 46.6213 39.8156L46.621 39.8153Z" fill="#9CC735"/>
<path fill-rule="evenodd" clip-rule="evenodd" d="M45.8299 44.0178C42.212 44.0178 39.7314 40.4037 40.9821 37.0413C41.2854 36.2257 44.559 36.4044 46.2779 38.4727C46.5588 38.8108 47.182 39.7627 47.182 40.1655V43.3891C47.182 44.028 46.3517 44.0178 45.8299 44.0178Z" fill="#21964B"/>
<path fill-rule="evenodd" clip-rule="evenodd" d="M47.413 44.0178C46.8912 44.0178 46.0603 44.0281 46.0603 43.3891C46.0603 42.9353 46.0167 40.1819 46.0961 39.9695C47.4232 36.4105 51.9083 36.0968 52.2604 37.041C53.5114 40.3982 51.0344 44.0178 47.413 44.0178Z" fill="#21964B"/>
<path fill-rule="evenodd" clip-rule="evenodd" d="M46.6211 42.3379C46.249 42.3379 43.7526 40.8598 43.6524 40.8056C43.0041 40.4541 43.5364 39.4682 44.1865 39.8201L46.6214 41.1396L49.0557 39.8201C49.7046 39.4682 50.239 40.4538 49.5904 40.8056C49.4881 40.861 46.9955 42.3379 46.6211 42.3379Z" fill="#9CC735"/>
</g>
<defs>
<clipPath id="clip0_1092_359">
<rect width="50" height="50" fill="white" transform="translate(10 10)"/>
</clipPath>
</defs>
</svg>
