<svg width="1700" height="799" viewBox="0 0 1700 799" fill="none" xmlns="http://www.w3.org/2000/svg">
<mask id="mask0_600_834" style="mask-type:luminance" maskUnits="userSpaceOnUse" x="0" y="-100" width="1709" height="900">
<path d="M1709 -100H0V800H1709V-100Z" fill="white"/>
</mask>
<g mask="url(#mask0_600_834)">
<path d="M1701 0H0V800H1701V0Z" fill="url(#paint0_linear_600_834)"/>
<path style="mix-blend-mode:color-dodge" opacity="0.6" d="M1309.27 422.22C1309.27 523.36 1216.49 605.36 1102.05 605.36C987.611 605.36 894.823 523.36 894.823 422.22C894.823 321.08 987.589 239.08 1102.05 239.08C1216.51 239.08 1309.27 321.08 1309.27 422.22Z" fill="url(#paint1_linear_600_834)"/>
<g style="mix-blend-mode:screen" opacity="0.3">
<path d="M858.014 288.84C805.612 288.84 762.94 285.67 716.84 268.23C716.541 265.35 716.615 262.86 716.786 259.97C740.937 258.83 763.228 253.72 785.648 252.56C785.542 244.27 778.663 240.34 770.075 239.29C780.062 239.42 790.188 239.57 800.057 239.07C795.86 221.3 808.56 220.16 824.069 221.1C826.931 207.71 849.501 212.43 862.233 212.45C879.921 212.46 890.378 215.75 901.636 219.3C915.661 223.72 932.216 229.61 946.764 233.11C961.547 236.66 999.263 231.05 1006.61 243.42C989.617 256.28 963.651 246.19 948.879 257.28C959.016 270.72 981.735 266.76 995.311 270.82C972.923 286.71 903.847 267.7 893.614 288.52C880.402 291.51 860.321 294.9 848.422 286.6L858.025 288.85L858.014 288.84Z" fill="white"/>
</g>
<g style="mix-blend-mode:screen" opacity="0.3">
<path d="M1035.06 379.75C1061.21 379.75 1085.33 382.23 1110.88 383.58C1113.71 404.41 1193.12 396.4 1211.72 395.52C1212.32 392.86 1212.33 389.8 1211.72 387.15C1186.41 380.48 1152.9 393.69 1154.59 358.69C1145.02 355.08 1134.84 357.72 1124.48 356.6C1113.94 355.46 1106.01 351.65 1096.26 351.52C1086.93 370.62 1028.11 356.46 1031.53 379.45C1035.47 381.01 1040.21 382.19 1044.56 381.54L1035.04 379.76L1035.06 379.75Z" fill="white"/>
</g>
<g style="mix-blend-mode:screen" opacity="0.3">
<path d="M1404.21 190.35C1394.33 190.35 1373.56 193.05 1368.65 183.36C1370.44 181.76 1418.48 177.5 1398.91 171.04C1400.26 168.67 1401.55 166.62 1402.21 165.19C1415.7 165.42 1429.4 165.71 1442.85 165.11C1440.79 163.07 1437.02 161.09 1434.24 160.47C1439.11 160.11 1444.18 160.37 1449.06 160.09C1447.7 148.38 1474.33 153.53 1482.42 152.99C1480.63 152.46 1476.84 150.09 1474.93 149.45C1481.91 147.95 1489.16 147.99 1496.22 148.35C1497.16 154.26 1507.66 152.77 1513.35 154.39C1511.8 157.2 1514.08 158.01 1510.31 160.53C1516.8 162.59 1550.54 157.34 1547.64 169.11C1531.63 172.34 1532.65 171.83 1544.82 179.32C1536.96 182.94 1510.63 177.1 1510.11 189.17C1500.32 189.67 1490.24 189 1480.43 189.47C1479.89 197.62 1413.89 195.54 1404.18 190.32L1404.21 190.35Z" fill="white"/>
</g>
<g style="mix-blend-mode:screen" opacity="0.3">
<path d="M1476.2 569.21C1463.06 562.37 1435.22 559.04 1417.43 558.4C1409.27 558.11 1372.56 561.54 1368.14 557.64C1359.21 549.75 1397.13 551.2 1402.66 550.84C1417.91 549.84 1432.62 549.02 1448.18 548.51C1448.83 542.83 1440.53 543.02 1434.15 540.81C1463.95 535.87 1504.21 536.73 1534.92 538.05C1527.72 541.4 1511.27 540.42 1507.19 547.62C1523.39 553.86 1544.98 550.02 1562.68 555.43C1560.64 556.03 1559.72 556.99 1556.55 557.48C1556.55 557.54 1556.14 560.48 1556.41 560.33C1567.14 563.08 1605 567.25 1608.56 571.19C1572.38 572.82 1536.87 572.34 1502.23 573.48C1492.21 573.81 1473.53 577.36 1463.12 574.62C1441.73 569 1474.15 570.59 1477.84 567.05L1476.2 569.21Z" fill="white"/>
</g>
<path d="M1325.18 48.7199C1326.35 48.6599 1327.54 48.8899 1328.66 49.2499C1329.78 49.6099 1330.86 50.1199 1331.87 50.7199C1332.86 51.3199 1333.8 52.0099 1334.68 52.7499C1335.55 53.5099 1336.35 54.2799 1337.11 55.1899L1335.74 55.1099C1336.94 54.0399 1338.17 52.9999 1339.43 51.9999C1340.07 51.5099 1340.7 51.0099 1341.37 50.5399C1342.02 50.0599 1342.7 49.5999 1343.4 49.1599C1342.94 49.8199 1342.44 50.4399 1341.93 51.0599C1341.43 51.6799 1340.89 52.2699 1340.37 52.8699C1339.3 54.0599 1338.19 55.2 1337.05 56.32L1336.36 56.9899L1335.68 56.2499C1335 55.4999 1334.21 54.7199 1333.41 53.9999C1332.62 53.2799 1331.79 52.5799 1330.94 51.9299C1330.08 51.2799 1329.19 50.6599 1328.23 50.1199C1327.28 49.5799 1326.28 49.1099 1325.18 48.7299V48.7199Z" fill="#0A1E00"/>
<path d="M1355.07 28.77C1356.2 29.05 1357.26 29.6 1358.21 30.26C1359.17 30.92 1360.02 31.71 1360.78 32.56C1361.54 33.41 1362.21 34.33 1362.81 35.29C1363.4 36.26 1363.92 37.22 1364.35 38.31L1363.08 37.85C1364.56 37.16 1366.07 36.52 1367.6 35.92C1368.36 35.63 1369.13 35.33 1369.91 35.07C1370.69 34.8 1371.48 34.55 1372.29 34.33C1371.64 34.83 1370.97 35.29 1370.29 35.73C1369.6 36.18 1368.91 36.59 1368.21 37.02C1366.82 37.85 1365.38 38.63 1363.94 39.37L1363.08 39.81L1362.66 38.91C1362.24 38 1361.75 37.04 1361.23 36.13C1360.71 35.22 1360.15 34.32 1359.54 33.46C1358.93 32.6 1358.28 31.76 1357.54 30.97C1356.82 30.18 1356.01 29.46 1355.09 28.78L1355.07 28.77Z" fill="#0A1E00"/>
<path d="M796.928 254.01C798.647 253.93 800.399 254.26 802.044 254.79C803.7 255.32 805.27 256.07 806.744 256.94C808.218 257.82 809.585 258.83 810.877 259.92C812.159 261.03 813.345 262.17 814.456 263.51L812.448 263.4C814.199 261.82 815.994 260.3 817.863 258.83C818.803 258.1 819.732 257.37 820.715 256.67C821.676 255.97 822.67 255.29 823.695 254.64C823.011 255.61 822.285 256.53 821.537 257.44C820.8 258.35 820.01 259.22 819.241 260.11C817.671 261.85 816.036 263.54 814.349 265.18L813.345 266.16L812.351 265.07C811.337 263.96 810.183 262.83 809.03 261.77C807.865 260.7 806.648 259.69 805.387 258.72C804.127 257.76 802.813 256.86 801.414 256.05C800.015 255.25 798.541 254.57 796.928 254.01Z" fill="#0A1E00"/>
<path d="M848.486 227.09C849.575 227.04 850.665 227.25 851.712 227.58C852.758 227.92 853.752 228.39 854.67 228.94C855.6 229.49 856.465 230.13 857.277 230.82C858.088 231.52 858.825 232.24 859.53 233.08L858.27 233.01C859.37 232.02 860.502 231.05 861.677 230.13C862.275 229.68 862.863 229.21 863.472 228.77C864.08 228.33 864.7 227.9 865.352 227.5C864.924 228.11 864.465 228.69 863.984 229.26C863.514 229.84 863.023 230.39 862.532 230.94C861.538 232.04 860.513 233.1 859.455 234.13L858.825 234.75L858.195 234.06C857.554 233.36 856.828 232.64 856.102 231.98C855.365 231.3 854.606 230.66 853.805 230.06C853.015 229.46 852.182 228.88 851.306 228.38C850.43 227.88 849.49 227.44 848.475 227.09H848.486Z" fill="#0A1E00"/>
<path d="M872.935 245C873.982 245.26 874.965 245.77 875.851 246.38C876.738 246.99 877.539 247.72 878.233 248.51C878.938 249.3 879.558 250.15 880.113 251.03C880.658 251.92 881.139 252.82 881.534 253.82L880.348 253.4C881.726 252.76 883.115 252.17 884.525 251.61C885.23 251.34 885.945 251.07 886.672 250.82C887.387 250.57 888.124 250.33 888.872 250.13C888.263 250.59 887.644 251.02 887.003 251.42C886.372 251.84 885.721 252.22 885.08 252.61C883.777 253.38 882.463 254.1 881.117 254.79L880.316 255.2L879.932 254.37C879.547 253.53 879.088 252.64 878.607 251.8C878.127 250.95 877.603 250.12 877.037 249.32C876.471 248.52 875.873 247.74 875.189 247.01C874.506 246.28 873.758 245.61 872.914 244.98L872.935 245Z" fill="#0A1E00"/>
<path d="M846.66 668.75C846.66 669.95 846.254 670.93 845.763 670.93H839.749C839.247 670.93 838.852 669.95 838.852 668.75L840.358 529.26C840.358 528.06 840.764 527.08 841.255 527.08H844.257C844.759 527.08 845.154 528.06 845.154 529.26L846.66 668.75Z" fill="#7DAF28"/>
<path d="M848.657 531.15C847.632 534.03 844.32 535.58 841.244 534.63C838.168 533.67 836.502 530.56 837.527 527.69C838.552 524.81 841.874 523.26 844.94 524.21C848.016 525.17 849.682 528.28 848.657 531.15Z" fill="#7DAF28"/>
<path d="M805.516 533.03C822.574 529.75 837.164 530.56 837.164 530.56C837.164 530.56 824.101 536.68 807.043 539.97C789.985 543.25 775.822 544.36 775.395 542.44C774.978 540.52 788.458 536.31 805.516 533.03Z" fill="#7DAF28"/>
<path d="M870.874 553.38C859.306 541.19 847.108 533.66 847.108 533.66C847.108 533.66 853.656 545.89 865.224 558.08C876.792 570.27 887.43 579.1 888.99 577.8C890.549 576.5 882.442 565.57 870.874 553.38Z" fill="#7DAF28"/>
<path d="M858.538 497.15C853.037 512.62 845.004 524.04 845.004 524.04C845.004 524.04 845.87 510.38 851.37 494.91C856.861 479.44 862.917 467.4 864.904 468.01C866.89 468.63 864.038 481.67 858.548 497.14L858.538 497.15Z" fill="#7DAF28"/>
<path d="M701.598 669.09C701.598 670.1 701.256 670.93 700.84 670.93H695.777C695.36 670.93 695.019 670.11 695.019 669.09L696.279 551.59C696.279 550.58 696.621 549.75 697.037 549.75H699.569C699.985 549.75 700.327 550.57 700.327 551.59L701.588 669.09H701.598Z" fill="#7DAF28"/>
<path d="M703.285 553.2C702.42 555.62 699.632 556.93 697.036 556.13C694.451 555.32 693.042 552.7 693.907 550.28C694.772 547.86 697.57 546.54 700.155 547.35C702.751 548.16 704.15 550.77 703.285 553.2Z" fill="#7DAF28"/>
<path d="M666.948 554.78C681.314 552.02 693.597 552.7 693.597 552.7C693.597 552.7 682.596 557.86 668.219 560.62C653.852 563.38 641.921 564.32 641.558 562.7C641.206 561.09 652.56 557.54 666.937 554.78H666.948Z" fill="#7DAF28"/>
<path d="M721.999 571.91C712.258 561.64 701.982 555.3 701.982 555.3C701.982 555.3 707.494 565.6 717.235 575.87C726.977 586.14 735.938 593.57 737.252 592.48C738.566 591.39 731.74 582.18 721.999 571.91Z" fill="#7DAF28"/>
<path d="M711.606 524.56C706.981 537.59 700.209 547.21 700.209 547.21C700.209 547.21 700.935 535.71 705.571 522.68C710.196 509.65 715.302 499.51 716.968 500.03C718.634 500.55 716.242 511.53 711.617 524.57L711.606 524.56Z" fill="#7DAF28"/>
<path d="M1623.29 669.14C1623.29 670.13 1622.96 670.93 1622.56 670.93H1617.62C1617.22 670.93 1616.88 670.13 1616.88 669.14L1618.12 554.53C1618.12 553.54 1618.45 552.74 1618.86 552.74H1621.33C1621.73 552.74 1622.06 553.54 1622.06 554.53L1623.29 669.14Z" fill="#7DAF28"/>
<path d="M1624.94 556.09C1624.09 558.45 1621.37 559.73 1618.85 558.95C1616.32 558.16 1614.96 555.61 1615.8 553.24C1616.64 550.88 1619.36 549.6 1621.89 550.38C1624.43 551.17 1625.79 553.72 1624.95 556.09H1624.94Z" fill="#7DAF28"/>
<path d="M1589.49 557.63C1603.5 554.93 1615.49 555.6 1615.49 555.6C1615.49 555.6 1604.75 560.63 1590.74 563.33C1576.72 566.03 1565.08 566.93 1564.74 565.36C1564.4 563.79 1575.47 560.33 1589.49 557.63Z" fill="#7DAF28"/>
<path d="M1643.19 574.35C1633.69 564.33 1623.67 558.15 1623.67 558.15C1623.67 558.15 1629.05 568.2 1638.55 578.22C1648.04 588.23 1656.79 595.49 1658.07 594.42C1659.35 593.35 1652.69 584.37 1643.19 574.36V574.35Z" fill="#7DAF28"/>
<path d="M1633.05 528.15C1628.53 540.86 1621.93 550.25 1621.93 550.25C1621.93 550.25 1622.64 539.03 1627.15 526.32C1631.66 513.61 1636.65 503.71 1638.27 504.22C1639.9 504.73 1637.56 515.44 1633.05 528.15Z" fill="#7DAF28"/>
<path d="M1552.06 673L1528.74 534.85L1505.43 673H1552.06Z" fill="url(#paint2_linear_600_834)"/>
<path d="M1626.11 667.22L1602.8 529.07L1579.48 667.22H1626.11Z" fill="url(#paint3_linear_600_834)"/>
<path d="M1012.42 673L996.155 576.61L979.876 673H1012.42Z" fill="url(#paint4_linear_600_834)"/>
<path d="M1590.06 673L1573.8 576.61L1557.52 673H1590.06Z" fill="url(#paint5_linear_600_834)"/>
<path d="M1053.72 673L1030.39 534.85L1007.07 673H1053.72Z" fill="url(#paint6_linear_600_834)"/>
<path d="M1415.66 521.74V380.3L1359.95 328.15V202.41L1289.34 136.31V225.76L1312.59 247.52V673H1458.28V561.65L1415.66 521.74ZM1397.51 571.18H1366.63V398.96H1397.51V571.18Z" fill="url(#paint7_linear_600_834)"/>
<path d="M1374.69 398.95H1366.63V571.17H1374.69V398.95Z" fill="url(#paint8_linear_600_834)"/>
<path d="M1423.71 521.74V380.3L1368.01 328.15V209.95L1359.95 202.41V328.15L1415.66 380.3V521.74L1458.28 561.65V673H1466.34V561.65L1423.71 521.74Z" fill="url(#paint9_linear_600_834)"/>
<path d="M1325.94 204.31H1323.54V384.58H1325.94V204.31Z" fill="#81C756"/>
<path d="M1348.4 333.5H1346V431.15H1348.4V333.5Z" fill="#81C756"/>
<path d="M1420.61 549.819H1418.2V648.969H1420.61V549.819Z" fill="#81C756"/>
<path d="M1440.81 673V483.91L1500.48 463.58L1513.54 470.64V673H1440.81Z" fill="url(#paint10_linear_600_834)"/>
<path d="M1513.54 673V470.64L1500.48 463.58V673H1513.54Z" fill="url(#paint11_linear_600_834)"/>
<path d="M1455.91 494.24H1453.5V561.84H1455.91V494.24Z" fill="#81C756"/>
<path d="M1470.35 531.79H1467.95V648.96H1470.35V531.79Z" fill="#81C756"/>
<path d="M1486.39 489.729H1483.99V561.84H1486.39V489.729Z" fill="#81C756"/>
<path d="M1171.94 673V260.67L1157.84 247.47V177.7L1138.03 159.16H1210.88V98.4998L1228.33 82.1598V14.2798L1237.06 22.4498V246.84L1288.41 294.93V412.78L1332.89 454.42V673H1171.94Z" fill="url(#paint12_linear_600_834)"/>
<path d="M1294.46 412.78V294.93L1243.1 246.84V28.0296L1234.37 19.8496V19.9296L1237.06 22.4496V246.84L1288.41 294.93V412.78L1332.89 454.42V673H1338.94V454.42L1294.46 412.78Z" fill="#6CB73D"/>
<path d="M1226.45 103.66H1224.05V618.92H1226.45V103.66Z" fill="#5A9933"/>
<path d="M1208.81 347.02H1206.4V659.48H1208.81V347.02Z" fill="#81C756"/>
<path d="M1252.13 289.93H1249.73V498.74H1252.13V289.93Z" fill="#81C756"/>
<path d="M1266.57 386.08H1264.17V656.48H1266.57V386.08Z" fill="#5A9933"/>
<path d="M1150.66 390.96L1177.55 381.4L1191.11 389.03V673H1028.43V650.44L1150.66 487.66V390.96Z" fill="url(#paint13_linear_600_834)"/>
<path d="M1191.11 673V389.03L1177.55 381.4V673H1191.11Z" fill="url(#paint14_linear_600_834)"/>
<path d="M1163.88 407.11H1161.48V647.47H1163.88V407.11Z" fill="#81C756"/>
<path d="M1151.04 558.83H1148.64V654.97H1151.04V558.83Z" fill="#81C756"/>
<path style="mix-blend-mode:screen" opacity="0.25" d="M1709 447.72H0V678.48H1709V447.72Z" fill="url(#paint15_linear_600_834)"/>
<path d="M1709 650.22H0V800H1709V650.22Z" fill="url(#paint16_linear_600_834)"/>
<path d="M1708.39 798.9H0.598145V800H1708.39V798.9Z" fill="white"/>
<path d="M1708.39 763.13H0.598145V764.23H1708.39V763.13Z" fill="white"/>
<path d="M1708.39 737.42H0.598145V738.52H1708.39V737.42Z" fill="white"/>
<path d="M1708.39 718.41H0.598145V719.51H1708.39V718.41Z" fill="white"/>
<path d="M1708.39 703.88H0.598145V704.99H1708.39V703.88Z" fill="white"/>
<path d="M1708.39 692.7H0.598145V693.8H1708.39V692.7Z" fill="white"/>
<path d="M1708.39 683.76H0.598145V684.86H1708.39V683.76Z" fill="white"/>
<path d="M1708.39 674.81H0.598145V675.91H1708.39V674.81Z" fill="white"/>
<path d="M1708.39 668.11H0.598145V669.21H1708.39V668.11Z" fill="white"/>
<path d="M1708.39 662.52H0.598145V663.62H1708.39V662.52Z" fill="white"/>
<path d="M1708.39 658.05H0.598145V659.15H1708.39V658.05Z" fill="white"/>
<path d="M1708.39 653.58H0.598145V654.68H1708.39V653.58Z" fill="white"/>
<path d="M1708.39 650.22H0.598145V651.32H1708.39V650.22Z" fill="white"/>
<path d="M855.92 650H853.079V799.45H855.92V650Z" fill="white"/>
<path d="M442.909 799.78L440.645 799.11L733.823 650.44L736.088 651.11L442.909 799.78Z" fill="white"/>
<path d="M1266.08 799.78L972.912 651.11L975.177 650.44L1268.34 799.11L1266.08 799.78Z" fill="white"/>
<path d="M29.8436 799.91L28.2842 798.99L611.78 650.32L613.339 651.24L29.8436 799.91Z" fill="white"/>
<path d="M1679.15 799.91L1095.65 651.24L1097.22 650.32L1680.72 798.99L1679.15 799.91Z" fill="white"/>
<path d="M1.1963 739.21L0 738.21L490.515 650.28L491.711 651.28L1.1963 739.21Z" fill="white"/>
<path d="M1707.79 739.21L1228.66 652.39L1229.87 651.4L1709 738.21L1707.79 739.21Z" fill="white"/>
<path d="M1.01429 694.53L0.181152 693.47L370.212 650.25L371.034 651.3L1.01429 694.53Z" fill="white"/>
<path d="M1707.99 694.53L1337.97 651.3L1338.79 650.25L1708.81 693.47L1707.99 694.53Z" fill="white"/>
<path d="M1182.06 800L888.68 650H820.32L526.938 800H1182.06Z" fill="url(#paint17_linear_600_834)" fill-opacity="0.4"/>
<path d="M871.59 800H837.41L853.08 650H855.921L871.59 800Z" fill="#C9EC70"/>
<path d="M1354.86 580.47L1348.94 550L1359.79 575.85L1378.54 582.32L1380.83 581.5L1380.52 578.82C1377.12 577.95 1374.04 575.16 1372.74 571.29C1370.83 565.71 1373.3 559.98 1378.22 558.51C1383.14 557.03 1388.7 560.38 1390.59 565.97C1391.83 569.6 1391.22 573.29 1389.27 575.83L1390.88 577.89L1391.37 577.71L1399.05 576.98L1412.89 585.62L1429.82 580.58L1412.12 591.39L1399.62 586.88L1401.93 611.74L1411.34 644.18L1407.14 683L1403.04 648.83L1393.33 629.43L1379.52 646.97L1371.63 682.08L1369.65 646.06L1381.49 611.87L1376.55 594.33L1354.84 580.47H1354.86Z" fill="black"/>
<path d="M1286.38 594.23L1305.14 573.74L1285.04 585.86L1269.42 578.76L1262.74 579.65L1262.09 577.57C1264.37 575.72 1265.84 572.82 1265.84 569.55C1265.84 564.01 1261.63 559.52 1256.46 559.52C1251.29 559.52 1247.09 564.01 1247.09 569.55C1247.09 574.36 1250.25 578.37 1254.46 579.35L1254.4 580.75L1244.39 582.09L1231.01 607.17L1246.2 622.22L1256.02 651.48L1258.7 679.9L1263.16 652.74L1261.39 627.65L1272.09 649.4L1275.67 678.65L1280.58 647.29L1271.2 613.44L1273.9 592.53L1286.39 594.21L1286.38 594.23ZM1241.28 604.27L1247.75 592.98L1248.42 616.8L1241.26 604.27H1241.28Z" fill="black"/>
<g opacity="0.5">
<path d="M1354.86 785.52L1348.94 816L1359.79 790.14L1378.54 783.67L1380.83 784.5L1380.52 787.17C1377.12 788.04 1374.04 790.83 1372.74 794.7C1370.83 800.28 1373.3 806.01 1378.22 807.48C1383.14 808.97 1388.7 805.61 1390.59 800.03C1391.83 796.39 1391.22 792.69 1389.27 790.16L1390.88 788.1L1391.37 788.27L1399.05 789.01L1412.89 780.37L1429.82 785.42L1412.12 774.61L1399.62 779.11L1401.93 754.26L1411.34 721.82L1407.14 683L1403.04 717.17L1393.33 736.56L1379.52 719.02L1371.63 683.91L1369.65 719.94L1381.49 754.12L1376.55 771.66L1354.84 785.52H1354.86Z" fill="black"/>
<path d="M1273.89 773.44L1271.19 752.53L1280.57 718.68L1275.66 687.32L1272.08 716.58L1261.38 738.33L1263.15 713.24L1258.69 686.07L1256 714.49L1246.19 743.76L1231 758.81L1244.38 783.89L1254.39 785.22L1254.45 786.63C1250.24 787.61 1247.08 791.62 1247.08 796.43C1247.08 801.97 1251.28 806.46 1256.45 806.46C1261.62 806.46 1265.83 801.98 1265.83 796.43C1265.83 793.15 1264.36 790.25 1262.08 788.41L1262.73 786.33L1269.41 787.23L1285.03 780.12L1305.13 792.24L1286.37 771.76L1273.87 773.43L1273.89 773.44ZM1248.43 749.2L1247.76 773.01L1241.29 761.73L1248.44 749.2H1248.43Z" fill="black"/>
</g>
</g>
<defs>
<linearGradient id="paint0_linear_600_834" x1="850.5" y1="800" x2="850.5" y2="0" gradientUnits="userSpaceOnUse">
<stop stop-color="#E7FF85"/>
<stop offset="0.93" stop-color="#F5FBF0"/>
</linearGradient>
<linearGradient id="paint1_linear_600_834" x1="1102.04" y1="605.36" x2="1102.04" y2="239.08" gradientUnits="userSpaceOnUse">
<stop offset="0.05" stop-color="#231F20"/>
<stop offset="0.25" stop-color="#434142"/>
<stop offset="0.69" stop-color="#969798"/>
<stop offset="0.88" stop-color="#BCBEC0"/>
</linearGradient>
<linearGradient id="paint2_linear_600_834" x1="1528.74" y1="673" x2="1528.74" y2="534.85" gradientUnits="userSpaceOnUse">
<stop stop-color="#4B802B"/>
<stop offset="1" stop-color="#6DBA3E"/>
</linearGradient>
<linearGradient id="paint3_linear_600_834" x1="1602.8" y1="667.22" x2="1602.8" y2="529.07" gradientUnits="userSpaceOnUse">
<stop stop-color="#4B802B"/>
<stop offset="1" stop-color="#6DBA3E"/>
</linearGradient>
<linearGradient id="paint4_linear_600_834" x1="996.155" y1="-100" x2="996.155" y2="576.61" gradientUnits="userSpaceOnUse">
<stop stop-color="#4B802B"/>
<stop offset="1" stop-color="#6DBA3E"/>
</linearGradient>
<linearGradient id="paint5_linear_600_834" x1="1573.8" y1="-100" x2="1573.8" y2="576.61" gradientUnits="userSpaceOnUse">
<stop stop-color="#4B802B"/>
<stop offset="1" stop-color="#6DBA3E"/>
</linearGradient>
<linearGradient id="paint6_linear_600_834" x1="1030.39" y1="-100.001" x2="1030.39" y2="-100.001" gradientUnits="userSpaceOnUse">
<stop stop-color="#4B802B"/>
<stop offset="1" stop-color="#6DBA3E"/>
</linearGradient>
<linearGradient id="paint7_linear_600_834" x1="1373.81" y1="673" x2="1373.81" y2="136.31" gradientUnits="userSpaceOnUse">
<stop stop-color="#253F15"/>
<stop offset="1" stop-color="#4D832C"/>
</linearGradient>
<linearGradient id="paint8_linear_600_834" x1="1370.66" y1="571.18" x2="1370.66" y2="398.95" gradientUnits="userSpaceOnUse">
<stop stop-color="#579431"/>
<stop offset="1" stop-color="#72C042"/>
</linearGradient>
<linearGradient id="paint9_linear_600_834" x1="1413.15" y1="673" x2="1413.15" y2="202.41" gradientUnits="userSpaceOnUse">
<stop stop-color="#579431"/>
<stop offset="1" stop-color="#72C042"/>
</linearGradient>
<linearGradient id="paint10_linear_600_834" x1="1477.18" y1="673" x2="1477.18" y2="463.58" gradientUnits="userSpaceOnUse">
<stop stop-color="#4D832C"/>
<stop offset="1" stop-color="#31531C"/>
</linearGradient>
<linearGradient id="paint11_linear_600_834" x1="1507.02" y1="673" x2="1507.02" y2="463.58" gradientUnits="userSpaceOnUse">
<stop stop-color="#579431"/>
<stop offset="1" stop-color="#72C042"/>
</linearGradient>
<linearGradient id="paint12_linear_600_834" x1="1235.47" y1="673" x2="1235.47" y2="14.2798" gradientUnits="userSpaceOnUse">
<stop stop-color="#4D832C"/>
<stop offset="1" stop-color="#396120"/>
</linearGradient>
<linearGradient id="paint13_linear_600_834" x1="1109.77" y1="-100" x2="1109.77" y2="381.4" gradientUnits="userSpaceOnUse">
<stop stop-color="#4D832C"/>
<stop offset="1" stop-color="#31531C"/>
</linearGradient>
<linearGradient id="paint14_linear_600_834" x1="1184.33" y1="673" x2="1184.33" y2="381.4" gradientUnits="userSpaceOnUse">
<stop stop-color="#579431"/>
<stop offset="1" stop-color="#72C042"/>
</linearGradient>
<linearGradient id="paint15_linear_600_834" x1="854.5" y1="678.47" x2="854.5" y2="447.72" gradientUnits="userSpaceOnUse">
<stop offset="0.12" stop-color="#C8FF73"/>
<stop offset="0.18" stop-color="#BFF46E"/>
<stop offset="0.29" stop-color="#A9D761"/>
<stop offset="0.44" stop-color="#85A94C"/>
<stop offset="0.61" stop-color="#52692F"/>
<stop offset="0.8" stop-color="#13180B"/>
<stop offset="0.86"/>
</linearGradient>
<linearGradient id="paint16_linear_600_834" x1="854.5" y1="800" x2="854.5" y2="650.22" gradientUnits="userSpaceOnUse">
<stop stop-color="#144B28"/>
<stop offset="0.21" stop-color="#174E27"/>
<stop offset="0.37" stop-color="#215826"/>
<stop offset="0.52" stop-color="#326924"/>
<stop offset="0.66" stop-color="#498022"/>
<stop offset="0.8" stop-color="#689F1F"/>
<stop offset="0.93" stop-color="#8DC41B"/>
<stop offset="1" stop-color="#A5DC19"/>
</linearGradient>
<linearGradient id="paint17_linear_600_834" x1="854.5" y1="-100" x2="854.5" y2="650" gradientUnits="userSpaceOnUse">
<stop stop-color="#144B28"/>
<stop offset="0.21" stop-color="#174E27"/>
<stop offset="0.37" stop-color="#215826"/>
<stop offset="0.52" stop-color="#326924"/>
<stop offset="0.66" stop-color="#498022"/>
<stop offset="0.8" stop-color="#689F1F"/>
<stop offset="0.93" stop-color="#8DC41B"/>
<stop offset="1" stop-color="#A5DC19"/>
</linearGradient>
</defs>
</svg>
