<svg width="60" height="60" viewBox="0 0 60 60" fill="none" xmlns="http://www.w3.org/2000/svg">
<g clip-path="url(#clip0_541_15282)">
<path d="M30 55.8467C44.2748 55.8467 55.8467 44.2748 55.8467 30C55.8467 15.7253 44.2748 4.15332 30 4.15332C15.7253 4.15332 4.15332 15.7253 4.15332 30C4.15332 44.2748 15.7253 55.8467 30 55.8467Z" fill="url(#paint0_linear_541_15282)"/>
<path d="M55.8467 30C55.8467 29.9999 55.8467 29.9997 55.8467 29.9996C55.8465 15.728 44.2796 4.15838 30.0091 4.15344C30.006 4.15344 30.003 4.15332 29.9999 4.15332C29.9984 4.15332 29.9969 4.15344 29.9953 4.15344C29.1949 4.15356 28.4034 4.19203 27.6216 4.26332C27.7354 4.27367 27.8486 4.28661 27.9621 4.2985C20.5107 5.35885 14.3323 12.1667 11.9131 21.3709C7.12532 23.5636 4.15332 26.6193 4.15332 30C4.15332 33.3807 7.12532 36.4365 11.9132 38.6293C14.3324 47.8334 20.5109 54.6413 27.9623 55.7017C27.8487 55.7136 27.7356 55.7265 27.6217 55.7369C28.4051 55.8084 29.198 55.8469 30 55.8469C44.2746 55.8469 55.8465 44.2752 55.8467 30.0006C55.8467 30.0004 55.8467 30.0001 55.8467 30ZM11.1663 25.0724C11.0046 26.2004 10.8971 27.3543 10.8481 28.5294H7.47873C8.07603 27.3513 9.35156 26.153 11.1663 25.0724ZM7.47873 31.4706H10.8481C10.8971 32.6458 11.0047 33.7997 11.1663 34.9277C9.35156 33.8471 8.07603 32.6487 7.47873 31.4706ZM51.0472 28.5294H49.1519C49.103 27.3543 48.9953 26.2004 48.8338 25.0724C49.6103 25.5347 50.287 26.0186 50.8552 26.5133C50.9447 27.1777 51.0091 27.85 51.0472 28.5294ZM49.1519 31.4706H51.0472C51.0091 32.15 50.9447 32.8224 50.8551 33.4869C50.287 33.9814 49.6101 34.4654 48.8337 34.9278C48.9954 33.7997 49.103 32.6458 49.1519 31.4706ZM49.924 22.306C49.3463 21.9796 48.7338 21.667 48.0869 21.3707C47.1449 17.7869 45.6327 14.5665 43.6977 11.9069C46.5307 14.7957 48.6907 18.3463 49.924 22.306ZM33.3136 20.9641C33.5625 23.364 33.712 25.9177 33.753 28.5294H26.2472C26.2881 25.9176 26.4376 23.364 26.6866 20.9641C27.7768 20.8954 28.8823 20.86 30.0001 20.86C31.1179 20.86 32.2233 20.8954 33.3136 20.9641ZM33.1532 7.53426C36.1466 8.37744 38.9306 10.4149 41.203 13.4765C42.6181 15.3832 43.7611 17.5863 44.6086 20.0331C42.0219 19.2031 39.0964 18.5874 35.9481 18.2409C35.3226 13.6913 34.3454 9.94967 33.1532 7.53426ZM33.7528 31.4706C33.7119 34.0825 33.5625 36.636 33.3134 39.0359C32.2232 39.1046 31.1178 39.14 29.9999 39.14C28.882 39.14 27.7766 39.1046 26.6864 39.0359C26.4374 36.636 26.2879 34.0824 26.247 31.4706H33.7528ZM35.9483 41.7592C39.0964 41.4126 42.0219 40.7969 44.6087 39.967C43.7612 42.4138 42.6183 44.6169 41.2031 46.5236C39.9391 48.2266 38.5167 49.6129 36.988 50.6527C35.7241 51.5125 34.0781 50.3209 34.5044 48.8529C35.0891 46.8393 35.5797 44.4394 35.9483 41.7592ZM39.4903 38.2465C38.4486 38.4524 37.3831 38.6223 36.2983 38.7573C36.5196 36.465 36.6561 34.0177 36.6944 31.4706H46.2078C46.1304 33.1872 45.9176 34.87 45.5703 36.5049C43.7546 37.2218 41.7173 37.8063 39.4903 38.2465ZM36.6945 28.5294C36.6563 25.9823 36.5197 23.5351 36.2984 21.2427C37.3831 21.3778 38.4486 21.5477 39.4904 21.7536C41.7173 22.1938 43.7546 22.7784 45.5705 23.4952C45.9178 25.1301 46.1306 26.8129 46.208 28.5294H36.6945ZM27.7523 14.1865C28.2013 12.1734 28.7428 10.4374 29.3184 9.16626C29.5804 8.58756 29.813 8.1825 30 7.9032C30.187 8.1825 30.4196 8.58744 30.6817 9.16626C31.2573 10.4374 31.7988 12.1734 32.2478 14.1865C32.5125 15.3733 32.7447 16.6509 32.9431 17.9973C31.977 17.9461 30.9953 17.9189 30 17.9189C29.0046 17.9189 28.023 17.9461 27.057 17.9973C27.2553 16.6507 27.4876 15.3732 27.7523 14.1865ZM18.797 13.4765C21.0693 10.4149 23.8533 8.37744 26.8467 7.53426C25.6546 9.94956 24.6773 13.6913 24.0517 18.2409C20.9034 18.5874 17.978 19.2032 15.3912 20.0332C16.2388 17.5863 17.3818 15.3833 18.797 13.4765ZM14.4297 23.4952C16.2456 22.7784 18.2829 22.1938 20.5098 21.7536C21.5514 21.5477 22.617 21.3778 23.7018 21.2427C23.4805 23.5351 23.3439 25.9824 23.3057 28.5294H13.7923C13.8696 26.8129 14.0823 25.13 14.4297 23.4952ZM13.7921 31.4706H23.3056C23.3438 34.0178 23.4804 36.465 23.7017 38.7573C22.617 38.6223 21.5514 38.4524 20.5097 38.2465C18.2827 37.8063 16.2454 37.2217 14.4296 36.5049C14.0824 34.87 13.8696 33.1872 13.7921 31.4706ZM18.797 46.5236C17.3818 44.6169 16.2389 42.4138 15.3913 39.967C17.978 40.797 20.9036 41.4126 24.0518 41.7593C24.4204 44.4396 24.911 46.8394 25.4957 48.853C25.9219 50.321 24.2759 51.5127 23.012 50.6529C21.4834 49.6129 20.0611 48.2266 18.797 46.5236ZM27.057 42.0029C28.0231 42.054 29.0047 42.0813 30 42.0813C30.9954 42.0813 31.977 42.0541 32.9431 42.0029C32.7447 43.3493 32.5125 44.6269 32.2478 45.8137C31.7987 47.8267 31.2572 49.5627 30.6817 50.8339C30.6791 50.8397 30.6764 50.8454 30.6738 50.8512C30.4116 51.4281 29.5885 51.4281 29.3263 50.8512C29.3237 50.8454 29.3211 50.8397 29.3184 50.8339C28.7428 49.5627 28.2012 47.8267 27.7523 45.8137C27.4876 44.6269 27.2553 43.3493 27.057 42.0029ZM43.6976 48.0932C45.6326 45.4336 47.1449 42.2132 48.0869 38.6293C48.7338 38.3331 49.3463 38.0205 49.924 37.694C48.6907 41.6538 46.5307 45.2044 43.6976 48.0932Z" fill="url(#paint1_linear_541_15282)"/>
<path d="M57.6178 51.7227H2.38224C1.06659 51.7227 0 50.6561 0 49.3404V37.2057C0 35.8901 1.06659 34.8235 2.38224 34.8235H57.6177C58.9333 34.8235 59.9999 35.8901 59.9999 37.2057V49.3404C60 50.6561 58.9334 51.7227 57.6178 51.7227Z" fill="url(#paint2_linear_541_15282)"/>
<path d="M57.6175 34.8235H52.8608C54.1765 34.8235 55.2432 35.8901 55.2432 37.2057V49.3404C55.2432 50.6561 54.1766 51.7227 52.8608 51.7227H57.6175C58.9332 51.7227 59.9998 50.6561 59.9998 49.3404V37.2057C59.9998 35.8901 58.9332 34.8235 57.6175 34.8235Z" fill="url(#paint3_linear_541_15282)"/>
<path d="M9.7892 46.8509C9.7892 47.1992 9.26673 47.5475 8.65708 47.5475C8.00402 47.5475 7.53955 47.1992 7.53955 46.8509V37.3733C7.53955 36.967 8.00402 36.6912 8.65708 36.6912C9.26673 36.6912 9.7892 36.967 9.7892 37.3733V41.655C10.0505 41.0888 10.689 40.5519 11.589 40.5519C12.9097 40.5519 14.0563 41.9308 14.0563 43.5997V46.8509C14.0563 47.3153 13.4903 47.5475 12.9243 47.5475C12.4018 47.5475 11.8067 47.3153 11.8067 46.8509V43.5997C11.8067 43.0482 11.3278 42.5112 10.7617 42.5112C10.2827 42.5112 9.7892 42.9176 9.7892 43.5997V46.8509Z" fill="#7A6D79"/>
<path d="M17.5109 45.095C17.5109 45.5158 17.6559 45.6611 18.1059 45.6611H18.7302C19.3832 45.6611 19.6881 46.14 19.6881 46.6045C19.6881 47.0835 19.3832 47.548 18.7302 47.548H18.1059C16.2628 47.548 15.2612 46.8078 15.2612 45.0951V38.3172C15.2612 37.9108 15.8564 37.635 16.3788 37.635C16.9449 37.635 17.5109 37.9108 17.5109 38.3172V40.6394H19.1509C19.5137 40.6394 19.7024 41.0458 19.7024 41.4376C19.7024 41.8441 19.5137 42.2358 19.1509 42.2358H17.5109V45.095Z" fill="#7A6D79"/>
<path d="M22.7941 45.095C22.7941 45.5158 22.9391 45.6611 23.3891 45.6611H24.0134C24.6664 45.6611 24.9713 46.14 24.9713 46.6045C24.9713 47.0835 24.6664 47.548 24.0134 47.548H23.3891C21.546 47.548 20.5444 46.8078 20.5444 45.0951V38.3172C20.5444 37.9108 21.1396 37.635 21.662 37.635C22.2281 37.635 22.7941 37.9108 22.7941 38.3172V40.6394H24.4341C24.7969 40.6394 24.9857 41.0458 24.9857 41.4376C24.9857 41.8441 24.797 42.2358 24.4341 42.2358H22.7941V45.095Z" fill="#7A6D79"/>
<path d="M27.9752 41.3213V41.6552C28.309 41.0889 29.0201 40.552 29.9345 40.552C31.4004 40.552 32.5325 41.9309 32.5325 43.5999V44.6159C32.5325 46.2268 31.3568 47.6928 30.0071 47.6928C29.1507 47.6928 28.396 47.1267 28.1203 46.5318V50.0005C28.1203 50.3488 27.6123 50.6972 26.9737 50.6972C26.3351 50.6972 25.8706 50.3488 25.8706 50.0005V41.3213C25.8706 40.9148 26.3495 40.6391 26.9446 40.6391C27.5398 40.6392 27.9752 40.9148 27.9752 41.3213ZM30.2828 43.6C30.2828 43.0485 29.7894 42.5114 29.1798 42.5114C28.6573 42.5114 28.1203 42.9179 28.1203 43.6V44.8046C28.1203 45.0514 28.5701 45.7335 29.2088 45.7335C29.7748 45.7335 30.2828 45.182 30.2828 44.6159V43.6Z" fill="#7A6D79"/>
<path d="M36.8434 45.5447C36.8434 44.5432 33.4472 45.2254 33.4472 42.7872C33.4472 41.7131 34.115 40.552 36.1758 40.552C37.4385 40.552 38.6432 40.9874 38.6432 41.5971C38.6432 41.8873 38.3528 42.6566 37.8305 42.6566C37.4386 42.6566 36.9887 42.2212 36.205 42.2212C35.6244 42.2212 35.3777 42.468 35.3777 42.6855C35.3777 43.4984 38.803 42.9034 38.803 45.4577C38.803 46.822 37.8159 47.6928 36.0017 47.6928C34.4778 47.6928 33.2441 47.0687 33.2441 46.3575C33.2441 46.0092 33.5344 45.3706 33.9844 45.3706C34.4487 45.3706 34.7826 46.0236 35.9437 46.0236C36.7128 46.0236 36.8434 45.7479 36.8434 45.5447Z" fill="#7A6D79"/>
<path d="M41.9091 42.5405C41.9091 43.1356 41.4012 43.6579 40.806 43.6579C40.1674 43.6579 39.6885 43.1356 39.6885 42.5405C39.6885 41.9309 40.1674 41.4229 40.806 41.4229C41.4011 41.4229 41.9091 41.9309 41.9091 42.5405ZM41.9091 46.5172C41.9091 47.1123 41.4012 47.6347 40.806 47.6347C40.1674 47.6347 39.6885 47.1123 39.6885 46.5172C39.6885 45.9077 40.1674 45.3997 40.806 45.3997C41.4011 45.3996 41.9091 45.9077 41.9091 46.5172Z" fill="#7A6D79"/>
<path d="M49.311 37.1122C49.311 37.1993 49.2965 37.3009 49.2529 37.3881L44.1441 47.8525C44.0425 48.0702 43.7667 48.2154 43.4909 48.2154C42.9975 48.2154 42.6782 47.8089 42.6782 47.4461C42.6782 47.359 42.7072 47.2574 42.7507 47.1703L47.845 36.706C47.9612 36.4591 48.1934 36.343 48.4547 36.343C48.8609 36.343 49.311 36.6478 49.311 37.1122Z" fill="#7A6D79"/>
<path d="M52.8814 37.1122C52.8814 37.1993 52.8668 37.3009 52.8232 37.3881L47.7144 47.8525C47.6128 48.0702 47.337 48.2154 47.0612 48.2154C46.5678 48.2154 46.2485 47.8089 46.2485 47.4461C46.2485 47.359 46.2775 47.2574 46.321 47.1703L51.4154 36.706C51.5315 36.4591 51.7637 36.343 52.025 36.343C52.4314 36.343 52.8814 36.6478 52.8814 37.1122Z" fill="#7A6D79"/>
</g>
<defs>
<linearGradient id="paint0_linear_541_15282" x1="4.15332" y1="30" x2="55.8467" y2="30" gradientUnits="userSpaceOnUse">
<stop stop-color="#99E6FC"/>
<stop offset="0.4296" stop-color="#01D0FB"/>
<stop offset="0.5256" stop-color="#08C6F7"/>
<stop offset="0.692" stop-color="#1DA9EB"/>
<stop offset="0.9074" stop-color="#3F7CD9"/>
<stop offset="1" stop-color="#4F66D0"/>
</linearGradient>
<linearGradient id="paint1_linear_541_15282" x1="-16.9412" y1="30" x2="54.8483" y2="30" gradientUnits="userSpaceOnUse">
<stop stop-color="#99E6FC"/>
<stop offset="0.4296" stop-color="#01D0FB"/>
<stop offset="0.5256" stop-color="#08C6F7"/>
<stop offset="0.692" stop-color="#1DA9EB"/>
<stop offset="0.9074" stop-color="#3F7CD9"/>
<stop offset="1" stop-color="#4F66D0"/>
</linearGradient>
<linearGradient id="paint2_linear_541_15282" x1="0" y1="43.2731" x2="69.4082" y2="43.2731" gradientUnits="userSpaceOnUse">
<stop stop-color="#F8F6F7"/>
<stop offset="0.1788" stop-color="#F8F6F7"/>
<stop offset="1" stop-color="#E7E6F5"/>
</linearGradient>
<linearGradient id="paint3_linear_541_15282" x1="26.5881" y1="43.2731" x2="52.3539" y2="43.2731" gradientUnits="userSpaceOnUse">
<stop stop-color="#F8F6F7"/>
<stop offset="1" stop-color="#D1CEEB"/>
</linearGradient>
<clipPath id="clip0_541_15282">
<rect width="60" height="60" fill="white"/>
</clipPath>
</defs>
</svg>
