<svg width="673" height="77" viewBox="0 0 673 77" fill="none" xmlns="http://www.w3.org/2000/svg">
<path fill-rule="evenodd" clip-rule="evenodd" d="M672.997 0.000221479V10.3291C670.694 9.73911 669.295 9.52949 667.137 11.5454C665.748 12.8419 663.323 11.8559 661.608 11.8209C663.045 18.0742 663.944 17.7163 666.814 17.7163C666.013 15.2135 662.732 16.2697 661.608 16.254C662.692 19.4495 663.411 19.453 664.56 19.5439C665.885 19.6505 665.016 18.359 666.979 20.0448C666.44 19.7446 665.256 20.3011 664.158 20.6504C662.997 21.0169 661.215 21.8457 660.343 25.2771L663.706 27.5493C662.524 28.3293 661.526 28.8358 660.756 29.1495C658.456 30.0852 655.714 31.0153 653.592 31.0153C654.612 24.6151 653.718 29.7462 654.778 26.1234L654.925 26.0781C654.975 26.0763 654.899 26.4324 654.857 26.5109C655.504 19.3464 655.826 23.6277 653.25 23.6277C653.767 24.865 653.759 27.1953 654.009 29.4657L648.106 29.5391C649.335 24.1934 647.515 26.1166 650.666 24.8707C651.266 24.6333 652.49 25.2076 652.628 25.1131L647.281 25.0679C645.081 25.3716 642.727 25.1064 640.51 25.1064C640.734 23.0452 642.52 25.3398 644.154 25.0297C648.684 24.171 647.059 26.4257 648.162 27.15C648.389 27.2983 648.41 27.7346 648.524 28.0679C647.507 31.0228 649.09 29.1324 646.818 30.5918L636.711 30.9201C635.423 25.204 636.878 29.4682 635.083 26.9094L630.386 26.5986C631.48 32.1257 632.407 31.4156 633.06 33.2743C631.217 31.8116 627.941 33.3773 625.745 33.4924C626.213 32.7385 625.493 33.2743 626.956 32.0387L630.804 31.1835C629.915 24.4572 632.347 27.1119 628.616 27.3283C629.859 22.4731 629.509 26.2688 629.119 22.3594C625.702 26.1102 628.562 23.7083 627.611 25.9897C627.445 26.3858 628.471 27.3475 626.654 27.6633C624.702 28.002 626.227 28.7281 626.148 24.4818C626.145 24.3107 626.057 23.5742 626.155 23.4416C626.259 23.3001 626.203 22.6841 626.166 22.3423L622.156 22.077C622.068 22.0318 621.949 21.892 621.868 21.8485C621.794 21.8086 621.674 21.6724 621.605 21.6443C620.713 21.2707 618.354 23.9236 616.737 22.7369C615.595 21.8992 615.935 20.6565 615.466 23.6355C616.223 25.6129 614.27 24.3685 617.056 26.1487C619.243 27.5432 618.353 22.5725 620.707 29.676C619.123 28.5189 618.338 29.4457 618.044 29.512C617.98 29.5259 617.858 29.5188 617.79 29.5259L616.24 29.8068C616.167 29.8539 615.859 30.1576 615.92 30.2011C615.98 30.2432 615.696 30.4367 615.603 30.6652C617.911 33.3356 620.944 34.189 622.906 30.8417C622.737 32.2031 623.617 37.0721 618.15 34.8994L617.728 38.2973C616.242 35.0146 615.814 36.8454 613.933 38.4196C615.086 44.1321 612.436 41.9362 615.653 43.4687C617.15 44.181 616.082 44.5649 616.878 41.0393C616.557 42.4706 616.494 39.8248 616.668 46.0186C619.873 42.8998 618.911 44.9488 619.803 45.8286C621.621 47.6227 624.551 44.0533 625.127 45.127L625.748 47.7204C625.84 47.4955 625.982 47.3347 626.054 47.2424L636.276 46.3137C637.299 46.0239 635.176 47.0588 636.838 45.984C641.539 42.9454 648.79 46.4781 651.287 42.1651C653.857 37.727 650.434 43.1878 652.37 37.9241L656.543 39.1301L653.392 40.5631C655.144 39.6904 657.304 42.1041 659.177 43.263L661.823 45.3188C661.918 45.5231 662.14 46.2649 662.177 46.5127L662.162 47.8548C662.15 48.0833 661.765 49.3905 661.673 49.7623C663.96 48.9263 662.505 49.9213 664.26 50.4934C663.457 60.2686 664.352 49.7305 663.372 55.5792L652.562 55.6666C650.019 55.0017 643.57 54.1202 641.774 57.4015C642.142 55.9913 643.42 56.0751 644.265 56.131L646.446 57.5516C646.618 57.815 646.725 58.1694 646.863 58.4171C647.006 58.677 647.002 59.2409 647.274 59.4484C647.552 59.6634 647.552 60.1728 647.683 60.5706C643.494 60.5706 639.535 60.3681 635.452 59.1062C639.579 59.2285 643.883 60.9877 647.797 57.6628L659.918 58.5633C659.054 61.5302 658.952 61.8913 656.666 62.5216C651.409 63.9717 653.521 57.111 654.845 65.1812L652.825 63.5389C653.844 63.9492 654.654 64.1132 655.718 64.602C655.771 64.6265 657.279 65.5113 657.35 65.5812C658.647 66.8552 657.348 64.068 658.4 67.2531C650.907 65.4849 654.382 66.9319 649.277 67.0819C652.297 69.1848 656.697 66.169 659.918 66.8777C658.735 71.5796 660.039 68.7923 658.334 70.6285C658.084 70.8973 657.898 71.0573 657.76 71.1351L657.406 71.0028C657.32 70.6413 657.473 69.8557 657.387 69.4507C662.44 69.707 657.738 70.852 662.607 67.8102C663.287 67.386 664.683 67.1069 665.665 66.2343C666.96 65.0821 665.97 64.3563 667.939 63.5397C667.796 64.2063 668.405 66.5066 666.93 64.4875C665.321 62.2813 666.6 68.2537 666.431 62.3986C666.424 62.1526 666.42 61.6079 666.438 61.3463L666.779 59.3514C668.039 55.0388 671.715 57.1766 673 59.093V76.8394L662.88 76.8419C662.395 76.9449 661.878 76.895 661.21 76.8729C656.47 76.7167 651.605 77.2486 646.871 76.8458L0.0028026 76.9987V66.6699C2.30641 67.2598 3.70474 67.4694 5.863 65.4536C7.25198 64.1571 9.67709 65.1431 11.3923 65.178C9.95471 58.9247 9.05598 59.2826 6.18641 59.2826C6.98652 61.7854 10.2678 60.7292 11.3923 60.7449C10.3085 57.5495 9.58924 57.5459 8.44001 57.4553C7.11505 57.3488 7.98433 58.6403 6.02143 56.9545C6.56029 57.2547 7.74411 56.6982 8.8424 56.3489C10.0028 55.9824 11.7849 55.1536 12.6565 51.7222L9.29387 49.45C10.4763 48.67 11.4736 48.1635 12.2443 47.8498C14.5442 46.914 17.2861 45.984 19.4084 45.984C18.3877 52.3841 19.2822 47.2527 18.2223 50.8759L18.075 50.9212C18.0246 50.923 18.1012 50.5668 18.1428 50.4884C17.496 57.6528 17.1735 53.3716 19.7496 53.3716C19.2327 52.1343 19.2406 49.804 18.9911 47.5336L24.8933 47.4602C23.6646 52.8059 25.4845 50.8827 22.3336 52.1286C21.7335 52.366 20.5095 51.7917 20.3716 51.8862L25.7187 51.9314C27.919 51.6277 30.2726 51.8929 32.4897 51.8929C32.2654 53.9541 30.4796 51.6594 28.8453 51.9696C24.3152 52.8283 25.9407 50.5736 24.8372 49.8489C24.6101 49.7006 24.5895 49.2643 24.4755 48.931C25.4929 45.9762 23.9091 47.8666 26.1814 46.4071L36.2884 46.0788C37.5765 51.7949 36.122 47.5307 37.9167 50.0895L42.6132 50.4004C41.5191 44.8729 40.5928 45.5833 39.9399 43.7247C41.7822 45.1873 45.0588 43.6216 47.254 43.5065C46.7867 44.2608 47.5069 43.7247 46.0431 44.9602L42.1953 45.8154C43.0843 52.5417 40.6526 49.887 44.383 49.6707C43.1408 54.5262 43.4904 50.7301 43.8806 54.6396C47.2975 50.8887 44.4377 53.2903 45.3888 51.0092C45.5547 50.6132 44.5289 49.6514 46.3455 49.3356C48.2976 48.9969 46.7726 48.2708 46.8512 52.5171C46.8544 52.6882 46.9428 53.4247 46.8442 53.5573C46.7409 53.6988 46.7969 54.3148 46.8339 54.6567L50.8438 54.9219C50.9321 54.9672 51.0504 55.1069 51.1312 55.1504C51.2051 55.1903 51.3252 55.3265 51.3948 55.3546C52.287 55.7282 54.6453 53.0753 56.2628 54.262C57.4045 55.0998 57.0643 56.3424 57.5335 53.3634C56.7769 51.386 58.73 52.6305 55.9431 50.8502C53.7568 49.4557 54.6467 54.4264 52.2926 47.3229C53.8765 48.48 54.6616 47.5532 54.9551 47.4869C55.0192 47.473 55.1416 47.4801 55.2094 47.473L56.7591 47.1921C56.833 47.145 57.14 46.8413 57.0797 46.7978C57.0195 46.7558 57.3031 46.5622 57.3966 46.3337C55.0883 43.6633 52.0557 42.81 50.0932 46.1572C50.2624 44.7959 49.3824 39.9268 54.8495 42.0995L55.2715 38.7016C56.7577 41.9844 57.1854 40.1535 59.0669 38.5793C57.9135 32.8672 60.5639 35.0627 57.3461 33.5302C55.8496 32.818 56.9171 32.434 56.1212 35.9596C56.4423 34.5283 56.5054 37.1741 56.3315 30.9804C53.1264 34.0991 54.0882 32.0501 53.1969 31.1703C51.378 29.3762 48.4481 32.9456 47.8728 31.8719L47.2512 29.2785C47.1596 29.5035 47.018 29.6642 46.9456 29.7566L36.7235 30.6852C35.7005 30.9746 37.8237 29.9398 36.1618 31.0149C31.4611 34.0535 24.21 30.5209 21.7129 34.8338C19.1439 39.2719 22.5659 33.8111 20.6301 39.0748L16.4575 37.8689L19.6084 36.4358C17.8563 37.3085 15.6967 34.8948 13.824 33.7359L11.1778 31.6801C11.0824 31.4758 10.8604 30.734 10.824 30.4863L10.838 29.1441C10.8506 28.9156 11.2357 27.6085 11.3273 27.2367C9.04008 28.0726 10.4954 27.0777 8.74005 26.5055C9.54344 16.7303 8.64798 27.2684 9.62803 21.4197L20.4389 21.3324C22.9818 21.9972 29.4299 22.8788 31.2269 19.5974C30.8582 21.0076 29.58 20.9238 28.735 20.8679L26.5543 19.4473C26.3823 19.1839 26.2758 18.8296 26.1379 18.5818C25.9939 18.3219 25.9986 17.758 25.7266 17.5505C25.4481 17.3356 25.4481 16.8262 25.3177 16.4283C29.5066 16.4283 33.4656 16.6308 37.5489 17.8927C33.4216 17.7705 29.1173 16.0113 25.2036 19.3361L13.0823 18.4357C13.9469 15.4687 14.0488 15.1076 16.3341 14.4774C21.591 13.0272 19.479 19.8879 18.1554 11.8177L20.1758 13.46C19.157 13.0497 18.3461 12.8857 17.2829 12.3973C17.2296 12.3727 15.7214 11.488 15.6509 11.4181C14.353 10.1441 15.6523 12.9313 14.6002 9.74623C22.0938 11.5143 18.6181 10.0674 23.7235 9.91734C20.703 7.8145 16.3038 10.8303 13.0823 10.1216C14.2651 5.4197 12.9612 8.20698 14.6661 6.37078C16.0846 4.84364 15.4564 6.81744 15.6135 7.54892C10.5604 7.29262 15.262 6.14762 10.3926 9.18941C9.71308 9.61362 8.31709 9.89275 7.33564 10.7654C6.04059 11.9175 7.03092 12.6433 5.06148 13.46C5.20449 12.7934 4.59552 10.493 6.07003 12.5121C7.67961 14.7183 6.39999 8.74596 6.56964 14.6011C6.57665 14.847 6.58085 15.3917 6.56263 15.6534L6.22146 17.6482C4.96193 21.9608 1.2857 19.8231 0 17.9066V0.16028L10.1197 0.157778C10.6048 0.0547571 11.1217 0.104664 11.7896 0.127122C16.5304 0.283258 21.3947 -0.248595 26.1285 0.154221L672.997 0.000221479ZM34.7583 2.9447L34.5709 2.92972C34.627 2.94505 34.6887 2.95041 34.7583 2.9447ZM8.86904 0.871086L0.935649 0.235496C4.11742 0.737768 6.08967 3.54036 8.85923 0.879996L8.86904 0.871086Z" fill="#33C481"/>
</svg>
