<svg width="50" height="50" viewBox="0 0 50 50" fill="none" xmlns="http://www.w3.org/2000/svg">
<path d="M50 25C50 11.1929 38.8071 0 25 0C11.1929 0 0 11.1929 0 25C0 38.8071 11.1929 50 25 50C38.8071 50 50 38.8071 50 25Z" fill="url(#paint0_linear_535_15237)"/>
<path d="M25 48.0469C37.7284 48.0469 48.0469 37.7284 48.0469 25C48.0469 12.2716 37.7284 1.95312 25 1.95312C12.2716 1.95312 1.95312 12.2716 1.95312 25C1.95312 37.7284 12.2716 48.0469 25 48.0469Z" fill="url(#paint1_linear_535_15237)"/>
<path d="M25 44.1406C35.5711 44.1406 44.1406 35.5711 44.1406 25C44.1406 14.4289 35.5711 5.85938 25 5.85938C14.4289 5.85938 5.85938 14.4289 5.85938 25C5.85938 35.5711 14.4289 44.1406 25 44.1406Z" fill="url(#paint2_linear_535_15237)"/>
<path d="M25.9766 24.0234C25.9766 23.4841 25.5393 23.0469 25 23.0469C24.4607 23.0469 24.0234 23.4841 24.0234 24.0234V35.7422C24.0234 36.2815 24.4607 36.7188 25 36.7188C25.5393 36.7188 25.9766 36.2815 25.9766 35.7422V24.0234Z" fill="url(#paint3_linear_535_15237)"/>
<path d="M22.0371 32.2867C21.8974 32.8077 22.2065 33.3433 22.7275 33.483C23.2485 33.6227 23.7841 33.3136 23.9238 32.7926L26.2002 24.3024C26.3399 23.7814 26.0308 23.2458 25.5098 23.1061C24.9888 22.9664 24.4532 23.2755 24.3135 23.7965L22.0371 32.2867Z" fill="url(#paint4_linear_535_15237)"/>
<path d="M25 27.9297C26.618 27.9297 27.9297 26.618 27.9297 25C27.9297 23.382 26.618 22.0703 25 22.0703C23.382 22.0703 22.0703 23.382 22.0703 25C22.0703 26.618 23.382 27.9297 25 27.9297Z" fill="url(#paint5_linear_535_15237)"/>
<path d="M25 26.9531C26.0787 26.9531 26.9531 26.0787 26.9531 25C26.9531 23.9213 26.0787 23.0469 25 23.0469C23.9213 23.0469 23.0469 23.9213 23.0469 25C23.0469 26.0787 23.9213 26.9531 25 26.9531Z" fill="url(#paint6_linear_535_15237)"/>
<path d="M40.625 25.9766H42.0898C42.6292 25.9766 43.0664 25.5393 43.0664 25C43.0664 24.4607 42.6292 24.0234 42.0898 24.0234H40.625C40.0857 24.0234 39.6484 24.4607 39.6484 25C39.6484 25.5393 40.0857 25.9766 40.625 25.9766Z" fill="url(#paint7_linear_535_15237)"/>
<path d="M7.91016 25.9766H9.375C9.91434 25.9766 10.3516 25.5393 10.3516 25C10.3516 24.4607 9.91434 24.0234 9.375 24.0234H7.91016C7.37082 24.0234 6.93359 24.4607 6.93359 25C6.93359 25.5393 7.37082 25.9766 7.91016 25.9766Z" fill="url(#paint8_linear_535_15237)"/>
<path d="M39.0205 18.0333L40.2891 17.3009C40.7561 17.0312 40.9162 16.434 40.6465 15.9669C40.3768 15.4998 39.7796 15.3398 39.3125 15.6095L38.0439 16.3419C37.5769 16.6116 37.4169 17.2088 37.6865 17.6759C37.9562 18.143 38.5534 18.303 39.0205 18.0333Z" fill="url(#paint9_linear_535_15237)"/>
<path d="M10.688 34.3912L11.9565 33.6588C12.4236 33.3891 12.5836 32.7919 12.314 32.3248C12.0443 31.8578 11.447 31.6977 10.98 31.9674L9.71143 32.6998C9.24436 32.9695 9.08433 33.5667 9.354 34.0338C9.62367 34.5009 10.2209 34.6609 10.688 34.3912Z" fill="url(#paint10_linear_535_15237)"/>
<path d="M33.6582 11.9559L34.3906 10.6874C34.6603 10.2203 34.5003 9.62306 34.0332 9.35339C33.5661 9.08372 32.9689 9.24375 32.6992 9.71082L31.9668 10.9794C31.6971 11.4464 31.8571 12.0437 32.3242 12.3134C32.7913 12.583 33.3885 12.423 33.6582 11.9559Z" fill="url(#paint11_linear_535_15237)"/>
<path d="M17.3013 40.2885L18.0337 39.0199C18.3034 38.5528 18.1433 37.9556 17.6763 37.6859C17.2092 37.4162 16.612 37.5763 16.3423 38.0433L15.6099 39.3119C15.3402 39.779 15.5002 40.3762 15.9673 40.6459C16.4344 40.9155 17.0316 40.7555 17.3013 40.2885Z" fill="url(#paint12_linear_535_15237)"/>
<path d="M25.9766 9.375V7.91016C25.9766 7.37082 25.5393 6.93359 25 6.93359C24.4607 6.93359 24.0234 7.37082 24.0234 7.91016V9.375C24.0234 9.91434 24.4607 10.3516 25 10.3516C25.5393 10.3516 25.9766 9.91434 25.9766 9.375Z" fill="url(#paint13_linear_535_15237)"/>
<path d="M25.9766 42.0898V40.625C25.9766 40.0857 25.5393 39.6484 25 39.6484C24.4607 39.6484 24.0234 40.0857 24.0234 40.625V42.0898C24.0234 42.6292 24.4607 43.0664 25 43.0664C25.5393 43.0664 25.9766 42.6292 25.9766 42.0898Z" fill="url(#paint14_linear_535_15237)"/>
<path d="M18.0332 10.9799L17.3008 9.7113C17.0311 9.24423 16.4339 9.08421 15.9668 9.35388C15.4997 9.62355 15.3397 10.2208 15.6094 10.6879L16.3418 11.9564C16.6115 12.4235 17.2087 12.5835 17.6758 12.3138C18.1429 12.0442 18.3029 11.4469 18.0332 10.9799Z" fill="url(#paint15_linear_535_15237)"/>
<path d="M34.3911 39.3114L33.6587 38.0428C33.389 37.5758 32.7918 37.4158 32.3247 37.6854C31.8576 37.9551 31.6976 38.5523 31.9673 39.0194L32.6997 40.288C32.9694 40.755 33.5666 40.9151 34.0337 40.6454C34.5008 40.3757 34.6608 39.7785 34.3911 39.3114Z" fill="url(#paint16_linear_535_15237)"/>
<path d="M11.9565 16.3417L10.688 15.6093C10.2209 15.3396 9.62367 15.4996 9.354 15.9667C9.08433 16.4337 9.24436 17.031 9.71143 17.3007L10.98 18.0331C11.447 18.3028 12.0443 18.1427 12.314 17.6757C12.5836 17.2086 12.4236 16.6113 11.9565 16.3417Z" fill="url(#paint17_linear_535_15237)"/>
<path d="M40.2881 32.6986L39.0195 31.9662C38.5525 31.6965 37.9552 31.8565 37.6855 32.3236C37.4159 32.7907 37.5759 33.3879 38.043 33.6576L39.3115 34.39C39.7786 34.6597 40.3758 34.4997 40.6455 34.0326C40.9152 33.5655 40.7552 32.9683 40.2881 32.6986Z" fill="url(#paint18_linear_535_15237)"/>
<defs>
<linearGradient id="paint0_linear_535_15237" x1="7.32227" y1="7.32227" x2="42.6777" y2="42.6777" gradientUnits="userSpaceOnUse">
<stop stop-color="#8D8CF2"/>
<stop offset="1" stop-color="#5654DD"/>
</linearGradient>
<linearGradient id="paint1_linear_535_15237" x1="8.70312" y1="8.70313" x2="41.2969" y2="41.2969" gradientUnits="userSpaceOnUse">
<stop stop-color="#CFCFFA"/>
<stop offset="1" stop-color="#7A7AF0"/>
</linearGradient>
<linearGradient id="paint2_linear_535_15237" x1="11.4658" y1="11.4658" x2="38.5342" y2="38.5342" gradientUnits="userSpaceOnUse">
<stop stop-color="white"/>
<stop offset="1" stop-color="#E3E3FF"/>
</linearGradient>
<linearGradient id="paint3_linear_535_15237" x1="21.3799" y1="26.2627" x2="28.6201" y2="33.5029" gradientUnits="userSpaceOnUse">
<stop stop-color="#FFBDCD"/>
<stop offset="1" stop-color="#FF94AF"/>
</linearGradient>
<linearGradient id="paint4_linear_535_15237" x1="21.8806" y1="26.0495" x2="26.37" y2="30.5389" gradientUnits="userSpaceOnUse">
<stop stop-color="#FF94AE"/>
<stop offset="1" stop-color="#FF3866"/>
</linearGradient>
<linearGradient id="paint5_linear_535_15237" x1="22.9287" y1="22.9287" x2="27.0713" y2="27.0713" gradientUnits="userSpaceOnUse">
<stop stop-color="#8D8CF2"/>
<stop offset="1" stop-color="#6361DD"/>
</linearGradient>
<linearGradient id="paint6_linear_535_15237" x1="23.6191" y1="26.3809" x2="26.3809" y2="23.6191" gradientUnits="userSpaceOnUse">
<stop stop-color="white"/>
<stop offset="1" stop-color="#E3E3FF"/>
</linearGradient>
<linearGradient id="paint7_linear_535_15237" x1="40.3008" y1="23.9434" x2="42.4141" y2="26.0566" gradientUnits="userSpaceOnUse">
<stop stop-color="#8D8CF2"/>
<stop offset="1" stop-color="#6361DD"/>
</linearGradient>
<linearGradient id="paint8_linear_535_15237" x1="7.58594" y1="23.9434" x2="9.69922" y2="26.0566" gradientUnits="userSpaceOnUse">
<stop stop-color="#8D8CF2"/>
<stop offset="1" stop-color="#6361DD"/>
</linearGradient>
<linearGradient id="paint9_linear_535_15237" x1="38.3407" y1="15.9965" x2="39.99" y2="17.6468" gradientUnits="userSpaceOnUse">
<stop stop-color="#8D8CF2"/>
<stop offset="1" stop-color="#6361DD"/>
</linearGradient>
<linearGradient id="paint10_linear_535_15237" x1="10.0094" y1="32.3537" x2="11.6587" y2="34.004" gradientUnits="userSpaceOnUse">
<stop stop-color="#8D8CF2"/>
<stop offset="1" stop-color="#6361DD"/>
</linearGradient>
<linearGradient id="paint11_linear_535_15237" x1="32.353" y1="10.0088" x2="34.0034" y2="11.6581" gradientUnits="userSpaceOnUse">
<stop stop-color="#8D8CF2"/>
<stop offset="1" stop-color="#6361DD"/>
</linearGradient>
<linearGradient id="paint12_linear_535_15237" x1="15.9968" y1="38.3401" x2="17.6472" y2="39.9894" gradientUnits="userSpaceOnUse">
<stop stop-color="#8D8CF2"/>
<stop offset="1" stop-color="#6361DD"/>
</linearGradient>
<linearGradient id="paint13_linear_535_15237" x1="23.9434" y1="7.58594" x2="26.0566" y2="9.69922" gradientUnits="userSpaceOnUse">
<stop stop-color="#8D8CF2"/>
<stop offset="1" stop-color="#6361DD"/>
</linearGradient>
<linearGradient id="paint14_linear_535_15237" x1="23.9434" y1="40.3008" x2="26.0566" y2="42.4141" gradientUnits="userSpaceOnUse">
<stop stop-color="#8D8CF2"/>
<stop offset="1" stop-color="#6361DD"/>
</linearGradient>
<linearGradient id="paint15_linear_535_15237" x1="15.6298" y1="9.64348" x2="18.0125" y2="12.0252" gradientUnits="userSpaceOnUse">
<stop stop-color="#8D8CF2"/>
<stop offset="1" stop-color="#6361DD"/>
</linearGradient>
<linearGradient id="paint16_linear_535_15237" x1="31.987" y1="37.9738" x2="34.3697" y2="40.3555" gradientUnits="userSpaceOnUse">
<stop stop-color="#8D8CF2"/>
<stop offset="1" stop-color="#6361DD"/>
</linearGradient>
<linearGradient id="paint17_linear_535_15237" x1="9.6436" y1="15.6296" x2="12.0253" y2="18.0123" gradientUnits="userSpaceOnUse">
<stop stop-color="#8D8CF2"/>
<stop offset="1" stop-color="#6361DD"/>
</linearGradient>
<linearGradient id="paint18_linear_535_15237" x1="37.9739" y1="31.9859" x2="40.3556" y2="34.3686" gradientUnits="userSpaceOnUse">
<stop stop-color="#8D8CF2"/>
<stop offset="1" stop-color="#6361DD"/>
</linearGradient>
</defs>
</svg>
